<?xml version="1.0" encoding="utf-8"?>
<svg xmlns="http://www.w3.org/2000/svg" xmlns:xlink="http://www.w3.org/1999/xlink" width="600" height="400" viewBox="0 0 2400 1600">
<defs>
  <clipPath id="clip4300">
    <rect x="0" y="0" width="2400" height="1600"/>
  </clipPath>
</defs>
<path clip-path="url(#clip4300)" d="
M0 1600 L2400 1600 L2400 0 L0 0  Z
  " fill="#ffffff" fill-rule="evenodd" fill-opacity="1"/>
<defs>
  <clipPath id="clip4301">
    <rect x="480" y="0" width="1681" height="1600"/>
  </clipPath>
</defs>
<path clip-path="url(#clip4300)" d="
M213.113 1442.73 L2352.76 1442.73 L2352.76 47.2441 L213.113 47.2441  Z
  " fill="#ffffff" fill-rule="evenodd" fill-opacity="1"/>
<defs>
  <clipPath id="clip4302">
    <rect x="213" y="47" width="2141" height="1396"/>
  </clipPath>
</defs>
<polyline clip-path="url(#clip4302)" style="stroke:#000000; stroke-width:2; stroke-opacity:0.1; fill:none" points="
  257.775,1442.73 257.775,47.2441 
  "/>
<polyline clip-path="url(#clip4302)" style="stroke:#000000; stroke-width:2; stroke-opacity:0.1; fill:none" points="
  575.654,1442.73 575.654,47.2441 
  "/>
<polyline clip-path="url(#clip4302)" style="stroke:#000000; stroke-width:2; stroke-opacity:0.1; fill:none" points="
  893.533,1442.73 893.533,47.2441 
  "/>
<polyline clip-path="url(#clip4302)" style="stroke:#000000; stroke-width:2; stroke-opacity:0.1; fill:none" points="
  1211.41,1442.73 1211.41,47.2441 
  "/>
<polyline clip-path="url(#clip4302)" style="stroke:#000000; stroke-width:2; stroke-opacity:0.1; fill:none" points="
  1529.29,1442.73 1529.29,47.2441 
  "/>
<polyline clip-path="url(#clip4302)" style="stroke:#000000; stroke-width:2; stroke-opacity:0.1; fill:none" points="
  1847.17,1442.73 1847.17,47.2441 
  "/>
<polyline clip-path="url(#clip4302)" style="stroke:#000000; stroke-width:2; stroke-opacity:0.1; fill:none" points="
  1847.17,1442.73 1847.17,47.2441 
  "/>
<polyline clip-path="url(#clip4302)" style="stroke:#000000; stroke-width:2; stroke-opacity:0.1; fill:none" points="
  213.113,1306.92 2352.76,1306.92 
  "/>
<polyline clip-path="url(#clip4302)" style="stroke:#000000; stroke-width:2; stroke-opacity:0.1; fill:none" points="
  213.113,1002.96 2352.76,1002.96 
  "/>
<polyline clip-path="url(#clip4302)" style="stroke:#000000; stroke-width:2; stroke-opacity:0.1; fill:none" points="
  213.113,698.996 2352.76,698.996 
  "/>
<polyline clip-path="url(#clip4302)" style="stroke:#000000; stroke-width:2; stroke-opacity:0.1; fill:none" points="
  213.113,395.033 2352.76,395.033 
  "/>
<polyline clip-path="url(#clip4302)" style="stroke:#000000; stroke-width:2; stroke-opacity:0.1; fill:none" points="
  213.113,91.0703 2352.76,91.0703 
  "/>
<polyline clip-path="url(#clip4300)" style="stroke:#000000; stroke-width:4; stroke-opacity:1; fill:none" points="
  213.113,1442.73 2352.76,1442.73 
  "/>
<polyline clip-path="url(#clip4300)" style="stroke:#000000; stroke-width:4; stroke-opacity:1; fill:none" points="
  213.113,1442.73 213.113,47.2441 
  "/>
<polyline clip-path="url(#clip4300)" style="stroke:#000000; stroke-width:4; stroke-opacity:1; fill:none" points="
  257.775,1442.73 257.775,1425.98 
  "/>
<polyline clip-path="url(#clip4300)" style="stroke:#000000; stroke-width:4; stroke-opacity:1; fill:none" points="
  575.654,1442.73 575.654,1425.98 
  "/>
<polyline clip-path="url(#clip4300)" style="stroke:#000000; stroke-width:4; stroke-opacity:1; fill:none" points="
  893.533,1442.73 893.533,1425.98 
  "/>
<polyline clip-path="url(#clip4300)" style="stroke:#000000; stroke-width:4; stroke-opacity:1; fill:none" points="
  1211.41,1442.73 1211.41,1425.98 
  "/>
<polyline clip-path="url(#clip4300)" style="stroke:#000000; stroke-width:4; stroke-opacity:1; fill:none" points="
  1529.29,1442.73 1529.29,1425.98 
  "/>
<polyline clip-path="url(#clip4300)" style="stroke:#000000; stroke-width:4; stroke-opacity:1; fill:none" points="
  1847.17,1442.73 1847.17,1425.98 
  "/>
<polyline clip-path="url(#clip4300)" style="stroke:#000000; stroke-width:4; stroke-opacity:1; fill:none" points="
  1847.17,1442.73 1847.17,1425.98 
  "/>
<polyline clip-path="url(#clip4300)" style="stroke:#000000; stroke-width:4; stroke-opacity:1; fill:none" points="
  213.113,1306.92 238.788,1306.92 
  "/>
<polyline clip-path="url(#clip4300)" style="stroke:#000000; stroke-width:4; stroke-opacity:1; fill:none" points="
  213.113,1002.96 238.788,1002.96 
  "/>
<polyline clip-path="url(#clip4300)" style="stroke:#000000; stroke-width:4; stroke-opacity:1; fill:none" points="
  213.113,698.996 238.788,698.996 
  "/>
<polyline clip-path="url(#clip4300)" style="stroke:#000000; stroke-width:4; stroke-opacity:1; fill:none" points="
  213.113,395.033 238.788,395.033 
  "/>
<polyline clip-path="url(#clip4300)" style="stroke:#000000; stroke-width:4; stroke-opacity:1; fill:none" points="
  213.113,91.0703 238.788,91.0703 
  "/>
<g clip-path="url(#clip4300)">
<text style="fill:#000000; fill-opacity:1; font-family:Arial,Helvetica Neue,Helvetica,sans-serif; font-size:48px; text-anchor:middle;" transform="rotate(0, 257.775, 1496.73)" x="257.775" y="1496.73">0</text>
</g>
<g clip-path="url(#clip4300)">
<text style="fill:#000000; fill-opacity:1; font-family:Arial,Helvetica Neue,Helvetica,sans-serif; font-size:48px; text-anchor:middle;" transform="rotate(0, 575.654, 1496.73)" x="575.654" y="1496.73">20</text>
</g>
<g clip-path="url(#clip4300)">
<text style="fill:#000000; fill-opacity:1; font-family:Arial,Helvetica Neue,Helvetica,sans-serif; font-size:48px; text-anchor:middle;" transform="rotate(0, 893.533, 1496.73)" x="893.533" y="1496.73">40</text>
</g>
<g clip-path="url(#clip4300)">
<text style="fill:#000000; fill-opacity:1; font-family:Arial,Helvetica Neue,Helvetica,sans-serif; font-size:48px; text-anchor:middle;" transform="rotate(0, 1211.41, 1496.73)" x="1211.41" y="1496.73">60</text>
</g>
<g clip-path="url(#clip4300)">
<text style="fill:#000000; fill-opacity:1; font-family:Arial,Helvetica Neue,Helvetica,sans-serif; font-size:48px; text-anchor:middle;" transform="rotate(0, 1529.29, 1496.73)" x="1529.29" y="1496.73">80</text>
</g>
<g clip-path="url(#clip4300)">
<text style="fill:#000000; fill-opacity:1; font-family:Arial,Helvetica Neue,Helvetica,sans-serif; font-size:48px; text-anchor:middle;" transform="rotate(0, 1847.17, 1496.73)" x="1847.17" y="1496.73">100</text>
</g>
<g clip-path="url(#clip4300)">
<text style="fill:#000000; fill-opacity:1; font-family:Arial,Helvetica Neue,Helvetica,sans-serif; font-size:48px; text-anchor:middle;" transform="rotate(0, 1847.17, 1496.73)" x="1847.17" y="1496.73">100</text>
</g>
<g clip-path="url(#clip4300)">
<text style="fill:#000000; fill-opacity:1; font-family:Arial,Helvetica Neue,Helvetica,sans-serif; font-size:48px; text-anchor:end;" transform="rotate(0, 189.113, 1324.42)" x="189.113" y="1324.42">-2</text>
</g>
<g clip-path="url(#clip4300)">
<text style="fill:#000000; fill-opacity:1; font-family:Arial,Helvetica Neue,Helvetica,sans-serif; font-size:48px; text-anchor:end;" transform="rotate(0, 189.113, 1020.46)" x="189.113" y="1020.46">-1</text>
</g>
<g clip-path="url(#clip4300)">
<text style="fill:#000000; fill-opacity:1; font-family:Arial,Helvetica Neue,Helvetica,sans-serif; font-size:48px; text-anchor:end;" transform="rotate(0, 189.113, 716.496)" x="189.113" y="716.496">0</text>
</g>
<g clip-path="url(#clip4300)">
<text style="fill:#000000; fill-opacity:1; font-family:Arial,Helvetica Neue,Helvetica,sans-serif; font-size:48px; text-anchor:end;" transform="rotate(0, 189.113, 412.533)" x="189.113" y="412.533">1</text>
</g>
<g clip-path="url(#clip4300)">
<text style="fill:#000000; fill-opacity:1; font-family:Arial,Helvetica Neue,Helvetica,sans-serif; font-size:48px; text-anchor:end;" transform="rotate(0, 189.113, 108.57)" x="189.113" y="108.57">2</text>
</g>
<polyline clip-path="url(#clip4302)" style="stroke:#009af9; stroke-width:4; stroke-opacity:1; fill:none" points="
  273.669,840.118 289.563,867.709 305.456,955.188 321.35,962.195 337.244,983.625 353.138,947.415 369.032,779.124 384.926,1081.4 400.82,1079.07 416.714,978.127 
  432.608,979.28 448.502,998.243 464.396,1090.51 480.29,1046.56 496.184,1017.81 512.078,810.059 527.972,909.154 543.866,997.046 559.76,1000.32 575.654,968.637 
  591.548,1036.36 607.441,932.659 623.335,1006.09 639.229,956.451 655.123,1102.58 671.017,915.693 686.911,1093.46 702.805,294.28 718.699,414.566 734.593,323.284 
  750.487,377.99 766.381,422.163 782.275,282.157 798.169,414.165 814.063,422.301 829.957,415.98 845.851,244.942 861.745,297.988 877.639,328.438 893.533,410.729 
  909.426,647.619 925.32,401.903 941.214,325.077 957.108,525.261 973.002,470.616 988.896,406.629 1004.79,461.506 1020.68,363.29 1036.58,394.936 1052.47,531.596 
  1068.37,617.268 1084.26,356.879 1100.15,371.973 1116.05,373.227 1131.94,348.076 1147.84,468.166 1163.73,653.041 1179.62,388.87 1195.52,316.831 1211.41,392.86 
  1227.31,345.664 1243.2,446.707 1259.09,247.583 1274.99,363.089 1290.88,231.101 1306.78,359.89 1322.67,124.092 1338.56,276.47 1354.46,347.404 1370.35,238.535 
  1386.24,202.445 1402.14,452.707 1418.03,493.315 1433.93,483.366 1449.82,285.177 1465.71,300.081 1481.61,519.169 1497.5,446.12 1513.4,365.531 1529.29,405.685 
  1545.18,417.55 1561.08,323.256 1576.97,358.05 1592.87,414.882 1608.76,329.224 1624.65,1187.35 1640.55,879.785 1656.44,928.984 1672.34,871.056 1688.23,896.115 
  1704.12,898.545 1720.02,860.78 1735.91,733.966 1751.81,873.212 1767.7,863.495 1783.59,911.796 1799.49,1063.42 1815.38,988.58 1831.28,1002.44 1847.17,949.762 
  1863.06,814.738 1878.96,843.863 1894.85,881.787 1910.75,811.268 1926.64,1093.86 1942.53,978.153 1958.43,1083.45 1974.32,1000.51 1990.21,943.861 2006.11,978.93 
  2022,810.317 2037.9,804.277 2053.79,1017.22 2069.68,977.02 2085.58,976.079 2101.47,998.938 2117.37,1069.51 2133.26,859.98 2149.15,1103.6 2165.05,1028.4 
  2180.94,1008.42 2196.84,977.434 2212.73,1043.78 2228.62,978.709 2244.52,938.932 2260.41,893.138 2276.31,991.913 2292.2,1077.48 
  "/>
<polyline clip-path="url(#clip4302)" style="stroke:#e26f46; stroke-width:4; stroke-opacity:1; fill:none" points="
  273.669,971.641 289.563,907.418 305.456,1109.77 321.35,1142.38 337.244,1053.22 353.138,1125.74 369.032,1252.75 384.926,951.771 400.82,1007.92 416.714,943.239 
  432.608,1081.84 448.502,1045.28 464.396,966.073 480.29,1169.75 496.184,979.905 512.078,1123.17 527.972,462.936 543.866,364.416 559.76,337.34 575.654,584.965 
  591.548,411.086 607.441,454.697 623.335,347.224 639.229,429.444 655.123,383.74 671.017,451.262 686.911,458.61 702.805,534.488 718.699,438.095 734.593,494.315 
  750.487,563.858 766.381,736.028 782.275,419.45 798.169,427.169 814.063,453.885 829.957,543.587 845.851,290.405 861.745,538.566 877.639,431.538 893.533,557.452 
  909.426,332.199 925.32,362.248 941.214,560.115 957.108,341.053 973.002,394.948 988.896,554.253 1004.79,682.295 1020.68,562.368 1036.58,277.042 1052.47,404.969 
  1068.37,414.513 1084.26,444.357 1100.15,422.213 1116.05,283.766 1131.94,374.12 1147.84,470.333 1163.73,525.125 1179.62,366.446 1195.52,502.145 1211.41,538.007 
  1227.31,547.756 1243.2,538.982 1259.09,359.698 1274.99,498.035 1290.88,323.374 1306.78,602.204 1322.67,444.168 1338.56,473.91 1354.46,692.678 1370.35,372.817 
  1386.24,521.588 1402.14,540.064 1418.03,465.533 1433.93,690.499 1449.82,536.416 1465.71,346.376 1481.61,494.338 1497.5,542.42 1513.4,476.796 1529.29,529.673 
  1545.18,494.15 1561.08,474.725 1576.97,468.718 1592.87,512.542 1608.76,442.339 1624.65,628.804 1640.55,452.566 1656.44,557.459 1672.34,377.232 1688.23,379.59 
  1704.12,619.662 1720.02,539.235 1735.91,472.413 1751.81,312.035 1767.7,1136.11 1783.59,1017.25 1799.49,1090.09 1815.38,1149.52 1831.28,1164.27 1847.17,937.64 
  1863.06,991.087 1878.96,1059.91 1894.85,1087.59 1910.75,1186.64 1926.64,1024.53 1942.53,1208.28 1958.43,1114.2 1974.32,929.855 1990.21,1074.63 2006.11,979.931 
  2022,827.587 2037.9,940.521 2053.79,869.972 2069.68,1048.3 2085.58,1179.83 2101.47,1239.06 2117.37,1027.69 2133.26,1225.79 2149.15,1021.97 2165.05,1175.81 
  2180.94,1113.61 2196.84,1050.13 2212.73,1001.7 2228.62,1052.73 2244.52,977.584 2260.41,875.932 2276.31,1081.69 2292.2,1122.27 
  "/>
<polyline clip-path="url(#clip4302)" style="stroke:#3da44d; stroke-width:4; stroke-opacity:1; fill:none" points="
  273.669,840.246 289.563,871.567 305.456,708.729 321.35,892.026 337.244,882.232 353.138,780.11 369.032,780.172 384.926,981.998 400.82,835.591 416.714,918.256 
  432.608,819.751 448.502,991.446 464.396,1130.83 480.29,937.13 496.184,839.543 512.078,1056.52 527.972,851.475 543.866,876.774 559.76,875.04 575.654,979.036 
  591.548,916.748 607.441,865.502 623.335,1000.18 639.229,743.516 655.123,917.859 671.017,346.71 686.911,493.299 702.805,264.734 718.699,259.658 734.593,297.595 
  750.487,262.561 766.381,184.093 782.275,249.013 798.169,272.595 814.063,151.42 829.957,218.287 845.851,231.583 861.745,294.61 877.639,390.109 893.533,247.877 
  909.426,233.077 925.32,381.12 941.214,266.09 957.108,369.634 973.002,236.7 988.896,316.686 1004.79,167.087 1020.68,319.839 1036.58,382.293 1052.47,410.877 
  1068.37,372.395 1084.26,424.394 1100.15,239.44 1116.05,275.649 1131.94,303.797 1147.84,444.233 1163.73,316.851 1179.62,306.464 1195.52,415.371 1211.41,354.864 
  1227.31,304.189 1243.2,368.501 1259.09,430.162 1274.99,178.717 1290.88,127.058 1306.78,86.739 1322.67,286.131 1338.56,169.219 1354.46,758.157 1370.35,909.22 
  1386.24,937.334 1402.14,1016.84 1418.03,976.393 1433.93,892.953 1449.82,855.04 1465.71,917.55 1481.61,889.003 1497.5,1031.75 1513.4,823.097 1529.29,957.273 
  1545.18,804.197 1561.08,861.031 1576.97,789.914 1592.87,988.893 1608.76,1008.06 1624.65,894.675 1640.55,754.496 1656.44,879.462 1672.34,989.253 1688.23,953.007 
  1704.12,719.828 1720.02,1001.91 1735.91,873.866 1751.81,966.03 1767.7,873.166 1783.59,1097.93 1799.49,931.328 1815.38,1093.57 1831.28,901.287 1847.17,1043.9 
  1863.06,928.797 1878.96,760.283 1894.85,858.111 1910.75,865.373 1926.64,896.437 1942.53,851.877 1958.43,1017.73 1974.32,828.883 1990.21,859.647 2006.11,812.198 
  2022,861.862 2037.9,1023.34 2053.79,782.688 2069.68,1082.4 2085.58,895.016 2101.47,895.751 2117.37,887.173 2133.26,1171.83 2149.15,786.148 2165.05,892.668 
  2180.94,746.189 2196.84,908.161 2212.73,968.187 2228.62,931.904 2244.52,962.019 2260.41,785.469 2276.31,908.088 2292.2,968.795 
  "/>
<polyline clip-path="url(#clip4302)" style="stroke:#c271d2; stroke-width:4; stroke-opacity:1; fill:none" points="
  273.669,992.574 289.563,1198.89 305.456,1247.93 321.35,1154.84 337.244,978.668 353.138,1038.13 369.032,896.631 384.926,978.266 400.82,1074.3 416.714,931.728 
  432.608,1078.81 448.502,1227.12 464.396,1163.45 480.29,723.079 496.184,1238.25 512.078,1139.77 527.972,994.627 543.866,1035.21 559.76,876.966 575.654,499.542 
  591.548,413 607.441,661.517 623.335,411.948 639.229,405.537 655.123,500.173 671.017,343.63 686.911,308.539 702.805,593.836 718.699,474.647 734.593,616.38 
  750.487,477.675 766.381,457.369 782.275,392.25 798.169,465.205 814.063,355.572 829.957,294.545 845.851,447.766 861.745,585.904 877.639,398.403 893.533,433.78 
  909.426,474.247 925.32,515.054 941.214,396.958 957.108,415.33 973.002,266.846 988.896,298.981 1004.79,332.253 1020.68,357.703 1036.58,475.337 1052.47,543.123 
  1068.37,440.178 1084.26,542.745 1100.15,637.726 1116.05,196.291 1131.94,383.798 1147.84,347.059 1163.73,484.598 1179.62,400.512 1195.52,492.627 1211.41,517.635 
  1227.31,278.465 1243.2,391.965 1259.09,502.622 1274.99,488.317 1290.88,547.914 1306.78,477.996 1322.67,511.994 1338.56,273.212 1354.46,434.815 1370.35,504.96 
  1386.24,435.635 1402.14,504.917 1418.03,484.992 1433.93,353.593 1449.82,308.776 1465.71,581.518 1481.61,480.523 1497.5,480.149 1513.4,583.806 1529.29,548.535 
  1545.18,465.332 1561.08,363.111 1576.97,487.716 1592.87,321.054 1608.76,514.306 1624.65,422.933 1640.55,484.752 1656.44,324.149 1672.34,431.001 1688.23,458.801 
  1704.12,1120.2 1720.02,1052.47 1735.91,1190.65 1751.81,951.341 1767.7,927.789 1783.59,1104.97 1799.49,871.794 1815.38,1031.76 1831.28,946.817 1847.17,951.696 
  1863.06,930.113 1878.96,1135.64 1894.85,939.51 1910.75,970.064 1926.64,1232.68 1942.53,997.033 1958.43,1119.83 1974.32,976.6 1990.21,1100.81 2006.11,998.145 
  2022,955.849 2037.9,812.972 2053.79,853.465 2069.68,970.498 2085.58,1074.81 2101.47,954.1 2117.37,925.739 2133.26,933.352 2149.15,1025.01 2165.05,1022.12 
  2180.94,1099.18 2196.84,922.633 2212.73,1018.81 2228.62,990.941 2244.52,1043.56 2260.41,884.517 2276.31,1053.18 2292.2,907.483 
  "/>
<polyline clip-path="url(#clip4302)" style="stroke:#ac8d18; stroke-width:4; stroke-opacity:1; fill:none" points="
  273.669,1059.62 289.563,970.494 305.456,996.191 321.35,891.741 337.244,1119.93 353.138,1085.61 369.032,1067.45 384.926,1140.59 400.82,983.023 416.714,1038.95 
  432.608,1080.63 448.502,867.108 464.396,956.859 480.29,878.678 496.184,990.165 512.078,1042.3 527.972,982.71 543.866,878.04 559.76,876.423 575.654,1033.79 
  591.548,408.782 607.441,556.814 623.335,484.873 639.229,524.193 655.123,483.117 671.017,421.916 686.911,331.045 702.805,587.748 718.699,422.904 734.593,432.334 
  750.487,344.178 766.381,505.972 782.275,486.823 798.169,383.445 814.063,321.655 829.957,345.42 845.851,239.258 861.745,450.4 877.639,497.205 893.533,180.905 
  909.426,468.18 925.32,471.033 941.214,445.885 957.108,327.337 973.002,424.721 988.896,340.889 1004.79,532.161 1020.68,526.818 1036.58,465.339 1052.47,376.081 
  1068.37,642.387 1084.26,735.314 1100.15,408.452 1116.05,543.493 1131.94,254.386 1147.84,346.745 1163.73,468.439 1179.62,559.273 1195.52,399.671 1211.41,455.293 
  1227.31,176.992 1243.2,416.091 1259.09,382.54 1274.99,244.18 1290.88,313.992 1306.78,476.659 1322.67,387.802 1338.56,414.619 1354.46,579.288 1370.35,337.238 
  1386.24,439.759 1402.14,427.366 1418.03,589.862 1433.93,590.728 1449.82,436.061 1465.71,472.676 1481.61,242.797 1497.5,258.885 1513.4,547.505 1529.29,566.211 
  1545.18,415.977 1561.08,423.751 1576.97,529.97 1592.87,398.073 1608.76,427.043 1624.65,242.753 1640.55,464.734 1656.44,468.399 1672.34,1046.61 1688.23,1027.45 
  1704.12,988.385 1720.02,1079.41 1735.91,976.397 1751.81,1030.65 1767.7,950.613 1783.59,1016.35 1799.49,896.614 1815.38,1030.76 1831.28,795.227 1847.17,830.087 
  1863.06,934.941 1878.96,1091.8 1894.85,1141.93 1910.75,1015.6 1926.64,1042.12 1942.53,933.468 1958.43,977.702 1974.32,886.747 1990.21,801.752 2006.11,939.687 
  2022,1019.68 2037.9,1172.35 2053.79,1108.45 2069.68,1126.5 2085.58,1074.36 2101.47,1039.45 2117.37,920.359 2133.26,1046.01 2149.15,959.459 2165.05,1069.11 
  2180.94,949.355 2196.84,1088.2 2212.73,1182.11 2228.62,1002.44 2244.52,945.448 2260.41,997.362 2276.31,1087.59 2292.2,1035.73 
  "/>
<polyline clip-path="url(#clip4302)" style="stroke:#00a9ad; stroke-width:4; stroke-opacity:1; fill:none" points="
  273.669,1290.3 289.563,1139.69 305.456,1151.58 321.35,1246.28 337.244,1402.08 353.138,1237.64 369.032,1354 384.926,1103.64 400.82,1387.51 416.714,1246.19 
  432.608,1161.36 448.502,1402.25 464.396,1173.65 480.29,1205.01 496.184,1316.17 512.078,1259.54 527.972,1102.35 543.866,1059.08 559.76,1106.24 575.654,1184.05 
  591.548,1128.67 607.441,1213.96 623.335,1291.78 639.229,1398.16 655.123,471.607 671.017,874.564 686.911,828.015 702.805,411.958 718.699,609.261 734.593,744.479 
  750.487,432.872 766.381,671.517 782.275,551.192 798.169,662.095 814.063,650.459 829.957,611.536 845.851,630.353 861.745,443.152 877.639,337.486 893.533,730.73 
  909.426,491.872 925.32,426.446 941.214,296.21 957.108,720.046 973.002,489.491 988.896,710.732 1004.79,572.044 1020.68,449.163 1036.58,559.463 1052.47,470.11 
  1068.37,581.057 1084.26,615.352 1100.15,410.361 1116.05,262.986 1131.94,599.218 1147.84,536.316 1163.73,722.859 1179.62,464.644 1195.52,586.186 1211.41,499.309 
  1227.31,567.34 1243.2,288.184 1259.09,370.166 1274.99,504.905 1290.88,509.128 1306.78,446.075 1322.67,695.718 1338.56,502.481 1354.46,657.666 1370.35,406.311 
  1386.24,336.652 1402.14,592.189 1418.03,360.958 1433.93,666.309 1449.82,593.017 1465.71,624.69 1481.61,674.347 1497.5,544.027 1513.4,438.872 1529.29,459.81 
  1545.18,498.577 1561.08,518.416 1576.97,665.129 1592.87,631.196 1608.76,485.673 1624.65,790.057 1640.55,539.282 1656.44,406.23 1672.34,560.83 1688.23,694.783 
  1704.12,617.335 1720.02,436.359 1735.91,576.315 1751.81,649.476 1767.7,492.852 1783.59,602.919 1799.49,444.083 1815.38,703.804 1831.28,653.139 1847.17,598.524 
  1863.06,591.712 1878.96,704.696 1894.85,628.443 1910.75,797.772 1926.64,443.026 1942.53,525.569 1958.43,658.243 1974.32,615.908 1990.21,712.98 2006.11,606.24 
  2022,411.323 2037.9,665.491 2053.79,557.117 2069.68,437.896 2085.58,411.104 2101.47,578.331 2117.37,533.859 2133.26,463.214 2149.15,580.458 2165.05,753.821 
  2180.94,530.564 2196.84,490.439 2212.73,489.073 2228.62,510.306 2244.52,417.524 2260.41,1289 2276.31,1340.73 2292.2,1236.43 
  "/>
<polyline clip-path="url(#clip4302)" style="stroke:#ed5d92; stroke-width:4; stroke-opacity:1; fill:none" points="
  273.669,1128 289.563,1066.25 305.456,906.27 321.35,1156.33 337.244,1040.47 353.138,1163.69 369.032,1200.06 384.926,1073.33 400.82,1140.22 416.714,1104.98 
  432.608,1189.17 448.502,1105.14 464.396,1272.67 480.29,1208.36 496.184,954.464 512.078,1105.32 527.972,1143.91 543.866,1096.89 559.76,1040.76 575.654,1077.79 
  591.548,1196.28 607.441,1147.64 623.335,1087.41 639.229,1046.79 655.123,1124.32 671.017,962.686 686.911,1138.58 702.805,1277.19 718.699,1164.11 734.593,600.098 
  750.487,556.421 766.381,527.197 782.275,481.839 798.169,363.368 814.063,511.324 829.957,474.335 845.851,449.814 861.745,585.995 877.639,457.622 893.533,501.697 
  909.426,454.42 925.32,471.007 941.214,456.705 957.108,518.204 973.002,394.736 988.896,490.365 1004.79,431.477 1020.68,510.784 1036.58,541.852 1052.47,470.029 
  1068.37,540.991 1084.26,567.047 1100.15,480.044 1116.05,536.597 1131.94,579.461 1147.84,448.526 1163.73,471.242 1179.62,573.95 1195.52,475.05 1211.41,488.425 
  1227.31,578.198 1243.2,626.856 1259.09,421.649 1274.99,509.104 1290.88,658.082 1306.78,277.03 1322.67,545.135 1338.56,486.682 1354.46,393.7 1370.35,531.854 
  1386.24,633.662 1402.14,692.991 1418.03,384.2 1433.93,554 1449.82,598.311 1465.71,567.011 1481.61,449.07 1497.5,467.001 1513.4,683.818 1529.29,561.516 
  1545.18,488.851 1561.08,510.415 1576.97,370.907 1592.87,511.323 1608.76,457.454 1624.65,527.242 1640.55,433.379 1656.44,502.88 1672.34,377.481 1688.23,439.303 
  1704.12,488.469 1720.02,503.681 1735.91,412.152 1751.81,506.803 1767.7,538.626 1783.59,489.777 1799.49,449.48 1815.38,197.65 1831.28,578.919 1847.17,491.701 
  1863.06,447.519 1878.96,395.363 1894.85,504.928 1910.75,589.254 1926.64,249.783 1942.53,461.35 1958.43,431.957 1974.32,615.17 1990.21,545.291 2006.11,424.209 
  2022,401.54 2037.9,305.889 2053.79,402.745 2069.68,1134.91 2085.58,890.504 2101.47,1114.87 2117.37,1119.61 2133.26,1063.41 2149.15,1055.4 2165.05,1023.78 
  2180.94,1074.5 2196.84,988.508 2212.73,1054.8 2228.62,1178.33 2244.52,1228.64 2260.41,1051.91 2276.31,992.132 2292.2,1099.05 
  "/>
<polyline clip-path="url(#clip4302)" style="stroke:#c68125; stroke-width:4; stroke-opacity:1; fill:none" points="
  273.669,1029.11 289.563,1063.54 305.456,1039.61 321.35,1062.64 337.244,1292.39 353.138,1085.78 369.032,877.809 384.926,1017.23 400.82,1189.56 416.714,1055.23 
  432.608,1128.78 448.502,981.259 464.396,1016.58 480.29,979.077 496.184,1179.74 512.078,1113.93 527.972,1013.42 543.866,1241.71 559.76,1074.46 575.654,1120.41 
  591.548,1171.11 607.441,1070.29 623.335,1003.3 639.229,1058.17 655.123,1072.16 671.017,1161.03 686.911,1108.05 702.805,367.841 718.699,417.884 734.593,531.955 
  750.487,618.42 766.381,402.83 782.275,289.52 798.169,485.995 814.063,552.371 829.957,482.911 845.851,610.851 861.745,573.196 877.639,262.848 893.533,515.654 
  909.426,567.878 925.32,564.695 941.214,731.828 957.108,427.735 973.002,523.338 988.896,621.424 1004.79,482.575 1020.68,446.1 1036.58,405.533 1052.47,605.328 
  1068.37,413.085 1084.26,341.387 1100.15,354.343 1116.05,407.182 1131.94,280.122 1147.84,391.308 1163.73,505.861 1179.62,692.055 1195.52,405.599 1211.41,433.441 
  1227.31,473.961 1243.2,401.694 1259.09,396.781 1274.99,503.809 1290.88,294.01 1306.78,389.256 1322.67,408.367 1338.56,413.893 1354.46,449.838 1370.35,433.924 
  1386.24,620.611 1402.14,461.849 1418.03,494.163 1433.93,450.584 1449.82,587.945 1465.71,571.117 1481.61,481.09 1497.5,561.076 1513.4,423.232 1529.29,466.76 
  1545.18,492.301 1561.08,682.005 1576.97,450.354 1592.87,443.916 1608.76,487.603 1624.65,288.497 1640.55,579.165 1656.44,409.485 1672.34,537.375 1688.23,624.087 
  1704.12,639.271 1720.02,357.146 1735.91,522.695 1751.81,514.328 1767.7,529.057 1783.59,484.629 1799.49,437.898 1815.38,458.875 1831.28,419.774 1847.17,406.519 
  1863.06,719.666 1878.96,524.505 1894.85,513.275 1910.75,465.917 1926.64,409.337 1942.53,229.866 1958.43,543.723 1974.32,1036.66 1990.21,919.673 2006.11,1026.88 
  2022,947.994 2037.9,1095.4 2053.79,1123.16 2069.68,901.985 2085.58,1164.29 2101.47,1166.24 2117.37,1038.2 2133.26,914.597 2149.15,1112.87 2165.05,1182.5 
  2180.94,1048.61 2196.84,1070.08 2212.73,955.892 2228.62,1122.06 2244.52,1113.46 2260.41,1163.21 2276.31,1018.77 2292.2,974.202 
  "/>
<polyline clip-path="url(#clip4302)" style="stroke:#00a98d; stroke-width:4; stroke-opacity:1; fill:none" points="
  273.669,1208.49 289.563,1258.09 305.456,1256.36 321.35,1280.94 337.244,1232.7 353.138,1008.53 369.032,1042.68 384.926,1097.44 400.82,1251.12 416.714,1175.5 
  432.608,1218.47 448.502,1257.73 464.396,1318.34 480.29,1282.78 496.184,1328.35 512.078,1084.53 527.972,1279.71 543.866,1403.23 559.76,1288.19 575.654,1213.64 
  591.548,1238.94 607.441,1267.24 623.335,1184.56 639.229,1172.35 655.123,1324.11 671.017,1309.96 686.911,1164.29 702.805,1311.95 718.699,382.715 734.593,520.848 
  750.487,444.206 766.381,685.344 782.275,654.577 798.169,535.244 814.063,756.702 829.957,591.443 845.851,579.625 861.745,627.637 877.639,409.857 893.533,615.007 
  909.426,300.391 925.32,776.687 941.214,635.875 957.108,645.997 973.002,735.524 988.896,766.849 1004.79,319.345 1020.68,399.311 1036.58,637.207 1052.47,348.602 
  1068.37,605.797 1084.26,675.728 1100.15,505.842 1116.05,426.99 1131.94,510.424 1147.84,756.28 1163.73,745.188 1179.62,598.019 1195.52,515.86 1211.41,542.849 
  1227.31,471.688 1243.2,583.24 1259.09,460.999 1274.99,563.942 1290.88,610.027 1306.78,671.071 1322.67,714.35 1338.56,308.056 1354.46,666.082 1370.35,454.237 
  1386.24,647.882 1402.14,544.491 1418.03,342.286 1433.93,528.356 1449.82,405.085 1465.71,628.998 1481.61,655.786 1497.5,593.569 1513.4,478.432 1529.29,402.915 
  1545.18,323.003 1561.08,592.59 1576.97,672.752 1592.87,569.647 1608.76,504.864 1624.65,566.246 1640.55,600.581 1656.44,570.228 1672.34,472.486 1688.23,414.424 
  1704.12,762.352 1720.02,485.796 1735.91,633.716 1751.81,522.911 1767.7,571.729 1783.59,397.668 1799.49,499.174 1815.38,490.948 1831.28,488.856 1847.17,476.527 
  1863.06,460.918 1878.96,572.993 1894.85,565.639 1910.75,512.965 1926.64,559.291 1942.53,514.728 1958.43,611.445 1974.32,452.351 1990.21,512.36 2006.11,403.55 
  2022,365.908 2037.9,495.79 2053.79,561.98 2069.68,578.056 2085.58,446.806 2101.47,850.67 2117.37,722.03 2133.26,492.102 2149.15,530.856 2165.05,519.774 
  2180.94,568.924 2196.84,602.839 2212.73,352.362 2228.62,673.006 2244.52,721.703 2260.41,592.8 2276.31,516.968 2292.2,652.438 
  "/>
<polyline clip-path="url(#clip4302)" style="stroke:#8e971d; stroke-width:4; stroke-opacity:1; fill:none" points="
  273.669,1000.93 289.563,963.266 305.456,803.904 321.35,1002.02 337.244,1228.66 353.138,1181.53 369.032,1101.95 384.926,1136.81 400.82,1078.33 416.714,1042 
  432.608,1072.38 448.502,1164.07 464.396,1040.42 480.29,924.097 496.184,1037.22 512.078,1112.15 527.972,992.359 543.866,1033.66 559.76,989.459 575.654,969.902 
  591.548,1223.43 607.441,942.787 623.335,974.628 639.229,1061.18 655.123,947.255 671.017,969.236 686.911,949.814 702.805,1138.9 718.699,488.955 734.593,489.692 
  750.487,521.584 766.381,438.937 782.275,363.717 798.169,316.519 814.063,344.2 829.957,420.719 845.851,538.052 861.745,447.895 877.639,390.084 893.533,425.437 
  909.426,419.285 925.32,509.781 941.214,593.242 957.108,446.611 973.002,356.754 988.896,427.074 1004.79,379.615 1020.68,433.883 1036.58,370.58 1052.47,305.16 
  1068.37,537.892 1084.26,543.687 1100.15,534.757 1116.05,327.35 1131.94,354.773 1147.84,500.237 1163.73,393.747 1179.62,553.065 1195.52,443.442 1211.41,223.21 
  1227.31,447.16 1243.2,365.323 1259.09,393.064 1274.99,450.674 1290.88,532.647 1306.78,611.138 1322.67,464.672 1338.56,504.914 1354.46,542.687 1370.35,361.965 
  1386.24,502.719 1402.14,407.628 1418.03,388.242 1433.93,456.983 1449.82,391.13 1465.71,270.29 1481.61,568.774 1497.5,487.271 1513.4,480.258 1529.29,572.145 
  1545.18,430.716 1561.08,352.461 1576.97,216.351 1592.87,294.798 1608.76,318.566 1624.65,530.924 1640.55,354.233 1656.44,313.588 1672.34,444.414 1688.23,360.337 
  1704.12,575.67 1720.02,344.259 1735.91,601.248 1751.81,580.463 1767.7,490.073 1783.59,437.9 1799.49,226.901 1815.38,925.54 1831.28,1020.15 1847.17,916.965 
  1863.06,994.732 1878.96,1065.12 1894.85,1042.4 1910.75,1021.35 1926.64,951.413 1942.53,977.925 1958.43,956.544 1974.32,941.496 1990.21,1210.28 2006.11,908.577 
  2022,1013.29 2037.9,969.769 2053.79,893.596 2069.68,955.932 2085.58,1009.08 2101.47,822.364 2117.37,921.054 2133.26,1049.22 2149.15,960.17 2165.05,1020.78 
  2180.94,734.636 2196.84,1080.41 2212.73,845.406 2228.62,1069.28 2244.52,1071.49 2260.41,1054.89 2276.31,1101.78 2292.2,970.915 
  "/>
<polyline clip-path="url(#clip4302)" style="stroke:#ff0000; stroke-width:16; stroke-opacity:1; fill:none" points="
  273.669,1023.85 289.563,1023.76 305.456,1038.32 321.35,1056.01 337.244,1070.01 353.138,1078.77 369.032,1083.03 384.926,1086.88 400.82,1089.62 416.714,1091.98 
  432.608,1093.5 448.502,1093.33 464.396,1091.13 480.29,1087.15 496.184,1082.22 512.078,1076.34 527.972,1071.4 543.866,1066.94 559.76,1063.45 575.654,1060.94 
  591.548,1058.96 607.441,1056.94 623.335,1055.3 639.229,1054.25 655.123,1054.68 671.017,1058.1 686.911,1060.56 702.805,505.02 718.699,493.107 734.593,486.675 
  750.487,477.97 766.381,469.965 782.275,465.114 798.169,462.661 814.063,462.192 829.957,461.456 845.851,460.258 861.745,458.729 877.639,457.182 893.533,455.538 
  909.426,452.469 925.32,452.29 941.214,451.537 957.108,450.341 973.002,451.141 988.896,451.728 1004.79,451.488 1020.68,452.453 1036.58,453.25 1052.47,453.261 
  1068.37,453.462 1084.26,454.999 1100.15,455.382 1116.05,456.472 1131.94,459.099 1147.84,461.172 1163.73,462.976 1179.62,465.915 1195.52,467.789 1211.41,468.215 
  1227.31,468.882 1243.2,467.61 1259.09,466.993 1274.99,464.79 1290.88,463.737 1306.78,461.995 1322.67,461.021 1338.56,462.039 1354.46,463.444 1370.35,464.8 
  1386.24,467.387 1402.14,470.204 1418.03,472.606 1433.93,473.369 1449.82,474.107 1465.71,473.585 1481.61,471.778 1497.5,470.655 1513.4,468.273 1529.29,463.258 
  1545.18,455.74 1561.08,445.683 1576.97,432.611 1592.87,419.29 1608.76,429.067 1624.65,940.104 1640.55,967.54 1656.44,962.494 1672.34,956.401 1688.23,951.591 
  1704.12,948.149 1720.02,945.935 1735.91,944.648 1751.81,945.667 1767.7,947.316 1783.59,949.801 1799.49,952.549 1815.38,955.681 1831.28,959.291 1847.17,963.718 
  1863.06,967.96 1878.96,972.181 1894.85,974.323 1910.75,972.64 1926.64,968.291 1942.53,959.364 1958.43,946.084 1974.32,928.365 1990.21,904.894 2006.11,875.823 
  2022,846.415 2037.9,829.694 2053.79,857.971 2069.68,924.643 2085.58,985.549 2101.47,1015.01 2117.37,1024.46 2133.26,1024.63 2149.15,1022.61 2165.05,1018.92 
  2180.94,1014.77 2196.84,1010.36 2212.73,1004.97 2228.62,997.768 2244.52,988.466 2260.41,980.344 2276.31,982.043 2292.2,997.606 
  "/>
</svg>
