<?xml version="1.0" encoding="utf-8"?>
<svg xmlns="http://www.w3.org/2000/svg" xmlns:xlink="http://www.w3.org/1999/xlink" width="600" height="400" viewBox="0 0 2400 1600">
<defs>
  <clipPath id="clip3200">
    <rect x="0" y="0" width="2400" height="1600"/>
  </clipPath>
</defs>
<path clip-path="url(#clip3200)" d="
M0 1600 L2400 1600 L2400 0 L0 0  Z
  " fill="#ffffff" fill-rule="evenodd" fill-opacity="1"/>
<defs>
  <clipPath id="clip3201">
    <rect x="480" y="0" width="1681" height="1600"/>
  </clipPath>
</defs>
<path clip-path="url(#clip3200)" d="
M231.648 725.578 L2352.76 725.578 L2352.76 47.2441 L231.648 47.2441  Z
  " fill="#ffffff" fill-rule="evenodd" fill-opacity="1"/>
<defs>
  <clipPath id="clip3202">
    <rect x="231" y="47" width="2122" height="679"/>
  </clipPath>
</defs>
<polyline clip-path="url(#clip3202)" style="stroke:#000000; stroke-width:2; stroke-opacity:0.1; fill:none" points="
  275.923,725.578 275.923,47.2441 
  "/>
<polyline clip-path="url(#clip3202)" style="stroke:#000000; stroke-width:2; stroke-opacity:0.1; fill:none" points="
  591.048,725.578 591.048,47.2441 
  "/>
<polyline clip-path="url(#clip3202)" style="stroke:#000000; stroke-width:2; stroke-opacity:0.1; fill:none" points="
  906.173,725.578 906.173,47.2441 
  "/>
<polyline clip-path="url(#clip3202)" style="stroke:#000000; stroke-width:2; stroke-opacity:0.1; fill:none" points="
  1221.3,725.578 1221.3,47.2441 
  "/>
<polyline clip-path="url(#clip3202)" style="stroke:#000000; stroke-width:2; stroke-opacity:0.1; fill:none" points="
  1536.42,725.578 1536.42,47.2441 
  "/>
<polyline clip-path="url(#clip3202)" style="stroke:#000000; stroke-width:2; stroke-opacity:0.1; fill:none" points="
  1851.55,725.578 1851.55,47.2441 
  "/>
<polyline clip-path="url(#clip3202)" style="stroke:#000000; stroke-width:2; stroke-opacity:0.1; fill:none" points="
  1851.55,725.578 1851.55,47.2441 
  "/>
<polyline clip-path="url(#clip3202)" style="stroke:#000000; stroke-width:2; stroke-opacity:0.1; fill:none" points="
  231.648,659.562 2352.76,659.562 
  "/>
<polyline clip-path="url(#clip3202)" style="stroke:#000000; stroke-width:2; stroke-opacity:0.1; fill:none" points="
  231.648,511.808 2352.76,511.808 
  "/>
<polyline clip-path="url(#clip3202)" style="stroke:#000000; stroke-width:2; stroke-opacity:0.1; fill:none" points="
  231.648,364.055 2352.76,364.055 
  "/>
<polyline clip-path="url(#clip3202)" style="stroke:#000000; stroke-width:2; stroke-opacity:0.1; fill:none" points="
  231.648,216.301 2352.76,216.301 
  "/>
<polyline clip-path="url(#clip3202)" style="stroke:#000000; stroke-width:2; stroke-opacity:0.1; fill:none" points="
  231.648,68.5477 2352.76,68.5477 
  "/>
<polyline clip-path="url(#clip3202)" style="stroke:#009af9; stroke-width:4; stroke-opacity:1; fill:none" points="
  291.679,432.653 307.435,446.065 323.192,488.588 338.948,491.994 354.704,502.411 370.46,484.809 386.217,403.004 401.973,549.936 417.729,548.805 433.485,499.738 
  449.242,500.299 464.998,509.517 480.754,554.369 496.51,533.005 512.267,519.028 528.023,418.042 543.779,466.211 559.536,508.935 575.292,510.528 591.048,495.125 
  606.804,528.044 622.561,477.637 638.317,513.33 654.073,489.202 669.829,560.234 685.586,469.39 701.342,555.799 717.098,167.326 732.854,225.796 748.611,181.424 
  764.367,208.017 780.123,229.489 795.879,161.433 811.636,225.601 827.392,229.556 843.148,226.483 858.905,143.344 874.661,169.129 890.417,183.93 906.173,223.931 
  921.93,339.081 937.686,219.641 953.442,182.296 969.198,279.604 984.955,253.042 1000.71,221.938 1016.47,248.613 1032.22,200.871 1047.98,216.254 1063.74,282.683 
  1079.49,324.328 1095.25,197.755 1111,205.092 1126.76,205.702 1142.52,193.476 1158.27,251.85 1174.03,341.717 1189.79,213.305 1205.54,178.288 1221.3,215.245 
  1237.05,192.304 1252.81,241.42 1268.57,144.627 1284.32,200.774 1300.08,136.615 1315.84,199.219 1331.59,84.5992 1347.35,158.669 1363.1,193.149 1378.86,140.229 
  1394.62,122.686 1410.37,244.336 1426.13,264.075 1441.89,259.239 1457.64,162.901 1473.4,170.146 1489.16,276.643 1504.91,241.134 1520.67,201.961 1536.42,221.479 
  1552.18,227.246 1567.94,181.411 1583.69,198.324 1599.45,225.95 1615.21,184.312 1630.96,601.441 1646.72,451.935 1662.47,475.85 1678.23,447.692 1693.99,459.873 
  1709.74,461.054 1725.5,442.697 1741.26,381.054 1757.01,448.74 1772.77,444.017 1788.52,467.495 1804.28,541.201 1820.04,504.82 1835.79,511.555 1851.55,485.95 
  1867.31,420.317 1883.06,434.474 1898.82,452.908 1914.57,418.63 1930.33,555.993 1946.09,499.751 1961.84,550.935 1977.6,510.617 1993.36,483.082 2009.11,500.129 
  2024.87,418.167 2040.62,415.231 2056.38,518.741 2072.14,499.2 2087.89,498.743 2103.65,509.854 2119.41,544.16 2135.16,442.308 2150.92,560.728 2166.67,524.175 
  2182.43,514.462 2198.19,499.401 2213.94,531.65 2229.7,500.021 2245.46,480.686 2261.21,458.426 2276.97,506.44 2292.72,548.033 
  "/>
<polyline clip-path="url(#clip3202)" style="stroke:#e26f46; stroke-width:4; stroke-opacity:1; fill:none" points="
  291.679,496.586 307.435,465.367 323.192,563.726 338.948,579.578 354.704,536.239 370.46,571.49 386.217,633.232 401.973,486.927 417.729,514.219 433.485,482.779 
  449.242,550.151 464.998,532.381 480.754,493.879 496.51,592.885 512.267,500.603 528.023,570.242 543.779,249.308 559.536,201.419 575.292,188.257 591.048,308.625 
  606.804,224.104 622.561,245.303 638.317,193.062 654.073,233.028 669.829,210.812 685.586,243.634 701.342,247.205 717.098,284.089 732.854,237.233 748.611,264.561 
  764.367,298.365 780.123,382.056 795.879,228.17 811.636,231.923 827.392,244.908 843.148,288.512 858.905,165.443 874.661,286.072 890.417,234.046 906.173,295.252 
  921.93,185.758 937.686,200.365 953.442,296.546 969.198,190.062 984.955,216.26 1000.71,293.697 1016.47,355.937 1032.22,297.641 1047.98,158.947 1063.74,221.131 
  1079.49,225.77 1095.25,240.277 1111,229.513 1126.76,162.215 1142.52,206.136 1158.27,252.904 1174.03,279.538 1189.79,202.405 1205.54,268.367 1221.3,285.8 
  1237.05,290.539 1252.81,286.274 1268.57,199.125 1284.32,266.37 1300.08,181.468 1315.84,317.005 1331.59,240.185 1347.35,254.642 1363.1,360.984 1378.86,205.502 
  1394.62,277.819 1410.37,286.8 1426.13,250.571 1441.89,359.925 1457.64,285.027 1473.4,192.649 1489.16,264.572 1504.91,287.945 1520.67,256.045 1536.42,281.748 
  1552.18,264.481 1567.94,255.039 1583.69,252.119 1599.45,273.421 1615.21,239.296 1630.96,329.935 1646.72,244.268 1662.47,295.255 1678.23,207.649 1693.99,208.795 
  1709.74,325.491 1725.5,286.397 1741.26,253.915 1757.01,175.957 1772.77,576.531 1788.52,518.755 1804.28,554.163 1820.04,583.049 1835.79,590.223 1851.55,480.058 
  1867.31,506.038 1883.06,539.493 1898.82,552.945 1914.57,601.093 1930.33,522.296 1946.09,611.612 1961.84,565.88 1977.6,476.274 1993.36,546.649 2009.11,500.615 
  2024.87,426.562 2040.62,481.458 2056.38,447.165 2072.14,533.85 2087.89,597.785 2103.65,626.576 2119.41,523.831 2135.16,620.127 2150.92,521.051 2166.67,595.832 
  2182.43,565.597 2198.19,534.736 2213.94,511.197 2229.7,536.004 2245.46,499.474 2261.21,450.062 2276.97,550.078 2292.72,569.805 
  "/>
<polyline clip-path="url(#clip3202)" style="stroke:#3da44d; stroke-width:4; stroke-opacity:1; fill:none" points="
  291.679,432.715 307.435,447.94 323.192,368.786 338.948,457.885 354.704,453.124 370.46,403.484 386.217,403.514 401.973,501.62 417.729,430.453 433.485,470.636 
  449.242,422.753 464.998,506.212 480.754,573.963 496.51,479.81 512.267,432.374 528.023,537.846 543.779,438.174 559.536,450.471 575.292,449.628 591.048,500.18 
  606.804,469.902 622.561,444.992 638.317,510.456 654.073,385.696 669.829,470.443 685.586,192.812 701.342,264.068 717.098,152.964 732.854,150.497 748.611,168.938 
  764.367,151.908 780.123,113.765 795.879,145.322 811.636,156.785 827.392,97.883 843.148,130.387 858.905,136.85 874.661,167.487 890.417,213.908 906.173,144.77 
  921.93,137.576 937.686,209.538 953.442,153.623 969.198,203.955 984.955,139.337 1000.71,178.218 1016.47,105.499 1032.22,179.75 1047.98,210.108 1063.74,224.003 
  1079.49,205.297 1095.25,230.573 1111,140.669 1126.76,158.27 1142.52,171.952 1158.27,240.217 1174.03,178.298 1189.79,173.248 1205.54,226.187 1221.3,196.776 
  1237.05,172.143 1252.81,203.404 1268.57,233.377 1284.32,111.152 1300.08,86.0409 1315.84,66.4422 1331.59,163.365 1347.35,106.535 1363.1,392.813 1378.86,466.243 
  1394.62,479.909 1410.37,518.557 1426.13,498.895 1441.89,458.336 1457.64,439.907 1473.4,470.292 1489.16,456.416 1504.91,525.803 1520.67,424.379 1536.42,489.601 
  1552.18,415.193 1567.94,442.819 1583.69,408.25 1599.45,504.972 1615.21,514.29 1630.96,459.173 1646.72,391.033 1662.47,451.778 1678.23,505.146 1693.99,487.528 
  1709.74,374.181 1725.5,511.299 1741.26,449.058 1757.01,493.858 1772.77,448.718 1788.52,557.974 1804.28,476.99 1820.04,555.855 1835.79,462.387 1851.55,531.709 
  1867.31,475.759 1883.06,393.846 1898.82,441.4 1914.57,444.929 1930.33,460.03 1946.09,438.369 1961.84,518.989 1977.6,427.192 1993.36,442.146 2009.11,419.082 
  2024.87,443.223 2040.62,521.718 2056.38,404.737 2072.14,550.422 2087.89,459.339 2103.65,459.696 2119.41,455.526 2135.16,593.893 2150.92,406.419 2166.67,458.197 
  2182.43,386.995 2198.19,465.728 2213.94,494.907 2229.7,477.269 2245.46,491.908 2261.21,406.089 2276.97,465.693 2292.72,495.202 
  "/>
<polyline clip-path="url(#clip3202)" style="stroke:#c271d2; stroke-width:4; stroke-opacity:1; fill:none" points="
  291.679,506.761 307.435,607.048 323.192,630.888 338.948,585.635 354.704,500.001 370.46,528.904 386.217,460.124 401.973,499.806 417.729,546.487 433.485,477.184 
  449.242,548.678 464.998,620.771 480.754,589.821 496.51,375.762 512.267,626.183 528.023,578.313 543.779,507.759 559.536,527.486 575.292,450.565 591.048,267.102 
  606.804,225.035 622.561,345.837 638.317,224.524 654.073,221.407 669.829,267.409 685.586,191.315 701.342,174.257 717.098,312.938 732.854,255.001 748.611,323.896 
  764.367,256.473 780.123,246.602 795.879,214.948 811.636,250.411 827.392,197.12 843.148,167.455 858.905,241.935 874.661,309.082 890.417,217.94 906.173,235.136 
  921.93,254.807 937.686,274.642 953.442,217.237 969.198,226.168 984.955,153.99 1000.71,169.611 1016.47,185.784 1032.22,198.155 1047.98,255.336 1063.74,288.287 
  1079.49,238.246 1095.25,288.103 1111,334.272 1126.76,119.694 1142.52,210.84 1158.27,192.982 1174.03,259.838 1189.79,218.964 1205.54,263.741 1221.3,275.897 
  1237.05,159.639 1252.81,214.81 1268.57,268.599 1284.32,261.646 1300.08,290.615 1315.84,256.629 1331.59,273.155 1347.35,157.085 1363.1,235.639 1378.86,269.736 
  1394.62,236.038 1410.37,269.715 1426.13,260.03 1441.89,196.158 1457.64,174.372 1473.4,306.95 1489.16,257.857 1504.91,257.676 1520.67,308.062 1536.42,290.917 
  1552.18,250.473 1567.94,200.784 1583.69,261.354 1599.45,180.341 1615.21,274.279 1630.96,229.863 1646.72,259.913 1662.47,181.845 1678.23,233.785 1693.99,247.299 
  1709.74,568.8 1725.5,535.875 1741.26,603.042 1757.01,486.718 1772.77,475.269 1788.52,561.396 1804.28,448.051 1820.04,525.809 1835.79,484.519 1851.55,486.89 
  1867.31,476.399 1883.06,576.302 1898.82,480.967 1914.57,495.819 1930.33,623.476 1946.09,508.928 1961.84,568.617 1977.6,498.996 1993.36,559.373 2009.11,509.469 
  2024.87,488.909 2040.62,419.458 2056.38,439.141 2072.14,496.03 2087.89,546.735 2103.65,488.059 2119.41,474.273 2135.16,477.974 2150.92,522.526 2166.67,521.122 
  2182.43,558.582 2198.19,472.763 2213.94,519.514 2229.7,505.967 2245.46,531.543 2261.21,454.235 2276.97,536.22 2292.72,465.399 
  "/>
<polyline clip-path="url(#clip3202)" style="stroke:#ac8d18; stroke-width:4; stroke-opacity:1; fill:none" points="
  291.679,539.353 307.435,496.028 323.192,508.519 338.948,457.747 354.704,568.667 370.46,551.987 386.217,543.157 401.973,578.71 417.729,502.118 433.485,529.306 
  449.242,549.564 464.998,445.773 480.754,489.4 496.51,451.397 512.267,505.59 528.023,530.931 543.779,501.966 559.536,451.087 575.292,450.301 591.048,526.795 
  606.804,222.985 622.561,294.942 638.317,259.972 654.073,279.085 669.829,259.118 685.586,229.369 701.342,185.197 717.098,309.978 732.854,229.849 748.611,234.433 
  764.367,191.581 780.123,270.228 795.879,260.919 811.636,210.668 827.392,180.633 843.148,192.185 858.905,140.581 874.661,243.215 890.417,265.966 906.173,112.215 
  921.93,251.857 937.686,253.244 953.442,241.02 969.198,183.395 984.955,230.733 1000.71,189.982 1016.47,282.958 1032.22,280.361 1047.98,250.476 1063.74,207.089 
  1079.49,336.538 1095.25,381.709 1111,222.824 1126.76,288.466 1142.52,147.934 1158.27,192.829 1174.03,251.983 1189.79,296.137 1205.54,218.556 1221.3,245.593 
  1237.05,110.313 1252.81,226.537 1268.57,210.228 1284.32,142.973 1300.08,176.908 1315.84,255.979 1331.59,212.786 1347.35,225.822 1363.1,305.866 1378.86,188.208 
  1394.62,238.042 1410.37,232.018 1426.13,311.006 1441.89,311.427 1457.64,236.245 1473.4,254.043 1489.16,142.3 1504.91,150.121 1520.67,290.417 1536.42,299.509 
  1552.18,226.482 1567.94,230.261 1583.69,281.893 1599.45,217.779 1615.21,231.861 1630.96,142.279 1646.72,250.182 1662.47,251.964 1678.23,533.028 1693.99,523.712 
  1709.74,504.725 1725.5,548.97 1741.26,498.897 1757.01,525.271 1772.77,486.364 1788.52,518.317 1804.28,460.115 1820.04,525.325 1835.79,410.832 1851.55,427.777 
  1867.31,478.746 1883.06,554.994 1898.82,579.364 1914.57,517.955 1930.33,530.843 1946.09,478.03 1961.84,499.532 1977.6,455.319 1993.36,414.004 2009.11,481.053 
  2024.87,519.937 2040.62,594.15 2056.38,563.086 2072.14,571.863 2087.89,546.515 2103.65,529.547 2119.41,471.658 2135.16,532.734 2150.92,490.664 2166.67,543.963 
  2182.43,485.753 2198.19,553.246 2213.94,598.894 2229.7,511.556 2245.46,483.853 2261.21,509.088 2276.97,552.95 2292.72,527.741 
  "/>
<polyline clip-path="url(#clip3202)" style="stroke:#00a9ad; stroke-width:4; stroke-opacity:1; fill:none" points="
  291.679,651.484 307.435,578.274 323.192,584.052 338.948,630.083 354.704,705.818 370.46,625.887 386.217,682.446 401.973,560.748 417.729,698.737 433.485,630.043 
  449.242,588.804 464.998,705.899 480.754,594.783 496.51,610.024 512.267,664.059 528.023,636.533 543.779,560.122 559.536,539.09 575.292,562.013 591.048,599.836 
  606.804,572.917 622.561,614.374 638.317,652.202 654.073,703.912 669.829,253.523 685.586,449.397 701.342,426.77 717.098,224.529 732.854,320.435 748.611,386.164 
  764.367,234.694 780.123,350.698 795.879,292.209 811.636,346.118 827.392,340.462 843.148,321.541 858.905,330.688 874.661,239.692 890.417,188.328 906.173,379.481 
  921.93,263.374 937.686,231.571 953.442,168.264 969.198,374.287 984.955,262.216 1000.71,369.76 1016.47,302.345 1032.22,242.614 1047.98,296.229 1063.74,252.796 
  1079.49,306.726 1095.25,323.396 1111,223.752 1126.76,152.114 1142.52,315.554 1158.27,284.978 1174.03,375.655 1189.79,250.139 1205.54,309.219 1221.3,266.989 
  1237.05,300.058 1252.81,164.363 1268.57,204.214 1284.32,269.709 1300.08,271.762 1315.84,241.113 1331.59,362.462 1347.35,268.531 1363.1,343.965 1378.86,221.783 
  1394.62,187.923 1410.37,312.137 1426.13,199.738 1441.89,348.166 1457.64,312.539 1473.4,327.936 1489.16,352.074 1504.91,288.726 1520.67,237.611 1536.42,247.789 
  1552.18,266.633 1567.94,276.277 1583.69,347.592 1599.45,331.098 1615.21,260.361 1630.96,408.319 1646.72,286.419 1662.47,221.744 1678.23,296.894 1693.99,362.007 
  1709.74,324.361 1725.5,236.39 1741.26,304.421 1757.01,339.984 1772.77,263.85 1788.52,317.353 1804.28,240.144 1820.04,366.392 1835.79,341.764 1851.55,315.216 
  1867.31,311.905 1883.06,366.826 1898.82,329.76 1914.57,412.069 1930.33,239.63 1946.09,279.754 1961.84,344.245 1977.6,323.667 1993.36,370.853 2009.11,318.967 
  2024.87,224.22 2040.62,347.768 2056.38,295.089 2072.14,237.137 2087.89,224.113 2103.65,305.401 2119.41,283.783 2135.16,249.443 2150.92,306.435 2166.67,390.705 
  2182.43,282.182 2198.19,262.677 2213.94,262.014 2229.7,272.335 2245.46,227.234 2261.21,650.852 2276.97,675.998 2292.72,625.296 
  "/>
<polyline clip-path="url(#clip3202)" style="stroke:#ed5d92; stroke-width:4; stroke-opacity:1; fill:none" points="
  291.679,572.589 307.435,542.574 323.192,464.809 338.948,586.363 354.704,530.042 370.46,589.94 386.217,607.616 401.973,546.015 417.729,578.529 433.485,561.4 
  449.242,602.325 464.998,561.477 480.754,642.912 496.51,611.654 512.267,488.236 528.023,561.567 543.779,580.325 559.536,557.468 575.292,530.186 591.048,548.182 
  606.804,605.778 622.561,582.139 638.317,552.86 654.073,533.117 669.829,570.804 685.586,492.233 701.342,577.732 717.098,645.112 732.854,590.145 748.611,315.981 
  764.367,294.75 780.123,280.545 795.879,258.497 811.636,200.909 827.392,272.829 843.148,254.849 858.905,242.93 874.661,309.126 890.417,246.725 906.173,268.15 
  921.93,245.169 937.686,253.232 953.442,246.279 969.198,276.174 984.955,216.157 1000.71,262.642 1016.47,234.016 1032.22,272.567 1047.98,287.669 1063.74,252.756 
  1079.49,287.25 1095.25,299.916 1111,257.624 1126.76,285.114 1142.52,305.95 1158.27,242.304 1174.03,253.346 1189.79,303.271 1205.54,255.197 1221.3,261.698 
  1237.05,305.336 1252.81,328.988 1268.57,229.239 1284.32,271.75 1300.08,344.167 1315.84,158.941 1331.59,289.264 1347.35,260.851 1363.1,215.654 1378.86,282.809 
  1394.62,332.297 1410.37,361.136 1426.13,211.036 1441.89,293.574 1457.64,315.113 1473.4,299.898 1489.16,242.568 1504.91,251.284 1520.67,356.677 1536.42,297.227 
  1552.18,261.905 1567.94,272.387 1583.69,204.574 1599.45,272.829 1615.21,246.643 1630.96,280.567 1646.72,234.941 1662.47,268.725 1678.23,207.77 1693.99,237.82 
  1709.74,261.72 1725.5,269.114 1741.26,224.623 1757.01,270.632 1772.77,286.101 1788.52,262.355 1804.28,242.768 1820.04,120.355 1835.79,305.687 1851.55,263.291 
  1867.31,241.814 1883.06,216.462 1898.82,269.72 1914.57,310.71 1930.33,145.697 1946.09,248.538 1961.84,234.25 1977.6,323.308 1993.36,289.341 2009.11,230.483 
  2024.87,219.464 2040.62,172.969 2056.38,220.05 2072.14,575.947 2087.89,457.146 2103.65,566.207 2119.41,568.513 2135.16,541.192 2150.92,537.3 2166.67,521.931 
  2182.43,546.584 2198.19,504.784 2213.94,537.008 2229.7,597.057 2245.46,621.511 2261.21,535.604 2276.97,506.546 2292.72,558.516 
  "/>
<polyline clip-path="url(#clip3202)" style="stroke:#c68125; stroke-width:4; stroke-opacity:1; fill:none" points="
  291.679,524.521 307.435,541.256 323.192,529.624 338.948,540.819 354.704,652.5 370.46,552.069 386.217,450.975 401.973,518.746 417.729,602.516 433.485,537.218 
  449.242,572.971 464.998,501.261 480.754,518.428 496.51,500.2 512.267,597.742 528.023,565.75 543.779,516.895 559.536,627.862 575.292,546.567 591.048,568.899 
  606.804,593.544 622.561,544.537 638.317,511.977 654.073,538.647 669.829,545.445 685.586,588.648 701.342,562.891 717.098,203.083 732.854,227.409 748.611,282.858 
  764.367,324.888 780.123,220.091 795.879,165.012 811.636,260.517 827.392,292.782 843.148,259.018 858.905,321.209 874.661,302.905 890.417,152.048 906.173,274.934 
  921.93,300.32 937.686,298.772 953.442,380.014 969.198,232.197 984.955,278.669 1000.71,326.348 1016.47,258.855 1032.22,241.125 1047.98,221.405 1063.74,318.524 
  1079.49,225.076 1095.25,190.224 1111,196.522 1126.76,222.207 1142.52,160.444 1158.27,214.49 1174.03,270.174 1189.79,360.681 1205.54,221.437 1221.3,234.971 
  1237.05,254.667 1252.81,219.539 1268.57,217.151 1284.32,269.176 1300.08,167.195 1315.84,213.493 1331.59,222.783 1347.35,225.469 1363.1,242.942 1378.86,235.206 
  1394.62,325.953 1410.37,248.78 1426.13,264.487 1441.89,243.304 1457.64,310.074 1473.4,301.894 1489.16,258.133 1504.91,297.013 1520.67,230.008 1536.42,251.167 
  1552.18,263.582 1567.94,355.796 1583.69,243.193 1599.45,240.063 1615.21,261.299 1630.96,164.515 1646.72,305.806 1662.47,223.326 1678.23,285.493 1693.99,327.643 
  1709.74,335.023 1725.5,197.885 1741.26,278.357 1757.01,274.289 1772.77,281.449 1788.52,259.853 1804.28,237.137 1820.04,247.335 1835.79,228.328 1851.55,221.885 
  1867.31,374.103 1883.06,279.237 1898.82,273.778 1914.57,250.757 1930.33,223.254 1946.09,136.015 1961.84,288.578 1977.6,528.189 1993.36,471.324 2009.11,523.438 
  2024.87,485.091 2040.62,556.741 2056.38,570.238 2072.14,462.726 2087.89,590.228 2103.65,591.178 2119.41,528.94 2135.16,468.857 2150.92,565.237 2166.67,599.081 
  2182.43,534.002 2198.19,544.437 2213.94,488.93 2229.7,569.705 2245.46,565.52 2261.21,589.705 2276.97,519.494 2292.72,497.83 
  "/>
<polyline clip-path="url(#clip3202)" style="stroke:#00a98d; stroke-width:4; stroke-opacity:1; fill:none" points="
  291.679,611.715 307.435,635.827 323.192,634.983 338.948,646.933 354.704,623.486 370.46,514.516 386.217,531.116 401.973,557.737 417.729,632.436 433.485,595.681 
  449.242,616.566 464.998,635.649 480.754,665.111 496.51,647.827 512.267,669.978 528.023,551.459 543.779,646.334 559.536,706.38 575.292,650.458 591.048,614.22 
  606.804,626.519 622.561,640.273 638.317,600.083 654.073,594.146 669.829,667.917 685.586,661.04 701.342,590.23 717.098,662.008 732.854,210.314 748.611,277.459 
  764.367,240.204 780.123,357.419 795.879,342.463 811.636,284.457 827.392,392.105 843.148,311.774 858.905,306.03 874.661,329.368 890.417,223.507 906.173,323.229 
  921.93,170.297 937.686,401.82 953.442,333.373 969.198,338.293 984.955,381.811 1000.71,397.038 1016.47,179.51 1032.22,218.381 1047.98,334.02 1063.74,193.731 
  1079.49,318.752 1095.25,352.745 1111,270.165 1126.76,231.835 1142.52,272.392 1158.27,391.9 1174.03,386.509 1189.79,314.971 1205.54,275.034 1221.3,288.153 
  1237.05,253.563 1252.81,307.787 1268.57,248.367 1284.32,298.406 1300.08,320.808 1315.84,350.481 1331.59,371.518 1347.35,174.022 1363.1,348.056 1378.86,245.08 
  1394.62,339.209 1410.37,288.951 1426.13,190.662 1441.89,281.108 1457.64,221.188 1473.4,330.029 1489.16,343.051 1504.91,312.808 1520.67,256.841 1536.42,220.132 
  1552.18,181.288 1567.94,312.332 1583.69,351.298 1599.45,301.18 1615.21,269.689 1630.96,299.526 1646.72,316.216 1662.47,301.462 1678.23,253.95 1693.99,225.727 
  1709.74,394.852 1725.5,260.42 1741.26,332.323 1757.01,278.462 1772.77,302.192 1788.52,217.582 1804.28,266.923 1820.04,262.925 1835.79,261.908 1851.55,255.915 
  1867.31,248.327 1883.06,302.806 1898.82,299.231 1914.57,273.627 1930.33,296.146 1946.09,274.484 1961.84,321.497 1977.6,244.163 1993.36,273.333 2009.11,220.441 
  2024.87,202.144 2040.62,265.279 2056.38,297.453 2072.14,305.267 2087.89,241.468 2103.65,437.783 2119.41,375.252 2135.16,263.486 2150.92,282.324 2166.67,276.937 
  2182.43,300.828 2198.19,317.314 2213.94,195.559 2229.7,351.422 2245.46,375.093 2261.21,312.434 2276.97,275.573 2292.72,341.424 
  "/>
<polyline clip-path="url(#clip3202)" style="stroke:#8e971d; stroke-width:4; stroke-opacity:1; fill:none" points="
  291.679,510.821 307.435,492.515 323.192,415.05 338.948,511.351 354.704,621.521 370.46,598.612 386.217,559.928 401.973,576.873 417.729,548.445 433.485,530.784 
  449.242,545.552 464.998,590.124 480.754,530.018 496.51,473.475 512.267,528.463 528.023,564.887 543.779,506.656 559.536,526.733 575.292,505.247 591.048,495.74 
  606.804,618.979 622.561,482.56 638.317,498.037 654.073,540.11 669.829,484.732 685.586,495.416 701.342,485.976 717.098,577.889 732.854,261.956 748.611,262.314 
  764.367,277.817 780.123,237.643 795.879,201.079 811.636,178.136 827.392,191.592 843.148,228.787 858.905,285.822 874.661,241.997 890.417,213.896 906.173,231.081 
  921.93,228.09 937.686,272.079 953.442,312.649 969.198,241.373 984.955,197.694 1000.71,231.876 1016.47,208.807 1032.22,235.186 1047.98,204.415 1063.74,172.615 
  1079.49,285.744 1095.25,288.561 1111,284.22 1126.76,183.401 1142.52,196.731 1158.27,267.44 1174.03,215.676 1189.79,293.119 1205.54,239.832 1221.3,132.78 
  1237.05,241.64 1252.81,201.86 1268.57,215.344 1284.32,243.348 1300.08,283.194 1315.84,321.348 1331.59,250.152 1347.35,269.714 1363.1,288.075 1378.86,200.227 
  1394.62,268.647 1410.37,222.424 1426.13,213 1441.89,246.415 1457.64,214.404 1473.4,155.665 1489.16,300.755 1504.91,261.137 1520.67,257.728 1536.42,302.394 
  1552.18,233.647 1567.94,195.607 1583.69,129.445 1599.45,167.578 1615.21,179.131 1630.96,282.357 1646.72,196.469 1662.47,176.712 1678.23,240.305 1693.99,199.436 
  1709.74,304.107 1725.5,191.62 1741.26,316.541 1757.01,306.437 1772.77,262.499 1788.52,237.138 1804.28,134.574 1820.04,474.176 1835.79,520.167 1851.55,470.008 
  1867.31,507.81 1883.06,542.026 1898.82,530.982 1914.57,520.748 1930.33,486.753 1946.09,499.64 1961.84,489.247 1977.6,481.932 1993.36,612.586 2009.11,465.931 
  2024.87,516.829 2040.62,495.676 2056.38,458.649 2072.14,488.95 2087.89,514.784 2103.65,424.023 2119.41,471.995 2135.16,534.295 2150.92,491.01 2166.67,520.472 
  2182.43,381.379 2198.19,549.458 2213.94,435.224 2229.7,544.048 2245.46,545.119 2261.21,537.054 2276.97,559.845 2292.72,496.233 
  "/>
<polyline clip-path="url(#clip3202)" style="stroke:#ff0000; stroke-width:16; stroke-opacity:1; fill:none" points="
  291.679,527.92 307.435,525.289 323.192,518.903 338.948,548.839 354.704,569.381 370.46,542.17 386.217,527.511 401.973,537.712 417.729,560.275 433.485,531.477 
  449.242,549.766 464.998,560.906 480.754,565.268 496.51,527.604 512.267,553.226 528.023,551.557 543.779,497.375 559.536,509.693 575.292,484.375 591.048,492.47 
  606.804,468.781 622.561,467.259 638.317,451.65 654.073,451.835 669.829,429.044 685.586,401.325 701.342,407.012 717.098,353.992 732.854,270.864 748.611,269.803 
  764.367,247.87 780.123,268.854 795.879,227.005 811.636,234.553 827.392,243.987 843.148,238.099 858.905,231.483 874.661,259.807 890.417,214.029 906.173,248.818 
  921.93,237.633 937.686,261.49 953.442,253.13 969.198,254.551 984.955,232.991 1000.71,264.111 1016.47,236.232 1032.22,236.665 1047.98,243.486 1063.74,241.361 
  1079.49,275.373 1095.25,279.326 1111,236.465 1126.76,200.902 1142.52,218.141 1158.27,253.189 1174.03,281.273 1189.79,262.624 1205.54,245.586 1221.3,240.39 
  1237.05,228.02 1252.81,239.498 1268.57,217.027 1284.32,233.53 1300.08,225.877 1315.84,238.065 1331.59,247.027 1347.35,210.134 1363.1,292.714 1378.86,245.502 
  1394.62,280.852 1410.37,298.485 1426.13,266.35 1441.89,299.765 1457.64,267.177 1473.4,280.95 1489.16,289.437 1504.91,287.365 1520.67,281.973 1536.42,290.196 
  1552.18,259.093 1567.94,272.271 1583.69,267.804 1599.45,271.521 1615.21,266.116 1630.96,319.798 1646.72,293.718 1662.47,284.866 1678.23,321.171 1693.99,327.984 
  1709.74,385.431 1725.5,348.067 1741.26,364.223 1757.01,360.035 1772.77,382.699 1788.52,391.822 1804.28,360.207 1820.04,416.604 1835.79,411.737 1851.55,393.87 
  1867.31,404.122 1883.06,420.647 1898.82,421.106 1914.57,424.634 1930.33,408.412 1946.09,397.512 1961.84,438.177 1977.6,426.966 1993.36,446.269 2009.11,416.961 
  2024.87,394.455 2040.62,427.045 2056.38,421.435 2072.14,472.139 2087.89,467.686 2103.65,493.832 2119.41,469.793 2135.16,472.431 2150.92,468.369 2166.67,495.242 
  2182.43,455.636 2198.19,470.455 2213.94,457.49 2229.7,486.538 2245.46,482.194 2261.21,490.355 2276.97,514.883 2292.72,512.548 
  "/>
<polyline clip-path="url(#clip3202)" style="stroke:#008000; stroke-width:16; stroke-opacity:1; fill:none" points="
  291.679,521.588 307.435,522.057 323.192,529.678 338.948,538.25 354.704,544.557 370.46,548.362 386.217,550.689 401.973,552.488 417.729,554.184 433.485,555.036 
  449.242,555.611 464.998,555.069 480.754,553.429 496.51,550.655 512.267,547.994 528.023,545.312 543.779,542.647 559.536,541.149 575.292,539.426 591.048,538.529 
  606.804,536.888 622.561,536.38 638.317,535.971 654.073,535.874 669.829,537.269 685.586,547.724 701.342,274.355 717.098,266.361 732.854,260.802 748.611,258.172 
  764.367,255.259 780.123,251.547 795.879,250.052 811.636,248.686 827.392,248.428 843.148,247.997 858.905,247.791 874.661,247.167 890.417,246.518 906.173,245.331 
  921.93,244.731 937.686,243.591 953.442,243.229 969.198,242.252 984.955,242.793 1000.71,241.932 1016.47,242.847 1032.22,242.569 1047.98,242.462 1063.74,243.228 
  1079.49,243.221 1095.25,243.677 1111,243.788 1126.76,243.522 1142.52,243.673 1158.27,244.192 1174.03,244.225 1189.79,244.803 1205.54,245.445 1221.3,246.354 
  1237.05,248.272 1252.81,248.728 1268.57,250.614 1284.32,250.574 1300.08,251.707 1315.84,251.738 1331.59,250.623 1347.35,251.905 1363.1,248.765 1378.86,250.066 
  1394.62,247.908 1410.37,247.161 1426.13,247.481 1441.89,246.162 1457.64,247.297 1473.4,247.389 1489.16,248.609 1504.91,249.774 1520.67,251.158 1536.42,251.92 
  1552.18,253.16 1567.94,253.315 1583.69,253.686 1599.45,253.043 1615.21,252.291 1630.96,252.664 1646.72,251.278 1662.47,249.692 1678.23,248.804 1693.99,244.398 
  1709.74,242.653 1725.5,235.689 1741.26,231.105 1757.01,223.22 1772.77,232.886 1788.52,428.349 1804.28,491.614 1820.04,494.024 1835.79,490.598 1851.55,487.22 
  1867.31,486.038 1883.06,486.072 1898.82,486.311 1914.57,488.205 1930.33,489.909 1946.09,491.418 1961.84,495.027 1977.6,495.215 1993.36,497.288 2009.11,496.495 
  2024.87,494.356 2040.62,491.921 2056.38,484.874 2072.14,476.506 2087.89,464.858 2103.65,452.54 2119.41,445.604 2135.16,451.017 2150.92,472.578 2166.67,501.657 
  2182.43,520.459 2198.19,524.461 2213.94,521.565 2229.7,516.93 2245.46,510.081 2261.21,503.375 2276.97,500.116 2292.72,507.462 
  "/>
<path clip-path="url(#clip3200)" d="
M786.002 581.578 L1383.11 581.578 L1383.11 400.138 L786.002 400.138  Z
  " fill="#ffffff" fill-rule="evenodd" fill-opacity="1"/>
<polyline clip-path="url(#clip3200)" style="stroke:#000000; stroke-width:4; stroke-opacity:1; fill:none" points="
  786.002,581.578 1383.11,581.578 1383.11,400.138 786.002,400.138 786.002,581.578 
  "/>
<polyline clip-path="url(#clip3200)" style="stroke:#ff0000; stroke-width:16; stroke-opacity:1; fill:none" points="
  810.002,460.618 954.002,460.618 
  "/>
<g clip-path="url(#clip3200)">
<text style="fill:#000000; fill-opacity:1; font-family:Arial,Helvetica Neue,Helvetica,sans-serif; font-size:48px; text-anchor:start;" transform="rotate(0, 978.002, 478.118)" x="978.002" y="478.118">Euclidean mean</text>
</g>
<polyline clip-path="url(#clip3200)" style="stroke:#008000; stroke-width:16; stroke-opacity:1; fill:none" points="
  810.002,521.098 954.002,521.098 
  "/>
<g clip-path="url(#clip3200)">
<text style="fill:#000000; fill-opacity:1; font-family:Arial,Helvetica Neue,Helvetica,sans-serif; font-size:48px; text-anchor:start;" transform="rotate(0, 978.002, 538.598)" x="978.002" y="538.598">Soft-DTW mean</text>
</g>
<path clip-path="url(#clip3200)" d="
M231.648 1525.58 L850.127 1525.58 L850.127 894.488 L231.648 894.488  Z
  " fill="#ffffff" fill-rule="evenodd" fill-opacity="1"/>
<defs>
  <clipPath id="clip3203">
    <rect x="231" y="894" width="619" height="632"/>
  </clipPath>
</defs>
<polyline clip-path="url(#clip3203)" style="stroke:#000000; stroke-width:2; stroke-opacity:0.1; fill:none" points="
  244.558,1525.58 244.558,894.488 
  "/>
<polyline clip-path="url(#clip3203)" style="stroke:#000000; stroke-width:2; stroke-opacity:0.1; fill:none" points="
  336.443,1525.58 336.443,894.488 
  "/>
<polyline clip-path="url(#clip3203)" style="stroke:#000000; stroke-width:2; stroke-opacity:0.1; fill:none" points="
  428.328,1525.58 428.328,894.488 
  "/>
<polyline clip-path="url(#clip3203)" style="stroke:#000000; stroke-width:2; stroke-opacity:0.1; fill:none" points="
  520.213,1525.58 520.213,894.488 
  "/>
<polyline clip-path="url(#clip3203)" style="stroke:#000000; stroke-width:2; stroke-opacity:0.1; fill:none" points="
  612.098,1525.58 612.098,894.488 
  "/>
<polyline clip-path="url(#clip3203)" style="stroke:#000000; stroke-width:2; stroke-opacity:0.1; fill:none" points="
  703.983,1525.58 703.983,894.488 
  "/>
<polyline clip-path="url(#clip3203)" style="stroke:#000000; stroke-width:2; stroke-opacity:0.1; fill:none" points="
  703.983,1525.58 703.983,894.488 
  "/>
<polyline clip-path="url(#clip3203)" style="stroke:#000000; stroke-width:2; stroke-opacity:0.1; fill:none" points="
  231.648,1489.57 850.127,1489.57 
  "/>
<polyline clip-path="url(#clip3203)" style="stroke:#000000; stroke-width:2; stroke-opacity:0.1; fill:none" points="
  231.648,1404.47 850.127,1404.47 
  "/>
<polyline clip-path="url(#clip3203)" style="stroke:#000000; stroke-width:2; stroke-opacity:0.1; fill:none" points="
  231.648,1319.36 850.127,1319.36 
  "/>
<polyline clip-path="url(#clip3203)" style="stroke:#000000; stroke-width:2; stroke-opacity:0.1; fill:none" points="
  231.648,1234.26 850.127,1234.26 
  "/>
<polyline clip-path="url(#clip3203)" style="stroke:#000000; stroke-width:2; stroke-opacity:0.1; fill:none" points="
  231.648,1149.16 850.127,1149.16 
  "/>
<polyline clip-path="url(#clip3203)" style="stroke:#000000; stroke-width:2; stroke-opacity:0.1; fill:none" points="
  231.648,1064.06 850.127,1064.06 
  "/>
<polyline clip-path="url(#clip3203)" style="stroke:#000000; stroke-width:2; stroke-opacity:0.1; fill:none" points="
  231.648,978.96 850.127,978.96 
  "/>
<polyline clip-path="url(#clip3203)" style="stroke:#009af9; stroke-width:4; stroke-opacity:1; fill:none" points="
  249.152,1313.28 253.746,1328.73 258.34,1377.72 262.935,1381.64 267.529,1393.64 272.123,1373.36 276.717,1279.13 281.312,1448.39 285.906,1447.08 290.5,1390.56 
  295.094,1391.21 299.689,1401.83 304.283,1453.49 308.877,1428.88 313.471,1412.78 318.066,1296.45 322.66,1351.94 327.254,1401.16 331.848,1402.99 336.443,1385.25 
  341.037,1423.17 345.631,1365.1 350.225,1406.22 354.82,1378.42 359.414,1460.25 364.008,1355.6 368.603,1455.14 373.197,1007.65 377.791,1075 382.385,1023.89 
  386.98,1054.52 391.574,1079.25 396.168,1000.86 400.762,1074.77 405.357,1079.33 409.951,1075.79 414.545,980.019 419.139,1009.72 423.734,1026.77 428.328,1072.85 
  432.922,1205.5 437.516,1067.91 442.111,1024.89 446.705,1136.98 451.299,1106.38 455.893,1070.55 460.488,1101.28 465.082,1046.29 469.676,1064.01 474.27,1140.53 
  478.865,1188.5 483.459,1042.7 488.053,1051.15 492.647,1051.85 497.242,1037.77 501.836,1105.01 506.43,1208.53 511.025,1060.61 515.619,1020.27 520.213,1062.84 
  524.807,1036.42 529.402,1093 533.996,981.497 538.59,1046.17 543.184,972.268 547.779,1044.38 552.373,912.349 556.967,997.672 561.561,1037.39 566.156,976.431 
  570.75,956.222 575.344,1096.36 579.938,1119.09 584.533,1113.52 589.127,1002.55 593.721,1010.89 598.315,1133.57 602.91,1092.67 607.504,1047.54 612.098,1070.03 
  616.692,1076.67 621.287,1023.87 625.881,1043.35 630.475,1075.18 635.07,1027.21 639.664,1507.72 644.258,1335.5 648.852,1363.04 653.447,1330.61 658.041,1344.64 
  662.635,1346 667.229,1324.85 671.824,1253.85 676.418,1331.82 681.012,1326.37 685.606,1353.42 690.201,1438.32 694.795,1396.42 699.389,1404.17 703.983,1374.68 
  708.578,1299.07 713.172,1315.38 717.766,1336.62 722.36,1297.13 726.955,1455.36 731.549,1390.58 736.143,1449.54 740.737,1403.09 745.332,1371.37 749.926,1391.01 
  754.52,1296.6 759.114,1293.22 763.709,1412.45 768.303,1389.94 772.897,1389.42 777.492,1402.22 782.086,1441.73 786.68,1324.41 791.274,1460.82 795.869,1418.71 
  800.463,1407.52 805.057,1390.17 809.651,1427.32 814.246,1390.89 818.84,1368.61 823.434,1342.97 828.028,1398.28 832.623,1446.19 
  "/>
<path clip-path="url(#clip3200)" d="
M1025.88 1525.58 L1644.36 1525.58 L1644.36 894.488 L1025.88 894.488  Z
  " fill="#ffffff" fill-rule="evenodd" fill-opacity="1"/>
<defs>
  <clipPath id="clip3204">
    <rect x="1025" y="894" width="619" height="632"/>
  </clipPath>
</defs>
<polyline clip-path="url(#clip3204)" style="stroke:#000000; stroke-width:2; stroke-opacity:0.1; fill:none" points="
  1038.79,1525.58 1038.79,894.488 
  "/>
<polyline clip-path="url(#clip3204)" style="stroke:#000000; stroke-width:2; stroke-opacity:0.1; fill:none" points="
  1130.68,1525.58 1130.68,894.488 
  "/>
<polyline clip-path="url(#clip3204)" style="stroke:#000000; stroke-width:2; stroke-opacity:0.1; fill:none" points="
  1222.56,1525.58 1222.56,894.488 
  "/>
<polyline clip-path="url(#clip3204)" style="stroke:#000000; stroke-width:2; stroke-opacity:0.1; fill:none" points="
  1314.45,1525.58 1314.45,894.488 
  "/>
<polyline clip-path="url(#clip3204)" style="stroke:#000000; stroke-width:2; stroke-opacity:0.1; fill:none" points="
  1406.33,1525.58 1406.33,894.488 
  "/>
<polyline clip-path="url(#clip3204)" style="stroke:#000000; stroke-width:2; stroke-opacity:0.1; fill:none" points="
  1498.22,1525.58 1498.22,894.488 
  "/>
<polyline clip-path="url(#clip3204)" style="stroke:#000000; stroke-width:2; stroke-opacity:0.1; fill:none" points="
  1498.22,1525.58 1498.22,894.488 
  "/>
<polyline clip-path="url(#clip3204)" style="stroke:#000000; stroke-width:2; stroke-opacity:0.1; fill:none" points="
  1025.88,1448.03 1644.36,1448.03 
  "/>
<polyline clip-path="url(#clip3204)" style="stroke:#000000; stroke-width:2; stroke-opacity:0.1; fill:none" points="
  1025.88,1355.29 1644.36,1355.29 
  "/>
<polyline clip-path="url(#clip3204)" style="stroke:#000000; stroke-width:2; stroke-opacity:0.1; fill:none" points="
  1025.88,1262.56 1644.36,1262.56 
  "/>
<polyline clip-path="url(#clip3204)" style="stroke:#000000; stroke-width:2; stroke-opacity:0.1; fill:none" points="
  1025.88,1169.82 1644.36,1169.82 
  "/>
<polyline clip-path="url(#clip3204)" style="stroke:#000000; stroke-width:2; stroke-opacity:0.1; fill:none" points="
  1025.88,1077.08 1644.36,1077.08 
  "/>
<polyline clip-path="url(#clip3204)" style="stroke:#000000; stroke-width:2; stroke-opacity:0.1; fill:none" points="
  1025.88,984.346 1644.36,984.346 
  "/>
<polyline clip-path="url(#clip3204)" style="stroke:#009af9; stroke-width:4; stroke-opacity:1; fill:none" points="
  1043.39,1336.18 1047.98,1297 1052.57,1420.47 1057.17,1440.36 1061.76,1385.96 1066.36,1430.21 1070.95,1507.72 1075.55,1324.06 1080.14,1358.32 1084.73,1318.85 
  1089.33,1403.43 1093.92,1381.12 1098.52,1332.79 1103.11,1457.07 1107.71,1341.23 1112.3,1428.65 1116.89,1025.78 1121.49,965.663 1126.08,949.142 1130.68,1100.24 
  1135.27,994.141 1139.87,1020.75 1144.46,955.173 1149.05,1005.34 1153.65,977.455 1158.24,1018.66 1162.84,1023.14 1167.43,1069.44 1172.03,1010.62 1176.62,1044.93 
  1181.21,1087.36 1185.81,1192.42 1190.4,999.245 1195,1003.95 1199.59,1020.26 1204.19,1074.99 1208.78,920.503 1213.37,1071.93 1217.97,1006.62 1222.56,1083.45 
  1227.16,946.005 1231.75,964.341 1236.35,1085.08 1240.94,951.408 1245.53,984.294 1250.13,1081.5 1254.72,1159.63 1259.32,1086.45 1263.91,912.349 1268.51,990.408 
  1273.1,996.232 1277.69,1014.44 1282.29,1000.93 1286.88,916.452 1291.48,971.585 1296.07,1030.29 1300.66,1063.73 1305.26,966.902 1309.85,1049.7 1314.45,1071.59 
  1319.04,1077.54 1323.64,1072.18 1328.23,962.785 1332.82,1047.2 1337.42,940.62 1342.01,1110.76 1346.61,1014.33 1351.2,1032.48 1355.8,1165.96 1360.39,970.79 
  1364.98,1061.57 1369.58,1072.84 1374.17,1027.36 1378.77,1164.64 1383.36,1070.62 1387.96,954.656 1392.55,1044.94 1397.14,1074.28 1401.74,1034.24 1406.33,1066.5 
  1410.93,1044.83 1415.52,1032.97 1420.12,1029.31 1424.71,1056.05 1429.3,1013.21 1433.9,1126.99 1438.49,1019.45 1443.09,1083.46 1447.68,973.484 1452.28,974.923 
  1456.87,1121.41 1461.46,1072.34 1466.06,1031.56 1470.65,933.701 1475.25,1436.54 1479.84,1364.01 1484.44,1408.46 1489.03,1444.72 1493.62,1453.73 1498.22,1315.44 
  1502.81,1348.05 1507.41,1390.05 1512,1406.93 1516.6,1467.37 1521.19,1368.46 1525.78,1480.58 1530.38,1423.17 1534.97,1310.69 1539.57,1399.03 1544.16,1341.24 
  1548.75,1248.28 1553.35,1317.2 1557.94,1274.15 1562.54,1382.96 1567.13,1463.22 1571.73,1499.36 1576.32,1370.39 1580.91,1491.27 1585.51,1366.9 1590.1,1460.77 
  1594.7,1422.81 1599.29,1384.08 1603.89,1354.53 1608.48,1385.67 1613.07,1339.81 1617.67,1277.78 1622.26,1403.33 1626.86,1428.1 
  "/>
<path clip-path="url(#clip3200)" d="
M1734.28 1525.58 L2352.76 1525.58 L2352.76 894.488 L1734.28 894.488  Z
  " fill="#ffffff" fill-rule="evenodd" fill-opacity="1"/>
<defs>
  <clipPath id="clip3205">
    <rect x="1734" y="894" width="619" height="632"/>
  </clipPath>
</defs>
<polyline clip-path="url(#clip3205)" style="stroke:#000000; stroke-width:2; stroke-opacity:0.1; fill:none" points="
  1747.19,1525.58 1747.19,894.488 
  "/>
<polyline clip-path="url(#clip3205)" style="stroke:#000000; stroke-width:2; stroke-opacity:0.1; fill:none" points="
  1839.07,1525.58 1839.07,894.488 
  "/>
<polyline clip-path="url(#clip3205)" style="stroke:#000000; stroke-width:2; stroke-opacity:0.1; fill:none" points="
  1930.96,1525.58 1930.96,894.488 
  "/>
<polyline clip-path="url(#clip3205)" style="stroke:#000000; stroke-width:2; stroke-opacity:0.1; fill:none" points="
  2022.84,1525.58 2022.84,894.488 
  "/>
<polyline clip-path="url(#clip3205)" style="stroke:#000000; stroke-width:2; stroke-opacity:0.1; fill:none" points="
  2114.73,1525.58 2114.73,894.488 
  "/>
<polyline clip-path="url(#clip3205)" style="stroke:#000000; stroke-width:2; stroke-opacity:0.1; fill:none" points="
  2206.61,1525.58 2206.61,894.488 
  "/>
<polyline clip-path="url(#clip3205)" style="stroke:#000000; stroke-width:2; stroke-opacity:0.1; fill:none" points="
  2206.61,1525.58 2206.61,894.488 
  "/>
<polyline clip-path="url(#clip3205)" style="stroke:#000000; stroke-width:2; stroke-opacity:0.1; fill:none" points="
  1734.28,1415.06 2352.76,1415.06 
  "/>
<polyline clip-path="url(#clip3205)" style="stroke:#000000; stroke-width:2; stroke-opacity:0.1; fill:none" points="
  1734.28,1248.28 2352.76,1248.28 
  "/>
<polyline clip-path="url(#clip3205)" style="stroke:#000000; stroke-width:2; stroke-opacity:0.1; fill:none" points="
  1734.28,1081.5 2352.76,1081.5 
  "/>
<polyline clip-path="url(#clip3205)" style="stroke:#000000; stroke-width:2; stroke-opacity:0.1; fill:none" points="
  1734.28,914.726 2352.76,914.726 
  "/>
<polyline clip-path="url(#clip3205)" style="stroke:#009af9; stroke-width:4; stroke-opacity:1; fill:none" points="
  1751.78,1325.78 1756.38,1342.97 1760.97,1253.62 1765.56,1354.2 1770.16,1348.82 1774.75,1292.79 1779.35,1292.82 1783.94,1403.56 1788.54,1323.23 1793.13,1368.59 
  1797.72,1314.54 1802.32,1408.75 1806.91,1485.22 1811.51,1378.94 1816.1,1325.4 1820.69,1444.45 1825.29,1331.95 1829.88,1345.83 1834.48,1344.88 1839.07,1401.94 
  1843.67,1367.76 1848.26,1339.64 1852.85,1413.54 1857.45,1272.71 1862.04,1368.37 1866.64,1054.99 1871.23,1135.42 1875.83,1010.01 1880.42,1007.23 1885.01,1028.04 
  1889.61,1008.82 1894.2,965.766 1898.8,1001.39 1903.39,1014.33 1907.99,947.838 1912.58,984.527 1917.17,991.822 1921.77,1026.4 1926.36,1078.8 1930.96,1000.76 
  1935.55,992.642 1940.15,1073.87 1944.74,1010.76 1949.33,1067.57 1953.93,994.63 1958.52,1038.52 1963.12,956.435 1967.71,1040.25 1972.31,1074.51 1976.9,1090.2 
  1981.49,1069.08 1986.09,1097.61 1990.68,996.133 1995.28,1016 1999.87,1031.45 2004.47,1108.5 2009.06,1038.61 2013.65,1032.91 2018.25,1092.66 2022.84,1059.46 
  2027.44,1031.66 2032.03,1066.95 2036.62,1100.78 2041.22,962.816 2045.81,934.472 2050.41,912.349 2055,1021.75 2059.6,957.605 2064.19,1280.74 2068.78,1363.63 
  2073.38,1379.06 2077.97,1422.68 2082.57,1400.49 2087.16,1354.7 2091.76,1333.9 2096.35,1368.2 2100.94,1352.54 2105.54,1430.86 2110.13,1316.38 2114.73,1390 
  2119.32,1306.01 2123.92,1337.19 2128.51,1298.17 2133.1,1407.35 2137.7,1417.86 2142.29,1355.65 2146.89,1278.74 2151.48,1347.3 2156.08,1407.54 2160.67,1387.65 
  2165.26,1259.71 2169.86,1414.49 2174.45,1344.23 2179.05,1394.8 2183.64,1343.85 2188.24,1467.17 2192.83,1375.76 2197.42,1464.78 2202.02,1359.28 2206.61,1437.52 
  2211.21,1374.37 2215.8,1281.91 2220.4,1335.59 2224.99,1339.57 2229.58,1356.62 2234.18,1332.17 2238.77,1423.17 2243.37,1319.55 2247.96,1336.43 2252.56,1310.4 
  2257.15,1337.65 2261.74,1426.25 2266.34,1294.2 2270.93,1458.65 2275.53,1355.84 2280.12,1356.24 2284.71,1351.53 2289.31,1507.72 2293.9,1296.1 2298.5,1354.55 
  2303.09,1274.18 2307.69,1363.05 2312.28,1395.98 2316.87,1376.08 2321.47,1392.6 2326.06,1295.73 2330.66,1363.01 2335.25,1396.32 
  "/>
</svg>
