<?xml version="1.0" encoding="utf-8"?>
<svg xmlns="http://www.w3.org/2000/svg" xmlns:xlink="http://www.w3.org/1999/xlink" width="600" height="400" viewBox="0 0 2400 1600">
<defs>
  <clipPath id="clip160">
    <rect x="0" y="0" width="2400" height="1600"/>
  </clipPath>
</defs>
<path clip-path="url(#clip160)" d="M0 1600 L2400 1600 L2400 0 L0 0  Z" fill="#ffffff" fill-rule="evenodd" fill-opacity="1"/>
<defs>
  <clipPath id="clip161">
    <rect x="480" y="0" width="1681" height="1600"/>
  </clipPath>
</defs>
<path clip-path="url(#clip160)" d="M210.746 1423.18 L1155.57 1423.18 L1155.57 47.2441 L210.746 47.2441  Z" fill="#ffffff" fill-rule="evenodd" fill-opacity="1"/>
<defs>
  <clipPath id="clip162">
    <rect x="210" y="47" width="946" height="1377"/>
  </clipPath>
</defs>
<polyline clip-path="url(#clip162)" style="stroke:#000000; stroke-linecap:round; stroke-linejoin:round; stroke-width:2; stroke-opacity:0.1; fill:none" points="450.098,1423.18 450.098,47.2441 "/>
<polyline clip-path="url(#clip162)" style="stroke:#000000; stroke-linecap:round; stroke-linejoin:round; stroke-width:2; stroke-opacity:0.1; fill:none" points="694.603,1423.18 694.603,47.2441 "/>
<polyline clip-path="url(#clip162)" style="stroke:#000000; stroke-linecap:round; stroke-linejoin:round; stroke-width:2; stroke-opacity:0.1; fill:none" points="939.108,1423.18 939.108,47.2441 "/>
<polyline clip-path="url(#clip160)" style="stroke:#000000; stroke-linecap:round; stroke-linejoin:round; stroke-width:4; stroke-opacity:1; fill:none" points="210.746,1423.18 1155.57,1423.18 "/>
<polyline clip-path="url(#clip160)" style="stroke:#000000; stroke-linecap:round; stroke-linejoin:round; stroke-width:4; stroke-opacity:1; fill:none" points="450.098,1423.18 450.098,1404.28 "/>
<polyline clip-path="url(#clip160)" style="stroke:#000000; stroke-linecap:round; stroke-linejoin:round; stroke-width:4; stroke-opacity:1; fill:none" points="694.603,1423.18 694.603,1404.28 "/>
<polyline clip-path="url(#clip160)" style="stroke:#000000; stroke-linecap:round; stroke-linejoin:round; stroke-width:4; stroke-opacity:1; fill:none" points="939.108,1423.18 939.108,1404.28 "/>
<path clip-path="url(#clip160)" d="M419.855 1468.75 L449.531 1468.75 L449.531 1472.69 L419.855 1472.69 L419.855 1468.75 Z" fill="#000000" fill-rule="evenodd" fill-opacity="1" /><path clip-path="url(#clip160)" d="M460.433 1481.64 L468.072 1481.64 L468.072 1455.28 L459.762 1456.95 L459.762 1452.69 L468.026 1451.02 L472.702 1451.02 L472.702 1481.64 L480.341 1481.64 L480.341 1485.58 L460.433 1485.58 L460.433 1481.64 Z" fill="#000000" fill-rule="evenodd" fill-opacity="1" /><path clip-path="url(#clip160)" d="M694.603 1454.1 Q690.992 1454.1 689.163 1457.66 Q687.358 1461.2 687.358 1468.33 Q687.358 1475.44 689.163 1479.01 Q690.992 1482.55 694.603 1482.55 Q698.237 1482.55 700.043 1479.01 Q701.871 1475.44 701.871 1468.33 Q701.871 1461.2 700.043 1457.66 Q698.237 1454.1 694.603 1454.1 M694.603 1450.39 Q700.413 1450.39 703.469 1455 Q706.547 1459.58 706.547 1468.33 Q706.547 1477.06 703.469 1481.67 Q700.413 1486.25 694.603 1486.25 Q688.793 1486.25 685.714 1481.67 Q682.659 1477.06 682.659 1468.33 Q682.659 1459.58 685.714 1455 Q688.793 1450.39 694.603 1450.39 Z" fill="#000000" fill-rule="evenodd" fill-opacity="1" /><path clip-path="url(#clip160)" d="M929.49 1481.64 L937.129 1481.64 L937.129 1455.28 L928.819 1456.95 L928.819 1452.69 L937.083 1451.02 L941.758 1451.02 L941.758 1481.64 L949.397 1481.64 L949.397 1485.58 L929.49 1485.58 L929.49 1481.64 Z" fill="#000000" fill-rule="evenodd" fill-opacity="1" /><path clip-path="url(#clip160)" d="M474.744 1533.45 L474.744 1538.98 Q472.261 1537.71 469.588 1537.07 Q466.914 1536.44 464.05 1536.44 Q459.689 1536.44 457.493 1537.77 Q455.329 1539.11 455.329 1541.79 Q455.329 1543.82 456.888 1545 Q458.448 1546.15 463.158 1547.2 L465.164 1547.64 Q471.402 1548.98 474.012 1551.43 Q476.654 1553.85 476.654 1558.21 Q476.654 1563.17 472.707 1566.07 Q468.792 1568.97 461.917 1568.97 Q459.052 1568.97 455.933 1568.39 Q452.846 1567.85 449.408 1566.74 L449.408 1560.69 Q452.655 1562.38 455.806 1563.24 Q458.957 1564.07 462.044 1564.07 Q466.182 1564.07 468.41 1562.66 Q470.638 1561.23 470.638 1558.65 Q470.638 1556.27 469.015 1554.99 Q467.423 1553.72 461.981 1552.54 L459.944 1552.07 Q454.501 1550.92 452.082 1548.56 Q449.663 1546.18 449.663 1542.04 Q449.663 1537.01 453.228 1534.27 Q456.793 1531.54 463.349 1531.54 Q466.596 1531.54 469.46 1532.01 Q472.325 1532.49 474.744 1533.45 Z" fill="#000000" fill-rule="evenodd" fill-opacity="1" /><path clip-path="url(#clip160)" d="M485.979 1532.4 L491.836 1532.4 L491.836 1568.04 L485.979 1568.04 L485.979 1532.4 M485.979 1518.52 L491.836 1518.52 L491.836 1525.93 L485.979 1525.93 L485.979 1518.52 Z" fill="#000000" fill-rule="evenodd" fill-opacity="1" /><path clip-path="url(#clip160)" d="M527.547 1549.81 Q527.547 1543.44 524.906 1539.94 Q522.296 1536.44 517.553 1536.44 Q512.843 1536.44 510.201 1539.94 Q507.591 1543.44 507.591 1549.81 Q507.591 1556.14 510.201 1559.64 Q512.843 1563.14 517.553 1563.14 Q522.296 1563.14 524.906 1559.64 Q527.547 1556.14 527.547 1549.81 M533.404 1563.62 Q533.404 1572.72 529.362 1577.15 Q525.319 1581.6 516.98 1581.6 Q513.893 1581.6 511.156 1581.13 Q508.419 1580.68 505.84 1579.72 L505.84 1574.03 Q508.419 1575.43 510.933 1576.1 Q513.447 1576.76 516.057 1576.76 Q521.818 1576.76 524.683 1573.74 Q527.547 1570.75 527.547 1564.67 L527.547 1561.77 Q525.733 1564.92 522.901 1566.48 Q520.068 1568.04 516.121 1568.04 Q509.564 1568.04 505.554 1563.05 Q501.544 1558.05 501.544 1549.81 Q501.544 1541.53 505.554 1536.53 Q509.564 1531.54 516.121 1531.54 Q520.068 1531.54 522.901 1533.1 Q525.733 1534.66 527.547 1537.81 L527.547 1532.4 L533.404 1532.4 L533.404 1563.62 Z" fill="#000000" fill-rule="evenodd" fill-opacity="1" /><path clip-path="url(#clip160)" d="M575.099 1546.53 L575.099 1568.04 L569.243 1568.04 L569.243 1546.72 Q569.243 1541.66 567.269 1539.14 Q565.296 1536.63 561.349 1536.63 Q556.607 1536.63 553.87 1539.65 Q551.132 1542.68 551.132 1547.9 L551.132 1568.04 L545.244 1568.04 L545.244 1532.4 L551.132 1532.4 L551.132 1537.93 Q553.233 1534.72 556.066 1533.13 Q558.93 1531.54 562.654 1531.54 Q568.797 1531.54 571.948 1535.36 Q575.099 1539.14 575.099 1546.53 Z" fill="#000000" fill-rule="evenodd" fill-opacity="1" /><path clip-path="url(#clip160)" d="M602.981 1550.12 Q595.883 1550.12 593.146 1551.75 Q590.409 1553.37 590.409 1557.29 Q590.409 1560.4 592.446 1562.25 Q594.515 1564.07 598.048 1564.07 Q602.917 1564.07 605.846 1560.63 Q608.806 1557.16 608.806 1551.43 L608.806 1550.12 L602.981 1550.12 M614.662 1547.71 L614.662 1568.04 L608.806 1568.04 L608.806 1562.63 Q606.801 1565.88 603.809 1567.44 Q600.817 1568.97 596.488 1568.97 Q591.014 1568.97 587.767 1565.91 Q584.552 1562.82 584.552 1557.67 Q584.552 1551.65 588.563 1548.6 Q592.605 1545.54 600.594 1545.54 L608.806 1545.54 L608.806 1544.97 Q608.806 1540.93 606.132 1538.73 Q603.49 1536.5 598.684 1536.5 Q595.629 1536.5 592.732 1537.23 Q589.836 1537.97 587.162 1539.43 L587.162 1534.02 Q590.377 1532.78 593.401 1532.17 Q596.424 1531.54 599.289 1531.54 Q607.023 1531.54 610.843 1535.55 Q614.662 1539.56 614.662 1547.71 Z" fill="#000000" fill-rule="evenodd" fill-opacity="1" /><path clip-path="url(#clip160)" d="M626.725 1518.52 L632.582 1518.52 L632.582 1568.04 L626.725 1568.04 L626.725 1518.52 Z" fill="#000000" fill-rule="evenodd" fill-opacity="1" /><path clip-path="url(#clip160)" d="M691.21 1533.76 L691.21 1539.24 Q688.727 1537.87 686.213 1537.2 Q683.73 1536.5 681.184 1536.5 Q675.486 1536.5 672.335 1540.13 Q669.184 1543.73 669.184 1550.25 Q669.184 1556.78 672.335 1560.4 Q675.486 1564 681.184 1564 Q683.73 1564 686.213 1563.33 Q688.727 1562.63 691.21 1561.26 L691.21 1566.68 Q688.759 1567.82 686.117 1568.39 Q683.507 1568.97 680.547 1568.97 Q672.495 1568.97 667.752 1563.91 Q663.01 1558.85 663.01 1550.25 Q663.01 1541.53 667.784 1536.53 Q672.59 1531.54 680.929 1531.54 Q683.635 1531.54 686.213 1532.11 Q688.791 1532.65 691.21 1533.76 Z" fill="#000000" fill-rule="evenodd" fill-opacity="1" /><path clip-path="url(#clip160)" d="M715.209 1536.5 Q710.498 1536.5 707.761 1540.19 Q705.023 1543.85 705.023 1550.25 Q705.023 1556.65 707.729 1560.34 Q710.466 1564 715.209 1564 Q719.887 1564 722.625 1560.31 Q725.362 1556.62 725.362 1550.25 Q725.362 1543.92 722.625 1540.23 Q719.887 1536.5 715.209 1536.5 M715.209 1531.54 Q722.847 1531.54 727.208 1536.5 Q731.568 1541.47 731.568 1550.25 Q731.568 1559 727.208 1564 Q722.847 1568.97 715.209 1568.97 Q707.538 1568.97 703.177 1564 Q698.849 1559 698.849 1550.25 Q698.849 1541.47 703.177 1536.5 Q707.538 1531.54 715.209 1531.54 Z" fill="#000000" fill-rule="evenodd" fill-opacity="1" /><path clip-path="url(#clip160)" d="M769.031 1539.24 Q771.227 1535.29 774.282 1533.41 Q777.338 1531.54 781.476 1531.54 Q787.045 1531.54 790.069 1535.45 Q793.093 1539.33 793.093 1546.53 L793.093 1568.04 L787.205 1568.04 L787.205 1546.72 Q787.205 1541.59 785.39 1539.11 Q783.576 1536.63 779.852 1536.63 Q775.301 1536.63 772.659 1539.65 Q770.017 1542.68 770.017 1547.9 L770.017 1568.04 L764.129 1568.04 L764.129 1546.72 Q764.129 1541.56 762.315 1539.11 Q760.501 1536.63 756.713 1536.63 Q752.225 1536.63 749.583 1539.68 Q746.942 1542.71 746.942 1547.9 L746.942 1568.04 L741.053 1568.04 L741.053 1532.4 L746.942 1532.4 L746.942 1537.93 Q748.947 1534.66 751.748 1533.1 Q754.549 1531.54 758.4 1531.54 Q762.283 1531.54 764.988 1533.51 Q767.726 1535.48 769.031 1539.24 Z" fill="#000000" fill-rule="evenodd" fill-opacity="1" /><path clip-path="url(#clip160)" d="M810.439 1562.7 L810.439 1581.6 L804.551 1581.6 L804.551 1532.4 L810.439 1532.4 L810.439 1537.81 Q812.286 1534.62 815.086 1533.1 Q817.919 1531.54 821.834 1531.54 Q828.327 1531.54 832.369 1536.69 Q836.443 1541.85 836.443 1550.25 Q836.443 1558.65 832.369 1563.81 Q828.327 1568.97 821.834 1568.97 Q817.919 1568.97 815.086 1567.44 Q812.286 1565.88 810.439 1562.7 M830.364 1550.25 Q830.364 1543.79 827.691 1540.13 Q825.049 1536.44 820.402 1536.44 Q815.755 1536.44 813.081 1540.13 Q810.439 1543.79 810.439 1550.25 Q810.439 1556.71 813.081 1560.4 Q815.755 1564.07 820.402 1564.07 Q825.049 1564.07 827.691 1560.4 Q830.364 1556.71 830.364 1550.25 Z" fill="#000000" fill-rule="evenodd" fill-opacity="1" /><path clip-path="url(#clip160)" d="M846.979 1559.96 L853.694 1559.96 L853.694 1568.04 L846.979 1568.04 L846.979 1559.96 Z" fill="#000000" fill-rule="evenodd" fill-opacity="1" /><path clip-path="url(#clip160)" d="M889.533 1562.63 L900.037 1562.63 L900.037 1526.38 L888.61 1528.67 L888.61 1522.82 L899.973 1520.52 L906.402 1520.52 L906.402 1562.63 L916.906 1562.63 L916.906 1568.04 L889.533 1568.04 L889.533 1562.63 Z" fill="#000000" fill-rule="evenodd" fill-opacity="1" /><polyline clip-path="url(#clip162)" style="stroke:#000000; stroke-linecap:round; stroke-linejoin:round; stroke-width:2; stroke-opacity:0.1; fill:none" points="210.746,1216.57 1155.57,1216.57 "/>
<polyline clip-path="url(#clip162)" style="stroke:#000000; stroke-linecap:round; stroke-linejoin:round; stroke-width:2; stroke-opacity:0.1; fill:none" points="210.746,808.387 1155.57,808.387 "/>
<polyline clip-path="url(#clip162)" style="stroke:#000000; stroke-linecap:round; stroke-linejoin:round; stroke-width:2; stroke-opacity:0.1; fill:none" points="210.746,400.207 1155.57,400.207 "/>
<polyline clip-path="url(#clip160)" style="stroke:#000000; stroke-linecap:round; stroke-linejoin:round; stroke-width:4; stroke-opacity:1; fill:none" points="210.746,1423.18 210.746,47.2441 "/>
<polyline clip-path="url(#clip160)" style="stroke:#000000; stroke-linecap:round; stroke-linejoin:round; stroke-width:4; stroke-opacity:1; fill:none" points="210.746,1216.57 229.644,1216.57 "/>
<polyline clip-path="url(#clip160)" style="stroke:#000000; stroke-linecap:round; stroke-linejoin:round; stroke-width:4; stroke-opacity:1; fill:none" points="210.746,808.387 229.644,808.387 "/>
<polyline clip-path="url(#clip160)" style="stroke:#000000; stroke-linecap:round; stroke-linejoin:round; stroke-width:4; stroke-opacity:1; fill:none" points="210.746,400.207 229.644,400.207 "/>
<path clip-path="url(#clip160)" d="M114.26 1217.02 L143.936 1217.02 L143.936 1220.95 L114.26 1220.95 L114.26 1217.02 Z" fill="#000000" fill-rule="evenodd" fill-opacity="1" /><path clip-path="url(#clip160)" d="M154.839 1229.91 L162.477 1229.91 L162.477 1203.55 L154.167 1205.21 L154.167 1200.95 L162.431 1199.29 L167.107 1199.29 L167.107 1229.91 L174.746 1229.91 L174.746 1233.85 L154.839 1233.85 L154.839 1229.91 Z" fill="#000000" fill-rule="evenodd" fill-opacity="1" /><path clip-path="url(#clip160)" d="M162.802 794.186 Q159.19 794.186 157.362 797.75 Q155.556 801.292 155.556 808.422 Q155.556 815.528 157.362 819.093 Q159.19 822.634 162.802 822.634 Q166.436 822.634 168.241 819.093 Q170.07 815.528 170.07 808.422 Q170.07 801.292 168.241 797.75 Q166.436 794.186 162.802 794.186 M162.802 790.482 Q168.612 790.482 171.667 795.088 Q174.746 799.672 174.746 808.422 Q174.746 817.148 171.667 821.755 Q168.612 826.338 162.802 826.338 Q156.991 826.338 153.913 821.755 Q150.857 817.148 150.857 808.422 Q150.857 799.672 153.913 795.088 Q156.991 790.482 162.802 790.482 Z" fill="#000000" fill-rule="evenodd" fill-opacity="1" /><path clip-path="url(#clip160)" d="M154.839 413.551 L162.477 413.551 L162.477 387.186 L154.167 388.852 L154.167 384.593 L162.431 382.927 L167.107 382.927 L167.107 413.551 L174.746 413.551 L174.746 417.487 L154.839 417.487 L154.839 413.551 Z" fill="#000000" fill-rule="evenodd" fill-opacity="1" /><path clip-path="url(#clip160)" d="M29.4065 943.371 L34.9447 943.371 Q33.6716 945.853 33.035 948.527 Q32.3984 951.2 32.3984 954.065 Q32.3984 958.425 33.7352 960.622 Q35.072 962.786 37.7456 962.786 Q39.7826 962.786 40.9603 961.226 Q42.1061 959.667 43.1565 954.956 L43.6021 952.951 Q44.9389 946.713 47.3897 944.103 Q49.8086 941.461 54.1691 941.461 Q59.1344 941.461 62.0308 945.408 Q64.9272 949.323 64.9272 956.197 Q64.9272 959.062 64.3543 962.181 Q63.8132 965.269 62.6992 968.706 L56.6518 968.706 Q58.3387 965.46 59.198 962.309 Q60.0256 959.158 60.0256 956.07 Q60.0256 951.932 58.6251 949.704 Q57.1929 947.476 54.6147 947.476 Q52.2276 947.476 50.9545 949.1 Q49.6813 950.691 48.5037 956.134 L48.0262 958.171 Q46.8804 963.614 44.5251 966.032 Q42.138 968.451 38.0002 968.451 Q32.9713 968.451 30.2341 964.887 Q27.4968 961.322 27.4968 954.765 Q27.4968 951.519 27.9743 948.654 Q28.4517 945.79 29.4065 943.371 Z" fill="#000000" fill-rule="evenodd" fill-opacity="1" /><path clip-path="url(#clip160)" d="M28.3562 932.135 L28.3562 926.279 L64.0042 926.279 L64.0042 932.135 L28.3562 932.135 M14.479 932.135 L14.479 926.279 L21.895 926.279 L21.895 932.135 L14.479 932.135 Z" fill="#000000" fill-rule="evenodd" fill-opacity="1" /><path clip-path="url(#clip160)" d="M45.7664 890.567 Q39.4007 890.567 35.8996 893.209 Q32.3984 895.819 32.3984 900.561 Q32.3984 905.272 35.8996 907.914 Q39.4007 910.524 45.7664 910.524 Q52.1003 910.524 55.6014 907.914 Q59.1026 905.272 59.1026 900.561 Q59.1026 895.819 55.6014 893.209 Q52.1003 890.567 45.7664 890.567 M59.58 884.711 Q68.683 884.711 73.1071 888.753 Q77.5631 892.795 77.5631 901.134 Q77.5631 904.221 77.0857 906.959 Q76.6401 909.696 75.6852 912.274 L69.9879 912.274 Q71.3884 909.696 72.0568 907.182 Q72.7252 904.667 72.7252 902.057 Q72.7252 896.296 69.7015 893.432 Q66.7096 890.567 60.6303 890.567 L57.7339 890.567 Q60.885 892.381 62.4446 895.214 Q64.0042 898.047 64.0042 901.993 Q64.0042 908.55 59.0071 912.561 Q54.01 916.571 45.7664 916.571 Q37.491 916.571 32.4939 912.561 Q27.4968 908.55 27.4968 901.993 Q27.4968 898.047 29.0564 895.214 Q30.616 892.381 33.7671 890.567 L28.3562 890.567 L28.3562 884.711 L59.58 884.711 Z" fill="#000000" fill-rule="evenodd" fill-opacity="1" /><path clip-path="url(#clip160)" d="M42.4881 843.015 L64.0042 843.015 L64.0042 848.872 L42.679 848.872 Q37.6183 848.872 35.1038 850.845 Q32.5894 852.818 32.5894 856.765 Q32.5894 861.508 35.6131 864.245 Q38.6368 866.982 43.8567 866.982 L64.0042 866.982 L64.0042 872.87 L28.3562 872.87 L28.3562 866.982 L33.8944 866.982 Q30.6797 864.881 29.0883 862.049 Q27.4968 859.184 27.4968 855.46 Q27.4968 849.317 31.3163 846.166 Q35.1038 843.015 42.4881 843.015 Z" fill="#000000" fill-rule="evenodd" fill-opacity="1" /><path clip-path="url(#clip160)" d="M46.0847 815.133 Q46.0847 822.231 47.7079 824.968 Q49.3312 827.706 53.2461 827.706 Q56.3653 827.706 58.2114 825.669 Q60.0256 823.6 60.0256 820.067 Q60.0256 815.197 56.5881 812.269 Q53.1188 809.309 47.3897 809.309 L46.0847 809.309 L46.0847 815.133 M43.6657 803.452 L64.0042 803.452 L64.0042 809.309 L58.5933 809.309 Q61.8398 811.314 63.3994 814.306 Q64.9272 817.298 64.9272 821.626 Q64.9272 827.101 61.8716 830.347 Q58.7843 833.562 53.6281 833.562 Q47.6125 833.562 44.5569 829.552 Q41.5014 825.51 41.5014 817.521 L41.5014 809.309 L40.9285 809.309 Q36.8862 809.309 34.6901 811.982 Q32.4621 814.624 32.4621 819.43 Q32.4621 822.486 33.1941 825.382 Q33.9262 828.279 35.3903 830.952 L29.9795 830.952 Q28.7381 827.738 28.1334 824.714 Q27.4968 821.69 27.4968 818.826 Q27.4968 811.091 31.5072 807.272 Q35.5176 803.452 43.6657 803.452 Z" fill="#000000" fill-rule="evenodd" fill-opacity="1" /><path clip-path="url(#clip160)" d="M14.479 791.389 L14.479 785.533 L64.0042 785.533 L64.0042 791.389 L14.479 791.389 Z" fill="#000000" fill-rule="evenodd" fill-opacity="1" /><path clip-path="url(#clip160)" d="M29.7248 726.905 L35.1993 726.905 Q33.8307 729.387 33.1623 731.902 Q32.4621 734.384 32.4621 736.931 Q32.4621 742.628 36.0905 745.779 Q39.6872 748.93 46.212 748.93 Q52.7369 748.93 56.3653 745.779 Q59.9619 742.628 59.9619 736.931 Q59.9619 734.384 59.2935 731.902 Q58.5933 729.387 57.2247 726.905 L62.6355 726.905 Q63.7814 729.356 64.3543 731.997 Q64.9272 734.607 64.9272 737.567 Q64.9272 745.62 59.8664 750.362 Q54.8057 755.105 46.212 755.105 Q37.491 755.105 32.4939 750.331 Q27.4968 745.524 27.4968 737.185 Q27.4968 734.48 28.0697 731.902 Q28.6108 729.324 29.7248 726.905 Z" fill="#000000" fill-rule="evenodd" fill-opacity="1" /><path clip-path="url(#clip160)" d="M32.4621 702.906 Q32.4621 707.617 36.1542 710.354 Q39.8145 713.091 46.212 713.091 Q52.6095 713.091 56.3017 710.386 Q59.9619 707.648 59.9619 702.906 Q59.9619 698.227 56.2698 695.49 Q52.5777 692.753 46.212 692.753 Q39.8781 692.753 36.186 695.49 Q32.4621 698.227 32.4621 702.906 M27.4968 702.906 Q27.4968 695.267 32.4621 690.907 Q37.4273 686.546 46.212 686.546 Q54.9649 686.546 59.9619 690.907 Q64.9272 695.267 64.9272 702.906 Q64.9272 710.577 59.9619 714.937 Q54.9649 719.266 46.212 719.266 Q37.4273 719.266 32.4621 714.937 Q27.4968 710.577 27.4968 702.906 Z" fill="#000000" fill-rule="evenodd" fill-opacity="1" /><path clip-path="url(#clip160)" d="M35.1993 649.084 Q31.2526 646.888 29.3747 643.832 Q27.4968 640.777 27.4968 636.639 Q27.4968 631.069 31.4117 628.045 Q35.2948 625.022 42.4881 625.022 L64.0042 625.022 L64.0042 630.91 L42.679 630.91 Q37.5546 630.91 35.072 632.724 Q32.5894 634.538 32.5894 638.262 Q32.5894 642.814 35.6131 645.456 Q38.6368 648.097 43.8567 648.097 L64.0042 648.097 L64.0042 653.986 L42.679 653.986 Q37.5228 653.986 35.072 655.8 Q32.5894 657.614 32.5894 661.402 Q32.5894 665.889 35.6449 668.531 Q38.6686 671.173 43.8567 671.173 L64.0042 671.173 L64.0042 677.061 L28.3562 677.061 L28.3562 671.173 L33.8944 671.173 Q30.616 669.168 29.0564 666.367 Q27.4968 663.566 27.4968 659.715 Q27.4968 655.832 29.4702 653.126 Q31.4436 650.389 35.1993 649.084 Z" fill="#000000" fill-rule="evenodd" fill-opacity="1" /><path clip-path="url(#clip160)" d="M58.657 607.675 L77.5631 607.675 L77.5631 613.563 L28.3562 613.563 L28.3562 607.675 L33.7671 607.675 Q30.5842 605.829 29.0564 603.028 Q27.4968 600.195 27.4968 596.28 Q27.4968 589.787 32.6531 585.745 Q37.8093 581.671 46.212 581.671 Q54.6147 581.671 59.771 585.745 Q64.9272 589.787 64.9272 596.28 Q64.9272 600.195 63.3994 603.028 Q61.8398 605.829 58.657 607.675 M46.212 587.75 Q39.7508 587.75 36.0905 590.424 Q32.3984 593.066 32.3984 597.713 Q32.3984 602.36 36.0905 605.033 Q39.7508 607.675 46.212 607.675 Q52.6732 607.675 56.3653 605.033 Q60.0256 602.36 60.0256 597.713 Q60.0256 593.066 56.3653 590.424 Q52.6732 587.75 46.212 587.75 Z" fill="#000000" fill-rule="evenodd" fill-opacity="1" /><path clip-path="url(#clip160)" d="M55.9197 571.136 L55.9197 564.42 L64.0042 564.42 L64.0042 571.136 L55.9197 571.136 Z" fill="#000000" fill-rule="evenodd" fill-opacity="1" /><path clip-path="url(#clip160)" d="M58.5933 524.157 L58.5933 501.718 L64.0042 501.718 L64.0042 531.891 L58.5933 531.891 Q54.8057 528.231 48.44 521.929 Q42.0425 515.595 40.1964 513.972 Q36.7271 510.884 34.34 509.675 Q31.921 508.434 29.5975 508.434 Q25.8099 508.434 23.4228 511.107 Q21.0356 513.749 21.0356 518.014 Q21.0356 521.038 22.086 524.412 Q23.1363 527.754 25.2688 531.573 L18.7758 531.573 Q17.2162 527.69 16.4205 524.316 Q15.6248 520.942 15.6248 518.141 Q15.6248 510.757 19.3169 506.365 Q23.009 501.972 29.1837 501.972 Q32.112 501.972 34.7537 503.086 Q37.3637 504.169 40.9285 507.065 Q41.8515 507.861 46.2757 512.126 Q50.668 516.391 58.5933 524.157 Z" fill="#000000" fill-rule="evenodd" fill-opacity="1" /><polyline clip-path="url(#clip162)" style="stroke:#009af9; stroke-linecap:round; stroke-linejoin:round; stroke-width:12; stroke-opacity:1; fill:none" points="710.38,490.085 746.905,492.894 784.133,513.235 820.514,532.01 853.161,556.502 888.49,578.529 910.456,624.351 934.771,666.124 948.516,717.032 1108.64,762.692 1125.31,803.049 1128.83,866.982 1122.32,923.385 982.178,980.901 972.915,1034.12 955.363,1092.09 947.516,1136.14 912.905,1182.28 890.303,1212.66 867.574,1249.82 829.93,1286.84 796.501,1298.88 755.884,1318.45 721.373,1321.89 681.45,1325.83 646.901,1307.63 608.025,1294.34 577.674,1266.48 541.752,1245.6 514.356,1205.51 485.737,1167.96 467.254,1115.05 455.276,1068.99 444.581,1014.19 431.377,971.131 435.179,909.04 430.75,855.644 435.528,792.42 237.486,480.445 269.246,412.637 300.757,340.972 348.757,281.736 393.768,217.004 449.925,183.16 507.18,128.895 567.875,111.106 634.022,101.07 698.77,86.9878 757.046,86.1857 "/>
<polyline clip-path="url(#clip162)" style="stroke:#e26f46; stroke-linecap:round; stroke-linejoin:round; stroke-width:12; stroke-opacity:1; fill:none" points="696.987,254.673 729.914,248.51 750.358,259.521 785.668,276.275 819.95,278.922 846.034,295.377 873.278,321.114 903.809,350.912 920.559,390.59 945.415,410.69 967.131,459.676 983.37,508.508 997.617,541.537 1009.41,582.297 1022.04,642.266 1037.34,682.031 1032,728.906 1040.71,783.752 1042.71,844.622 1038.88,893.652 1027.35,945.481 1025.26,997.97 1010.57,1041.64 999.935,1076.05 985.428,1137.78 961.668,1181.07 945.648,1216.59 922.316,1244.08 894.312,1280.51 867.544,1299.38 839.447,1331.29 813.086,1359.5 788.752,1376.5 760.705,1373.76 730.818,1378.03 689.334,1384.21 661.411,1384.24 637.518,1371.66 603.998,1355.73 568.962,1345.61 551.134,1318.52 516.55,1303.23 493.565,1284.71 465.201,1241.14 448.529,1218.11 426.995,1177.76 402.354,1124.38 385.783,1082.01 378.636,1045.03 367.735,988.144 354.802,953.289 356.367,891.008 350.809,844.849 351.501,782.165 345.577,745.888 357.042,684.61 363.872,640.187 380.132,590.357 382.911,550.83 408.198,510.002 430.618,457.605 444.102,419.253 465.663,390.982 490.554,363.469 513.427,330.484 541.002,309.304 570.928,285.353 601.463,262.492 632.214,267.544 664.936,255.864 696.974,241.998 "/>
<polyline clip-path="url(#clip162)" style="stroke:#000000; stroke-linecap:round; stroke-linejoin:round; stroke-width:12; stroke-opacity:0.2; fill:none" points="710.38,490.085 696.987,254.673 "/>
<polyline clip-path="url(#clip162)" style="stroke:#000000; stroke-linecap:round; stroke-linejoin:round; stroke-width:12; stroke-opacity:0.2; fill:none" points="784.133,513.235 785.668,276.275 "/>
<polyline clip-path="url(#clip162)" style="stroke:#000000; stroke-linecap:round; stroke-linejoin:round; stroke-width:12; stroke-opacity:0.2; fill:none" points="853.161,556.502 873.278,321.114 "/>
<polyline clip-path="url(#clip162)" style="stroke:#000000; stroke-linecap:round; stroke-linejoin:round; stroke-width:12; stroke-opacity:0.2; fill:none" points="910.456,624.351 945.415,410.69 "/>
<polyline clip-path="url(#clip162)" style="stroke:#000000; stroke-linecap:round; stroke-linejoin:round; stroke-width:12; stroke-opacity:0.2; fill:none" points="948.516,717.032 997.617,541.537 "/>
<polyline clip-path="url(#clip162)" style="stroke:#000000; stroke-linecap:round; stroke-linejoin:round; stroke-width:12; stroke-opacity:0.2; fill:none" points="1108.64,762.692 1037.34,682.031 "/>
<polyline clip-path="url(#clip162)" style="stroke:#000000; stroke-linecap:round; stroke-linejoin:round; stroke-width:12; stroke-opacity:0.2; fill:none" points="1122.32,923.385 1042.71,844.622 "/>
<polyline clip-path="url(#clip162)" style="stroke:#000000; stroke-linecap:round; stroke-linejoin:round; stroke-width:12; stroke-opacity:0.2; fill:none" points="972.915,1034.12 1025.26,997.97 "/>
<polyline clip-path="url(#clip162)" style="stroke:#000000; stroke-linecap:round; stroke-linejoin:round; stroke-width:12; stroke-opacity:0.2; fill:none" points="947.516,1136.14 985.428,1137.78 "/>
<polyline clip-path="url(#clip162)" style="stroke:#000000; stroke-linecap:round; stroke-linejoin:round; stroke-width:12; stroke-opacity:0.2; fill:none" points="890.303,1212.66 922.316,1244.08 "/>
<polyline clip-path="url(#clip162)" style="stroke:#000000; stroke-linecap:round; stroke-linejoin:round; stroke-width:12; stroke-opacity:0.2; fill:none" points="829.93,1286.84 839.447,1331.29 "/>
<polyline clip-path="url(#clip162)" style="stroke:#000000; stroke-linecap:round; stroke-linejoin:round; stroke-width:12; stroke-opacity:0.2; fill:none" points="755.884,1318.45 760.705,1373.76 "/>
<polyline clip-path="url(#clip162)" style="stroke:#000000; stroke-linecap:round; stroke-linejoin:round; stroke-width:12; stroke-opacity:0.2; fill:none" points="681.45,1325.83 661.411,1384.24 "/>
<polyline clip-path="url(#clip162)" style="stroke:#000000; stroke-linecap:round; stroke-linejoin:round; stroke-width:12; stroke-opacity:0.2; fill:none" points="608.025,1294.34 568.962,1345.61 "/>
<polyline clip-path="url(#clip162)" style="stroke:#000000; stroke-linecap:round; stroke-linejoin:round; stroke-width:12; stroke-opacity:0.2; fill:none" points="541.752,1245.6 493.565,1284.71 "/>
<polyline clip-path="url(#clip162)" style="stroke:#000000; stroke-linecap:round; stroke-linejoin:round; stroke-width:12; stroke-opacity:0.2; fill:none" points="485.737,1167.96 426.995,1177.76 "/>
<polyline clip-path="url(#clip162)" style="stroke:#000000; stroke-linecap:round; stroke-linejoin:round; stroke-width:12; stroke-opacity:0.2; fill:none" points="455.276,1068.99 378.636,1045.03 "/>
<polyline clip-path="url(#clip162)" style="stroke:#000000; stroke-linecap:round; stroke-linejoin:round; stroke-width:12; stroke-opacity:0.2; fill:none" points="431.377,971.131 356.367,891.008 "/>
<polyline clip-path="url(#clip162)" style="stroke:#000000; stroke-linecap:round; stroke-linejoin:round; stroke-width:12; stroke-opacity:0.2; fill:none" points="430.75,855.644 345.577,745.888 "/>
<polyline clip-path="url(#clip162)" style="stroke:#000000; stroke-linecap:round; stroke-linejoin:round; stroke-width:12; stroke-opacity:0.2; fill:none" points="435.528,792.42 380.132,590.357 "/>
<polyline clip-path="url(#clip162)" style="stroke:#000000; stroke-linecap:round; stroke-linejoin:round; stroke-width:12; stroke-opacity:0.2; fill:none" points="237.486,480.445 430.618,457.605 "/>
<polyline clip-path="url(#clip162)" style="stroke:#000000; stroke-linecap:round; stroke-linejoin:round; stroke-width:12; stroke-opacity:0.2; fill:none" points="348.757,281.736 490.554,363.469 "/>
<polyline clip-path="url(#clip162)" style="stroke:#000000; stroke-linecap:round; stroke-linejoin:round; stroke-width:12; stroke-opacity:0.2; fill:none" points="507.18,128.895 570.928,285.353 "/>
<polyline clip-path="url(#clip162)" style="stroke:#000000; stroke-linecap:round; stroke-linejoin:round; stroke-width:12; stroke-opacity:0.2; fill:none" points="698.77,86.9878 664.936,255.864 "/>
<defs>
  <clipPath id="clip163">
    <rect x="1407" y="47" width="946" height="1377"/>
  </clipPath>
</defs>
<path clip-path="url(#clip163)" d="M1698.96 978.147 L1698.96 697.859 L1840.12 557.715 L2084.63 638.627 L2084.63 918.915 L1943.46 1059.06 L1698.96 978.147  Z" fill="#ffffff" fill-rule="evenodd" fill-opacity="1"/>
<polyline clip-path="url(#clip163)" style="stroke:#000000; stroke-linecap:round; stroke-linejoin:round; stroke-width:2; stroke-opacity:0.1; fill:none" points="1627.44,1055.88 1900.19,819.676 1900.19,347.264 "/>
<polyline clip-path="url(#clip163)" style="stroke:#000000; stroke-linecap:round; stroke-linejoin:round; stroke-width:2; stroke-opacity:0.1; fill:none" points="1749.69,1091.17 2022.44,854.967 2022.44,382.556 "/>
<polyline clip-path="url(#clip163)" style="stroke:#000000; stroke-linecap:round; stroke-linejoin:round; stroke-width:2; stroke-opacity:0.1; fill:none" points="1871.95,1126.46 2144.69,890.258 2144.69,417.847 "/>
<polyline clip-path="url(#clip160)" style="stroke:#000000; stroke-linecap:round; stroke-linejoin:round; stroke-width:4; stroke-opacity:1; fill:none" points="1507.77,1021.33 1980.18,1157.71 "/>
<polyline clip-path="url(#clip160)" style="stroke:#000000; stroke-linecap:round; stroke-linejoin:round; stroke-width:4; stroke-opacity:1; fill:none" points="1627.44,1055.88 1630.71,1053.05 "/>
<polyline clip-path="url(#clip160)" style="stroke:#000000; stroke-linecap:round; stroke-linejoin:round; stroke-width:4; stroke-opacity:1; fill:none" points="1749.69,1091.17 1752.97,1088.34 "/>
<polyline clip-path="url(#clip160)" style="stroke:#000000; stroke-linecap:round; stroke-linejoin:round; stroke-width:4; stroke-opacity:1; fill:none" points="1871.95,1126.46 1875.22,1123.63 "/>
<path clip-path="url(#clip160)" d="M1557.91 1083.67 L1587.58 1083.67 L1587.58 1087.61 L1557.91 1087.61 L1557.91 1083.67 Z" fill="#000000" fill-rule="evenodd" fill-opacity="1" /><path clip-path="url(#clip160)" d="M1598.49 1096.57 L1606.13 1096.57 L1606.13 1070.2 L1597.82 1071.87 L1597.82 1067.61 L1606.08 1065.94 L1610.75 1065.94 L1610.75 1096.57 L1618.39 1096.57 L1618.39 1100.5 L1598.49 1100.5 L1598.49 1096.57 Z" fill="#000000" fill-rule="evenodd" fill-opacity="1" /><path clip-path="url(#clip160)" d="M1728.7 1104.31 Q1725.09 1104.31 1723.26 1107.88 Q1721.46 1111.42 1721.46 1118.55 Q1721.46 1125.66 1723.26 1129.22 Q1725.09 1132.76 1728.7 1132.76 Q1732.34 1132.76 1734.14 1129.22 Q1735.97 1125.66 1735.97 1118.55 Q1735.97 1111.42 1734.14 1107.88 Q1732.34 1104.31 1728.7 1104.31 M1728.7 1100.61 Q1734.51 1100.61 1737.57 1105.22 Q1740.65 1109.8 1740.65 1118.55 Q1740.65 1127.28 1737.57 1131.88 Q1734.51 1136.47 1728.7 1136.47 Q1722.89 1136.47 1719.81 1131.88 Q1716.76 1127.28 1716.76 1118.55 Q1716.76 1109.8 1719.81 1105.22 Q1722.89 1100.61 1728.7 1100.61 Z" fill="#000000" fill-rule="evenodd" fill-opacity="1" /><path clip-path="url(#clip160)" d="M1842.99 1167.15 L1850.63 1167.15 L1850.63 1140.78 L1842.32 1142.45 L1842.32 1138.19 L1850.58 1136.53 L1855.26 1136.53 L1855.26 1167.15 L1862.9 1167.15 L1862.9 1171.09 L1842.99 1171.09 L1842.99 1167.15 Z" fill="#000000" fill-rule="evenodd" fill-opacity="1" /><path clip-path="url(#clip160)" d="M1412.44 1235.07 L1412.44 1240.6 Q1409.96 1239.33 1407.28 1238.7 Q1404.61 1238.06 1401.74 1238.06 Q1397.38 1238.06 1395.19 1239.4 Q1393.02 1240.73 1393.02 1243.41 Q1393.02 1245.44 1394.58 1246.62 Q1396.14 1247.77 1400.85 1248.82 L1402.86 1249.26 Q1409.1 1250.6 1411.71 1253.05 Q1414.35 1255.47 1414.35 1259.83 Q1414.35 1264.79 1410.4 1267.69 Q1406.49 1270.59 1399.61 1270.59 Q1396.75 1270.59 1393.63 1270.01 Q1390.54 1269.47 1387.1 1268.36 L1387.1 1262.31 Q1390.35 1264 1393.5 1264.86 Q1396.65 1265.69 1399.74 1265.69 Q1403.88 1265.69 1406.1 1264.29 Q1408.33 1262.85 1408.33 1260.27 Q1408.33 1257.89 1406.71 1256.61 Q1405.12 1255.34 1399.67 1254.16 L1397.64 1253.69 Q1392.2 1252.54 1389.78 1250.19 Q1387.36 1247.8 1387.36 1243.66 Q1387.36 1238.63 1390.92 1235.89 Q1394.49 1233.16 1401.04 1233.16 Q1404.29 1233.16 1407.15 1233.63 Q1410.02 1234.11 1412.44 1235.07 Z" fill="#000000" fill-rule="evenodd" fill-opacity="1" /><path clip-path="url(#clip160)" d="M1423.67 1234.02 L1429.53 1234.02 L1429.53 1269.66 L1423.67 1269.66 L1423.67 1234.02 M1423.67 1220.14 L1429.53 1220.14 L1429.53 1227.56 L1423.67 1227.56 L1423.67 1220.14 Z" fill="#000000" fill-rule="evenodd" fill-opacity="1" /><path clip-path="url(#clip160)" d="M1465.24 1251.43 Q1465.24 1245.06 1462.6 1241.56 Q1459.99 1238.06 1455.25 1238.06 Q1450.54 1238.06 1447.9 1241.56 Q1445.29 1245.06 1445.29 1251.43 Q1445.29 1257.76 1447.9 1261.26 Q1450.54 1264.76 1455.25 1264.76 Q1459.99 1264.76 1462.6 1261.26 Q1465.24 1257.76 1465.24 1251.43 M1471.1 1265.24 Q1471.1 1274.34 1467.06 1278.77 Q1463.01 1283.22 1454.67 1283.22 Q1451.59 1283.22 1448.85 1282.75 Q1446.11 1282.3 1443.53 1281.35 L1443.53 1275.65 Q1446.11 1277.05 1448.63 1277.72 Q1451.14 1278.39 1453.75 1278.39 Q1459.51 1278.39 1462.38 1275.36 Q1465.24 1272.37 1465.24 1266.29 L1465.24 1263.39 Q1463.43 1266.55 1460.59 1268.1 Q1457.76 1269.66 1453.82 1269.66 Q1447.26 1269.66 1443.25 1264.67 Q1439.24 1259.67 1439.24 1251.43 Q1439.24 1243.15 1443.25 1238.15 Q1447.26 1233.16 1453.82 1233.16 Q1457.76 1233.16 1460.59 1234.72 Q1463.43 1236.28 1465.24 1239.43 L1465.24 1234.02 L1471.1 1234.02 L1471.1 1265.24 Z" fill="#000000" fill-rule="evenodd" fill-opacity="1" /><path clip-path="url(#clip160)" d="M1512.79 1248.15 L1512.79 1269.66 L1506.94 1269.66 L1506.94 1248.34 Q1506.94 1243.28 1504.96 1240.76 Q1502.99 1238.25 1499.04 1238.25 Q1494.3 1238.25 1491.56 1241.27 Q1488.83 1244.3 1488.83 1249.52 L1488.83 1269.66 L1482.94 1269.66 L1482.94 1234.02 L1488.83 1234.02 L1488.83 1239.55 Q1490.93 1236.34 1493.76 1234.75 Q1496.62 1233.16 1500.35 1233.16 Q1506.49 1233.16 1509.64 1236.98 Q1512.79 1240.76 1512.79 1248.15 Z" fill="#000000" fill-rule="evenodd" fill-opacity="1" /><path clip-path="url(#clip160)" d="M1540.68 1251.74 Q1533.58 1251.74 1530.84 1253.37 Q1528.1 1254.99 1528.1 1258.91 Q1528.1 1262.03 1530.14 1263.87 Q1532.21 1265.69 1535.74 1265.69 Q1540.61 1265.69 1543.54 1262.25 Q1546.5 1258.78 1546.5 1253.05 L1546.5 1251.74 L1540.68 1251.74 M1552.36 1249.33 L1552.36 1269.66 L1546.5 1269.66 L1546.5 1264.25 Q1544.49 1267.5 1541.5 1269.06 Q1538.51 1270.59 1534.18 1270.59 Q1528.71 1270.59 1525.46 1267.53 Q1522.25 1264.44 1522.25 1259.29 Q1522.25 1253.27 1526.26 1250.22 Q1530.3 1247.16 1538.29 1247.16 L1546.5 1247.16 L1546.5 1246.59 Q1546.5 1242.55 1543.83 1240.35 Q1541.18 1238.12 1536.38 1238.12 Q1533.32 1238.12 1530.43 1238.85 Q1527.53 1239.59 1524.86 1241.05 L1524.86 1235.64 Q1528.07 1234.4 1531.09 1233.79 Q1534.12 1233.16 1536.98 1233.16 Q1544.72 1233.16 1548.54 1237.17 Q1552.36 1241.18 1552.36 1249.33 Z" fill="#000000" fill-rule="evenodd" fill-opacity="1" /><path clip-path="url(#clip160)" d="M1564.42 1220.14 L1570.28 1220.14 L1570.28 1269.66 L1564.42 1269.66 L1564.42 1220.14 Z" fill="#000000" fill-rule="evenodd" fill-opacity="1" /><path clip-path="url(#clip160)" d="M1628.9 1235.39 L1628.9 1240.86 Q1626.42 1239.49 1623.91 1238.82 Q1621.42 1238.12 1618.88 1238.12 Q1613.18 1238.12 1610.03 1241.75 Q1606.88 1245.35 1606.88 1251.87 Q1606.88 1258.4 1610.03 1262.03 Q1613.18 1265.62 1618.88 1265.62 Q1621.42 1265.62 1623.91 1264.95 Q1626.42 1264.25 1628.9 1262.88 L1628.9 1268.3 Q1626.45 1269.44 1623.81 1270.01 Q1621.2 1270.59 1618.24 1270.59 Q1610.19 1270.59 1605.45 1265.53 Q1600.7 1260.47 1600.7 1251.87 Q1600.7 1243.15 1605.48 1238.15 Q1610.28 1233.16 1618.62 1233.16 Q1621.33 1233.16 1623.91 1233.73 Q1626.48 1234.27 1628.9 1235.39 Z" fill="#000000" fill-rule="evenodd" fill-opacity="1" /><path clip-path="url(#clip160)" d="M1652.9 1238.12 Q1648.19 1238.12 1645.45 1241.81 Q1642.72 1245.47 1642.72 1251.87 Q1642.72 1258.27 1645.42 1261.96 Q1648.16 1265.62 1652.9 1265.62 Q1657.58 1265.62 1660.32 1261.93 Q1663.06 1258.24 1663.06 1251.87 Q1663.06 1245.54 1660.32 1241.85 Q1657.58 1238.12 1652.9 1238.12 M1652.9 1233.16 Q1660.54 1233.16 1664.9 1238.12 Q1669.26 1243.09 1669.26 1251.87 Q1669.26 1260.63 1664.9 1265.62 Q1660.54 1270.59 1652.9 1270.59 Q1645.23 1270.59 1640.87 1265.62 Q1636.54 1260.63 1636.54 1251.87 Q1636.54 1243.09 1640.87 1238.12 Q1645.23 1233.16 1652.9 1233.16 Z" fill="#000000" fill-rule="evenodd" fill-opacity="1" /><path clip-path="url(#clip160)" d="M1706.72 1240.86 Q1708.92 1236.91 1711.98 1235.03 Q1715.03 1233.16 1719.17 1233.16 Q1724.74 1233.16 1727.76 1237.07 Q1730.79 1240.96 1730.79 1248.15 L1730.79 1269.66 L1724.9 1269.66 L1724.9 1248.34 Q1724.9 1243.21 1723.08 1240.73 Q1721.27 1238.25 1717.55 1238.25 Q1712.99 1238.25 1710.35 1241.27 Q1707.71 1244.3 1707.71 1249.52 L1707.71 1269.66 L1701.82 1269.66 L1701.82 1248.34 Q1701.82 1243.18 1700.01 1240.73 Q1698.19 1238.25 1694.41 1238.25 Q1689.92 1238.25 1687.28 1241.31 Q1684.64 1244.33 1684.64 1249.52 L1684.64 1269.66 L1678.75 1269.66 L1678.75 1234.02 L1684.64 1234.02 L1684.64 1239.55 Q1686.64 1236.28 1689.44 1234.72 Q1692.24 1233.16 1696.09 1233.16 Q1699.98 1233.16 1702.68 1235.13 Q1705.42 1237.1 1706.72 1240.86 Z" fill="#000000" fill-rule="evenodd" fill-opacity="1" /><path clip-path="url(#clip160)" d="M1748.13 1264.32 L1748.13 1283.22 L1742.25 1283.22 L1742.25 1234.02 L1748.13 1234.02 L1748.13 1239.43 Q1749.98 1236.24 1752.78 1234.72 Q1755.61 1233.16 1759.53 1233.16 Q1766.02 1233.16 1770.06 1238.31 Q1774.14 1243.47 1774.14 1251.87 Q1774.14 1260.27 1770.06 1265.43 Q1766.02 1270.59 1759.53 1270.59 Q1755.61 1270.59 1752.78 1269.06 Q1749.98 1267.5 1748.13 1264.32 M1768.06 1251.87 Q1768.06 1245.41 1765.38 1241.75 Q1762.74 1238.06 1758.1 1238.06 Q1753.45 1238.06 1750.78 1241.75 Q1748.13 1245.41 1748.13 1251.87 Q1748.13 1258.33 1750.78 1262.03 Q1753.45 1265.69 1758.1 1265.69 Q1762.74 1265.69 1765.38 1262.03 Q1768.06 1258.33 1768.06 1251.87 Z" fill="#000000" fill-rule="evenodd" fill-opacity="1" /><path clip-path="url(#clip160)" d="M1784.67 1261.58 L1791.39 1261.58 L1791.39 1269.66 L1784.67 1269.66 L1784.67 1261.58 Z" fill="#000000" fill-rule="evenodd" fill-opacity="1" /><path clip-path="url(#clip160)" d="M1827.23 1264.25 L1837.73 1264.25 L1837.73 1228 L1826.3 1230.29 L1826.3 1224.44 L1837.67 1222.14 L1844.1 1222.14 L1844.1 1264.25 L1854.6 1264.25 L1854.6 1269.66 L1827.23 1269.66 L1827.23 1264.25 Z" fill="#000000" fill-rule="evenodd" fill-opacity="1" /><polyline clip-path="url(#clip163)" style="stroke:#000000; stroke-linecap:round; stroke-linejoin:round; stroke-width:2; stroke-opacity:0.1; fill:none" points="2021.13,1122.24 1548.72,985.865 1548.72,513.453 "/>
<polyline clip-path="url(#clip163)" style="stroke:#000000; stroke-linecap:round; stroke-linejoin:round; stroke-width:2; stroke-opacity:0.1; fill:none" points="2102.05,1052.17 1629.63,915.793 1629.63,443.382 "/>
<polyline clip-path="url(#clip163)" style="stroke:#000000; stroke-linecap:round; stroke-linejoin:round; stroke-width:2; stroke-opacity:0.1; fill:none" points="2182.96,982.094 1710.55,845.721 1710.55,373.31 "/>
<polyline clip-path="url(#clip160)" style="stroke:#000000; stroke-linecap:round; stroke-linejoin:round; stroke-width:4; stroke-opacity:1; fill:none" points="1980.18,1157.71 2252.92,921.501 "/>
<polyline clip-path="url(#clip160)" style="stroke:#000000; stroke-linecap:round; stroke-linejoin:round; stroke-width:4; stroke-opacity:1; fill:none" points="2021.13,1122.24 2015.46,1120.6 "/>
<polyline clip-path="url(#clip160)" style="stroke:#000000; stroke-linecap:round; stroke-linejoin:round; stroke-width:4; stroke-opacity:1; fill:none" points="2102.05,1052.17 2096.38,1050.53 "/>
<polyline clip-path="url(#clip160)" style="stroke:#000000; stroke-linecap:round; stroke-linejoin:round; stroke-width:4; stroke-opacity:1; fill:none" points="2182.96,982.094 2177.29,980.458 "/>
<path clip-path="url(#clip160)" d="M2041.42 1143.13 L2071.1 1143.13 L2071.1 1147.06 L2041.42 1147.06 L2041.42 1143.13 Z" fill="#000000" fill-rule="evenodd" fill-opacity="1" /><path clip-path="url(#clip160)" d="M2082 1156.02 L2089.64 1156.02 L2089.64 1129.66 L2081.33 1131.32 L2081.33 1127.06 L2089.59 1125.4 L2094.27 1125.4 L2094.27 1156.02 L2101.91 1156.02 L2101.91 1159.96 L2082 1159.96 L2082 1156.02 Z" fill="#000000" fill-rule="evenodd" fill-opacity="1" /><path clip-path="url(#clip160)" d="M2134.28 1058.4 Q2130.67 1058.4 2128.84 1061.97 Q2127.03 1065.51 2127.03 1072.64 Q2127.03 1079.75 2128.84 1083.31 Q2130.67 1086.85 2134.28 1086.85 Q2137.91 1086.85 2139.72 1083.31 Q2141.55 1079.75 2141.55 1072.64 Q2141.55 1065.51 2139.72 1061.97 Q2137.91 1058.4 2134.28 1058.4 M2134.28 1054.7 Q2140.09 1054.7 2143.15 1059.31 Q2146.22 1063.89 2146.22 1072.64 Q2146.22 1081.37 2143.15 1085.97 Q2140.09 1090.56 2134.28 1090.56 Q2128.47 1090.56 2125.39 1085.97 Q2122.34 1081.37 2122.34 1072.64 Q2122.34 1063.89 2125.39 1059.31 Q2128.47 1054.7 2134.28 1054.7 Z" fill="#000000" fill-rule="evenodd" fill-opacity="1" /><path clip-path="url(#clip160)" d="M2203.92 1015.88 L2211.56 1015.88 L2211.56 989.512 L2203.25 991.179 L2203.25 986.919 L2211.51 985.253 L2216.19 985.253 L2216.19 1015.88 L2223.83 1015.88 L2223.83 1019.81 L2203.92 1019.81 L2203.92 1015.88 Z" fill="#000000" fill-rule="evenodd" fill-opacity="1" /><path clip-path="url(#clip160)" d="M2031.51 1185.15 L2031.51 1190.69 Q2029.03 1189.42 2026.36 1188.78 Q2023.68 1188.14 2020.82 1188.14 Q2016.46 1188.14 2014.26 1189.48 Q2012.1 1190.82 2012.1 1193.49 Q2012.1 1195.53 2013.66 1196.7 Q2015.22 1197.85 2019.93 1198.9 L2021.93 1199.35 Q2028.17 1200.68 2030.78 1203.13 Q2033.42 1205.55 2033.42 1209.91 Q2033.42 1214.88 2029.47 1217.77 Q2025.56 1220.67 2018.68 1220.67 Q2015.82 1220.67 2012.7 1220.1 Q2009.61 1219.56 2006.18 1218.44 L2006.18 1212.4 Q2009.42 1214.08 2012.57 1214.94 Q2015.72 1215.77 2018.81 1215.77 Q2022.95 1215.77 2025.18 1214.37 Q2027.41 1212.94 2027.41 1210.36 Q2027.41 1207.97 2025.78 1206.7 Q2024.19 1205.43 2018.75 1204.25 L2016.71 1203.77 Q2011.27 1202.62 2008.85 1200.27 Q2006.43 1197.88 2006.43 1193.74 Q2006.43 1188.72 2010 1185.98 Q2013.56 1183.24 2020.12 1183.24 Q2023.36 1183.24 2026.23 1183.72 Q2029.09 1184.2 2031.51 1185.15 Z" fill="#000000" fill-rule="evenodd" fill-opacity="1" /><path clip-path="url(#clip160)" d="M2042.75 1184.1 L2048.6 1184.1 L2048.6 1219.75 L2042.75 1219.75 L2042.75 1184.1 M2042.75 1170.22 L2048.6 1170.22 L2048.6 1177.64 L2042.75 1177.64 L2042.75 1170.22 Z" fill="#000000" fill-rule="evenodd" fill-opacity="1" /><path clip-path="url(#clip160)" d="M2084.32 1201.51 Q2084.32 1195.14 2081.67 1191.64 Q2079.06 1188.14 2074.32 1188.14 Q2069.61 1188.14 2066.97 1191.64 Q2064.36 1195.14 2064.36 1201.51 Q2064.36 1207.84 2066.97 1211.35 Q2069.61 1214.85 2074.32 1214.85 Q2079.06 1214.85 2081.67 1211.35 Q2084.32 1207.84 2084.32 1201.51 M2090.17 1215.32 Q2090.17 1224.43 2086.13 1228.85 Q2082.09 1233.31 2073.75 1233.31 Q2070.66 1233.31 2067.92 1232.83 Q2065.19 1232.38 2062.61 1231.43 L2062.61 1225.73 Q2065.19 1227.13 2067.7 1227.8 Q2070.22 1228.47 2072.83 1228.47 Q2078.59 1228.47 2081.45 1225.45 Q2084.32 1222.45 2084.32 1216.37 L2084.32 1213.48 Q2082.5 1216.63 2079.67 1218.19 Q2076.84 1219.75 2072.89 1219.75 Q2066.33 1219.75 2062.32 1214.75 Q2058.31 1209.75 2058.31 1201.51 Q2058.31 1193.24 2062.32 1188.24 Q2066.33 1183.24 2072.89 1183.24 Q2076.84 1183.24 2079.67 1184.8 Q2082.5 1186.36 2084.32 1189.51 L2084.32 1184.1 L2090.17 1184.1 L2090.17 1215.32 Z" fill="#000000" fill-rule="evenodd" fill-opacity="1" /><path clip-path="url(#clip160)" d="M2131.87 1198.23 L2131.87 1219.75 L2126.01 1219.75 L2126.01 1198.42 Q2126.01 1193.36 2124.04 1190.85 Q2122.06 1188.33 2118.12 1188.33 Q2113.37 1188.33 2110.64 1191.36 Q2107.9 1194.38 2107.9 1199.6 L2107.9 1219.75 L2102.01 1219.75 L2102.01 1184.1 L2107.9 1184.1 L2107.9 1189.64 Q2110 1186.42 2112.83 1184.83 Q2115.7 1183.24 2119.42 1183.24 Q2125.57 1183.24 2128.72 1187.06 Q2131.87 1190.85 2131.87 1198.23 Z" fill="#000000" fill-rule="evenodd" fill-opacity="1" /><path clip-path="url(#clip160)" d="M2159.75 1201.83 Q2152.65 1201.83 2149.91 1203.45 Q2147.18 1205.08 2147.18 1208.99 Q2147.18 1212.11 2149.21 1213.96 Q2151.28 1215.77 2154.82 1215.77 Q2159.69 1215.77 2162.61 1212.33 Q2165.57 1208.86 2165.57 1203.13 L2165.57 1201.83 L2159.75 1201.83 M2171.43 1199.41 L2171.43 1219.75 L2165.57 1219.75 L2165.57 1214.34 Q2163.57 1217.58 2160.58 1219.14 Q2157.58 1220.67 2153.26 1220.67 Q2147.78 1220.67 2144.53 1217.62 Q2141.32 1214.53 2141.32 1209.37 Q2141.32 1203.36 2145.33 1200.3 Q2149.37 1197.25 2157.36 1197.25 L2165.57 1197.25 L2165.57 1196.67 Q2165.57 1192.63 2162.9 1190.43 Q2160.26 1188.21 2155.45 1188.21 Q2152.4 1188.21 2149.5 1188.94 Q2146.6 1189.67 2143.93 1191.13 L2143.93 1185.72 Q2147.14 1184.48 2150.17 1183.88 Q2153.19 1183.24 2156.06 1183.24 Q2163.79 1183.24 2167.61 1187.25 Q2171.43 1191.26 2171.43 1199.41 Z" fill="#000000" fill-rule="evenodd" fill-opacity="1" /><path clip-path="url(#clip160)" d="M2183.49 1170.22 L2189.35 1170.22 L2189.35 1219.75 L2183.49 1219.75 L2183.49 1170.22 Z" fill="#000000" fill-rule="evenodd" fill-opacity="1" /><path clip-path="url(#clip160)" d="M2247.98 1185.47 L2247.98 1190.94 Q2245.49 1189.57 2242.98 1188.91 Q2240.5 1188.21 2237.95 1188.21 Q2232.25 1188.21 2229.1 1191.83 Q2225.95 1195.43 2225.95 1201.96 Q2225.95 1208.48 2229.1 1212.11 Q2232.25 1215.71 2237.95 1215.71 Q2240.5 1215.71 2242.98 1215.04 Q2245.49 1214.34 2247.98 1212.97 L2247.98 1218.38 Q2245.53 1219.53 2242.88 1220.1 Q2240.28 1220.67 2237.31 1220.67 Q2229.26 1220.67 2224.52 1215.61 Q2219.78 1210.55 2219.78 1201.96 Q2219.78 1193.24 2224.55 1188.24 Q2229.36 1183.24 2237.7 1183.24 Q2240.4 1183.24 2242.98 1183.81 Q2245.56 1184.35 2247.98 1185.47 Z" fill="#000000" fill-rule="evenodd" fill-opacity="1" /><path clip-path="url(#clip160)" d="M2271.98 1188.21 Q2267.27 1188.21 2264.53 1191.9 Q2261.79 1195.56 2261.79 1201.96 Q2261.79 1208.35 2264.5 1212.05 Q2267.23 1215.71 2271.98 1215.71 Q2276.66 1215.71 2279.39 1212.01 Q2282.13 1208.32 2282.13 1201.96 Q2282.13 1195.62 2279.39 1191.93 Q2276.66 1188.21 2271.98 1188.21 M2271.98 1183.24 Q2279.62 1183.24 2283.98 1188.21 Q2288.34 1193.17 2288.34 1201.96 Q2288.34 1210.71 2283.98 1215.71 Q2279.62 1220.67 2271.98 1220.67 Q2264.31 1220.67 2259.95 1215.71 Q2255.62 1210.71 2255.62 1201.96 Q2255.62 1193.17 2259.95 1188.21 Q2264.31 1183.24 2271.98 1183.24 Z" fill="#000000" fill-rule="evenodd" fill-opacity="1" /><path clip-path="url(#clip160)" d="M2325.8 1190.94 Q2327.99 1187 2331.05 1185.12 Q2334.11 1183.24 2338.24 1183.24 Q2343.81 1183.24 2346.84 1187.16 Q2349.86 1191.04 2349.86 1198.23 L2349.86 1219.75 L2343.97 1219.75 L2343.97 1198.42 Q2343.97 1193.3 2342.16 1190.82 Q2340.34 1188.33 2336.62 1188.33 Q2332.07 1188.33 2329.43 1191.36 Q2326.78 1194.38 2326.78 1199.6 L2326.78 1219.75 L2320.9 1219.75 L2320.9 1198.42 Q2320.9 1193.27 2319.08 1190.82 Q2317.27 1188.33 2313.48 1188.33 Q2308.99 1188.33 2306.35 1191.39 Q2303.71 1194.41 2303.71 1199.6 L2303.71 1219.75 L2297.82 1219.75 L2297.82 1184.1 L2303.71 1184.1 L2303.71 1189.64 Q2305.71 1186.36 2308.52 1184.8 Q2311.32 1183.24 2315.17 1183.24 Q2319.05 1183.24 2321.76 1185.21 Q2324.49 1187.19 2325.8 1190.94 Z" fill="#000000" fill-rule="evenodd" fill-opacity="1" /><path clip-path="url(#clip160)" d="M2367.21 1214.4 L2367.21 1233.31 L2361.32 1233.31 L2361.32 1184.1 L2367.21 1184.1 L2367.21 1189.51 Q2369.05 1186.33 2371.85 1184.8 Q2374.69 1183.24 2378.6 1183.24 Q2385.09 1183.24 2389.14 1188.4 Q2393.21 1193.55 2393.21 1201.96 Q2393.21 1210.36 2389.14 1215.52 Q2385.09 1220.67 2378.6 1220.67 Q2374.69 1220.67 2371.85 1219.14 Q2369.05 1217.58 2367.21 1214.4 M2387.13 1201.96 Q2387.13 1195.49 2384.46 1191.83 Q2381.82 1188.14 2377.17 1188.14 Q2372.52 1188.14 2369.85 1191.83 Q2367.21 1195.49 2367.21 1201.96 Q2367.21 1208.42 2369.85 1212.11 Q2372.52 1215.77 2377.17 1215.77 Q2381.82 1215.77 2384.46 1212.11 Q2387.13 1208.42 2387.13 1201.96 Z" fill="#000000" fill-rule="evenodd" fill-opacity="1" /><path clip-path="url(#clip160)" d="M2403.75 1211.66 L2410.46 1211.66 L2410.46 1219.75 L2403.75 1219.75 L2403.75 1211.66 Z" fill="#000000" fill-rule="evenodd" fill-opacity="1" /><path clip-path="url(#clip160)" d="M2450.73 1214.34 L2473.16 1214.34 L2473.16 1219.75 L2442.99 1219.75 L2442.99 1214.34 Q2446.65 1210.55 2452.95 1204.18 Q2459.29 1197.79 2460.91 1195.94 Q2464 1192.47 2465.21 1190.08 Q2466.45 1187.67 2466.45 1185.34 Q2466.45 1181.55 2463.77 1179.17 Q2461.13 1176.78 2456.87 1176.78 Q2453.84 1176.78 2450.47 1177.83 Q2447.13 1178.88 2443.31 1181.01 L2443.31 1174.52 Q2447.19 1172.96 2450.57 1172.16 Q2453.94 1171.37 2456.74 1171.37 Q2464.13 1171.37 2468.52 1175.06 Q2472.91 1178.75 2472.91 1184.93 Q2472.91 1187.86 2471.8 1190.5 Q2470.71 1193.11 2467.82 1196.67 Q2467.02 1197.6 2462.76 1202.02 Q2458.49 1206.41 2450.73 1214.34 Z" fill="#000000" fill-rule="evenodd" fill-opacity="1" /><polyline clip-path="url(#clip163)" style="stroke:#000000; stroke-linecap:round; stroke-linejoin:round; stroke-width:2; stroke-opacity:0.1; fill:none" points="1507.77,1014.33 1780.51,778.125 2252.92,914.498 "/>
<polyline clip-path="url(#clip163)" style="stroke:#000000; stroke-linecap:round; stroke-linejoin:round; stroke-width:2; stroke-opacity:0.1; fill:none" points="1507.77,886.996 1780.51,650.79 2252.92,787.163 "/>
<polyline clip-path="url(#clip163)" style="stroke:#000000; stroke-linecap:round; stroke-linejoin:round; stroke-width:2; stroke-opacity:0.1; fill:none" points="1507.77,759.661 1780.51,523.456 2252.92,659.829 "/>
<polyline clip-path="url(#clip163)" style="stroke:#000000; stroke-linecap:round; stroke-linejoin:round; stroke-width:2; stroke-opacity:0.1; fill:none" points="1507.77,632.327 1780.51,396.121 2252.92,532.494 "/>
<polyline clip-path="url(#clip160)" style="stroke:#000000; stroke-linecap:round; stroke-linejoin:round; stroke-width:4; stroke-opacity:1; fill:none" points="1507.77,1021.33 1507.77,548.922 "/>
<polyline clip-path="url(#clip160)" style="stroke:#000000; stroke-linecap:round; stroke-linejoin:round; stroke-width:4; stroke-opacity:1; fill:none" points="1507.77,1014.33 1511.04,1011.5 "/>
<polyline clip-path="url(#clip160)" style="stroke:#000000; stroke-linecap:round; stroke-linejoin:round; stroke-width:4; stroke-opacity:1; fill:none" points="1507.77,886.996 1511.04,884.161 "/>
<polyline clip-path="url(#clip160)" style="stroke:#000000; stroke-linecap:round; stroke-linejoin:round; stroke-width:4; stroke-opacity:1; fill:none" points="1507.77,759.661 1511.04,756.827 "/>
<polyline clip-path="url(#clip160)" style="stroke:#000000; stroke-linecap:round; stroke-linejoin:round; stroke-width:4; stroke-opacity:1; fill:none" points="1507.77,632.327 1511.04,629.492 "/>
<path clip-path="url(#clip160)" d="M1467.02 1000.13 Q1463.41 1000.13 1461.58 1003.69 Q1459.78 1007.24 1459.78 1014.37 Q1459.78 1021.47 1461.58 1025.04 Q1463.41 1028.58 1467.02 1028.58 Q1470.66 1028.58 1472.46 1025.04 Q1474.29 1021.47 1474.29 1014.37 Q1474.29 1007.24 1472.46 1003.69 Q1470.66 1000.13 1467.02 1000.13 M1467.02 996.425 Q1472.83 996.425 1475.89 1001.03 Q1478.97 1005.62 1478.97 1014.37 Q1478.97 1023.09 1475.89 1027.7 Q1472.83 1032.28 1467.02 1032.28 Q1461.21 1032.28 1458.13 1027.7 Q1455.08 1023.09 1455.08 1014.37 Q1455.08 1005.62 1458.13 1001.03 Q1461.21 996.425 1467.02 996.425 Z" fill="#000000" fill-rule="evenodd" fill-opacity="1" /><path clip-path="url(#clip160)" d="M1430.89 900.341 L1447.21 900.341 L1447.21 904.276 L1425.26 904.276 L1425.26 900.341 Q1427.92 897.586 1432.51 892.956 Q1437.11 888.304 1438.29 886.961 Q1440.54 884.438 1441.42 882.702 Q1442.32 880.943 1442.32 879.253 Q1442.32 876.498 1440.38 874.762 Q1438.46 873.026 1435.35 873.026 Q1433.16 873.026 1430.7 873.79 Q1428.27 874.554 1425.49 876.105 L1425.49 871.382 Q1428.32 870.248 1430.77 869.669 Q1433.23 869.091 1435.26 869.091 Q1440.63 869.091 1443.83 871.776 Q1447.02 874.461 1447.02 878.952 Q1447.02 881.081 1446.21 883.003 Q1445.42 884.901 1443.32 887.493 Q1442.74 888.165 1439.64 891.382 Q1436.54 894.577 1430.89 900.341 Z" fill="#000000" fill-rule="evenodd" fill-opacity="1" /><path clip-path="url(#clip160)" d="M1467.02 872.794 Q1463.41 872.794 1461.58 876.359 Q1459.78 879.901 1459.78 887.03 Q1459.78 894.137 1461.58 897.702 Q1463.41 901.243 1467.02 901.243 Q1470.66 901.243 1472.46 897.702 Q1474.29 894.137 1474.29 887.03 Q1474.29 879.901 1472.46 876.359 Q1470.66 872.794 1467.02 872.794 M1467.02 869.091 Q1472.83 869.091 1475.89 873.697 Q1478.97 878.281 1478.97 887.03 Q1478.97 895.757 1475.89 900.364 Q1472.83 904.947 1467.02 904.947 Q1461.21 904.947 1458.13 900.364 Q1455.08 895.757 1455.08 887.03 Q1455.08 878.281 1458.13 873.697 Q1461.21 869.091 1467.02 869.091 Z" fill="#000000" fill-rule="evenodd" fill-opacity="1" /><path clip-path="url(#clip160)" d="M1439.71 746.455 L1427.9 764.904 L1439.71 764.904 L1439.71 746.455 M1438.48 742.381 L1444.36 742.381 L1444.36 764.904 L1449.29 764.904 L1449.29 768.793 L1444.36 768.793 L1444.36 776.941 L1439.71 776.941 L1439.71 768.793 L1424.1 768.793 L1424.1 764.279 L1438.48 742.381 Z" fill="#000000" fill-rule="evenodd" fill-opacity="1" /><path clip-path="url(#clip160)" d="M1467.02 745.46 Q1463.41 745.46 1461.58 749.025 Q1459.78 752.566 1459.78 759.696 Q1459.78 766.802 1461.58 770.367 Q1463.41 773.909 1467.02 773.909 Q1470.66 773.909 1472.46 770.367 Q1474.29 766.802 1474.29 759.696 Q1474.29 752.566 1472.46 749.025 Q1470.66 745.46 1467.02 745.46 M1467.02 741.756 Q1472.83 741.756 1475.89 746.363 Q1478.97 750.946 1478.97 759.696 Q1478.97 768.423 1475.89 773.029 Q1472.83 777.612 1467.02 777.612 Q1461.21 777.612 1458.13 773.029 Q1455.08 768.423 1455.08 759.696 Q1455.08 750.946 1458.13 746.363 Q1461.21 741.756 1467.02 741.756 Z" fill="#000000" fill-rule="evenodd" fill-opacity="1" /><path clip-path="url(#clip160)" d="M1437.44 630.463 Q1434.29 630.463 1432.44 632.616 Q1430.61 634.769 1430.61 638.519 Q1430.61 642.246 1432.44 644.421 Q1434.29 646.574 1437.44 646.574 Q1440.59 646.574 1442.41 644.421 Q1444.27 642.246 1444.27 638.519 Q1444.27 634.769 1442.41 632.616 Q1440.59 630.463 1437.44 630.463 M1446.72 615.81 L1446.72 620.07 Q1444.96 619.236 1443.16 618.797 Q1441.37 618.357 1439.61 618.357 Q1434.98 618.357 1432.53 621.482 Q1430.1 624.607 1429.75 630.926 Q1431.12 628.912 1433.18 627.847 Q1435.24 626.76 1437.72 626.76 Q1442.92 626.76 1445.93 629.931 Q1448.97 633.079 1448.97 638.519 Q1448.97 643.843 1445.82 647.06 Q1442.67 650.278 1437.44 650.278 Q1431.44 650.278 1428.27 645.695 Q1425.1 641.088 1425.1 632.361 Q1425.1 624.167 1428.99 619.306 Q1432.88 614.422 1439.43 614.422 Q1441.19 614.422 1442.97 614.769 Q1444.78 615.116 1446.72 615.81 Z" fill="#000000" fill-rule="evenodd" fill-opacity="1" /><path clip-path="url(#clip160)" d="M1467.02 618.125 Q1463.41 618.125 1461.58 621.69 Q1459.78 625.232 1459.78 632.361 Q1459.78 639.468 1461.58 643.033 Q1463.41 646.574 1467.02 646.574 Q1470.66 646.574 1472.46 643.033 Q1474.29 639.468 1474.29 632.361 Q1474.29 625.232 1472.46 621.69 Q1470.66 618.125 1467.02 618.125 M1467.02 614.422 Q1472.83 614.422 1475.89 619.028 Q1478.97 623.611 1478.97 632.361 Q1478.97 641.088 1475.89 645.695 Q1472.83 650.278 1467.02 650.278 Q1461.21 650.278 1458.13 645.695 Q1455.08 641.088 1455.08 632.361 Q1455.08 623.611 1458.13 619.028 Q1461.21 614.422 1467.02 614.422 Z" fill="#000000" fill-rule="evenodd" fill-opacity="1" /><path clip-path="url(#clip160)" d="M1320.88 845.968 L1331 845.968 L1331 833.905 L1335.55 833.905 L1335.55 845.968 L1354.9 845.968 Q1359.26 845.968 1360.51 844.791 Q1361.75 843.581 1361.75 839.921 L1361.75 833.905 L1366.65 833.905 L1366.65 839.921 Q1366.65 846.7 1364.13 849.278 Q1361.59 851.857 1354.9 851.857 L1335.55 851.857 L1335.55 856.153 L1331 856.153 L1331 851.857 L1320.88 851.857 L1320.88 845.968 Z" fill="#000000" fill-rule="evenodd" fill-opacity="1" /><path clip-path="url(#clip160)" d="M1331 826.203 L1331 820.346 L1366.65 820.346 L1366.65 826.203 L1331 826.203 M1317.12 826.203 L1317.12 820.346 L1324.54 820.346 L1324.54 826.203 L1317.12 826.203 Z" fill="#000000" fill-rule="evenodd" fill-opacity="1" /><path clip-path="url(#clip160)" d="M1337.84 780.338 Q1333.9 778.142 1332.02 775.086 Q1330.14 772.031 1330.14 767.893 Q1330.14 762.323 1334.06 759.299 Q1337.94 756.276 1345.13 756.276 L1366.65 756.276 L1366.65 762.164 L1345.32 762.164 Q1340.2 762.164 1337.72 763.978 Q1335.23 765.792 1335.23 769.516 Q1335.23 774.068 1338.26 776.709 Q1341.28 779.351 1346.5 779.351 L1366.65 779.351 L1366.65 785.239 L1345.32 785.239 Q1340.17 785.239 1337.72 787.054 Q1335.23 788.868 1335.23 792.656 Q1335.23 797.143 1338.29 799.785 Q1341.31 802.427 1346.5 802.427 L1366.65 802.427 L1366.65 808.315 L1331 808.315 L1331 802.427 L1336.54 802.427 Q1333.26 800.422 1331.7 797.621 Q1330.14 794.82 1330.14 790.969 Q1330.14 787.086 1332.11 784.38 Q1334.09 781.643 1337.84 780.338 Z" fill="#000000" fill-rule="evenodd" fill-opacity="1" /><path clip-path="url(#clip160)" d="M1347.36 714.103 L1350.23 714.103 L1350.23 741.03 Q1356.27 740.648 1359.46 737.401 Q1362.61 734.123 1362.61 728.298 Q1362.61 724.924 1361.78 721.773 Q1360.95 718.591 1359.3 715.471 L1364.83 715.471 Q1366.17 718.622 1366.87 721.933 Q1367.57 725.243 1367.57 728.648 Q1367.57 737.178 1362.61 742.175 Q1357.64 747.141 1349.18 747.141 Q1340.42 747.141 1335.3 742.43 Q1330.14 737.688 1330.14 729.667 Q1330.14 722.474 1334.79 718.304 Q1339.4 714.103 1347.36 714.103 M1345.64 719.959 Q1340.84 720.023 1337.97 722.665 Q1335.11 725.275 1335.11 729.603 Q1335.11 734.505 1337.88 737.465 Q1340.64 740.393 1345.67 740.839 L1345.64 719.959 Z" fill="#000000" fill-rule="evenodd" fill-opacity="1" /><polyline clip-path="url(#clip163)" style="stroke:#009af9; stroke-linecap:round; stroke-linejoin:round; stroke-width:12; stroke-opacity:1; fill:none" points="1942.55,919.896 1960.25,919.283 1974.83,921.782 1989.3,923.89 2000.77,926.44 2014.07,928.953 2015.97,933.623 2019.85,937.938 2016.63,942.294 2087.64,966.877 2087.98,969.846 2077.06,974.961 2062.63,977.338 1981.15,960.617 1965.97,962.05 1945.7,963.102 1933.05,963.164 1906.6,959.722 1889.28,955.308 1870.54,952.04 1844.38,946.596 1825.28,937.471 1801.1,928.6 1783.16,917.843 1762.41,906.391 1748.75,891.912 1731.94,877.653 1722.29,862.123 1708.47,846.988 1702.72,829.784 1695.85,812.84 1697.1,794.723 1700.24,778.72 1705.76,761.401 1707.69,745.737 1721.9,729.26 1730.27,713.088 1745.19,696.557 1708.01,608.049 1737.33,594.626 1767.29,580.505 1803.04,570.897 1838.37,559.915 1873.16,555.844 1912.54,548.425 1946.42,547.766 1981.48,549.223 2016.65,549.785 2045.94,551.692 "/>
<polyline clip-path="url(#clip163)" style="stroke:#e26f46; stroke-linecap:round; stroke-linejoin:round; stroke-width:12; stroke-opacity:1; fill:none" points="1982.51,877.55 2000.2,874.878 2008.24,873.352 2022.57,874.958 2039.19,873.994 2048.97,874.217 2057.49,876.201 2066.85,879.356 2067.36,882.219 2075.8,882.89 2076.95,888.067 2075.39,892.427 2075.97,893.787 2073.78,896.12 2068.21,901.871 2067.98,904.539 2056.02,905.448 2049.5,909.754 2038.43,914.126 2026.8,915.623 2010.76,916.489 1999.31,918.832 1983.31,917.841 1971.17,915.847 1951.68,917.983 1931.22,915.618 1916.17,913.037 1899.05,908.023 1877.83,903.867 1860.7,896.877 1840.33,891.932 1821.56,886.604 1806.02,879.643 1792.54,868.758 1776.75,858.81 1754.78,847.517 1740.82,837.124 1731.36,825.15 1717.76,811.209 1702.25,798.049 1698.71,784.459 1684.44,770.475 1676.62,757.612 1671.08,739.671 1667.31,726.944 1664.54,710.542 1662.8,691.456 1662.91,675.423 1666.67,661.676 1672.5,643.971 1672.94,629.754 1686.07,612.922 1692.44,597.828 1705.21,580.801 1709.44,567.351 1727.32,552.12 1739.54,539.113 1757.55,526.539 1766.77,513.788 1787.51,504.062 1809.1,491.936 1823.45,480.932 1839.83,472.824 1857.73,465.327 1875.71,456.599 1893.69,450.577 1913.4,444.418 1933.2,438.534 1947.58,437.473 1966.25,433.824 1985.02,429.701 "/>
<polyline clip-path="url(#clip163)" style="stroke:#000000; stroke-linecap:round; stroke-linejoin:round; stroke-width:12; stroke-opacity:0.2; fill:none" points="1942.55,919.896 1982.51,877.55 "/>
<polyline clip-path="url(#clip163)" style="stroke:#000000; stroke-linecap:round; stroke-linejoin:round; stroke-width:12; stroke-opacity:0.2; fill:none" points="1974.83,921.782 2022.57,874.958 "/>
<polyline clip-path="url(#clip163)" style="stroke:#000000; stroke-linecap:round; stroke-linejoin:round; stroke-width:12; stroke-opacity:0.2; fill:none" points="2000.77,926.44 2057.49,876.201 "/>
<polyline clip-path="url(#clip163)" style="stroke:#000000; stroke-linecap:round; stroke-linejoin:round; stroke-width:12; stroke-opacity:0.2; fill:none" points="2015.97,933.623 2075.8,882.89 "/>
<polyline clip-path="url(#clip163)" style="stroke:#000000; stroke-linecap:round; stroke-linejoin:round; stroke-width:12; stroke-opacity:0.2; fill:none" points="2016.63,942.294 2075.97,893.787 "/>
<polyline clip-path="url(#clip163)" style="stroke:#000000; stroke-linecap:round; stroke-linejoin:round; stroke-width:12; stroke-opacity:0.2; fill:none" points="2087.64,966.877 2067.98,904.539 "/>
<polyline clip-path="url(#clip163)" style="stroke:#000000; stroke-linecap:round; stroke-linejoin:round; stroke-width:12; stroke-opacity:0.2; fill:none" points="2062.63,977.338 2038.43,914.126 "/>
<polyline clip-path="url(#clip163)" style="stroke:#000000; stroke-linecap:round; stroke-linejoin:round; stroke-width:12; stroke-opacity:0.2; fill:none" points="1965.97,962.05 1999.31,918.832 "/>
<polyline clip-path="url(#clip163)" style="stroke:#000000; stroke-linecap:round; stroke-linejoin:round; stroke-width:12; stroke-opacity:0.2; fill:none" points="1933.05,963.164 1951.68,917.983 "/>
<polyline clip-path="url(#clip163)" style="stroke:#000000; stroke-linecap:round; stroke-linejoin:round; stroke-width:12; stroke-opacity:0.2; fill:none" points="1889.28,955.308 1899.05,908.023 "/>
<polyline clip-path="url(#clip163)" style="stroke:#000000; stroke-linecap:round; stroke-linejoin:round; stroke-width:12; stroke-opacity:0.2; fill:none" points="1844.38,946.596 1840.33,891.932 "/>
<polyline clip-path="url(#clip163)" style="stroke:#000000; stroke-linecap:round; stroke-linejoin:round; stroke-width:12; stroke-opacity:0.2; fill:none" points="1801.1,928.6 1792.54,868.758 "/>
<polyline clip-path="url(#clip163)" style="stroke:#000000; stroke-linecap:round; stroke-linejoin:round; stroke-width:12; stroke-opacity:0.2; fill:none" points="1762.41,906.391 1740.82,837.124 "/>
<polyline clip-path="url(#clip163)" style="stroke:#000000; stroke-linecap:round; stroke-linejoin:round; stroke-width:12; stroke-opacity:0.2; fill:none" points="1731.94,877.653 1702.25,798.049 "/>
<polyline clip-path="url(#clip163)" style="stroke:#000000; stroke-linecap:round; stroke-linejoin:round; stroke-width:12; stroke-opacity:0.2; fill:none" points="1708.47,846.988 1676.62,757.612 "/>
<polyline clip-path="url(#clip163)" style="stroke:#000000; stroke-linecap:round; stroke-linejoin:round; stroke-width:12; stroke-opacity:0.2; fill:none" points="1695.85,812.84 1664.54,710.542 "/>
<polyline clip-path="url(#clip163)" style="stroke:#000000; stroke-linecap:round; stroke-linejoin:round; stroke-width:12; stroke-opacity:0.2; fill:none" points="1700.24,778.72 1666.67,661.676 "/>
<polyline clip-path="url(#clip163)" style="stroke:#000000; stroke-linecap:round; stroke-linejoin:round; stroke-width:12; stroke-opacity:0.2; fill:none" points="1707.69,745.737 1686.07,612.922 "/>
<polyline clip-path="url(#clip163)" style="stroke:#000000; stroke-linecap:round; stroke-linejoin:round; stroke-width:12; stroke-opacity:0.2; fill:none" points="1730.27,713.088 1709.44,567.351 "/>
<polyline clip-path="url(#clip163)" style="stroke:#000000; stroke-linecap:round; stroke-linejoin:round; stroke-width:12; stroke-opacity:0.2; fill:none" points="1745.19,696.557 1757.55,526.539 "/>
<polyline clip-path="url(#clip163)" style="stroke:#000000; stroke-linecap:round; stroke-linejoin:round; stroke-width:12; stroke-opacity:0.2; fill:none" points="1708.01,608.049 1809.1,491.936 "/>
<polyline clip-path="url(#clip163)" style="stroke:#000000; stroke-linecap:round; stroke-linejoin:round; stroke-width:12; stroke-opacity:0.2; fill:none" points="1803.04,570.897 1857.73,465.327 "/>
<polyline clip-path="url(#clip163)" style="stroke:#000000; stroke-linecap:round; stroke-linejoin:round; stroke-width:12; stroke-opacity:0.2; fill:none" points="1912.54,548.425 1913.4,444.418 "/>
<polyline clip-path="url(#clip163)" style="stroke:#000000; stroke-linecap:round; stroke-linejoin:round; stroke-width:12; stroke-opacity:0.2; fill:none" points="2016.65,549.785 1966.25,433.824 "/>
</svg>
