<?xml version="1.0" encoding="utf-8"?>
<svg xmlns="http://www.w3.org/2000/svg" xmlns:xlink="http://www.w3.org/1999/xlink" width="600" height="400" viewBox="0 0 2400 1600">
<defs>
  <clipPath id="clip340">
    <rect x="0" y="0" width="2400" height="1600"/>
  </clipPath>
</defs>
<path clip-path="url(#clip340)" d="M0 1600 L2400 1600 L2400 0 L0 0  Z" fill="#ffffff" fill-rule="evenodd" fill-opacity="1"/>
<defs>
  <clipPath id="clip341">
    <rect x="480" y="0" width="1681" height="1600"/>
  </clipPath>
</defs>
<path clip-path="url(#clip340)" d="M210.746 1423.18 L1155.57 1423.18 L1155.57 47.2441 L210.746 47.2441  Z" fill="#ffffff" fill-rule="evenodd" fill-opacity="1"/>
<defs>
  <clipPath id="clip342">
    <rect x="210" y="47" width="946" height="1377"/>
  </clipPath>
</defs>
<polyline clip-path="url(#clip342)" style="stroke:#000000; stroke-linecap:round; stroke-linejoin:round; stroke-width:2; stroke-opacity:0.1; fill:none" points="457.197,1423.18 457.197,47.2441 "/>
<polyline clip-path="url(#clip342)" style="stroke:#000000; stroke-linecap:round; stroke-linejoin:round; stroke-width:2; stroke-opacity:0.1; fill:none" points="698.3,1423.18 698.3,47.2441 "/>
<polyline clip-path="url(#clip342)" style="stroke:#000000; stroke-linecap:round; stroke-linejoin:round; stroke-width:2; stroke-opacity:0.1; fill:none" points="939.403,1423.18 939.403,47.2441 "/>
<polyline clip-path="url(#clip340)" style="stroke:#000000; stroke-linecap:round; stroke-linejoin:round; stroke-width:4; stroke-opacity:1; fill:none" points="210.746,1423.18 1155.57,1423.18 "/>
<polyline clip-path="url(#clip340)" style="stroke:#000000; stroke-linecap:round; stroke-linejoin:round; stroke-width:4; stroke-opacity:1; fill:none" points="457.197,1423.18 457.197,1404.28 "/>
<polyline clip-path="url(#clip340)" style="stroke:#000000; stroke-linecap:round; stroke-linejoin:round; stroke-width:4; stroke-opacity:1; fill:none" points="698.3,1423.18 698.3,1404.28 "/>
<polyline clip-path="url(#clip340)" style="stroke:#000000; stroke-linecap:round; stroke-linejoin:round; stroke-width:4; stroke-opacity:1; fill:none" points="939.403,1423.18 939.403,1404.28 "/>
<path clip-path="url(#clip340)" d="M426.954 1468.75 L456.63 1468.75 L456.63 1472.69 L426.954 1472.69 L426.954 1468.75 Z" fill="#000000" fill-rule="evenodd" fill-opacity="1" /><path clip-path="url(#clip340)" d="M467.532 1481.64 L475.171 1481.64 L475.171 1455.28 L466.861 1456.95 L466.861 1452.69 L475.125 1451.02 L479.801 1451.02 L479.801 1481.64 L487.44 1481.64 L487.44 1485.58 L467.532 1485.58 L467.532 1481.64 Z" fill="#000000" fill-rule="evenodd" fill-opacity="1" /><path clip-path="url(#clip340)" d="M698.3 1454.1 Q694.689 1454.1 692.86 1457.66 Q691.055 1461.2 691.055 1468.33 Q691.055 1475.44 692.86 1479.01 Q694.689 1482.55 698.3 1482.55 Q701.934 1482.55 703.74 1479.01 Q705.568 1475.44 705.568 1468.33 Q705.568 1461.2 703.74 1457.66 Q701.934 1454.1 698.3 1454.1 M698.3 1450.39 Q704.11 1450.39 707.166 1455 Q710.244 1459.58 710.244 1468.33 Q710.244 1477.06 707.166 1481.67 Q704.11 1486.25 698.3 1486.25 Q692.49 1486.25 689.411 1481.67 Q686.356 1477.06 686.356 1468.33 Q686.356 1459.58 689.411 1455 Q692.49 1450.39 698.3 1450.39 Z" fill="#000000" fill-rule="evenodd" fill-opacity="1" /><path clip-path="url(#clip340)" d="M929.785 1481.64 L937.424 1481.64 L937.424 1455.28 L929.114 1456.95 L929.114 1452.69 L937.378 1451.02 L942.054 1451.02 L942.054 1481.64 L949.692 1481.64 L949.692 1485.58 L929.785 1485.58 L929.785 1481.64 Z" fill="#000000" fill-rule="evenodd" fill-opacity="1" /><path clip-path="url(#clip340)" d="M474.744 1533.45 L474.744 1538.98 Q472.261 1537.71 469.588 1537.07 Q466.914 1536.44 464.05 1536.44 Q459.689 1536.44 457.493 1537.77 Q455.329 1539.11 455.329 1541.79 Q455.329 1543.82 456.888 1545 Q458.448 1546.15 463.158 1547.2 L465.164 1547.64 Q471.402 1548.98 474.012 1551.43 Q476.654 1553.85 476.654 1558.21 Q476.654 1563.17 472.707 1566.07 Q468.792 1568.97 461.917 1568.97 Q459.052 1568.97 455.933 1568.39 Q452.846 1567.85 449.408 1566.74 L449.408 1560.69 Q452.655 1562.38 455.806 1563.24 Q458.957 1564.07 462.044 1564.07 Q466.182 1564.07 468.41 1562.66 Q470.638 1561.23 470.638 1558.65 Q470.638 1556.27 469.015 1554.99 Q467.423 1553.72 461.981 1552.54 L459.944 1552.07 Q454.501 1550.92 452.082 1548.56 Q449.663 1546.18 449.663 1542.04 Q449.663 1537.01 453.228 1534.27 Q456.793 1531.54 463.349 1531.54 Q466.596 1531.54 469.46 1532.01 Q472.325 1532.49 474.744 1533.45 Z" fill="#000000" fill-rule="evenodd" fill-opacity="1" /><path clip-path="url(#clip340)" d="M485.979 1532.4 L491.836 1532.4 L491.836 1568.04 L485.979 1568.04 L485.979 1532.4 M485.979 1518.52 L491.836 1518.52 L491.836 1525.93 L485.979 1525.93 L485.979 1518.52 Z" fill="#000000" fill-rule="evenodd" fill-opacity="1" /><path clip-path="url(#clip340)" d="M527.547 1549.81 Q527.547 1543.44 524.906 1539.94 Q522.296 1536.44 517.553 1536.44 Q512.843 1536.44 510.201 1539.94 Q507.591 1543.44 507.591 1549.81 Q507.591 1556.14 510.201 1559.64 Q512.843 1563.14 517.553 1563.14 Q522.296 1563.14 524.906 1559.64 Q527.547 1556.14 527.547 1549.81 M533.404 1563.62 Q533.404 1572.72 529.362 1577.15 Q525.319 1581.6 516.98 1581.6 Q513.893 1581.6 511.156 1581.13 Q508.419 1580.68 505.84 1579.72 L505.84 1574.03 Q508.419 1575.43 510.933 1576.1 Q513.447 1576.76 516.057 1576.76 Q521.818 1576.76 524.683 1573.74 Q527.547 1570.75 527.547 1564.67 L527.547 1561.77 Q525.733 1564.92 522.901 1566.48 Q520.068 1568.04 516.121 1568.04 Q509.564 1568.04 505.554 1563.05 Q501.544 1558.05 501.544 1549.81 Q501.544 1541.53 505.554 1536.53 Q509.564 1531.54 516.121 1531.54 Q520.068 1531.54 522.901 1533.1 Q525.733 1534.66 527.547 1537.81 L527.547 1532.4 L533.404 1532.4 L533.404 1563.62 Z" fill="#000000" fill-rule="evenodd" fill-opacity="1" /><path clip-path="url(#clip340)" d="M575.099 1546.53 L575.099 1568.04 L569.243 1568.04 L569.243 1546.72 Q569.243 1541.66 567.269 1539.14 Q565.296 1536.63 561.349 1536.63 Q556.607 1536.63 553.87 1539.65 Q551.132 1542.68 551.132 1547.9 L551.132 1568.04 L545.244 1568.04 L545.244 1532.4 L551.132 1532.4 L551.132 1537.93 Q553.233 1534.72 556.066 1533.13 Q558.93 1531.54 562.654 1531.54 Q568.797 1531.54 571.948 1535.36 Q575.099 1539.14 575.099 1546.53 Z" fill="#000000" fill-rule="evenodd" fill-opacity="1" /><path clip-path="url(#clip340)" d="M602.981 1550.12 Q595.883 1550.12 593.146 1551.75 Q590.409 1553.37 590.409 1557.29 Q590.409 1560.4 592.446 1562.25 Q594.515 1564.07 598.048 1564.07 Q602.917 1564.07 605.846 1560.63 Q608.806 1557.16 608.806 1551.43 L608.806 1550.12 L602.981 1550.12 M614.662 1547.71 L614.662 1568.04 L608.806 1568.04 L608.806 1562.63 Q606.801 1565.88 603.809 1567.44 Q600.817 1568.97 596.488 1568.97 Q591.014 1568.97 587.767 1565.91 Q584.552 1562.82 584.552 1557.67 Q584.552 1551.65 588.563 1548.6 Q592.605 1545.54 600.594 1545.54 L608.806 1545.54 L608.806 1544.97 Q608.806 1540.93 606.132 1538.73 Q603.49 1536.5 598.684 1536.5 Q595.629 1536.5 592.732 1537.23 Q589.836 1537.97 587.162 1539.43 L587.162 1534.02 Q590.377 1532.78 593.401 1532.17 Q596.424 1531.54 599.289 1531.54 Q607.023 1531.54 610.843 1535.55 Q614.662 1539.56 614.662 1547.71 Z" fill="#000000" fill-rule="evenodd" fill-opacity="1" /><path clip-path="url(#clip340)" d="M626.725 1518.52 L632.582 1518.52 L632.582 1568.04 L626.725 1568.04 L626.725 1518.52 Z" fill="#000000" fill-rule="evenodd" fill-opacity="1" /><path clip-path="url(#clip340)" d="M691.21 1533.76 L691.21 1539.24 Q688.727 1537.87 686.213 1537.2 Q683.73 1536.5 681.184 1536.5 Q675.486 1536.5 672.335 1540.13 Q669.184 1543.73 669.184 1550.25 Q669.184 1556.78 672.335 1560.4 Q675.486 1564 681.184 1564 Q683.73 1564 686.213 1563.33 Q688.727 1562.63 691.21 1561.26 L691.21 1566.68 Q688.759 1567.82 686.117 1568.39 Q683.507 1568.97 680.547 1568.97 Q672.495 1568.97 667.752 1563.91 Q663.01 1558.85 663.01 1550.25 Q663.01 1541.53 667.784 1536.53 Q672.59 1531.54 680.929 1531.54 Q683.635 1531.54 686.213 1532.11 Q688.791 1532.65 691.21 1533.76 Z" fill="#000000" fill-rule="evenodd" fill-opacity="1" /><path clip-path="url(#clip340)" d="M715.209 1536.5 Q710.498 1536.5 707.761 1540.19 Q705.023 1543.85 705.023 1550.25 Q705.023 1556.65 707.729 1560.34 Q710.466 1564 715.209 1564 Q719.887 1564 722.625 1560.31 Q725.362 1556.62 725.362 1550.25 Q725.362 1543.92 722.625 1540.23 Q719.887 1536.5 715.209 1536.5 M715.209 1531.54 Q722.847 1531.54 727.208 1536.5 Q731.568 1541.47 731.568 1550.25 Q731.568 1559 727.208 1564 Q722.847 1568.97 715.209 1568.97 Q707.538 1568.97 703.177 1564 Q698.849 1559 698.849 1550.25 Q698.849 1541.47 703.177 1536.5 Q707.538 1531.54 715.209 1531.54 Z" fill="#000000" fill-rule="evenodd" fill-opacity="1" /><path clip-path="url(#clip340)" d="M769.031 1539.24 Q771.227 1535.29 774.282 1533.41 Q777.338 1531.54 781.476 1531.54 Q787.045 1531.54 790.069 1535.45 Q793.093 1539.33 793.093 1546.53 L793.093 1568.04 L787.205 1568.04 L787.205 1546.72 Q787.205 1541.59 785.39 1539.11 Q783.576 1536.63 779.852 1536.63 Q775.301 1536.63 772.659 1539.65 Q770.017 1542.68 770.017 1547.9 L770.017 1568.04 L764.129 1568.04 L764.129 1546.72 Q764.129 1541.56 762.315 1539.11 Q760.501 1536.63 756.713 1536.63 Q752.225 1536.63 749.583 1539.68 Q746.942 1542.71 746.942 1547.9 L746.942 1568.04 L741.053 1568.04 L741.053 1532.4 L746.942 1532.4 L746.942 1537.93 Q748.947 1534.66 751.748 1533.1 Q754.549 1531.54 758.4 1531.54 Q762.283 1531.54 764.988 1533.51 Q767.726 1535.48 769.031 1539.24 Z" fill="#000000" fill-rule="evenodd" fill-opacity="1" /><path clip-path="url(#clip340)" d="M810.439 1562.7 L810.439 1581.6 L804.551 1581.6 L804.551 1532.4 L810.439 1532.4 L810.439 1537.81 Q812.286 1534.62 815.086 1533.1 Q817.919 1531.54 821.834 1531.54 Q828.327 1531.54 832.369 1536.69 Q836.443 1541.85 836.443 1550.25 Q836.443 1558.65 832.369 1563.81 Q828.327 1568.97 821.834 1568.97 Q817.919 1568.97 815.086 1567.44 Q812.286 1565.88 810.439 1562.7 M830.364 1550.25 Q830.364 1543.79 827.691 1540.13 Q825.049 1536.44 820.402 1536.44 Q815.755 1536.44 813.081 1540.13 Q810.439 1543.79 810.439 1550.25 Q810.439 1556.71 813.081 1560.4 Q815.755 1564.07 820.402 1564.07 Q825.049 1564.07 827.691 1560.4 Q830.364 1556.71 830.364 1550.25 Z" fill="#000000" fill-rule="evenodd" fill-opacity="1" /><path clip-path="url(#clip340)" d="M846.979 1559.96 L853.694 1559.96 L853.694 1568.04 L846.979 1568.04 L846.979 1559.96 Z" fill="#000000" fill-rule="evenodd" fill-opacity="1" /><path clip-path="url(#clip340)" d="M889.533 1562.63 L900.037 1562.63 L900.037 1526.38 L888.61 1528.67 L888.61 1522.82 L899.973 1520.52 L906.402 1520.52 L906.402 1562.63 L916.906 1562.63 L916.906 1568.04 L889.533 1568.04 L889.533 1562.63 Z" fill="#000000" fill-rule="evenodd" fill-opacity="1" /><polyline clip-path="url(#clip342)" style="stroke:#000000; stroke-linecap:round; stroke-linejoin:round; stroke-width:2; stroke-opacity:0.1; fill:none" points="210.746,1209.33 1155.57,1209.33 "/>
<polyline clip-path="url(#clip342)" style="stroke:#000000; stroke-linecap:round; stroke-linejoin:round; stroke-width:2; stroke-opacity:0.1; fill:none" points="210.746,805.494 1155.57,805.494 "/>
<polyline clip-path="url(#clip342)" style="stroke:#000000; stroke-linecap:round; stroke-linejoin:round; stroke-width:2; stroke-opacity:0.1; fill:none" points="210.746,401.655 1155.57,401.655 "/>
<polyline clip-path="url(#clip340)" style="stroke:#000000; stroke-linecap:round; stroke-linejoin:round; stroke-width:4; stroke-opacity:1; fill:none" points="210.746,1423.18 210.746,47.2441 "/>
<polyline clip-path="url(#clip340)" style="stroke:#000000; stroke-linecap:round; stroke-linejoin:round; stroke-width:4; stroke-opacity:1; fill:none" points="210.746,1209.33 229.644,1209.33 "/>
<polyline clip-path="url(#clip340)" style="stroke:#000000; stroke-linecap:round; stroke-linejoin:round; stroke-width:4; stroke-opacity:1; fill:none" points="210.746,805.494 229.644,805.494 "/>
<polyline clip-path="url(#clip340)" style="stroke:#000000; stroke-linecap:round; stroke-linejoin:round; stroke-width:4; stroke-opacity:1; fill:none" points="210.746,401.655 229.644,401.655 "/>
<path clip-path="url(#clip340)" d="M114.26 1209.78 L143.936 1209.78 L143.936 1213.72 L114.26 1213.72 L114.26 1209.78 Z" fill="#000000" fill-rule="evenodd" fill-opacity="1" /><path clip-path="url(#clip340)" d="M154.839 1222.68 L162.477 1222.68 L162.477 1196.31 L154.167 1197.98 L154.167 1193.72 L162.431 1192.05 L167.107 1192.05 L167.107 1222.68 L174.746 1222.68 L174.746 1226.61 L154.839 1226.61 L154.839 1222.68 Z" fill="#000000" fill-rule="evenodd" fill-opacity="1" /><path clip-path="url(#clip340)" d="M162.802 791.293 Q159.19 791.293 157.362 794.858 Q155.556 798.4 155.556 805.529 Q155.556 812.636 157.362 816.2 Q159.19 819.742 162.802 819.742 Q166.436 819.742 168.241 816.2 Q170.07 812.636 170.07 805.529 Q170.07 798.4 168.241 794.858 Q166.436 791.293 162.802 791.293 M162.802 787.589 Q168.612 787.589 171.667 792.196 Q174.746 796.779 174.746 805.529 Q174.746 814.256 171.667 818.862 Q168.612 823.446 162.802 823.446 Q156.991 823.446 153.913 818.862 Q150.857 814.256 150.857 805.529 Q150.857 796.779 153.913 792.196 Q156.991 787.589 162.802 787.589 Z" fill="#000000" fill-rule="evenodd" fill-opacity="1" /><path clip-path="url(#clip340)" d="M154.839 415 L162.477 415 L162.477 388.634 L154.167 390.301 L154.167 386.042 L162.431 384.375 L167.107 384.375 L167.107 415 L174.746 415 L174.746 418.935 L154.839 418.935 L154.839 415 Z" fill="#000000" fill-rule="evenodd" fill-opacity="1" /><path clip-path="url(#clip340)" d="M29.4065 943.371 L34.9447 943.371 Q33.6716 945.853 33.035 948.527 Q32.3984 951.2 32.3984 954.065 Q32.3984 958.425 33.7352 960.622 Q35.072 962.786 37.7456 962.786 Q39.7826 962.786 40.9603 961.226 Q42.1061 959.667 43.1565 954.956 L43.6021 952.951 Q44.9389 946.713 47.3897 944.103 Q49.8086 941.461 54.1691 941.461 Q59.1344 941.461 62.0308 945.408 Q64.9272 949.323 64.9272 956.197 Q64.9272 959.062 64.3543 962.181 Q63.8132 965.269 62.6992 968.706 L56.6518 968.706 Q58.3387 965.46 59.198 962.309 Q60.0256 959.158 60.0256 956.07 Q60.0256 951.932 58.6251 949.704 Q57.1929 947.476 54.6147 947.476 Q52.2276 947.476 50.9545 949.1 Q49.6813 950.691 48.5037 956.134 L48.0262 958.171 Q46.8804 963.614 44.5251 966.032 Q42.138 968.451 38.0002 968.451 Q32.9713 968.451 30.2341 964.887 Q27.4968 961.322 27.4968 954.765 Q27.4968 951.519 27.9743 948.654 Q28.4517 945.79 29.4065 943.371 Z" fill="#000000" fill-rule="evenodd" fill-opacity="1" /><path clip-path="url(#clip340)" d="M28.3562 932.135 L28.3562 926.279 L64.0042 926.279 L64.0042 932.135 L28.3562 932.135 M14.479 932.135 L14.479 926.279 L21.895 926.279 L21.895 932.135 L14.479 932.135 Z" fill="#000000" fill-rule="evenodd" fill-opacity="1" /><path clip-path="url(#clip340)" d="M45.7664 890.567 Q39.4007 890.567 35.8996 893.209 Q32.3984 895.819 32.3984 900.561 Q32.3984 905.272 35.8996 907.914 Q39.4007 910.524 45.7664 910.524 Q52.1003 910.524 55.6014 907.914 Q59.1026 905.272 59.1026 900.561 Q59.1026 895.819 55.6014 893.209 Q52.1003 890.567 45.7664 890.567 M59.58 884.711 Q68.683 884.711 73.1071 888.753 Q77.5631 892.795 77.5631 901.134 Q77.5631 904.221 77.0857 906.959 Q76.6401 909.696 75.6852 912.274 L69.9879 912.274 Q71.3884 909.696 72.0568 907.182 Q72.7252 904.667 72.7252 902.057 Q72.7252 896.296 69.7015 893.432 Q66.7096 890.567 60.6303 890.567 L57.7339 890.567 Q60.885 892.381 62.4446 895.214 Q64.0042 898.047 64.0042 901.993 Q64.0042 908.55 59.0071 912.561 Q54.01 916.571 45.7664 916.571 Q37.491 916.571 32.4939 912.561 Q27.4968 908.55 27.4968 901.993 Q27.4968 898.047 29.0564 895.214 Q30.616 892.381 33.7671 890.567 L28.3562 890.567 L28.3562 884.711 L59.58 884.711 Z" fill="#000000" fill-rule="evenodd" fill-opacity="1" /><path clip-path="url(#clip340)" d="M42.4881 843.015 L64.0042 843.015 L64.0042 848.872 L42.679 848.872 Q37.6183 848.872 35.1038 850.845 Q32.5894 852.818 32.5894 856.765 Q32.5894 861.508 35.6131 864.245 Q38.6368 866.982 43.8567 866.982 L64.0042 866.982 L64.0042 872.87 L28.3562 872.87 L28.3562 866.982 L33.8944 866.982 Q30.6797 864.881 29.0883 862.049 Q27.4968 859.184 27.4968 855.46 Q27.4968 849.317 31.3163 846.166 Q35.1038 843.015 42.4881 843.015 Z" fill="#000000" fill-rule="evenodd" fill-opacity="1" /><path clip-path="url(#clip340)" d="M46.0847 815.133 Q46.0847 822.231 47.7079 824.968 Q49.3312 827.706 53.2461 827.706 Q56.3653 827.706 58.2114 825.669 Q60.0256 823.6 60.0256 820.067 Q60.0256 815.197 56.5881 812.269 Q53.1188 809.309 47.3897 809.309 L46.0847 809.309 L46.0847 815.133 M43.6657 803.452 L64.0042 803.452 L64.0042 809.309 L58.5933 809.309 Q61.8398 811.314 63.3994 814.306 Q64.9272 817.298 64.9272 821.626 Q64.9272 827.101 61.8716 830.347 Q58.7843 833.562 53.6281 833.562 Q47.6125 833.562 44.5569 829.552 Q41.5014 825.51 41.5014 817.521 L41.5014 809.309 L40.9285 809.309 Q36.8862 809.309 34.6901 811.982 Q32.4621 814.624 32.4621 819.43 Q32.4621 822.486 33.1941 825.382 Q33.9262 828.279 35.3903 830.952 L29.9795 830.952 Q28.7381 827.738 28.1334 824.714 Q27.4968 821.69 27.4968 818.826 Q27.4968 811.091 31.5072 807.272 Q35.5176 803.452 43.6657 803.452 Z" fill="#000000" fill-rule="evenodd" fill-opacity="1" /><path clip-path="url(#clip340)" d="M14.479 791.389 L14.479 785.533 L64.0042 785.533 L64.0042 791.389 L14.479 791.389 Z" fill="#000000" fill-rule="evenodd" fill-opacity="1" /><path clip-path="url(#clip340)" d="M29.7248 726.905 L35.1993 726.905 Q33.8307 729.387 33.1623 731.902 Q32.4621 734.384 32.4621 736.931 Q32.4621 742.628 36.0905 745.779 Q39.6872 748.93 46.212 748.93 Q52.7369 748.93 56.3653 745.779 Q59.9619 742.628 59.9619 736.931 Q59.9619 734.384 59.2935 731.902 Q58.5933 729.387 57.2247 726.905 L62.6355 726.905 Q63.7814 729.356 64.3543 731.997 Q64.9272 734.607 64.9272 737.567 Q64.9272 745.62 59.8664 750.362 Q54.8057 755.105 46.212 755.105 Q37.491 755.105 32.4939 750.331 Q27.4968 745.524 27.4968 737.185 Q27.4968 734.48 28.0697 731.902 Q28.6108 729.324 29.7248 726.905 Z" fill="#000000" fill-rule="evenodd" fill-opacity="1" /><path clip-path="url(#clip340)" d="M32.4621 702.906 Q32.4621 707.617 36.1542 710.354 Q39.8145 713.091 46.212 713.091 Q52.6095 713.091 56.3017 710.386 Q59.9619 707.648 59.9619 702.906 Q59.9619 698.227 56.2698 695.49 Q52.5777 692.753 46.212 692.753 Q39.8781 692.753 36.186 695.49 Q32.4621 698.227 32.4621 702.906 M27.4968 702.906 Q27.4968 695.267 32.4621 690.907 Q37.4273 686.546 46.212 686.546 Q54.9649 686.546 59.9619 690.907 Q64.9272 695.267 64.9272 702.906 Q64.9272 710.577 59.9619 714.937 Q54.9649 719.266 46.212 719.266 Q37.4273 719.266 32.4621 714.937 Q27.4968 710.577 27.4968 702.906 Z" fill="#000000" fill-rule="evenodd" fill-opacity="1" /><path clip-path="url(#clip340)" d="M35.1993 649.084 Q31.2526 646.888 29.3747 643.832 Q27.4968 640.777 27.4968 636.639 Q27.4968 631.069 31.4117 628.045 Q35.2948 625.022 42.4881 625.022 L64.0042 625.022 L64.0042 630.91 L42.679 630.91 Q37.5546 630.91 35.072 632.724 Q32.5894 634.538 32.5894 638.262 Q32.5894 642.814 35.6131 645.456 Q38.6368 648.097 43.8567 648.097 L64.0042 648.097 L64.0042 653.986 L42.679 653.986 Q37.5228 653.986 35.072 655.8 Q32.5894 657.614 32.5894 661.402 Q32.5894 665.889 35.6449 668.531 Q38.6686 671.173 43.8567 671.173 L64.0042 671.173 L64.0042 677.061 L28.3562 677.061 L28.3562 671.173 L33.8944 671.173 Q30.616 669.168 29.0564 666.367 Q27.4968 663.566 27.4968 659.715 Q27.4968 655.832 29.4702 653.126 Q31.4436 650.389 35.1993 649.084 Z" fill="#000000" fill-rule="evenodd" fill-opacity="1" /><path clip-path="url(#clip340)" d="M58.657 607.675 L77.5631 607.675 L77.5631 613.563 L28.3562 613.563 L28.3562 607.675 L33.7671 607.675 Q30.5842 605.829 29.0564 603.028 Q27.4968 600.195 27.4968 596.28 Q27.4968 589.787 32.6531 585.745 Q37.8093 581.671 46.212 581.671 Q54.6147 581.671 59.771 585.745 Q64.9272 589.787 64.9272 596.28 Q64.9272 600.195 63.3994 603.028 Q61.8398 605.829 58.657 607.675 M46.212 587.75 Q39.7508 587.75 36.0905 590.424 Q32.3984 593.066 32.3984 597.713 Q32.3984 602.36 36.0905 605.033 Q39.7508 607.675 46.212 607.675 Q52.6732 607.675 56.3653 605.033 Q60.0256 602.36 60.0256 597.713 Q60.0256 593.066 56.3653 590.424 Q52.6732 587.75 46.212 587.75 Z" fill="#000000" fill-rule="evenodd" fill-opacity="1" /><path clip-path="url(#clip340)" d="M55.9197 571.136 L55.9197 564.42 L64.0042 564.42 L64.0042 571.136 L55.9197 571.136 Z" fill="#000000" fill-rule="evenodd" fill-opacity="1" /><path clip-path="url(#clip340)" d="M58.5933 524.157 L58.5933 501.718 L64.0042 501.718 L64.0042 531.891 L58.5933 531.891 Q54.8057 528.231 48.44 521.929 Q42.0425 515.595 40.1964 513.972 Q36.7271 510.884 34.34 509.675 Q31.921 508.434 29.5975 508.434 Q25.8099 508.434 23.4228 511.107 Q21.0356 513.749 21.0356 518.014 Q21.0356 521.038 22.086 524.412 Q23.1363 527.754 25.2688 531.573 L18.7758 531.573 Q17.2162 527.69 16.4205 524.316 Q15.6248 520.942 15.6248 518.141 Q15.6248 510.757 19.3169 506.365 Q23.009 501.972 29.1837 501.972 Q32.112 501.972 34.7537 503.086 Q37.3637 504.169 40.9285 507.065 Q41.8515 507.861 46.2757 512.126 Q50.668 516.391 58.5933 524.157 Z" fill="#000000" fill-rule="evenodd" fill-opacity="1" /><polyline clip-path="url(#clip342)" style="stroke:#009af9; stroke-linecap:round; stroke-linejoin:round; stroke-width:12; stroke-opacity:1; fill:none" points="710.577,497.177 749.403,499.244 783.398,506.627 815.952,523.971 855.736,553.642 882.161,583.675 911.664,620.421 933.827,658.879 954.966,714.156 1112.19,757.898 1114.08,812.356 1119.11,871.843 1128.83,918.275 985.967,977.95 971.593,1029.24 960.2,1085.51 939.316,1130.52 917.772,1174.92 892.196,1210.53 860.109,1243.96 836.06,1274.77 799.742,1288.2 759.786,1311.64 724.056,1311.7 688.323,1306.14 647.755,1299.17 610.377,1283.91 584.428,1265.75 545.544,1240.96 517.432,1201.3 496.842,1153.93 475.797,1114.35 461.544,1064.05 448.325,1005.62 439.493,955.949 435.685,904.385 436.543,853.382 446.29,793.429 237.486,490.532 274.364,418.579 323.817,337.297 352.077,283.238 403.524,230.716 466.343,178.174 517.853,148.506 573.287,117.455 645.349,86.2522 702.838,86.1857 766.705,92.8717 "/>
<polyline clip-path="url(#clip342)" style="stroke:#e26f46; stroke-linecap:round; stroke-linejoin:round; stroke-width:12; stroke-opacity:1; fill:none" points="693.255,248.517 731.869,245.075 755.603,254.483 789.971,272.766 815.177,292.262 842.668,307.987 874.044,333.78 893.061,360.766 921.257,380.101 940.326,422.258 965.27,462.397 987.549,495.568 1005.41,555.53 1010.36,596.24 1023.89,632.957 1027.15,688.667 1035.68,734.376 1036.88,788.129 1042.04,836.508 1042.07,885.062 1029.41,945.025 1021.11,990.922 1013.81,1038.61 996.934,1083.16 981.891,1123.19 959.122,1161.84 944.645,1198.62 925.387,1243.68 900.589,1275.55 872.649,1294.23 857.893,1323.58 816.498,1336.45 785.26,1349.51 757.251,1366.59 729.78,1372.75 700.057,1384.24 663.962,1370.58 642.022,1371.25 606.92,1343.74 576.182,1342.17 546.597,1311.39 521.907,1303.07 496.793,1276.53 471.985,1239.17 454.035,1208.95 428.925,1166.03 414.571,1127.71 400.787,1082.86 380.476,1036.17 381.649,979.776 372.678,934.265 359.804,897.521 359.743,838.469 360.223,778.762 355.587,738.593 362.968,688.553 372.699,635.555 382.885,597.455 404.209,529.878 416.243,491.344 429.145,463.229 450.477,426.818 480.723,385.151 493.96,368.124 514.624,341.339 551.803,311.292 577.454,290.626 600.907,272.517 643.937,259.365 671.264,252.446 705.314,248.026 "/>
<polyline clip-path="url(#clip342)" style="stroke:#000000; stroke-linecap:round; stroke-linejoin:round; stroke-width:12; stroke-opacity:0.2; fill:none" points="710.577,497.177 693.255,248.517 "/>
<polyline clip-path="url(#clip342)" style="stroke:#000000; stroke-linecap:round; stroke-linejoin:round; stroke-width:12; stroke-opacity:0.2; fill:none" points="783.398,506.627 789.971,272.766 "/>
<polyline clip-path="url(#clip342)" style="stroke:#000000; stroke-linecap:round; stroke-linejoin:round; stroke-width:12; stroke-opacity:0.2; fill:none" points="855.736,553.642 874.044,333.78 "/>
<polyline clip-path="url(#clip342)" style="stroke:#000000; stroke-linecap:round; stroke-linejoin:round; stroke-width:12; stroke-opacity:0.2; fill:none" points="911.664,620.421 940.326,422.258 "/>
<polyline clip-path="url(#clip342)" style="stroke:#000000; stroke-linecap:round; stroke-linejoin:round; stroke-width:12; stroke-opacity:0.2; fill:none" points="954.966,714.156 1005.41,555.53 "/>
<polyline clip-path="url(#clip342)" style="stroke:#000000; stroke-linecap:round; stroke-linejoin:round; stroke-width:12; stroke-opacity:0.2; fill:none" points="1112.19,757.898 1027.15,688.667 "/>
<polyline clip-path="url(#clip342)" style="stroke:#000000; stroke-linecap:round; stroke-linejoin:round; stroke-width:12; stroke-opacity:0.2; fill:none" points="1128.83,918.275 1042.04,836.508 "/>
<polyline clip-path="url(#clip342)" style="stroke:#000000; stroke-linecap:round; stroke-linejoin:round; stroke-width:12; stroke-opacity:0.2; fill:none" points="971.593,1029.24 1021.11,990.922 "/>
<polyline clip-path="url(#clip342)" style="stroke:#000000; stroke-linecap:round; stroke-linejoin:round; stroke-width:12; stroke-opacity:0.2; fill:none" points="939.316,1130.52 981.891,1123.19 "/>
<polyline clip-path="url(#clip342)" style="stroke:#000000; stroke-linecap:round; stroke-linejoin:round; stroke-width:12; stroke-opacity:0.2; fill:none" points="892.196,1210.53 925.387,1243.68 "/>
<polyline clip-path="url(#clip342)" style="stroke:#000000; stroke-linecap:round; stroke-linejoin:round; stroke-width:12; stroke-opacity:0.2; fill:none" points="836.06,1274.77 857.893,1323.58 "/>
<polyline clip-path="url(#clip342)" style="stroke:#000000; stroke-linecap:round; stroke-linejoin:round; stroke-width:12; stroke-opacity:0.2; fill:none" points="759.786,1311.64 757.251,1366.59 "/>
<polyline clip-path="url(#clip342)" style="stroke:#000000; stroke-linecap:round; stroke-linejoin:round; stroke-width:12; stroke-opacity:0.2; fill:none" points="688.323,1306.14 663.962,1370.58 "/>
<polyline clip-path="url(#clip342)" style="stroke:#000000; stroke-linecap:round; stroke-linejoin:round; stroke-width:12; stroke-opacity:0.2; fill:none" points="610.377,1283.91 576.182,1342.17 "/>
<polyline clip-path="url(#clip342)" style="stroke:#000000; stroke-linecap:round; stroke-linejoin:round; stroke-width:12; stroke-opacity:0.2; fill:none" points="545.544,1240.96 496.793,1276.53 "/>
<polyline clip-path="url(#clip342)" style="stroke:#000000; stroke-linecap:round; stroke-linejoin:round; stroke-width:12; stroke-opacity:0.2; fill:none" points="496.842,1153.93 428.925,1166.03 "/>
<polyline clip-path="url(#clip342)" style="stroke:#000000; stroke-linecap:round; stroke-linejoin:round; stroke-width:12; stroke-opacity:0.2; fill:none" points="461.544,1064.05 380.476,1036.17 "/>
<polyline clip-path="url(#clip342)" style="stroke:#000000; stroke-linecap:round; stroke-linejoin:round; stroke-width:12; stroke-opacity:0.2; fill:none" points="439.493,955.949 359.804,897.521 "/>
<polyline clip-path="url(#clip342)" style="stroke:#000000; stroke-linecap:round; stroke-linejoin:round; stroke-width:12; stroke-opacity:0.2; fill:none" points="436.543,853.382 355.587,738.593 "/>
<polyline clip-path="url(#clip342)" style="stroke:#000000; stroke-linecap:round; stroke-linejoin:round; stroke-width:12; stroke-opacity:0.2; fill:none" points="446.29,793.429 382.885,597.455 "/>
<polyline clip-path="url(#clip342)" style="stroke:#000000; stroke-linecap:round; stroke-linejoin:round; stroke-width:12; stroke-opacity:0.2; fill:none" points="237.486,490.532 429.145,463.229 "/>
<polyline clip-path="url(#clip342)" style="stroke:#000000; stroke-linecap:round; stroke-linejoin:round; stroke-width:12; stroke-opacity:0.2; fill:none" points="352.077,283.238 493.96,368.124 "/>
<polyline clip-path="url(#clip342)" style="stroke:#000000; stroke-linecap:round; stroke-linejoin:round; stroke-width:12; stroke-opacity:0.2; fill:none" points="517.853,148.506 577.454,290.626 "/>
<polyline clip-path="url(#clip342)" style="stroke:#000000; stroke-linecap:round; stroke-linejoin:round; stroke-width:12; stroke-opacity:0.2; fill:none" points="702.838,86.1857 671.264,252.446 "/>
<defs>
  <clipPath id="clip343">
    <rect x="1407" y="47" width="946" height="1377"/>
  </clipPath>
</defs>
<path clip-path="url(#clip343)" d="M1705.34 973.449 L1705.34 696.142 L1844.54 557.489 L2085.64 637.54 L2085.64 914.847 L1946.44 1053.5 L1705.34 973.449  Z" fill="#ffffff" fill-rule="evenodd" fill-opacity="1"/>
<polyline clip-path="url(#clip343)" style="stroke:#000000; stroke-linecap:round; stroke-linejoin:round; stroke-width:2; stroke-opacity:0.1; fill:none" points="1630.99,1056.91 1903.74,820.7 1903.74,348.289 "/>
<polyline clip-path="url(#clip343)" style="stroke:#000000; stroke-linecap:round; stroke-linejoin:round; stroke-width:2; stroke-opacity:0.1; fill:none" points="1751.54,1091.71 2024.29,855.5 2024.29,383.089 "/>
<polyline clip-path="url(#clip343)" style="stroke:#000000; stroke-linecap:round; stroke-linejoin:round; stroke-width:2; stroke-opacity:0.1; fill:none" points="1872.09,1126.51 2144.84,890.301 2144.84,417.889 "/>
<polyline clip-path="url(#clip340)" style="stroke:#000000; stroke-linecap:round; stroke-linejoin:round; stroke-width:4; stroke-opacity:1; fill:none" points="1507.77,1021.33 1980.18,1157.71 "/>
<polyline clip-path="url(#clip340)" style="stroke:#000000; stroke-linecap:round; stroke-linejoin:round; stroke-width:4; stroke-opacity:1; fill:none" points="1630.99,1056.91 1634.26,1054.07 "/>
<polyline clip-path="url(#clip340)" style="stroke:#000000; stroke-linecap:round; stroke-linejoin:round; stroke-width:4; stroke-opacity:1; fill:none" points="1751.54,1091.71 1754.82,1088.87 "/>
<polyline clip-path="url(#clip340)" style="stroke:#000000; stroke-linecap:round; stroke-linejoin:round; stroke-width:4; stroke-opacity:1; fill:none" points="1872.09,1126.51 1875.37,1123.67 "/>
<path clip-path="url(#clip340)" d="M1561.43 1084.69 L1591.11 1084.69 L1591.11 1088.63 L1561.43 1088.63 L1561.43 1084.69 Z" fill="#000000" fill-rule="evenodd" fill-opacity="1" /><path clip-path="url(#clip340)" d="M1602.01 1097.58 L1609.65 1097.58 L1609.65 1071.22 L1601.34 1072.88 L1601.34 1068.63 L1609.6 1066.96 L1614.28 1066.96 L1614.28 1097.58 L1621.92 1097.58 L1621.92 1101.52 L1602.01 1101.52 L1602.01 1097.58 Z" fill="#000000" fill-rule="evenodd" fill-opacity="1" /><path clip-path="url(#clip340)" d="M1730.52 1104.84 Q1726.91 1104.84 1725.08 1108.4 Q1723.28 1111.94 1723.28 1119.07 Q1723.28 1126.18 1725.08 1129.74 Q1726.91 1133.29 1730.52 1133.29 Q1734.16 1133.29 1735.96 1129.74 Q1737.79 1126.18 1737.79 1119.07 Q1737.79 1111.94 1735.96 1108.4 Q1734.16 1104.84 1730.52 1104.84 M1730.52 1101.13 Q1736.33 1101.13 1739.39 1105.74 Q1742.47 1110.32 1742.47 1119.07 Q1742.47 1127.8 1739.39 1132.41 Q1736.33 1136.99 1730.52 1136.99 Q1724.71 1136.99 1721.63 1132.41 Q1718.58 1127.8 1718.58 1119.07 Q1718.58 1110.32 1721.63 1105.74 Q1724.71 1101.13 1730.52 1101.13 Z" fill="#000000" fill-rule="evenodd" fill-opacity="1" /><path clip-path="url(#clip340)" d="M1843.11 1167.18 L1850.75 1167.18 L1850.75 1140.82 L1842.44 1142.49 L1842.44 1138.23 L1850.7 1136.56 L1855.38 1136.56 L1855.38 1167.18 L1863.02 1167.18 L1863.02 1171.12 L1843.11 1171.12 L1843.11 1167.18 Z" fill="#000000" fill-rule="evenodd" fill-opacity="1" /><path clip-path="url(#clip340)" d="M1412.44 1235.07 L1412.44 1240.6 Q1409.96 1239.33 1407.28 1238.7 Q1404.61 1238.06 1401.74 1238.06 Q1397.38 1238.06 1395.19 1239.4 Q1393.02 1240.73 1393.02 1243.41 Q1393.02 1245.44 1394.58 1246.62 Q1396.14 1247.77 1400.85 1248.82 L1402.86 1249.26 Q1409.1 1250.6 1411.71 1253.05 Q1414.35 1255.47 1414.35 1259.83 Q1414.35 1264.79 1410.4 1267.69 Q1406.49 1270.59 1399.61 1270.59 Q1396.75 1270.59 1393.63 1270.01 Q1390.54 1269.47 1387.1 1268.36 L1387.1 1262.31 Q1390.35 1264 1393.5 1264.86 Q1396.65 1265.69 1399.74 1265.69 Q1403.88 1265.69 1406.1 1264.29 Q1408.33 1262.85 1408.33 1260.27 Q1408.33 1257.89 1406.71 1256.61 Q1405.12 1255.34 1399.67 1254.16 L1397.64 1253.69 Q1392.2 1252.54 1389.78 1250.19 Q1387.36 1247.8 1387.36 1243.66 Q1387.36 1238.63 1390.92 1235.89 Q1394.49 1233.16 1401.04 1233.16 Q1404.29 1233.16 1407.15 1233.63 Q1410.02 1234.11 1412.44 1235.07 Z" fill="#000000" fill-rule="evenodd" fill-opacity="1" /><path clip-path="url(#clip340)" d="M1423.67 1234.02 L1429.53 1234.02 L1429.53 1269.66 L1423.67 1269.66 L1423.67 1234.02 M1423.67 1220.14 L1429.53 1220.14 L1429.53 1227.56 L1423.67 1227.56 L1423.67 1220.14 Z" fill="#000000" fill-rule="evenodd" fill-opacity="1" /><path clip-path="url(#clip340)" d="M1465.24 1251.43 Q1465.24 1245.06 1462.6 1241.56 Q1459.99 1238.06 1455.25 1238.06 Q1450.54 1238.06 1447.9 1241.56 Q1445.29 1245.06 1445.29 1251.43 Q1445.29 1257.76 1447.9 1261.26 Q1450.54 1264.76 1455.25 1264.76 Q1459.99 1264.76 1462.6 1261.26 Q1465.24 1257.76 1465.24 1251.43 M1471.1 1265.24 Q1471.1 1274.34 1467.06 1278.77 Q1463.01 1283.22 1454.67 1283.22 Q1451.59 1283.22 1448.85 1282.75 Q1446.11 1282.3 1443.53 1281.35 L1443.53 1275.65 Q1446.11 1277.05 1448.63 1277.72 Q1451.14 1278.39 1453.75 1278.39 Q1459.51 1278.39 1462.38 1275.36 Q1465.24 1272.37 1465.24 1266.29 L1465.24 1263.39 Q1463.43 1266.55 1460.59 1268.1 Q1457.76 1269.66 1453.82 1269.66 Q1447.26 1269.66 1443.25 1264.67 Q1439.24 1259.67 1439.24 1251.43 Q1439.24 1243.15 1443.25 1238.15 Q1447.26 1233.16 1453.82 1233.16 Q1457.76 1233.16 1460.59 1234.72 Q1463.43 1236.28 1465.24 1239.43 L1465.24 1234.02 L1471.1 1234.02 L1471.1 1265.24 Z" fill="#000000" fill-rule="evenodd" fill-opacity="1" /><path clip-path="url(#clip340)" d="M1512.79 1248.15 L1512.79 1269.66 L1506.94 1269.66 L1506.94 1248.34 Q1506.94 1243.28 1504.96 1240.76 Q1502.99 1238.25 1499.04 1238.25 Q1494.3 1238.25 1491.56 1241.27 Q1488.83 1244.3 1488.83 1249.52 L1488.83 1269.66 L1482.94 1269.66 L1482.94 1234.02 L1488.83 1234.02 L1488.83 1239.55 Q1490.93 1236.34 1493.76 1234.75 Q1496.62 1233.16 1500.35 1233.16 Q1506.49 1233.16 1509.64 1236.98 Q1512.79 1240.76 1512.79 1248.15 Z" fill="#000000" fill-rule="evenodd" fill-opacity="1" /><path clip-path="url(#clip340)" d="M1540.68 1251.74 Q1533.58 1251.74 1530.84 1253.37 Q1528.1 1254.99 1528.1 1258.91 Q1528.1 1262.03 1530.14 1263.87 Q1532.21 1265.69 1535.74 1265.69 Q1540.61 1265.69 1543.54 1262.25 Q1546.5 1258.78 1546.5 1253.05 L1546.5 1251.74 L1540.68 1251.74 M1552.36 1249.33 L1552.36 1269.66 L1546.5 1269.66 L1546.5 1264.25 Q1544.49 1267.5 1541.5 1269.06 Q1538.51 1270.59 1534.18 1270.59 Q1528.71 1270.59 1525.46 1267.53 Q1522.25 1264.44 1522.25 1259.29 Q1522.25 1253.27 1526.26 1250.22 Q1530.3 1247.16 1538.29 1247.16 L1546.5 1247.16 L1546.5 1246.59 Q1546.5 1242.55 1543.83 1240.35 Q1541.18 1238.12 1536.38 1238.12 Q1533.32 1238.12 1530.43 1238.85 Q1527.53 1239.59 1524.86 1241.05 L1524.86 1235.64 Q1528.07 1234.4 1531.09 1233.79 Q1534.12 1233.16 1536.98 1233.16 Q1544.72 1233.16 1548.54 1237.17 Q1552.36 1241.18 1552.36 1249.33 Z" fill="#000000" fill-rule="evenodd" fill-opacity="1" /><path clip-path="url(#clip340)" d="M1564.42 1220.14 L1570.28 1220.14 L1570.28 1269.66 L1564.42 1269.66 L1564.42 1220.14 Z" fill="#000000" fill-rule="evenodd" fill-opacity="1" /><path clip-path="url(#clip340)" d="M1628.9 1235.39 L1628.9 1240.86 Q1626.42 1239.49 1623.91 1238.82 Q1621.42 1238.12 1618.88 1238.12 Q1613.18 1238.12 1610.03 1241.75 Q1606.88 1245.35 1606.88 1251.87 Q1606.88 1258.4 1610.03 1262.03 Q1613.18 1265.62 1618.88 1265.62 Q1621.42 1265.62 1623.91 1264.95 Q1626.42 1264.25 1628.9 1262.88 L1628.9 1268.3 Q1626.45 1269.44 1623.81 1270.01 Q1621.2 1270.59 1618.24 1270.59 Q1610.19 1270.59 1605.45 1265.53 Q1600.7 1260.47 1600.7 1251.87 Q1600.7 1243.15 1605.48 1238.15 Q1610.28 1233.16 1618.62 1233.16 Q1621.33 1233.16 1623.91 1233.73 Q1626.48 1234.27 1628.9 1235.39 Z" fill="#000000" fill-rule="evenodd" fill-opacity="1" /><path clip-path="url(#clip340)" d="M1652.9 1238.12 Q1648.19 1238.12 1645.45 1241.81 Q1642.72 1245.47 1642.72 1251.87 Q1642.72 1258.27 1645.42 1261.96 Q1648.16 1265.62 1652.9 1265.62 Q1657.58 1265.62 1660.32 1261.93 Q1663.06 1258.24 1663.06 1251.87 Q1663.06 1245.54 1660.32 1241.85 Q1657.58 1238.12 1652.9 1238.12 M1652.9 1233.16 Q1660.54 1233.16 1664.9 1238.12 Q1669.26 1243.09 1669.26 1251.87 Q1669.26 1260.63 1664.9 1265.62 Q1660.54 1270.59 1652.9 1270.59 Q1645.23 1270.59 1640.87 1265.62 Q1636.54 1260.63 1636.54 1251.87 Q1636.54 1243.09 1640.87 1238.12 Q1645.23 1233.16 1652.9 1233.16 Z" fill="#000000" fill-rule="evenodd" fill-opacity="1" /><path clip-path="url(#clip340)" d="M1706.72 1240.86 Q1708.92 1236.91 1711.98 1235.03 Q1715.03 1233.16 1719.17 1233.16 Q1724.74 1233.16 1727.76 1237.07 Q1730.79 1240.96 1730.79 1248.15 L1730.79 1269.66 L1724.9 1269.66 L1724.9 1248.34 Q1724.9 1243.21 1723.08 1240.73 Q1721.27 1238.25 1717.55 1238.25 Q1712.99 1238.25 1710.35 1241.27 Q1707.71 1244.3 1707.71 1249.52 L1707.71 1269.66 L1701.82 1269.66 L1701.82 1248.34 Q1701.82 1243.18 1700.01 1240.73 Q1698.19 1238.25 1694.41 1238.25 Q1689.92 1238.25 1687.28 1241.31 Q1684.64 1244.33 1684.64 1249.52 L1684.64 1269.66 L1678.75 1269.66 L1678.75 1234.02 L1684.64 1234.02 L1684.64 1239.55 Q1686.64 1236.28 1689.44 1234.72 Q1692.24 1233.16 1696.09 1233.16 Q1699.98 1233.16 1702.68 1235.13 Q1705.42 1237.1 1706.72 1240.86 Z" fill="#000000" fill-rule="evenodd" fill-opacity="1" /><path clip-path="url(#clip340)" d="M1748.13 1264.32 L1748.13 1283.22 L1742.25 1283.22 L1742.25 1234.02 L1748.13 1234.02 L1748.13 1239.43 Q1749.98 1236.24 1752.78 1234.72 Q1755.61 1233.16 1759.53 1233.16 Q1766.02 1233.16 1770.06 1238.31 Q1774.14 1243.47 1774.14 1251.87 Q1774.14 1260.27 1770.06 1265.43 Q1766.02 1270.59 1759.53 1270.59 Q1755.61 1270.59 1752.78 1269.06 Q1749.98 1267.5 1748.13 1264.32 M1768.06 1251.87 Q1768.06 1245.41 1765.38 1241.75 Q1762.74 1238.06 1758.1 1238.06 Q1753.45 1238.06 1750.78 1241.75 Q1748.13 1245.41 1748.13 1251.87 Q1748.13 1258.33 1750.78 1262.03 Q1753.45 1265.69 1758.1 1265.69 Q1762.74 1265.69 1765.38 1262.03 Q1768.06 1258.33 1768.06 1251.87 Z" fill="#000000" fill-rule="evenodd" fill-opacity="1" /><path clip-path="url(#clip340)" d="M1784.67 1261.58 L1791.39 1261.58 L1791.39 1269.66 L1784.67 1269.66 L1784.67 1261.58 Z" fill="#000000" fill-rule="evenodd" fill-opacity="1" /><path clip-path="url(#clip340)" d="M1827.23 1264.25 L1837.73 1264.25 L1837.73 1228 L1826.3 1230.29 L1826.3 1224.44 L1837.67 1222.14 L1844.1 1222.14 L1844.1 1264.25 L1854.6 1264.25 L1854.6 1269.66 L1827.23 1269.66 L1827.23 1264.25 Z" fill="#000000" fill-rule="evenodd" fill-opacity="1" /><polyline clip-path="url(#clip343)" style="stroke:#000000; stroke-linecap:round; stroke-linejoin:round; stroke-width:2; stroke-opacity:0.1; fill:none" points="2022.57,1121 1550.16,984.623 1550.16,512.212 "/>
<polyline clip-path="url(#clip343)" style="stroke:#000000; stroke-linecap:round; stroke-linejoin:round; stroke-width:2; stroke-opacity:0.1; fill:none" points="2102.62,1051.67 1630.21,915.296 1630.21,442.885 "/>
<polyline clip-path="url(#clip343)" style="stroke:#000000; stroke-linecap:round; stroke-linejoin:round; stroke-width:2; stroke-opacity:0.1; fill:none" points="2182.67,982.343 1710.26,845.97 1710.26,373.558 "/>
<polyline clip-path="url(#clip340)" style="stroke:#000000; stroke-linecap:round; stroke-linejoin:round; stroke-width:4; stroke-opacity:1; fill:none" points="1980.18,1157.71 2252.92,921.501 "/>
<polyline clip-path="url(#clip340)" style="stroke:#000000; stroke-linecap:round; stroke-linejoin:round; stroke-width:4; stroke-opacity:1; fill:none" points="2022.57,1121 2016.9,1119.36 "/>
<polyline clip-path="url(#clip340)" style="stroke:#000000; stroke-linecap:round; stroke-linejoin:round; stroke-width:4; stroke-opacity:1; fill:none" points="2102.62,1051.67 2096.95,1050.03 "/>
<polyline clip-path="url(#clip340)" style="stroke:#000000; stroke-linecap:round; stroke-linejoin:round; stroke-width:4; stroke-opacity:1; fill:none" points="2182.67,982.343 2177,980.706 "/>
<path clip-path="url(#clip340)" d="M2042.89 1141.85 L2072.57 1141.85 L2072.57 1145.79 L2042.89 1145.79 L2042.89 1141.85 Z" fill="#000000" fill-rule="evenodd" fill-opacity="1" /><path clip-path="url(#clip340)" d="M2083.47 1154.75 L2091.11 1154.75 L2091.11 1128.38 L2082.8 1130.05 L2082.8 1125.79 L2091.06 1124.12 L2095.74 1124.12 L2095.74 1154.75 L2103.38 1154.75 L2103.38 1158.68 L2083.47 1158.68 L2083.47 1154.75 Z" fill="#000000" fill-rule="evenodd" fill-opacity="1" /><path clip-path="url(#clip340)" d="M2134.89 1057.87 Q2131.28 1057.87 2129.45 1061.44 Q2127.64 1064.98 2127.64 1072.11 Q2127.64 1079.22 2129.45 1082.78 Q2131.28 1086.32 2134.89 1086.32 Q2138.52 1086.32 2140.33 1082.78 Q2142.16 1079.22 2142.16 1072.11 Q2142.16 1064.98 2140.33 1061.44 Q2138.52 1057.87 2134.89 1057.87 M2134.89 1054.17 Q2140.7 1054.17 2143.75 1058.78 Q2146.83 1063.36 2146.83 1072.11 Q2146.83 1080.84 2143.75 1085.44 Q2140.7 1090.03 2134.89 1090.03 Q2129.08 1090.03 2126 1085.44 Q2122.94 1080.84 2122.94 1072.11 Q2122.94 1063.36 2126 1058.78 Q2129.08 1054.17 2134.89 1054.17 Z" fill="#000000" fill-rule="evenodd" fill-opacity="1" /><path clip-path="url(#clip340)" d="M2203.67 1016.09 L2211.3 1016.09 L2211.3 989.727 L2202.99 991.394 L2202.99 987.134 L2211.26 985.468 L2215.93 985.468 L2215.93 1016.09 L2223.57 1016.09 L2223.57 1020.03 L2203.67 1020.03 L2203.67 1016.09 Z" fill="#000000" fill-rule="evenodd" fill-opacity="1" /><path clip-path="url(#clip340)" d="M2031.51 1185.15 L2031.51 1190.69 Q2029.03 1189.42 2026.36 1188.78 Q2023.68 1188.14 2020.82 1188.14 Q2016.46 1188.14 2014.26 1189.48 Q2012.1 1190.82 2012.1 1193.49 Q2012.1 1195.53 2013.66 1196.7 Q2015.22 1197.85 2019.93 1198.9 L2021.93 1199.35 Q2028.17 1200.68 2030.78 1203.13 Q2033.42 1205.55 2033.42 1209.91 Q2033.42 1214.88 2029.47 1217.77 Q2025.56 1220.67 2018.68 1220.67 Q2015.82 1220.67 2012.7 1220.1 Q2009.61 1219.56 2006.18 1218.44 L2006.18 1212.4 Q2009.42 1214.08 2012.57 1214.94 Q2015.72 1215.77 2018.81 1215.77 Q2022.95 1215.77 2025.18 1214.37 Q2027.41 1212.94 2027.41 1210.36 Q2027.41 1207.97 2025.78 1206.7 Q2024.19 1205.43 2018.75 1204.25 L2016.71 1203.77 Q2011.27 1202.62 2008.85 1200.27 Q2006.43 1197.88 2006.43 1193.74 Q2006.43 1188.72 2010 1185.98 Q2013.56 1183.24 2020.12 1183.24 Q2023.36 1183.24 2026.23 1183.72 Q2029.09 1184.2 2031.51 1185.15 Z" fill="#000000" fill-rule="evenodd" fill-opacity="1" /><path clip-path="url(#clip340)" d="M2042.75 1184.1 L2048.6 1184.1 L2048.6 1219.75 L2042.75 1219.75 L2042.75 1184.1 M2042.75 1170.22 L2048.6 1170.22 L2048.6 1177.64 L2042.75 1177.64 L2042.75 1170.22 Z" fill="#000000" fill-rule="evenodd" fill-opacity="1" /><path clip-path="url(#clip340)" d="M2084.32 1201.51 Q2084.32 1195.14 2081.67 1191.64 Q2079.06 1188.14 2074.32 1188.14 Q2069.61 1188.14 2066.97 1191.64 Q2064.36 1195.14 2064.36 1201.51 Q2064.36 1207.84 2066.97 1211.35 Q2069.61 1214.85 2074.32 1214.85 Q2079.06 1214.85 2081.67 1211.35 Q2084.32 1207.84 2084.32 1201.51 M2090.17 1215.32 Q2090.17 1224.43 2086.13 1228.85 Q2082.09 1233.31 2073.75 1233.31 Q2070.66 1233.31 2067.92 1232.83 Q2065.19 1232.38 2062.61 1231.43 L2062.61 1225.73 Q2065.19 1227.13 2067.7 1227.8 Q2070.22 1228.47 2072.83 1228.47 Q2078.59 1228.47 2081.45 1225.45 Q2084.32 1222.45 2084.32 1216.37 L2084.32 1213.48 Q2082.5 1216.63 2079.67 1218.19 Q2076.84 1219.75 2072.89 1219.75 Q2066.33 1219.75 2062.32 1214.75 Q2058.31 1209.75 2058.31 1201.51 Q2058.31 1193.24 2062.32 1188.24 Q2066.33 1183.24 2072.89 1183.24 Q2076.84 1183.24 2079.67 1184.8 Q2082.5 1186.36 2084.32 1189.51 L2084.32 1184.1 L2090.17 1184.1 L2090.17 1215.32 Z" fill="#000000" fill-rule="evenodd" fill-opacity="1" /><path clip-path="url(#clip340)" d="M2131.87 1198.23 L2131.87 1219.75 L2126.01 1219.75 L2126.01 1198.42 Q2126.01 1193.36 2124.04 1190.85 Q2122.06 1188.33 2118.12 1188.33 Q2113.37 1188.33 2110.64 1191.36 Q2107.9 1194.38 2107.9 1199.6 L2107.9 1219.75 L2102.01 1219.75 L2102.01 1184.1 L2107.9 1184.1 L2107.9 1189.64 Q2110 1186.42 2112.83 1184.83 Q2115.7 1183.24 2119.42 1183.24 Q2125.57 1183.24 2128.72 1187.06 Q2131.87 1190.85 2131.87 1198.23 Z" fill="#000000" fill-rule="evenodd" fill-opacity="1" /><path clip-path="url(#clip340)" d="M2159.75 1201.83 Q2152.65 1201.83 2149.91 1203.45 Q2147.18 1205.08 2147.18 1208.99 Q2147.18 1212.11 2149.21 1213.96 Q2151.28 1215.77 2154.82 1215.77 Q2159.69 1215.77 2162.61 1212.33 Q2165.57 1208.86 2165.57 1203.13 L2165.57 1201.83 L2159.75 1201.83 M2171.43 1199.41 L2171.43 1219.75 L2165.57 1219.75 L2165.57 1214.34 Q2163.57 1217.58 2160.58 1219.14 Q2157.58 1220.67 2153.26 1220.67 Q2147.78 1220.67 2144.53 1217.62 Q2141.32 1214.53 2141.32 1209.37 Q2141.32 1203.36 2145.33 1200.3 Q2149.37 1197.25 2157.36 1197.25 L2165.57 1197.25 L2165.57 1196.67 Q2165.57 1192.63 2162.9 1190.43 Q2160.26 1188.21 2155.45 1188.21 Q2152.4 1188.21 2149.5 1188.94 Q2146.6 1189.67 2143.93 1191.13 L2143.93 1185.72 Q2147.14 1184.48 2150.17 1183.88 Q2153.19 1183.24 2156.06 1183.24 Q2163.79 1183.24 2167.61 1187.25 Q2171.43 1191.26 2171.43 1199.41 Z" fill="#000000" fill-rule="evenodd" fill-opacity="1" /><path clip-path="url(#clip340)" d="M2183.49 1170.22 L2189.35 1170.22 L2189.35 1219.75 L2183.49 1219.75 L2183.49 1170.22 Z" fill="#000000" fill-rule="evenodd" fill-opacity="1" /><path clip-path="url(#clip340)" d="M2247.98 1185.47 L2247.98 1190.94 Q2245.49 1189.57 2242.98 1188.91 Q2240.5 1188.21 2237.95 1188.21 Q2232.25 1188.21 2229.1 1191.83 Q2225.95 1195.43 2225.95 1201.96 Q2225.95 1208.48 2229.1 1212.11 Q2232.25 1215.71 2237.95 1215.71 Q2240.5 1215.71 2242.98 1215.04 Q2245.49 1214.34 2247.98 1212.97 L2247.98 1218.38 Q2245.53 1219.53 2242.88 1220.1 Q2240.28 1220.67 2237.31 1220.67 Q2229.26 1220.67 2224.52 1215.61 Q2219.78 1210.55 2219.78 1201.96 Q2219.78 1193.24 2224.55 1188.24 Q2229.36 1183.24 2237.7 1183.24 Q2240.4 1183.24 2242.98 1183.81 Q2245.56 1184.35 2247.98 1185.47 Z" fill="#000000" fill-rule="evenodd" fill-opacity="1" /><path clip-path="url(#clip340)" d="M2271.98 1188.21 Q2267.27 1188.21 2264.53 1191.9 Q2261.79 1195.56 2261.79 1201.96 Q2261.79 1208.35 2264.5 1212.05 Q2267.23 1215.71 2271.98 1215.71 Q2276.66 1215.71 2279.39 1212.01 Q2282.13 1208.32 2282.13 1201.96 Q2282.13 1195.62 2279.39 1191.93 Q2276.66 1188.21 2271.98 1188.21 M2271.98 1183.24 Q2279.62 1183.24 2283.98 1188.21 Q2288.34 1193.17 2288.34 1201.96 Q2288.34 1210.71 2283.98 1215.71 Q2279.62 1220.67 2271.98 1220.67 Q2264.31 1220.67 2259.95 1215.71 Q2255.62 1210.71 2255.62 1201.96 Q2255.62 1193.17 2259.95 1188.21 Q2264.31 1183.24 2271.98 1183.24 Z" fill="#000000" fill-rule="evenodd" fill-opacity="1" /><path clip-path="url(#clip340)" d="M2325.8 1190.94 Q2327.99 1187 2331.05 1185.12 Q2334.11 1183.24 2338.24 1183.24 Q2343.81 1183.24 2346.84 1187.16 Q2349.86 1191.04 2349.86 1198.23 L2349.86 1219.75 L2343.97 1219.75 L2343.97 1198.42 Q2343.97 1193.3 2342.16 1190.82 Q2340.34 1188.33 2336.62 1188.33 Q2332.07 1188.33 2329.43 1191.36 Q2326.78 1194.38 2326.78 1199.6 L2326.78 1219.75 L2320.9 1219.75 L2320.9 1198.42 Q2320.9 1193.27 2319.08 1190.82 Q2317.27 1188.33 2313.48 1188.33 Q2308.99 1188.33 2306.35 1191.39 Q2303.71 1194.41 2303.71 1199.6 L2303.71 1219.75 L2297.82 1219.75 L2297.82 1184.1 L2303.71 1184.1 L2303.71 1189.64 Q2305.71 1186.36 2308.52 1184.8 Q2311.32 1183.24 2315.17 1183.24 Q2319.05 1183.24 2321.76 1185.21 Q2324.49 1187.19 2325.8 1190.94 Z" fill="#000000" fill-rule="evenodd" fill-opacity="1" /><path clip-path="url(#clip340)" d="M2367.21 1214.4 L2367.21 1233.31 L2361.32 1233.31 L2361.32 1184.1 L2367.21 1184.1 L2367.21 1189.51 Q2369.05 1186.33 2371.85 1184.8 Q2374.69 1183.24 2378.6 1183.24 Q2385.09 1183.24 2389.14 1188.4 Q2393.21 1193.55 2393.21 1201.96 Q2393.21 1210.36 2389.14 1215.52 Q2385.09 1220.67 2378.6 1220.67 Q2374.69 1220.67 2371.85 1219.14 Q2369.05 1217.58 2367.21 1214.4 M2387.13 1201.96 Q2387.13 1195.49 2384.46 1191.83 Q2381.82 1188.14 2377.17 1188.14 Q2372.52 1188.14 2369.85 1191.83 Q2367.21 1195.49 2367.21 1201.96 Q2367.21 1208.42 2369.85 1212.11 Q2372.52 1215.77 2377.17 1215.77 Q2381.82 1215.77 2384.46 1212.11 Q2387.13 1208.42 2387.13 1201.96 Z" fill="#000000" fill-rule="evenodd" fill-opacity="1" /><path clip-path="url(#clip340)" d="M2403.75 1211.66 L2410.46 1211.66 L2410.46 1219.75 L2403.75 1219.75 L2403.75 1211.66 Z" fill="#000000" fill-rule="evenodd" fill-opacity="1" /><path clip-path="url(#clip340)" d="M2450.73 1214.34 L2473.16 1214.34 L2473.16 1219.75 L2442.99 1219.75 L2442.99 1214.34 Q2446.65 1210.55 2452.95 1204.18 Q2459.29 1197.79 2460.91 1195.94 Q2464 1192.47 2465.21 1190.08 Q2466.45 1187.67 2466.45 1185.34 Q2466.45 1181.55 2463.77 1179.17 Q2461.13 1176.78 2456.87 1176.78 Q2453.84 1176.78 2450.47 1177.83 Q2447.13 1178.88 2443.31 1181.01 L2443.31 1174.52 Q2447.19 1172.96 2450.57 1172.16 Q2453.94 1171.37 2456.74 1171.37 Q2464.13 1171.37 2468.52 1175.06 Q2472.91 1178.75 2472.91 1184.93 Q2472.91 1187.86 2471.8 1190.5 Q2470.71 1193.11 2467.82 1196.67 Q2467.02 1197.6 2462.76 1202.02 Q2458.49 1206.41 2450.73 1214.34 Z" fill="#000000" fill-rule="evenodd" fill-opacity="1" /><polyline clip-path="url(#clip343)" style="stroke:#000000; stroke-linecap:round; stroke-linejoin:round; stroke-width:2; stroke-opacity:0.1; fill:none" points="1507.77,1014.33 1780.51,778.125 2252.92,914.498 "/>
<polyline clip-path="url(#clip343)" style="stroke:#000000; stroke-linecap:round; stroke-linejoin:round; stroke-width:2; stroke-opacity:0.1; fill:none" points="1507.77,886.996 1780.51,650.79 2252.92,787.163 "/>
<polyline clip-path="url(#clip343)" style="stroke:#000000; stroke-linecap:round; stroke-linejoin:round; stroke-width:2; stroke-opacity:0.1; fill:none" points="1507.77,759.661 1780.51,523.456 2252.92,659.829 "/>
<polyline clip-path="url(#clip343)" style="stroke:#000000; stroke-linecap:round; stroke-linejoin:round; stroke-width:2; stroke-opacity:0.1; fill:none" points="1507.77,632.327 1780.51,396.121 2252.92,532.494 "/>
<polyline clip-path="url(#clip340)" style="stroke:#000000; stroke-linecap:round; stroke-linejoin:round; stroke-width:4; stroke-opacity:1; fill:none" points="1507.77,1021.33 1507.77,548.922 "/>
<polyline clip-path="url(#clip340)" style="stroke:#000000; stroke-linecap:round; stroke-linejoin:round; stroke-width:4; stroke-opacity:1; fill:none" points="1507.77,1014.33 1511.04,1011.5 "/>
<polyline clip-path="url(#clip340)" style="stroke:#000000; stroke-linecap:round; stroke-linejoin:round; stroke-width:4; stroke-opacity:1; fill:none" points="1507.77,886.996 1511.04,884.161 "/>
<polyline clip-path="url(#clip340)" style="stroke:#000000; stroke-linecap:round; stroke-linejoin:round; stroke-width:4; stroke-opacity:1; fill:none" points="1507.77,759.661 1511.04,756.827 "/>
<polyline clip-path="url(#clip340)" style="stroke:#000000; stroke-linecap:round; stroke-linejoin:round; stroke-width:4; stroke-opacity:1; fill:none" points="1507.77,632.327 1511.04,629.492 "/>
<path clip-path="url(#clip340)" d="M1467.02 1000.13 Q1463.41 1000.13 1461.58 1003.69 Q1459.78 1007.24 1459.78 1014.37 Q1459.78 1021.47 1461.58 1025.04 Q1463.41 1028.58 1467.02 1028.58 Q1470.66 1028.58 1472.46 1025.04 Q1474.29 1021.47 1474.29 1014.37 Q1474.29 1007.24 1472.46 1003.69 Q1470.66 1000.13 1467.02 1000.13 M1467.02 996.425 Q1472.83 996.425 1475.89 1001.03 Q1478.97 1005.62 1478.97 1014.37 Q1478.97 1023.09 1475.89 1027.7 Q1472.83 1032.28 1467.02 1032.28 Q1461.21 1032.28 1458.13 1027.7 Q1455.08 1023.09 1455.08 1014.37 Q1455.08 1005.62 1458.13 1001.03 Q1461.21 996.425 1467.02 996.425 Z" fill="#000000" fill-rule="evenodd" fill-opacity="1" /><path clip-path="url(#clip340)" d="M1430.89 900.341 L1447.21 900.341 L1447.21 904.276 L1425.26 904.276 L1425.26 900.341 Q1427.92 897.586 1432.51 892.956 Q1437.11 888.304 1438.29 886.961 Q1440.54 884.438 1441.42 882.702 Q1442.32 880.943 1442.32 879.253 Q1442.32 876.498 1440.38 874.762 Q1438.46 873.026 1435.35 873.026 Q1433.16 873.026 1430.7 873.79 Q1428.27 874.554 1425.49 876.105 L1425.49 871.382 Q1428.32 870.248 1430.77 869.669 Q1433.23 869.091 1435.26 869.091 Q1440.63 869.091 1443.83 871.776 Q1447.02 874.461 1447.02 878.952 Q1447.02 881.081 1446.21 883.003 Q1445.42 884.901 1443.32 887.493 Q1442.74 888.165 1439.64 891.382 Q1436.54 894.577 1430.89 900.341 Z" fill="#000000" fill-rule="evenodd" fill-opacity="1" /><path clip-path="url(#clip340)" d="M1467.02 872.794 Q1463.41 872.794 1461.58 876.359 Q1459.78 879.901 1459.78 887.03 Q1459.78 894.137 1461.58 897.702 Q1463.41 901.243 1467.02 901.243 Q1470.66 901.243 1472.46 897.702 Q1474.29 894.137 1474.29 887.03 Q1474.29 879.901 1472.46 876.359 Q1470.66 872.794 1467.02 872.794 M1467.02 869.091 Q1472.83 869.091 1475.89 873.697 Q1478.97 878.281 1478.97 887.03 Q1478.97 895.757 1475.89 900.364 Q1472.83 904.947 1467.02 904.947 Q1461.21 904.947 1458.13 900.364 Q1455.08 895.757 1455.08 887.03 Q1455.08 878.281 1458.13 873.697 Q1461.21 869.091 1467.02 869.091 Z" fill="#000000" fill-rule="evenodd" fill-opacity="1" /><path clip-path="url(#clip340)" d="M1439.71 746.455 L1427.9 764.904 L1439.71 764.904 L1439.71 746.455 M1438.48 742.381 L1444.36 742.381 L1444.36 764.904 L1449.29 764.904 L1449.29 768.793 L1444.36 768.793 L1444.36 776.941 L1439.71 776.941 L1439.71 768.793 L1424.1 768.793 L1424.1 764.279 L1438.48 742.381 Z" fill="#000000" fill-rule="evenodd" fill-opacity="1" /><path clip-path="url(#clip340)" d="M1467.02 745.46 Q1463.41 745.46 1461.58 749.025 Q1459.78 752.566 1459.78 759.696 Q1459.78 766.802 1461.58 770.367 Q1463.41 773.909 1467.02 773.909 Q1470.66 773.909 1472.46 770.367 Q1474.29 766.802 1474.29 759.696 Q1474.29 752.566 1472.46 749.025 Q1470.66 745.46 1467.02 745.46 M1467.02 741.756 Q1472.83 741.756 1475.89 746.363 Q1478.97 750.946 1478.97 759.696 Q1478.97 768.423 1475.89 773.029 Q1472.83 777.612 1467.02 777.612 Q1461.21 777.612 1458.13 773.029 Q1455.08 768.423 1455.08 759.696 Q1455.08 750.946 1458.13 746.363 Q1461.21 741.756 1467.02 741.756 Z" fill="#000000" fill-rule="evenodd" fill-opacity="1" /><path clip-path="url(#clip340)" d="M1437.44 630.463 Q1434.29 630.463 1432.44 632.616 Q1430.61 634.769 1430.61 638.519 Q1430.61 642.246 1432.44 644.421 Q1434.29 646.574 1437.44 646.574 Q1440.59 646.574 1442.41 644.421 Q1444.27 642.246 1444.27 638.519 Q1444.27 634.769 1442.41 632.616 Q1440.59 630.463 1437.44 630.463 M1446.72 615.81 L1446.72 620.07 Q1444.96 619.236 1443.16 618.797 Q1441.37 618.357 1439.61 618.357 Q1434.98 618.357 1432.53 621.482 Q1430.1 624.607 1429.75 630.926 Q1431.12 628.912 1433.18 627.847 Q1435.24 626.76 1437.72 626.76 Q1442.92 626.76 1445.93 629.931 Q1448.97 633.079 1448.97 638.519 Q1448.97 643.843 1445.82 647.06 Q1442.67 650.278 1437.44 650.278 Q1431.44 650.278 1428.27 645.695 Q1425.1 641.088 1425.1 632.361 Q1425.1 624.167 1428.99 619.306 Q1432.88 614.422 1439.43 614.422 Q1441.19 614.422 1442.97 614.769 Q1444.78 615.116 1446.72 615.81 Z" fill="#000000" fill-rule="evenodd" fill-opacity="1" /><path clip-path="url(#clip340)" d="M1467.02 618.125 Q1463.41 618.125 1461.58 621.69 Q1459.78 625.232 1459.78 632.361 Q1459.78 639.468 1461.58 643.033 Q1463.41 646.574 1467.02 646.574 Q1470.66 646.574 1472.46 643.033 Q1474.29 639.468 1474.29 632.361 Q1474.29 625.232 1472.46 621.69 Q1470.66 618.125 1467.02 618.125 M1467.02 614.422 Q1472.83 614.422 1475.89 619.028 Q1478.97 623.611 1478.97 632.361 Q1478.97 641.088 1475.89 645.695 Q1472.83 650.278 1467.02 650.278 Q1461.21 650.278 1458.13 645.695 Q1455.08 641.088 1455.08 632.361 Q1455.08 623.611 1458.13 619.028 Q1461.21 614.422 1467.02 614.422 Z" fill="#000000" fill-rule="evenodd" fill-opacity="1" /><path clip-path="url(#clip340)" d="M1331 870.158 L1331 864.302 L1366.65 864.302 L1366.65 870.158 L1331 870.158 M1317.12 870.158 L1317.12 864.302 L1324.54 864.302 L1324.54 870.158 L1317.12 870.158 Z" fill="#000000" fill-rule="evenodd" fill-opacity="1" /><path clip-path="url(#clip340)" d="M1345.13 822.415 L1366.65 822.415 L1366.65 828.272 L1345.32 828.272 Q1340.26 828.272 1337.75 830.245 Q1335.23 832.218 1335.23 836.165 Q1335.23 840.908 1338.26 843.645 Q1341.28 846.382 1346.5 846.382 L1366.65 846.382 L1366.65 852.27 L1331 852.27 L1331 846.382 L1336.54 846.382 Q1333.32 844.281 1331.73 841.449 Q1330.14 838.584 1330.14 834.86 Q1330.14 828.717 1333.96 825.566 Q1337.75 822.415 1345.13 822.415 Z" fill="#000000" fill-rule="evenodd" fill-opacity="1" /><path clip-path="url(#clip340)" d="M1336.41 787.277 L1317.12 787.277 L1317.12 781.42 L1366.65 781.42 L1366.65 787.277 L1361.3 787.277 Q1364.48 789.123 1366.04 791.955 Q1367.57 794.756 1367.57 798.703 Q1367.57 805.164 1362.42 809.238 Q1357.26 813.28 1348.86 813.28 Q1340.45 813.28 1335.3 809.238 Q1330.14 805.164 1330.14 798.703 Q1330.14 794.756 1331.7 791.955 Q1333.23 789.123 1336.41 787.277 M1348.86 807.233 Q1355.32 807.233 1359.01 804.591 Q1362.67 801.918 1362.67 797.271 Q1362.67 792.624 1359.01 789.95 Q1355.32 787.277 1348.86 787.277 Q1342.4 787.277 1338.74 789.95 Q1335.04 792.624 1335.04 797.271 Q1335.04 801.918 1338.74 804.591 Q1342.4 807.233 1348.86 807.233 Z" fill="#000000" fill-rule="evenodd" fill-opacity="1" /><path clip-path="url(#clip340)" d="M1347.36 738.865 L1350.23 738.865 L1350.23 765.792 Q1356.27 765.41 1359.46 762.164 Q1362.61 758.885 1362.61 753.061 Q1362.61 749.687 1361.78 746.536 Q1360.95 743.353 1359.3 740.234 L1364.83 740.234 Q1366.17 743.385 1366.87 746.695 Q1367.57 750.005 1367.57 753.411 Q1367.57 761.941 1362.61 766.938 Q1357.64 771.903 1349.18 771.903 Q1340.42 771.903 1335.3 767.193 Q1330.14 762.45 1330.14 754.429 Q1330.14 747.236 1334.79 743.067 Q1339.4 738.865 1347.36 738.865 M1345.64 744.722 Q1340.84 744.785 1337.97 747.427 Q1335.11 750.037 1335.11 754.366 Q1335.11 759.267 1337.88 762.227 Q1340.64 765.156 1345.67 765.601 L1345.64 744.722 Z" fill="#000000" fill-rule="evenodd" fill-opacity="1" /><path clip-path="url(#clip340)" d="M1331 700.767 L1348.35 713.657 L1366.65 700.098 L1366.65 707.005 L1352.64 717.381 L1366.65 727.757 L1366.65 734.664 L1348 720.819 L1331 733.486 L1331 726.58 L1343.7 717.126 L1331 707.673 L1331 700.767 Z" fill="#000000" fill-rule="evenodd" fill-opacity="1" /><polyline clip-path="url(#clip343)" style="stroke:#009af9; stroke-linecap:round; stroke-linejoin:round; stroke-width:12; stroke-opacity:1; fill:none" points="1941.24,921.142 1960.24,920.734 1975.78,920.542 1988.62,921.851 2002.63,926.32 2009.89,928.923 2017.35,933.123 2020.81,936.557 2020.42,942.731 2090.36,966.567 2080.51,969.821 2071.23,974.392 2066.89,977.4 1983.63,960.658 1966.28,961.02 1949.43,962.67 1930.06,961.015 1910.49,959.162 1890.64,955.216 1867.97,949.957 1849.84,945.407 1829.02,936.105 1804.4,927.995 1786.52,916.482 1769.76,904.002 1750.85,890.583 1735.19,876.201 1725.81,862.972 1711.28,846.738 1705.09,829.504 1704.19,812.035 1701.51,795.835 1704.35,778.776 1709.33,760.471 1714.76,744.303 1723.07,728.534 1733.61,713.536 1750.37,698.284 1706.01,609.781 1738.71,596.385 1779.55,583.202 1804.4,571.634 1840.53,563.677 1882.36,557.357 1913.99,553.333 1947.87,549.637 1990.08,548.314 2018.84,550.234 2049.45,554.234 "/>
<polyline clip-path="url(#clip343)" style="stroke:#e26f46; stroke-linecap:round; stroke-linejoin:round; stroke-width:12; stroke-opacity:1; fill:none" points="1981.87,875.954 2001.86,874.57 2011.86,873.244 2025.42,874.977 2034.16,875.595 2044.79,875.896 2055.36,878.486 2059.52,879.496 2069.79,880.519 2070.96,884.141 2075.48,888.266 2080.04,890.809 2077.09,897.314 2071.5,898.651 2070.98,900.54 2061.57,904.208 2056.77,906.919 2046.72,909.953 2039.7,912.635 2030.1,914.609 2011.88,916.709 1998.63,917.023 1985.53,917.79 1968.26,916.634 1952.8,914.969 1933.76,911.95 1919.23,909.807 1900.67,908.397 1881.95,903.921 1864.28,896.729 1851.08,893.272 1827.84,883.138 1809.63,874.506 1792.24,867.027 1777.28,857.754 1760.14,849.069 1744.8,835.147 1733.7,825.729 1721.6,809.574 1706.54,798.5 1697.85,782.579 1687.16,771.22 1679.86,756.673 1674.86,740.312 1671.88,726.167 1667.83,708.808 1668.25,693.79 1670.25,677.736 1669.35,660.422 1681.11,644.543 1685.65,629.069 1686.49,614.536 1698.17,598.023 1710.24,581.476 1715.89,567.544 1729.5,553.652 1744.87,539.592 1757.52,528.155 1781.57,513.265 1795.23,502.02 1807.25,492.689 1825.14,483.151 1848.52,473.997 1858.51,466.618 1874.15,458.635 1898.7,452.477 1915.62,446.265 1930.94,440.174 1955.06,437.761 1970.09,434.151 1988,431.94 "/>
<polyline clip-path="url(#clip343)" style="stroke:#000000; stroke-linecap:round; stroke-linejoin:round; stroke-width:12; stroke-opacity:0.2; fill:none" points="1941.24,921.142 1981.87,875.954 "/>
<polyline clip-path="url(#clip343)" style="stroke:#000000; stroke-linecap:round; stroke-linejoin:round; stroke-width:12; stroke-opacity:0.2; fill:none" points="1975.78,920.542 2025.42,874.977 "/>
<polyline clip-path="url(#clip343)" style="stroke:#000000; stroke-linecap:round; stroke-linejoin:round; stroke-width:12; stroke-opacity:0.2; fill:none" points="2002.63,926.32 2055.36,878.486 "/>
<polyline clip-path="url(#clip343)" style="stroke:#000000; stroke-linecap:round; stroke-linejoin:round; stroke-width:12; stroke-opacity:0.2; fill:none" points="2017.35,933.123 2070.96,884.141 "/>
<polyline clip-path="url(#clip343)" style="stroke:#000000; stroke-linecap:round; stroke-linejoin:round; stroke-width:12; stroke-opacity:0.2; fill:none" points="2020.42,942.731 2077.09,897.314 "/>
<polyline clip-path="url(#clip343)" style="stroke:#000000; stroke-linecap:round; stroke-linejoin:round; stroke-width:12; stroke-opacity:0.2; fill:none" points="2090.36,966.567 2061.57,904.208 "/>
<polyline clip-path="url(#clip343)" style="stroke:#000000; stroke-linecap:round; stroke-linejoin:round; stroke-width:12; stroke-opacity:0.2; fill:none" points="2066.89,977.4 2039.7,912.635 "/>
<polyline clip-path="url(#clip343)" style="stroke:#000000; stroke-linecap:round; stroke-linejoin:round; stroke-width:12; stroke-opacity:0.2; fill:none" points="1966.28,961.02 1998.63,917.023 "/>
<polyline clip-path="url(#clip343)" style="stroke:#000000; stroke-linecap:round; stroke-linejoin:round; stroke-width:12; stroke-opacity:0.2; fill:none" points="1930.06,961.015 1952.8,914.969 "/>
<polyline clip-path="url(#clip343)" style="stroke:#000000; stroke-linecap:round; stroke-linejoin:round; stroke-width:12; stroke-opacity:0.2; fill:none" points="1890.64,955.216 1900.67,908.397 "/>
<polyline clip-path="url(#clip343)" style="stroke:#000000; stroke-linecap:round; stroke-linejoin:round; stroke-width:12; stroke-opacity:0.2; fill:none" points="1849.84,945.407 1851.08,893.272 "/>
<polyline clip-path="url(#clip343)" style="stroke:#000000; stroke-linecap:round; stroke-linejoin:round; stroke-width:12; stroke-opacity:0.2; fill:none" points="1804.4,927.995 1792.24,867.027 "/>
<polyline clip-path="url(#clip343)" style="stroke:#000000; stroke-linecap:round; stroke-linejoin:round; stroke-width:12; stroke-opacity:0.2; fill:none" points="1769.76,904.002 1744.8,835.147 "/>
<polyline clip-path="url(#clip343)" style="stroke:#000000; stroke-linecap:round; stroke-linejoin:round; stroke-width:12; stroke-opacity:0.2; fill:none" points="1735.19,876.201 1706.54,798.5 "/>
<polyline clip-path="url(#clip343)" style="stroke:#000000; stroke-linecap:round; stroke-linejoin:round; stroke-width:12; stroke-opacity:0.2; fill:none" points="1711.28,846.738 1679.86,756.673 "/>
<polyline clip-path="url(#clip343)" style="stroke:#000000; stroke-linecap:round; stroke-linejoin:round; stroke-width:12; stroke-opacity:0.2; fill:none" points="1704.19,812.035 1667.83,708.808 "/>
<polyline clip-path="url(#clip343)" style="stroke:#000000; stroke-linecap:round; stroke-linejoin:round; stroke-width:12; stroke-opacity:0.2; fill:none" points="1704.35,778.776 1669.35,660.422 "/>
<polyline clip-path="url(#clip343)" style="stroke:#000000; stroke-linecap:round; stroke-linejoin:round; stroke-width:12; stroke-opacity:0.2; fill:none" points="1714.76,744.303 1686.49,614.536 "/>
<polyline clip-path="url(#clip343)" style="stroke:#000000; stroke-linecap:round; stroke-linejoin:round; stroke-width:12; stroke-opacity:0.2; fill:none" points="1733.61,713.536 1715.89,567.544 "/>
<polyline clip-path="url(#clip343)" style="stroke:#000000; stroke-linecap:round; stroke-linejoin:round; stroke-width:12; stroke-opacity:0.2; fill:none" points="1750.37,698.284 1757.52,528.155 "/>
<polyline clip-path="url(#clip343)" style="stroke:#000000; stroke-linecap:round; stroke-linejoin:round; stroke-width:12; stroke-opacity:0.2; fill:none" points="1706.01,609.781 1807.25,492.689 "/>
<polyline clip-path="url(#clip343)" style="stroke:#000000; stroke-linecap:round; stroke-linejoin:round; stroke-width:12; stroke-opacity:0.2; fill:none" points="1804.4,571.634 1858.51,466.618 "/>
<polyline clip-path="url(#clip343)" style="stroke:#000000; stroke-linecap:round; stroke-linejoin:round; stroke-width:12; stroke-opacity:0.2; fill:none" points="1913.99,553.333 1915.62,446.265 "/>
<polyline clip-path="url(#clip343)" style="stroke:#000000; stroke-linecap:round; stroke-linejoin:round; stroke-width:12; stroke-opacity:0.2; fill:none" points="2018.84,550.234 1970.09,434.151 "/>
</svg>
