<?xml version="1.0" encoding="utf-8"?>
<svg xmlns="http://www.w3.org/2000/svg" xmlns:xlink="http://www.w3.org/1999/xlink" width="600" height="400" viewBox="0 0 2400 1600">
<defs>
  <clipPath id="clip130">
    <rect x="0" y="0" width="2400" height="1600"/>
  </clipPath>
</defs>
<path clip-path="url(#clip130)" d="M0 1600 L2400 1600 L2400 0 L0 0  Z" fill="#ffffff" fill-rule="evenodd" fill-opacity="1"/>
<defs>
  <clipPath id="clip131">
    <rect x="480" y="0" width="1681" height="1600"/>
  </clipPath>
</defs>
<defs>
  <clipPath id="clip132">
    <rect x="205" y="47" width="949" height="1377"/>
  </clipPath>
</defs>
<path clip-path="url(#clip132)" d="M482.664 1128.22 L482.664 830.385 L644.954 681.469 L926.05 767.446 L926.05 1065.28 L763.76 1214.19 L482.664 1128.22  Z" fill="#ffffff" fill-rule="evenodd" fill-opacity="1"/>
<polyline clip-path="url(#clip132)" style="stroke:#000000; stroke-linecap:round; stroke-linejoin:round; stroke-width:2; stroke-opacity:0.1; fill:none" points="414.32,1053.67 687.879,816.762 687.879,342.945 "/>
<polyline clip-path="url(#clip132)" style="stroke:#000000; stroke-linecap:round; stroke-linejoin:round; stroke-width:2; stroke-opacity:0.1; fill:none" points="554.868,1094.24 828.427,857.335 828.427,383.518 "/>
<polyline clip-path="url(#clip132)" style="stroke:#000000; stroke-linecap:round; stroke-linejoin:round; stroke-width:2; stroke-opacity:0.1; fill:none" points="695.416,1134.82 968.975,897.908 968.975,424.09 "/>
<polyline clip-path="url(#clip130)" style="stroke:#000000; stroke-linecap:round; stroke-linejoin:round; stroke-width:4; stroke-opacity:1; fill:none" points="305.25,1022.19 779.068,1158.96 "/>
<polyline clip-path="url(#clip130)" style="stroke:#000000; stroke-linecap:round; stroke-linejoin:round; stroke-width:4; stroke-opacity:1; fill:none" points="414.32,1053.67 417.603,1050.83 "/>
<polyline clip-path="url(#clip130)" style="stroke:#000000; stroke-linecap:round; stroke-linejoin:round; stroke-width:4; stroke-opacity:1; fill:none" points="554.868,1094.24 558.151,1091.4 "/>
<polyline clip-path="url(#clip130)" style="stroke:#000000; stroke-linecap:round; stroke-linejoin:round; stroke-width:4; stroke-opacity:1; fill:none" points="695.416,1134.82 698.699,1131.97 "/>
<path clip-path="url(#clip130)" d="M345.411 1081.66 L375.087 1081.66 L375.087 1085.6 L345.411 1085.6 L345.411 1081.66 Z" fill="#000000" fill-rule="evenodd" fill-opacity="1" /><path clip-path="url(#clip130)" d="M385.99 1094.56 L393.628 1094.56 L393.628 1068.19 L385.318 1069.86 L385.318 1065.6 L393.582 1063.93 L398.258 1063.93 L398.258 1094.56 L405.897 1094.56 L405.897 1098.49 L385.99 1098.49 L385.99 1094.56 Z" fill="#000000" fill-rule="evenodd" fill-opacity="1" /><path clip-path="url(#clip130)" d="M534.5 1107.58 Q530.889 1107.58 529.061 1111.15 Q527.255 1114.69 527.255 1121.82 Q527.255 1128.93 529.061 1132.49 Q530.889 1136.03 534.5 1136.03 Q538.135 1136.03 539.94 1132.49 Q541.769 1128.93 541.769 1121.82 Q541.769 1114.69 539.94 1111.15 Q538.135 1107.58 534.5 1107.58 M534.5 1103.88 Q540.311 1103.88 543.366 1108.49 Q546.445 1113.07 546.445 1121.82 Q546.445 1130.55 543.366 1135.15 Q540.311 1139.74 534.5 1139.74 Q528.69 1139.74 525.612 1135.15 Q522.556 1130.55 522.556 1121.82 Q522.556 1113.07 525.612 1108.49 Q528.69 1103.88 534.5 1103.88 Z" fill="#000000" fill-rule="evenodd" fill-opacity="1" /><path clip-path="url(#clip130)" d="M667.085 1175.7 L674.724 1175.7 L674.724 1149.34 L666.414 1151 L666.414 1146.74 L674.678 1145.08 L679.354 1145.08 L679.354 1175.7 L686.993 1175.7 L686.993 1179.64 L667.085 1179.64 L667.085 1175.7 Z" fill="#000000" fill-rule="evenodd" fill-opacity="1" /><path clip-path="url(#clip130)" d="M210.626 1236.12 L210.626 1241.66 Q208.143 1240.39 205.47 1239.75 Q202.796 1239.11 199.931 1239.11 Q195.571 1239.11 193.375 1240.45 Q191.21 1241.79 191.21 1244.46 Q191.21 1246.5 192.77 1247.68 Q194.33 1248.82 199.04 1249.87 L201.045 1250.32 Q207.284 1251.65 209.894 1254.1 Q212.536 1256.52 212.536 1260.88 Q212.536 1265.85 208.589 1268.75 Q204.674 1271.64 197.799 1271.64 Q194.934 1271.64 191.815 1271.07 Q188.728 1270.53 185.29 1269.41 L185.29 1263.37 Q188.537 1265.05 191.688 1265.91 Q194.839 1266.74 197.926 1266.74 Q202.064 1266.74 204.292 1265.34 Q206.52 1263.91 206.52 1261.33 Q206.52 1258.94 204.897 1257.67 Q203.305 1256.4 197.863 1255.22 L195.826 1254.74 Q190.383 1253.6 187.964 1251.24 Q185.545 1248.85 185.545 1244.72 Q185.545 1239.69 189.11 1236.95 Q192.675 1234.21 199.231 1234.21 Q202.478 1234.21 205.342 1234.69 Q208.207 1235.17 210.626 1236.12 Z" fill="#000000" fill-rule="evenodd" fill-opacity="1" /><path clip-path="url(#clip130)" d="M221.861 1235.07 L227.718 1235.07 L227.718 1270.72 L221.861 1270.72 L221.861 1235.07 M221.861 1221.19 L227.718 1221.19 L227.718 1228.61 L221.861 1228.61 L221.861 1221.19 Z" fill="#000000" fill-rule="evenodd" fill-opacity="1" /><path clip-path="url(#clip130)" d="M263.429 1252.48 Q263.429 1246.12 260.788 1242.61 Q258.178 1239.11 253.435 1239.11 Q248.725 1239.11 246.083 1242.61 Q243.473 1246.12 243.473 1252.48 Q243.473 1258.82 246.083 1262.32 Q248.725 1265.82 253.435 1265.82 Q258.178 1265.82 260.788 1262.32 Q263.429 1258.82 263.429 1252.48 M269.286 1266.29 Q269.286 1275.4 265.244 1279.82 Q261.201 1284.28 252.862 1284.28 Q249.775 1284.28 247.038 1283.8 Q244.3 1283.35 241.722 1282.4 L241.722 1276.7 Q244.3 1278.1 246.815 1278.77 Q249.329 1279.44 251.939 1279.44 Q257.7 1279.44 260.565 1276.42 Q263.429 1273.42 263.429 1267.35 L263.429 1264.45 Q261.615 1267.6 258.782 1269.16 Q255.95 1270.72 252.003 1270.72 Q245.446 1270.72 241.436 1265.72 Q237.426 1260.72 237.426 1252.48 Q237.426 1244.21 241.436 1239.21 Q245.446 1234.21 252.003 1234.21 Q255.95 1234.21 258.782 1235.77 Q261.615 1237.33 263.429 1240.48 L263.429 1235.07 L269.286 1235.07 L269.286 1266.29 Z" fill="#000000" fill-rule="evenodd" fill-opacity="1" /><path clip-path="url(#clip130)" d="M310.981 1249.2 L310.981 1270.72 L305.125 1270.72 L305.125 1249.39 Q305.125 1244.33 303.151 1241.82 Q301.178 1239.3 297.231 1239.3 Q292.489 1239.3 289.752 1242.33 Q287.014 1245.35 287.014 1250.57 L287.014 1270.72 L281.126 1270.72 L281.126 1235.07 L287.014 1235.07 L287.014 1240.61 Q289.115 1237.39 291.948 1235.8 Q294.812 1234.21 298.536 1234.21 Q304.679 1234.21 307.83 1238.03 Q310.981 1241.82 310.981 1249.2 Z" fill="#000000" fill-rule="evenodd" fill-opacity="1" /><path clip-path="url(#clip130)" d="M338.863 1252.8 Q331.765 1252.8 329.028 1254.42 Q326.291 1256.05 326.291 1259.96 Q326.291 1263.08 328.328 1264.93 Q330.397 1266.74 333.93 1266.74 Q338.799 1266.74 341.728 1263.3 Q344.688 1259.83 344.688 1254.1 L344.688 1252.8 L338.863 1252.8 M350.544 1250.38 L350.544 1270.72 L344.688 1270.72 L344.688 1265.31 Q342.682 1268.55 339.691 1270.11 Q336.699 1271.64 332.37 1271.64 Q326.896 1271.64 323.649 1268.59 Q320.434 1265.5 320.434 1260.34 Q320.434 1254.33 324.445 1251.27 Q328.487 1248.22 336.476 1248.22 L344.688 1248.22 L344.688 1247.64 Q344.688 1243.6 342.014 1241.4 Q339.372 1239.18 334.566 1239.18 Q331.511 1239.18 328.614 1239.91 Q325.718 1240.64 323.044 1242.11 L323.044 1236.69 Q326.259 1235.45 329.283 1234.85 Q332.306 1234.21 335.171 1234.21 Q342.905 1234.21 346.725 1238.22 Q350.544 1242.23 350.544 1250.38 Z" fill="#000000" fill-rule="evenodd" fill-opacity="1" /><path clip-path="url(#clip130)" d="M362.607 1221.19 L368.464 1221.19 L368.464 1270.72 L362.607 1270.72 L362.607 1221.19 Z" fill="#000000" fill-rule="evenodd" fill-opacity="1" /><path clip-path="url(#clip130)" d="M427.092 1236.44 L427.092 1241.91 Q424.609 1240.55 422.095 1239.88 Q419.612 1239.18 417.066 1239.18 Q411.368 1239.18 408.217 1242.81 Q405.066 1246.4 405.066 1252.93 Q405.066 1259.45 408.217 1263.08 Q411.368 1266.68 417.066 1266.68 Q419.612 1266.68 422.095 1266.01 Q424.609 1265.31 427.092 1263.94 L427.092 1269.35 Q424.641 1270.5 421.999 1271.07 Q419.389 1271.64 416.429 1271.64 Q408.377 1271.64 403.634 1266.58 Q398.892 1261.52 398.892 1252.93 Q398.892 1244.21 403.666 1239.21 Q408.472 1234.21 416.811 1234.21 Q419.517 1234.21 422.095 1234.78 Q424.673 1235.33 427.092 1236.44 Z" fill="#000000" fill-rule="evenodd" fill-opacity="1" /><path clip-path="url(#clip130)" d="M451.09 1239.18 Q446.38 1239.18 443.643 1242.87 Q440.905 1246.53 440.905 1252.93 Q440.905 1259.32 443.611 1263.02 Q446.348 1266.68 451.09 1266.68 Q455.769 1266.68 458.507 1262.98 Q461.244 1259.29 461.244 1252.93 Q461.244 1246.59 458.507 1242.9 Q455.769 1239.18 451.09 1239.18 M451.09 1234.21 Q458.729 1234.21 463.09 1239.18 Q467.45 1244.14 467.45 1252.93 Q467.45 1261.68 463.09 1266.68 Q458.729 1271.64 451.09 1271.64 Q443.42 1271.64 439.059 1266.68 Q434.731 1261.68 434.731 1252.93 Q434.731 1244.14 439.059 1239.18 Q443.42 1234.21 451.09 1234.21 Z" fill="#000000" fill-rule="evenodd" fill-opacity="1" /><path clip-path="url(#clip130)" d="M504.913 1241.91 Q507.109 1237.97 510.164 1236.09 Q513.22 1234.21 517.357 1234.21 Q522.927 1234.21 525.951 1238.13 Q528.975 1242.01 528.975 1249.2 L528.975 1270.72 L523.087 1270.72 L523.087 1249.39 Q523.087 1244.27 521.272 1241.79 Q519.458 1239.3 515.734 1239.3 Q511.183 1239.3 508.541 1242.33 Q505.899 1245.35 505.899 1250.57 L505.899 1270.72 L500.011 1270.72 L500.011 1249.39 Q500.011 1244.24 498.197 1241.79 Q496.382 1239.3 492.595 1239.3 Q488.107 1239.3 485.465 1242.36 Q482.823 1245.38 482.823 1250.57 L482.823 1270.72 L476.935 1270.72 L476.935 1235.07 L482.823 1235.07 L482.823 1240.61 Q484.829 1237.33 487.63 1235.77 Q490.431 1234.21 494.282 1234.21 Q498.165 1234.21 500.87 1236.19 Q503.608 1238.16 504.913 1241.91 Z" fill="#000000" fill-rule="evenodd" fill-opacity="1" /><path clip-path="url(#clip130)" d="M546.321 1265.37 L546.321 1284.28 L540.433 1284.28 L540.433 1235.07 L546.321 1235.07 L546.321 1240.48 Q548.167 1237.3 550.968 1235.77 Q553.801 1234.21 557.716 1234.21 Q564.209 1234.21 568.251 1239.37 Q572.325 1244.52 572.325 1252.93 Q572.325 1261.33 568.251 1266.49 Q564.209 1271.64 557.716 1271.64 Q553.801 1271.64 550.968 1270.11 Q548.167 1268.55 546.321 1265.37 M566.246 1252.93 Q566.246 1246.47 563.572 1242.81 Q560.931 1239.11 556.284 1239.11 Q551.637 1239.11 548.963 1242.81 Q546.321 1246.47 546.321 1252.93 Q546.321 1259.39 548.963 1263.08 Q551.637 1266.74 556.284 1266.74 Q560.931 1266.74 563.572 1263.08 Q566.246 1259.39 566.246 1252.93 Z" fill="#000000" fill-rule="evenodd" fill-opacity="1" /><path clip-path="url(#clip130)" d="M582.861 1262.63 L589.576 1262.63 L589.576 1270.72 L582.861 1270.72 L582.861 1262.63 Z" fill="#000000" fill-rule="evenodd" fill-opacity="1" /><path clip-path="url(#clip130)" d="M625.415 1265.31 L635.919 1265.31 L635.919 1229.06 L624.492 1231.35 L624.492 1225.49 L635.855 1223.2 L642.284 1223.2 L642.284 1265.31 L652.788 1265.31 L652.788 1270.72 L625.415 1270.72 L625.415 1265.31 Z" fill="#000000" fill-rule="evenodd" fill-opacity="1" /><polyline clip-path="url(#clip132)" style="stroke:#000000; stroke-linecap:round; stroke-linejoin:round; stroke-width:2; stroke-opacity:0.1; fill:none" points="787.599,1151.58 313.781,1014.8 313.781,540.98 "/>
<polyline clip-path="url(#clip132)" style="stroke:#000000; stroke-linecap:round; stroke-linejoin:round; stroke-width:2; stroke-opacity:0.1; fill:none" points="873.575,1077.12 399.758,940.34 399.758,466.522 "/>
<polyline clip-path="url(#clip132)" style="stroke:#000000; stroke-linecap:round; stroke-linejoin:round; stroke-width:2; stroke-opacity:0.1; fill:none" points="959.551,1002.66 485.734,865.882 485.734,392.065 "/>
<polyline clip-path="url(#clip130)" style="stroke:#000000; stroke-linecap:round; stroke-linejoin:round; stroke-width:4; stroke-opacity:1; fill:none" points="779.068,1158.96 1052.63,922.056 "/>
<polyline clip-path="url(#clip130)" style="stroke:#000000; stroke-linecap:round; stroke-linejoin:round; stroke-width:4; stroke-opacity:1; fill:none" points="787.599,1151.58 781.913,1149.94 "/>
<polyline clip-path="url(#clip130)" style="stroke:#000000; stroke-linecap:round; stroke-linejoin:round; stroke-width:4; stroke-opacity:1; fill:none" points="873.575,1077.12 867.889,1075.48 "/>
<polyline clip-path="url(#clip130)" style="stroke:#000000; stroke-linecap:round; stroke-linejoin:round; stroke-width:4; stroke-opacity:1; fill:none" points="959.551,1002.66 953.866,1001.02 "/>
<path clip-path="url(#clip130)" d="M807.07 1173.25 L836.746 1173.25 L836.746 1177.18 L807.07 1177.18 L807.07 1173.25 Z" fill="#000000" fill-rule="evenodd" fill-opacity="1" /><path clip-path="url(#clip130)" d="M847.649 1186.14 L855.287 1186.14 L855.287 1159.78 L846.977 1161.44 L846.977 1157.18 L855.241 1155.52 L859.917 1155.52 L859.917 1186.14 L867.556 1186.14 L867.556 1190.08 L847.649 1190.08 L847.649 1186.14 Z" fill="#000000" fill-rule="evenodd" fill-opacity="1" /><path clip-path="url(#clip130)" d="M904.991 1084.14 Q901.38 1084.14 899.551 1087.7 Q897.746 1091.24 897.746 1098.37 Q897.746 1105.48 899.551 1109.05 Q901.38 1112.59 904.991 1112.59 Q908.625 1112.59 910.431 1109.05 Q912.259 1105.48 912.259 1098.37 Q912.259 1091.24 910.431 1087.7 Q908.625 1084.14 904.991 1084.14 M904.991 1080.43 Q910.801 1080.43 913.857 1085.04 Q916.935 1089.62 916.935 1098.37 Q916.935 1107.1 913.857 1111.71 Q910.801 1116.29 904.991 1116.29 Q899.181 1116.29 896.102 1111.71 Q893.046 1107.1 893.046 1098.37 Q893.046 1089.62 896.102 1085.04 Q899.181 1080.43 904.991 1080.43 Z" fill="#000000" fill-rule="evenodd" fill-opacity="1" /><path clip-path="url(#clip130)" d="M979.694 1037.23 L987.333 1037.23 L987.333 1010.86 L979.023 1012.53 L979.023 1008.27 L987.287 1006.6 L991.963 1006.6 L991.963 1037.23 L999.602 1037.23 L999.602 1041.16 L979.694 1041.16 L979.694 1037.23 Z" fill="#000000" fill-rule="evenodd" fill-opacity="1" /><path clip-path="url(#clip130)" d="M830.809 1186.06 L830.809 1191.59 Q828.326 1190.32 825.652 1189.69 Q822.979 1189.05 820.114 1189.05 Q815.754 1189.05 813.558 1190.39 Q811.393 1191.72 811.393 1194.4 Q811.393 1196.43 812.953 1197.61 Q814.512 1198.76 819.223 1199.81 L821.228 1200.25 Q827.467 1201.59 830.077 1204.04 Q832.718 1206.46 832.718 1210.82 Q832.718 1215.78 828.772 1218.68 Q824.857 1221.58 817.982 1221.58 Q815.117 1221.58 811.998 1221 Q808.911 1220.46 805.473 1219.35 L805.473 1213.3 Q808.72 1214.99 811.871 1215.85 Q815.022 1216.68 818.109 1216.68 Q822.247 1216.68 824.475 1215.28 Q826.703 1213.84 826.703 1211.26 Q826.703 1208.88 825.079 1207.6 Q823.488 1206.33 818.045 1205.15 L816.008 1204.68 Q810.566 1203.53 808.147 1201.18 Q805.728 1198.79 805.728 1194.65 Q805.728 1189.62 809.292 1186.88 Q812.857 1184.15 819.414 1184.15 Q822.66 1184.15 825.525 1184.62 Q828.39 1185.1 830.809 1186.06 Z" fill="#000000" fill-rule="evenodd" fill-opacity="1" /><path clip-path="url(#clip130)" d="M842.044 1185.01 L847.9 1185.01 L847.9 1220.65 L842.044 1220.65 L842.044 1185.01 M842.044 1171.13 L847.9 1171.13 L847.9 1178.55 L842.044 1178.55 L842.044 1171.13 Z" fill="#000000" fill-rule="evenodd" fill-opacity="1" /><path clip-path="url(#clip130)" d="M883.612 1202.42 Q883.612 1196.05 880.97 1192.55 Q878.36 1189.05 873.618 1189.05 Q868.907 1189.05 866.266 1192.55 Q863.656 1196.05 863.656 1202.42 Q863.656 1208.75 866.266 1212.25 Q868.907 1215.75 873.618 1215.75 Q878.36 1215.75 880.97 1212.25 Q883.612 1208.75 883.612 1202.42 M889.469 1216.23 Q889.469 1225.33 885.426 1229.76 Q881.384 1234.21 873.045 1234.21 Q869.958 1234.21 867.22 1233.74 Q864.483 1233.29 861.905 1232.34 L861.905 1226.64 Q864.483 1228.04 866.998 1228.71 Q869.512 1229.38 872.122 1229.38 Q877.883 1229.38 880.748 1226.35 Q883.612 1223.36 883.612 1217.28 L883.612 1214.38 Q881.798 1217.54 878.965 1219.09 Q876.132 1220.65 872.186 1220.65 Q865.629 1220.65 861.619 1215.66 Q857.608 1210.66 857.608 1202.42 Q857.608 1194.14 861.619 1189.14 Q865.629 1184.15 872.186 1184.15 Q876.132 1184.15 878.965 1185.71 Q881.798 1187.27 883.612 1190.42 L883.612 1185.01 L889.469 1185.01 L889.469 1216.23 Z" fill="#000000" fill-rule="evenodd" fill-opacity="1" /><path clip-path="url(#clip130)" d="M931.164 1199.14 L931.164 1220.65 L925.307 1220.65 L925.307 1199.33 Q925.307 1194.27 923.334 1191.75 Q921.361 1189.24 917.414 1189.24 Q912.672 1189.24 909.934 1192.26 Q907.197 1195.29 907.197 1200.51 L907.197 1220.65 L901.309 1220.65 L901.309 1185.01 L907.197 1185.01 L907.197 1190.54 Q909.298 1187.33 912.13 1185.74 Q914.995 1184.15 918.719 1184.15 Q924.862 1184.15 928.013 1187.97 Q931.164 1191.75 931.164 1199.14 Z" fill="#000000" fill-rule="evenodd" fill-opacity="1" /><path clip-path="url(#clip130)" d="M959.046 1202.73 Q951.948 1202.73 949.211 1204.36 Q946.473 1205.98 946.473 1209.9 Q946.473 1213.02 948.51 1214.86 Q950.579 1216.68 954.112 1216.68 Q958.982 1216.68 961.91 1213.24 Q964.87 1209.77 964.87 1204.04 L964.87 1202.73 L959.046 1202.73 M970.727 1200.32 L970.727 1220.65 L964.87 1220.65 L964.87 1215.24 Q962.865 1218.49 959.873 1220.05 Q956.881 1221.58 952.553 1221.58 Q947.078 1221.58 943.832 1218.52 Q940.617 1215.43 940.617 1210.28 Q940.617 1204.26 944.627 1201.21 Q948.67 1198.15 956.659 1198.15 L964.87 1198.15 L964.87 1197.58 Q964.87 1193.54 962.197 1191.34 Q959.555 1189.11 954.749 1189.11 Q951.693 1189.11 948.797 1189.84 Q945.901 1190.58 943.227 1192.04 L943.227 1186.63 Q946.442 1185.39 949.465 1184.78 Q952.489 1184.15 955.354 1184.15 Q963.088 1184.15 966.907 1188.16 Q970.727 1192.17 970.727 1200.32 Z" fill="#000000" fill-rule="evenodd" fill-opacity="1" /><path clip-path="url(#clip130)" d="M982.79 1171.13 L988.646 1171.13 L988.646 1220.65 L982.79 1220.65 L982.79 1171.13 Z" fill="#000000" fill-rule="evenodd" fill-opacity="1" /><path clip-path="url(#clip130)" d="M1047.27 1186.38 L1047.27 1191.85 Q1044.79 1190.48 1042.28 1189.81 Q1039.79 1189.11 1037.25 1189.11 Q1031.55 1189.11 1028.4 1192.74 Q1025.25 1196.34 1025.25 1202.86 Q1025.25 1209.39 1028.4 1213.02 Q1031.55 1216.61 1037.25 1216.61 Q1039.79 1216.61 1042.28 1215.94 Q1044.79 1215.24 1047.27 1213.87 L1047.27 1219.29 Q1044.82 1220.43 1042.18 1221 Q1039.57 1221.58 1036.61 1221.58 Q1028.56 1221.58 1023.82 1216.52 Q1019.07 1211.46 1019.07 1202.86 Q1019.07 1194.14 1023.85 1189.14 Q1028.65 1184.15 1036.99 1184.15 Q1039.7 1184.15 1042.28 1184.72 Q1044.86 1185.26 1047.27 1186.38 Z" fill="#000000" fill-rule="evenodd" fill-opacity="1" /><path clip-path="url(#clip130)" d="M1071.27 1189.11 Q1066.56 1189.11 1063.83 1192.8 Q1061.09 1196.46 1061.09 1202.86 Q1061.09 1209.26 1063.79 1212.95 Q1066.53 1216.61 1071.27 1216.61 Q1075.95 1216.61 1078.69 1212.92 Q1081.43 1209.23 1081.43 1202.86 Q1081.43 1196.53 1078.69 1192.84 Q1075.95 1189.11 1071.27 1189.11 M1071.27 1184.15 Q1078.91 1184.15 1083.27 1189.11 Q1087.63 1194.08 1087.63 1202.86 Q1087.63 1211.62 1083.27 1216.61 Q1078.91 1221.58 1071.27 1221.58 Q1063.6 1221.58 1059.24 1216.61 Q1054.91 1211.62 1054.91 1202.86 Q1054.91 1194.08 1059.24 1189.11 Q1063.6 1184.15 1071.27 1184.15 Z" fill="#000000" fill-rule="evenodd" fill-opacity="1" /><path clip-path="url(#clip130)" d="M1125.1 1191.85 Q1127.29 1187.9 1130.35 1186.02 Q1133.4 1184.15 1137.54 1184.15 Q1143.11 1184.15 1146.13 1188.06 Q1149.16 1191.95 1149.16 1199.14 L1149.16 1220.65 L1143.27 1220.65 L1143.27 1199.33 Q1143.27 1194.2 1141.46 1191.72 Q1139.64 1189.24 1135.92 1189.24 Q1131.37 1189.24 1128.72 1192.26 Q1126.08 1195.29 1126.08 1200.51 L1126.08 1220.65 L1120.19 1220.65 L1120.19 1199.33 Q1120.19 1194.17 1118.38 1191.72 Q1116.57 1189.24 1112.78 1189.24 Q1108.29 1189.24 1105.65 1192.3 Q1103.01 1195.32 1103.01 1200.51 L1103.01 1220.65 L1097.12 1220.65 L1097.12 1185.01 L1103.01 1185.01 L1103.01 1190.54 Q1105.01 1187.27 1107.81 1185.71 Q1110.61 1184.15 1114.46 1184.15 Q1118.35 1184.15 1121.05 1186.12 Q1123.79 1188.09 1125.1 1191.85 Z" fill="#000000" fill-rule="evenodd" fill-opacity="1" /><path clip-path="url(#clip130)" d="M1166.5 1215.31 L1166.5 1234.21 L1160.62 1234.21 L1160.62 1185.01 L1166.5 1185.01 L1166.5 1190.42 Q1168.35 1187.23 1171.15 1185.71 Q1173.98 1184.15 1177.9 1184.15 Q1184.39 1184.15 1188.43 1189.3 Q1192.51 1194.46 1192.51 1202.86 Q1192.51 1211.26 1188.43 1216.42 Q1184.39 1221.58 1177.9 1221.58 Q1173.98 1221.58 1171.15 1220.05 Q1168.35 1218.49 1166.5 1215.31 M1186.43 1202.86 Q1186.43 1196.4 1183.76 1192.74 Q1181.11 1189.05 1176.47 1189.05 Q1171.82 1189.05 1169.15 1192.74 Q1166.5 1196.4 1166.5 1202.86 Q1166.5 1209.32 1169.15 1213.02 Q1171.82 1216.68 1176.47 1216.68 Q1181.11 1216.68 1183.76 1213.02 Q1186.43 1209.32 1186.43 1202.86 Z" fill="#000000" fill-rule="evenodd" fill-opacity="1" /><path clip-path="url(#clip130)" d="M1203.04 1212.57 L1209.76 1212.57 L1209.76 1220.65 L1203.04 1220.65 L1203.04 1212.57 Z" fill="#000000" fill-rule="evenodd" fill-opacity="1" /><path clip-path="url(#clip130)" d="M1250.02 1215.24 L1272.46 1215.24 L1272.46 1220.65 L1242.29 1220.65 L1242.29 1215.24 Q1245.95 1211.46 1252.25 1205.09 Q1258.58 1198.69 1260.21 1196.85 Q1263.29 1193.38 1264.5 1190.99 Q1265.75 1188.57 1265.75 1186.25 Q1265.75 1182.46 1263.07 1180.07 Q1260.43 1177.69 1256.17 1177.69 Q1253.14 1177.69 1249.77 1178.74 Q1246.43 1179.79 1242.61 1181.92 L1242.61 1175.43 Q1246.49 1173.87 1249.86 1173.07 Q1253.24 1172.27 1256.04 1172.27 Q1263.42 1172.27 1267.81 1175.97 Q1272.21 1179.66 1272.21 1185.83 Q1272.21 1188.76 1271.09 1191.4 Q1270.01 1194.01 1267.11 1197.58 Q1266.32 1198.5 1262.05 1202.93 Q1257.79 1207.32 1250.02 1215.24 Z" fill="#000000" fill-rule="evenodd" fill-opacity="1" /><polyline clip-path="url(#clip132)" style="stroke:#000000; stroke-linecap:round; stroke-linejoin:round; stroke-width:2; stroke-opacity:0.1; fill:none" points="305.25,1015.16 578.809,778.252 1052.63,915.032 "/>
<polyline clip-path="url(#clip132)" style="stroke:#000000; stroke-linecap:round; stroke-linejoin:round; stroke-width:2; stroke-opacity:0.1; fill:none" points="305.25,887.448 578.809,650.539 1052.63,787.318 "/>
<polyline clip-path="url(#clip132)" style="stroke:#000000; stroke-linecap:round; stroke-linejoin:round; stroke-width:2; stroke-opacity:0.1; fill:none" points="305.25,759.734 578.809,522.825 1052.63,659.605 "/>
<polyline clip-path="url(#clip132)" style="stroke:#000000; stroke-linecap:round; stroke-linejoin:round; stroke-width:2; stroke-opacity:0.1; fill:none" points="305.25,632.02 578.809,395.112 1052.63,531.891 "/>
<polyline clip-path="url(#clip130)" style="stroke:#000000; stroke-linecap:round; stroke-linejoin:round; stroke-width:4; stroke-opacity:1; fill:none" points="305.25,1022.19 305.25,548.368 "/>
<polyline clip-path="url(#clip130)" style="stroke:#000000; stroke-linecap:round; stroke-linejoin:round; stroke-width:4; stroke-opacity:1; fill:none" points="305.25,1015.16 308.533,1012.32 "/>
<polyline clip-path="url(#clip130)" style="stroke:#000000; stroke-linecap:round; stroke-linejoin:round; stroke-width:4; stroke-opacity:1; fill:none" points="305.25,887.448 308.533,884.605 "/>
<polyline clip-path="url(#clip130)" style="stroke:#000000; stroke-linecap:round; stroke-linejoin:round; stroke-width:4; stroke-opacity:1; fill:none" points="305.25,759.734 308.533,756.891 "/>
<polyline clip-path="url(#clip130)" style="stroke:#000000; stroke-linecap:round; stroke-linejoin:round; stroke-width:4; stroke-opacity:1; fill:none" points="305.25,632.02 308.533,629.177 "/>
<path clip-path="url(#clip130)" d="M264.506 1000.96 Q260.895 1000.96 259.066 1004.52 Q257.261 1008.07 257.261 1015.2 Q257.261 1022.3 259.066 1025.87 Q260.895 1029.41 264.506 1029.41 Q268.14 1029.41 269.946 1025.87 Q271.774 1022.3 271.774 1015.2 Q271.774 1008.07 269.946 1004.52 Q268.14 1000.96 264.506 1000.96 M264.506 997.256 Q270.316 997.256 273.372 1001.86 Q276.45 1006.45 276.45 1015.2 Q276.45 1023.92 273.372 1028.53 Q270.316 1033.11 264.506 1033.11 Q258.696 1033.11 255.617 1028.53 Q252.562 1023.92 252.562 1015.2 Q252.562 1006.45 255.617 1001.86 Q258.696 997.256 264.506 997.256 Z" fill="#000000" fill-rule="evenodd" fill-opacity="1" /><path clip-path="url(#clip130)" d="M228.372 900.792 L244.691 900.792 L244.691 904.728 L222.747 904.728 L222.747 900.792 Q225.409 898.038 229.992 893.408 Q234.599 888.755 235.779 887.413 Q238.025 884.89 238.904 883.154 Q239.807 881.394 239.807 879.705 Q239.807 876.95 237.863 875.214 Q235.941 873.478 232.84 873.478 Q230.64 873.478 228.187 874.242 Q225.756 875.005 222.978 876.556 L222.978 871.834 Q225.803 870.7 228.256 870.121 Q230.71 869.543 232.747 869.543 Q238.117 869.543 241.312 872.228 Q244.506 874.913 244.506 879.404 Q244.506 881.533 243.696 883.455 Q242.909 885.353 240.802 887.945 Q240.224 888.617 237.122 891.834 Q234.02 895.029 228.372 900.792 Z" fill="#000000" fill-rule="evenodd" fill-opacity="1" /><path clip-path="url(#clip130)" d="M264.506 873.246 Q260.895 873.246 259.066 876.811 Q257.261 880.353 257.261 887.482 Q257.261 894.589 259.066 898.154 Q260.895 901.695 264.506 901.695 Q268.14 901.695 269.946 898.154 Q271.774 894.589 271.774 887.482 Q271.774 880.353 269.946 876.811 Q268.14 873.246 264.506 873.246 M264.506 869.543 Q270.316 869.543 273.372 874.149 Q276.45 878.732 276.45 887.482 Q276.45 896.209 273.372 900.816 Q270.316 905.399 264.506 905.399 Q258.696 905.399 255.617 900.816 Q252.562 896.209 252.562 887.482 Q252.562 878.732 255.617 874.149 Q258.696 869.543 264.506 869.543 Z" fill="#000000" fill-rule="evenodd" fill-opacity="1" /><path clip-path="url(#clip130)" d="M237.191 746.528 L225.386 764.977 L237.191 764.977 L237.191 746.528 M235.964 742.454 L241.844 742.454 L241.844 764.977 L246.775 764.977 L246.775 768.866 L241.844 768.866 L241.844 777.014 L237.191 777.014 L237.191 768.866 L221.59 768.866 L221.59 764.352 L235.964 742.454 Z" fill="#000000" fill-rule="evenodd" fill-opacity="1" /><path clip-path="url(#clip130)" d="M264.506 745.533 Q260.895 745.533 259.066 749.097 Q257.261 752.639 257.261 759.769 Q257.261 766.875 259.066 770.44 Q260.895 773.982 264.506 773.982 Q268.14 773.982 269.946 770.44 Q271.774 766.875 271.774 759.769 Q271.774 752.639 269.946 749.097 Q268.14 745.533 264.506 745.533 M264.506 741.829 Q270.316 741.829 273.372 746.435 Q276.45 751.019 276.45 759.769 Q276.45 768.495 273.372 773.102 Q270.316 777.685 264.506 777.685 Q258.696 777.685 255.617 773.102 Q252.562 768.495 252.562 759.769 Q252.562 751.019 255.617 746.435 Q258.696 741.829 264.506 741.829 Z" fill="#000000" fill-rule="evenodd" fill-opacity="1" /><path clip-path="url(#clip130)" d="M234.923 630.157 Q231.775 630.157 229.923 632.31 Q228.094 634.462 228.094 638.212 Q228.094 641.939 229.923 644.115 Q231.775 646.268 234.923 646.268 Q238.071 646.268 239.9 644.115 Q241.751 641.939 241.751 638.212 Q241.751 634.462 239.9 632.31 Q238.071 630.157 234.923 630.157 M244.205 615.504 L244.205 619.763 Q242.446 618.93 240.64 618.49 Q238.858 618.051 237.099 618.051 Q232.469 618.051 230.015 621.176 Q227.585 624.3 227.238 630.62 Q228.603 628.606 230.664 627.541 Q232.724 626.453 235.201 626.453 Q240.409 626.453 243.418 629.625 Q246.451 632.773 246.451 638.212 Q246.451 643.536 243.302 646.754 Q240.154 649.972 234.923 649.972 Q228.927 649.972 225.756 645.388 Q222.585 640.782 222.585 632.055 Q222.585 623.861 226.474 619 Q230.363 614.115 236.914 614.115 Q238.673 614.115 240.455 614.463 Q242.261 614.81 244.205 615.504 Z" fill="#000000" fill-rule="evenodd" fill-opacity="1" /><path clip-path="url(#clip130)" d="M264.506 617.819 Q260.895 617.819 259.066 621.384 Q257.261 624.925 257.261 632.055 Q257.261 639.162 259.066 642.726 Q260.895 646.268 264.506 646.268 Q268.14 646.268 269.946 642.726 Q271.774 639.162 271.774 632.055 Q271.774 624.925 269.946 621.384 Q268.14 617.819 264.506 617.819 M264.506 614.115 Q270.316 614.115 273.372 618.722 Q276.45 623.305 276.45 632.055 Q276.45 640.782 273.372 645.388 Q270.316 649.972 264.506 649.972 Q258.696 649.972 255.617 645.388 Q252.562 640.782 252.562 632.055 Q252.562 623.305 255.617 618.722 Q258.696 614.115 264.506 614.115 Z" fill="#000000" fill-rule="evenodd" fill-opacity="1" /><path clip-path="url(#clip130)" d="M118.364 846.117 L128.486 846.117 L128.486 834.054 L133.037 834.054 L133.037 846.117 L152.389 846.117 Q156.749 846.117 157.991 844.939 Q159.232 843.73 159.232 840.069 L159.232 834.054 L164.134 834.054 L164.134 840.069 Q164.134 846.849 161.619 849.427 Q159.073 852.005 152.389 852.005 L133.037 852.005 L133.037 856.302 L128.486 856.302 L128.486 852.005 L118.364 852.005 L118.364 846.117 Z" fill="#000000" fill-rule="evenodd" fill-opacity="1" /><path clip-path="url(#clip130)" d="M128.486 826.351 L128.486 820.495 L164.134 820.495 L164.134 826.351 L128.486 826.351 M114.608 826.351 L114.608 820.495 L122.024 820.495 L122.024 826.351 L114.608 826.351 Z" fill="#000000" fill-rule="evenodd" fill-opacity="1" /><path clip-path="url(#clip130)" d="M135.329 780.486 Q131.382 778.29 129.504 775.235 Q127.626 772.179 127.626 768.042 Q127.626 762.472 131.541 759.448 Q135.424 756.424 142.617 756.424 L164.134 756.424 L164.134 762.312 L142.808 762.312 Q137.684 762.312 135.201 764.127 Q132.719 765.941 132.719 769.665 Q132.719 774.216 135.743 776.858 Q138.766 779.5 143.986 779.5 L164.134 779.5 L164.134 785.388 L142.808 785.388 Q137.652 785.388 135.201 787.202 Q132.719 789.017 132.719 792.804 Q132.719 797.292 135.774 799.934 Q138.798 802.575 143.986 802.575 L164.134 802.575 L164.134 808.464 L128.486 808.464 L128.486 802.575 L134.024 802.575 Q130.745 800.57 129.186 797.769 Q127.626 794.968 127.626 791.117 Q127.626 787.234 129.6 784.529 Q131.573 781.791 135.329 780.486 Z" fill="#000000" fill-rule="evenodd" fill-opacity="1" /><path clip-path="url(#clip130)" d="M144.845 714.251 L147.71 714.251 L147.71 741.178 Q153.757 740.796 156.94 737.55 Q160.091 734.271 160.091 728.447 Q160.091 725.073 159.264 721.922 Q158.436 718.739 156.781 715.62 L162.319 715.62 Q163.656 718.771 164.356 722.081 Q165.057 725.391 165.057 728.797 Q165.057 737.327 160.091 742.324 Q155.126 747.289 146.66 747.289 Q137.907 747.289 132.782 742.579 Q127.626 737.836 127.626 729.815 Q127.626 722.622 132.273 718.453 Q136.888 714.251 144.845 714.251 M143.127 720.108 Q138.321 720.171 135.456 722.813 Q132.591 725.423 132.591 729.752 Q132.591 734.653 135.361 737.613 Q138.13 740.542 143.159 740.987 L143.127 720.108 Z" fill="#000000" fill-rule="evenodd" fill-opacity="1" /><polyline clip-path="url(#clip132)" style="stroke:#e26f46; stroke-linecap:round; stroke-linejoin:round; stroke-width:12; stroke-opacity:1; fill:none" points="735.148,925.797 749.491,922.476 756.154,919.935 768.003,919.894 781.566,917.886 789.703,916.72 796.91,916.907 804.842,918.011 805.667,918.788 812.754,917.956 814.195,920.535 813.429,922.45 814.24,922.062 812.882,922.398 808.963,925.346 809.186,925.965 799.925,925.086 795.185,926.903 786.8,928.72 777.83,928.301 765.299,927.343 756.518,927.583 743.933,925.185 734.401,922.053 719.163,922.04 702.943,918.527 691.05,914.907 677.391,909.377 660.48,904.466 646.725,897.403 630.459,891.89 615.458,886.098 602.978,879.076 591.968,869.035 579.15,859.693 561.32,849.239 549.942,839.574 542.111,828.733 530.868,816.32 518.126,804.491 514.959,792.464 503.184,780.01 496.621,768.498 491.654,753.075 488.344,741.714 485.672,727.515 483.702,711.246 483.357,697.366 486.035,685.3 490.192,670.187 490.192,657.719 500.242,643.365 504.955,630.285 514.71,615.776 517.78,603.946 531.711,590.888 541.207,579.491 555.361,568.495 562.467,557.262 578.936,548.506 595.987,537.898 607.275,528.078 620.33,520.527 634.626,513.467 648.927,505.454 663.36,499.538 679.168,493.536 695.06,487.748 706.821,485.639 721.914,481.572 737.059,477.139 "/>
<polyline clip-path="url(#clip132)" style="stroke:#009af9; stroke-linecap:round; stroke-linejoin:round; stroke-width:12; stroke-opacity:1; fill:none" points="737.542,923.722 755.274,923.131 769.709,925.802 784.045,928.068 795.319,930.824 808.45,933.524 809.926,938.58 813.424,943.245 809.718,948.028 880.512,973.055 880.473,976.359 868.925,982.009 853.92,984.85 771.666,968.546 755.941,970.415 735.07,971.94 721.965,972.36 695.003,969.282 677.344,965.101 658.209,962.125 631.623,956.965 612.352,947.91 587.911,939.172 569.888,928.41 549.045,916.957 535.51,902.287 518.78,887.878 509.36,872.075 495.691,856.726 490.299,839.146 483.764,821.846 485.51,803.246 489.093,786.822 495.137,769.007 497.48,752.947 512.313,735.918 521.208,719.264 536.766,702.171 502.398,610.869 532.442,596.856 563.164,582.111 599.568,571.994 635.616,560.454 670.824,556.096 710.834,548.216 744.975,547.41 780.236,548.791 815.638,549.239 845.03,551.145 "/>
<defs>
  <clipPath id="clip133">
    <rect x="1405" y="47" width="949" height="1377"/>
  </clipPath>
</defs>
<path clip-path="url(#clip133)" d="M1682.66 1128.22 L1682.66 830.385 L1844.95 681.469 L2126.05 767.446 L2126.05 1065.28 L1963.76 1214.19 L1682.66 1128.22  Z" fill="#ffffff" fill-rule="evenodd" fill-opacity="1"/>
<polyline clip-path="url(#clip133)" style="stroke:#000000; stroke-linecap:round; stroke-linejoin:round; stroke-width:2; stroke-opacity:0.1; fill:none" points="1614.32,1053.67 1887.88,816.762 1887.88,342.945 "/>
<polyline clip-path="url(#clip133)" style="stroke:#000000; stroke-linecap:round; stroke-linejoin:round; stroke-width:2; stroke-opacity:0.1; fill:none" points="1754.87,1094.24 2028.43,857.335 2028.43,383.518 "/>
<polyline clip-path="url(#clip133)" style="stroke:#000000; stroke-linecap:round; stroke-linejoin:round; stroke-width:2; stroke-opacity:0.1; fill:none" points="1895.42,1134.82 2168.98,897.908 2168.98,424.09 "/>
<polyline clip-path="url(#clip130)" style="stroke:#000000; stroke-linecap:round; stroke-linejoin:round; stroke-width:4; stroke-opacity:1; fill:none" points="1505.25,1022.19 1979.07,1158.96 "/>
<polyline clip-path="url(#clip130)" style="stroke:#000000; stroke-linecap:round; stroke-linejoin:round; stroke-width:4; stroke-opacity:1; fill:none" points="1614.32,1053.67 1617.6,1050.83 "/>
<polyline clip-path="url(#clip130)" style="stroke:#000000; stroke-linecap:round; stroke-linejoin:round; stroke-width:4; stroke-opacity:1; fill:none" points="1754.87,1094.24 1758.15,1091.4 "/>
<polyline clip-path="url(#clip130)" style="stroke:#000000; stroke-linecap:round; stroke-linejoin:round; stroke-width:4; stroke-opacity:1; fill:none" points="1895.42,1134.82 1898.7,1131.97 "/>
<path clip-path="url(#clip130)" d="M1545.41 1081.66 L1575.09 1081.66 L1575.09 1085.6 L1545.41 1085.6 L1545.41 1081.66 Z" fill="#000000" fill-rule="evenodd" fill-opacity="1" /><path clip-path="url(#clip130)" d="M1585.99 1094.56 L1593.63 1094.56 L1593.63 1068.19 L1585.32 1069.86 L1585.32 1065.6 L1593.58 1063.93 L1598.26 1063.93 L1598.26 1094.56 L1605.9 1094.56 L1605.9 1098.49 L1585.99 1098.49 L1585.99 1094.56 Z" fill="#000000" fill-rule="evenodd" fill-opacity="1" /><path clip-path="url(#clip130)" d="M1734.5 1107.58 Q1730.89 1107.58 1729.06 1111.15 Q1727.26 1114.69 1727.26 1121.82 Q1727.26 1128.93 1729.06 1132.49 Q1730.89 1136.03 1734.5 1136.03 Q1738.13 1136.03 1739.94 1132.49 Q1741.77 1128.93 1741.77 1121.82 Q1741.77 1114.69 1739.94 1111.15 Q1738.13 1107.58 1734.5 1107.58 M1734.5 1103.88 Q1740.31 1103.88 1743.37 1108.49 Q1746.44 1113.07 1746.44 1121.82 Q1746.44 1130.55 1743.37 1135.15 Q1740.31 1139.74 1734.5 1139.74 Q1728.69 1139.74 1725.61 1135.15 Q1722.56 1130.55 1722.56 1121.82 Q1722.56 1113.07 1725.61 1108.49 Q1728.69 1103.88 1734.5 1103.88 Z" fill="#000000" fill-rule="evenodd" fill-opacity="1" /><path clip-path="url(#clip130)" d="M1867.09 1175.7 L1874.72 1175.7 L1874.72 1149.34 L1866.41 1151 L1866.41 1146.74 L1874.68 1145.08 L1879.35 1145.08 L1879.35 1175.7 L1886.99 1175.7 L1886.99 1179.64 L1867.09 1179.64 L1867.09 1175.7 Z" fill="#000000" fill-rule="evenodd" fill-opacity="1" /><path clip-path="url(#clip130)" d="M1410.63 1236.12 L1410.63 1241.66 Q1408.14 1240.39 1405.47 1239.75 Q1402.8 1239.11 1399.93 1239.11 Q1395.57 1239.11 1393.37 1240.45 Q1391.21 1241.79 1391.21 1244.46 Q1391.21 1246.5 1392.77 1247.68 Q1394.33 1248.82 1399.04 1249.87 L1401.05 1250.32 Q1407.28 1251.65 1409.89 1254.1 Q1412.54 1256.52 1412.54 1260.88 Q1412.54 1265.85 1408.59 1268.75 Q1404.67 1271.64 1397.8 1271.64 Q1394.93 1271.64 1391.82 1271.07 Q1388.73 1270.53 1385.29 1269.41 L1385.29 1263.37 Q1388.54 1265.05 1391.69 1265.91 Q1394.84 1266.74 1397.93 1266.74 Q1402.06 1266.74 1404.29 1265.34 Q1406.52 1263.91 1406.52 1261.33 Q1406.52 1258.94 1404.9 1257.67 Q1403.31 1256.4 1397.86 1255.22 L1395.83 1254.74 Q1390.38 1253.6 1387.96 1251.24 Q1385.55 1248.85 1385.55 1244.72 Q1385.55 1239.69 1389.11 1236.95 Q1392.67 1234.21 1399.23 1234.21 Q1402.48 1234.21 1405.34 1234.69 Q1408.21 1235.17 1410.63 1236.12 Z" fill="#000000" fill-rule="evenodd" fill-opacity="1" /><path clip-path="url(#clip130)" d="M1421.86 1235.07 L1427.72 1235.07 L1427.72 1270.72 L1421.86 1270.72 L1421.86 1235.07 M1421.86 1221.19 L1427.72 1221.19 L1427.72 1228.61 L1421.86 1228.61 L1421.86 1221.19 Z" fill="#000000" fill-rule="evenodd" fill-opacity="1" /><path clip-path="url(#clip130)" d="M1463.43 1252.48 Q1463.43 1246.12 1460.79 1242.61 Q1458.18 1239.11 1453.44 1239.11 Q1448.72 1239.11 1446.08 1242.61 Q1443.47 1246.12 1443.47 1252.48 Q1443.47 1258.82 1446.08 1262.32 Q1448.72 1265.82 1453.44 1265.82 Q1458.18 1265.82 1460.79 1262.32 Q1463.43 1258.82 1463.43 1252.48 M1469.29 1266.29 Q1469.29 1275.4 1465.24 1279.82 Q1461.2 1284.28 1452.86 1284.28 Q1449.77 1284.28 1447.04 1283.8 Q1444.3 1283.35 1441.72 1282.4 L1441.72 1276.7 Q1444.3 1278.1 1446.81 1278.77 Q1449.33 1279.44 1451.94 1279.44 Q1457.7 1279.44 1460.56 1276.42 Q1463.43 1273.42 1463.43 1267.35 L1463.43 1264.45 Q1461.62 1267.6 1458.78 1269.16 Q1455.95 1270.72 1452 1270.72 Q1445.45 1270.72 1441.44 1265.72 Q1437.43 1260.72 1437.43 1252.48 Q1437.43 1244.21 1441.44 1239.21 Q1445.45 1234.21 1452 1234.21 Q1455.95 1234.21 1458.78 1235.77 Q1461.62 1237.33 1463.43 1240.48 L1463.43 1235.07 L1469.29 1235.07 L1469.29 1266.29 Z" fill="#000000" fill-rule="evenodd" fill-opacity="1" /><path clip-path="url(#clip130)" d="M1510.98 1249.2 L1510.98 1270.72 L1505.12 1270.72 L1505.12 1249.39 Q1505.12 1244.33 1503.15 1241.82 Q1501.18 1239.3 1497.23 1239.3 Q1492.49 1239.3 1489.75 1242.33 Q1487.01 1245.35 1487.01 1250.57 L1487.01 1270.72 L1481.13 1270.72 L1481.13 1235.07 L1487.01 1235.07 L1487.01 1240.61 Q1489.12 1237.39 1491.95 1235.8 Q1494.81 1234.21 1498.54 1234.21 Q1504.68 1234.21 1507.83 1238.03 Q1510.98 1241.82 1510.98 1249.2 Z" fill="#000000" fill-rule="evenodd" fill-opacity="1" /><path clip-path="url(#clip130)" d="M1538.86 1252.8 Q1531.77 1252.8 1529.03 1254.42 Q1526.29 1256.05 1526.29 1259.96 Q1526.29 1263.08 1528.33 1264.93 Q1530.4 1266.74 1533.93 1266.74 Q1538.8 1266.74 1541.73 1263.3 Q1544.69 1259.83 1544.69 1254.1 L1544.69 1252.8 L1538.86 1252.8 M1550.54 1250.38 L1550.54 1270.72 L1544.69 1270.72 L1544.69 1265.31 Q1542.68 1268.55 1539.69 1270.11 Q1536.7 1271.64 1532.37 1271.64 Q1526.9 1271.64 1523.65 1268.59 Q1520.43 1265.5 1520.43 1260.34 Q1520.43 1254.33 1524.44 1251.27 Q1528.49 1248.22 1536.48 1248.22 L1544.69 1248.22 L1544.69 1247.64 Q1544.69 1243.6 1542.01 1241.4 Q1539.37 1239.18 1534.57 1239.18 Q1531.51 1239.18 1528.61 1239.91 Q1525.72 1240.64 1523.04 1242.11 L1523.04 1236.69 Q1526.26 1235.45 1529.28 1234.85 Q1532.31 1234.21 1535.17 1234.21 Q1542.91 1234.21 1546.72 1238.22 Q1550.54 1242.23 1550.54 1250.38 Z" fill="#000000" fill-rule="evenodd" fill-opacity="1" /><path clip-path="url(#clip130)" d="M1562.61 1221.19 L1568.46 1221.19 L1568.46 1270.72 L1562.61 1270.72 L1562.61 1221.19 Z" fill="#000000" fill-rule="evenodd" fill-opacity="1" /><path clip-path="url(#clip130)" d="M1627.09 1236.44 L1627.09 1241.91 Q1624.61 1240.55 1622.09 1239.88 Q1619.61 1239.18 1617.07 1239.18 Q1611.37 1239.18 1608.22 1242.81 Q1605.07 1246.4 1605.07 1252.93 Q1605.07 1259.45 1608.22 1263.08 Q1611.37 1266.68 1617.07 1266.68 Q1619.61 1266.68 1622.09 1266.01 Q1624.61 1265.31 1627.09 1263.94 L1627.09 1269.35 Q1624.64 1270.5 1622 1271.07 Q1619.39 1271.64 1616.43 1271.64 Q1608.38 1271.64 1603.63 1266.58 Q1598.89 1261.52 1598.89 1252.93 Q1598.89 1244.21 1603.67 1239.21 Q1608.47 1234.21 1616.81 1234.21 Q1619.52 1234.21 1622.09 1234.78 Q1624.67 1235.33 1627.09 1236.44 Z" fill="#000000" fill-rule="evenodd" fill-opacity="1" /><path clip-path="url(#clip130)" d="M1651.09 1239.18 Q1646.38 1239.18 1643.64 1242.87 Q1640.91 1246.53 1640.91 1252.93 Q1640.91 1259.32 1643.61 1263.02 Q1646.35 1266.68 1651.09 1266.68 Q1655.77 1266.68 1658.51 1262.98 Q1661.24 1259.29 1661.24 1252.93 Q1661.24 1246.59 1658.51 1242.9 Q1655.77 1239.18 1651.09 1239.18 M1651.09 1234.21 Q1658.73 1234.21 1663.09 1239.18 Q1667.45 1244.14 1667.45 1252.93 Q1667.45 1261.68 1663.09 1266.68 Q1658.73 1271.64 1651.09 1271.64 Q1643.42 1271.64 1639.06 1266.68 Q1634.73 1261.68 1634.73 1252.93 Q1634.73 1244.14 1639.06 1239.18 Q1643.42 1234.21 1651.09 1234.21 Z" fill="#000000" fill-rule="evenodd" fill-opacity="1" /><path clip-path="url(#clip130)" d="M1704.91 1241.91 Q1707.11 1237.97 1710.16 1236.09 Q1713.22 1234.21 1717.36 1234.21 Q1722.93 1234.21 1725.95 1238.13 Q1728.97 1242.01 1728.97 1249.2 L1728.97 1270.72 L1723.09 1270.72 L1723.09 1249.39 Q1723.09 1244.27 1721.27 1241.79 Q1719.46 1239.3 1715.73 1239.3 Q1711.18 1239.3 1708.54 1242.33 Q1705.9 1245.35 1705.9 1250.57 L1705.9 1270.72 L1700.01 1270.72 L1700.01 1249.39 Q1700.01 1244.24 1698.2 1241.79 Q1696.38 1239.3 1692.59 1239.3 Q1688.11 1239.3 1685.47 1242.36 Q1682.82 1245.38 1682.82 1250.57 L1682.82 1270.72 L1676.94 1270.72 L1676.94 1235.07 L1682.82 1235.07 L1682.82 1240.61 Q1684.83 1237.33 1687.63 1235.77 Q1690.43 1234.21 1694.28 1234.21 Q1698.16 1234.21 1700.87 1236.19 Q1703.61 1238.16 1704.91 1241.91 Z" fill="#000000" fill-rule="evenodd" fill-opacity="1" /><path clip-path="url(#clip130)" d="M1746.32 1265.37 L1746.32 1284.28 L1740.43 1284.28 L1740.43 1235.07 L1746.32 1235.07 L1746.32 1240.48 Q1748.17 1237.3 1750.97 1235.77 Q1753.8 1234.21 1757.72 1234.21 Q1764.21 1234.21 1768.25 1239.37 Q1772.33 1244.52 1772.33 1252.93 Q1772.33 1261.33 1768.25 1266.49 Q1764.21 1271.64 1757.72 1271.64 Q1753.8 1271.64 1750.97 1270.11 Q1748.17 1268.55 1746.32 1265.37 M1766.25 1252.93 Q1766.25 1246.47 1763.57 1242.81 Q1760.93 1239.11 1756.28 1239.11 Q1751.64 1239.11 1748.96 1242.81 Q1746.32 1246.47 1746.32 1252.93 Q1746.32 1259.39 1748.96 1263.08 Q1751.64 1266.74 1756.28 1266.74 Q1760.93 1266.74 1763.57 1263.08 Q1766.25 1259.39 1766.25 1252.93 Z" fill="#000000" fill-rule="evenodd" fill-opacity="1" /><path clip-path="url(#clip130)" d="M1782.86 1262.63 L1789.58 1262.63 L1789.58 1270.72 L1782.86 1270.72 L1782.86 1262.63 Z" fill="#000000" fill-rule="evenodd" fill-opacity="1" /><path clip-path="url(#clip130)" d="M1825.42 1265.31 L1835.92 1265.31 L1835.92 1229.06 L1824.49 1231.35 L1824.49 1225.49 L1835.86 1223.2 L1842.28 1223.2 L1842.28 1265.31 L1852.79 1265.31 L1852.79 1270.72 L1825.42 1270.72 L1825.42 1265.31 Z" fill="#000000" fill-rule="evenodd" fill-opacity="1" /><polyline clip-path="url(#clip133)" style="stroke:#000000; stroke-linecap:round; stroke-linejoin:round; stroke-width:2; stroke-opacity:0.1; fill:none" points="1987.6,1151.58 1513.78,1014.8 1513.78,540.98 "/>
<polyline clip-path="url(#clip133)" style="stroke:#000000; stroke-linecap:round; stroke-linejoin:round; stroke-width:2; stroke-opacity:0.1; fill:none" points="2073.58,1077.12 1599.76,940.34 1599.76,466.522 "/>
<polyline clip-path="url(#clip133)" style="stroke:#000000; stroke-linecap:round; stroke-linejoin:round; stroke-width:2; stroke-opacity:0.1; fill:none" points="2159.55,1002.66 1685.73,865.882 1685.73,392.065 "/>
<polyline clip-path="url(#clip130)" style="stroke:#000000; stroke-linecap:round; stroke-linejoin:round; stroke-width:4; stroke-opacity:1; fill:none" points="1979.07,1158.96 2252.63,922.056 "/>
<polyline clip-path="url(#clip130)" style="stroke:#000000; stroke-linecap:round; stroke-linejoin:round; stroke-width:4; stroke-opacity:1; fill:none" points="1987.6,1151.58 1981.91,1149.94 "/>
<polyline clip-path="url(#clip130)" style="stroke:#000000; stroke-linecap:round; stroke-linejoin:round; stroke-width:4; stroke-opacity:1; fill:none" points="2073.58,1077.12 2067.89,1075.48 "/>
<polyline clip-path="url(#clip130)" style="stroke:#000000; stroke-linecap:round; stroke-linejoin:round; stroke-width:4; stroke-opacity:1; fill:none" points="2159.55,1002.66 2153.87,1001.02 "/>
<path clip-path="url(#clip130)" d="M2007.07 1173.25 L2036.75 1173.25 L2036.75 1177.18 L2007.07 1177.18 L2007.07 1173.25 Z" fill="#000000" fill-rule="evenodd" fill-opacity="1" /><path clip-path="url(#clip130)" d="M2047.65 1186.14 L2055.29 1186.14 L2055.29 1159.78 L2046.98 1161.44 L2046.98 1157.18 L2055.24 1155.52 L2059.92 1155.52 L2059.92 1186.14 L2067.56 1186.14 L2067.56 1190.08 L2047.65 1190.08 L2047.65 1186.14 Z" fill="#000000" fill-rule="evenodd" fill-opacity="1" /><path clip-path="url(#clip130)" d="M2104.99 1084.14 Q2101.38 1084.14 2099.55 1087.7 Q2097.75 1091.24 2097.75 1098.37 Q2097.75 1105.48 2099.55 1109.05 Q2101.38 1112.59 2104.99 1112.59 Q2108.63 1112.59 2110.43 1109.05 Q2112.26 1105.48 2112.26 1098.37 Q2112.26 1091.24 2110.43 1087.7 Q2108.63 1084.14 2104.99 1084.14 M2104.99 1080.43 Q2110.8 1080.43 2113.86 1085.04 Q2116.94 1089.62 2116.94 1098.37 Q2116.94 1107.1 2113.86 1111.71 Q2110.8 1116.29 2104.99 1116.29 Q2099.18 1116.29 2096.1 1111.71 Q2093.05 1107.1 2093.05 1098.37 Q2093.05 1089.62 2096.1 1085.04 Q2099.18 1080.43 2104.99 1080.43 Z" fill="#000000" fill-rule="evenodd" fill-opacity="1" /><path clip-path="url(#clip130)" d="M2179.69 1037.23 L2187.33 1037.23 L2187.33 1010.86 L2179.02 1012.53 L2179.02 1008.27 L2187.29 1006.6 L2191.96 1006.6 L2191.96 1037.23 L2199.6 1037.23 L2199.6 1041.16 L2179.69 1041.16 L2179.69 1037.23 Z" fill="#000000" fill-rule="evenodd" fill-opacity="1" /><path clip-path="url(#clip130)" d="M2030.81 1186.06 L2030.81 1191.59 Q2028.33 1190.32 2025.65 1189.69 Q2022.98 1189.05 2020.11 1189.05 Q2015.75 1189.05 2013.56 1190.39 Q2011.39 1191.72 2011.39 1194.4 Q2011.39 1196.43 2012.95 1197.61 Q2014.51 1198.76 2019.22 1199.81 L2021.23 1200.25 Q2027.47 1201.59 2030.08 1204.04 Q2032.72 1206.46 2032.72 1210.82 Q2032.72 1215.78 2028.77 1218.68 Q2024.86 1221.58 2017.98 1221.58 Q2015.12 1221.58 2012 1221 Q2008.91 1220.46 2005.47 1219.35 L2005.47 1213.3 Q2008.72 1214.99 2011.87 1215.85 Q2015.02 1216.68 2018.11 1216.68 Q2022.25 1216.68 2024.47 1215.28 Q2026.7 1213.84 2026.7 1211.26 Q2026.7 1208.88 2025.08 1207.6 Q2023.49 1206.33 2018.05 1205.15 L2016.01 1204.68 Q2010.57 1203.53 2008.15 1201.18 Q2005.73 1198.79 2005.73 1194.65 Q2005.73 1189.62 2009.29 1186.88 Q2012.86 1184.15 2019.41 1184.15 Q2022.66 1184.15 2025.53 1184.62 Q2028.39 1185.1 2030.81 1186.06 Z" fill="#000000" fill-rule="evenodd" fill-opacity="1" /><path clip-path="url(#clip130)" d="M2042.04 1185.01 L2047.9 1185.01 L2047.9 1220.65 L2042.04 1220.65 L2042.04 1185.01 M2042.04 1171.13 L2047.9 1171.13 L2047.9 1178.55 L2042.04 1178.55 L2042.04 1171.13 Z" fill="#000000" fill-rule="evenodd" fill-opacity="1" /><path clip-path="url(#clip130)" d="M2083.61 1202.42 Q2083.61 1196.05 2080.97 1192.55 Q2078.36 1189.05 2073.62 1189.05 Q2068.91 1189.05 2066.27 1192.55 Q2063.66 1196.05 2063.66 1202.42 Q2063.66 1208.75 2066.27 1212.25 Q2068.91 1215.75 2073.62 1215.75 Q2078.36 1215.75 2080.97 1212.25 Q2083.61 1208.75 2083.61 1202.42 M2089.47 1216.23 Q2089.47 1225.33 2085.43 1229.76 Q2081.38 1234.21 2073.05 1234.21 Q2069.96 1234.21 2067.22 1233.74 Q2064.48 1233.29 2061.91 1232.34 L2061.91 1226.64 Q2064.48 1228.04 2067 1228.71 Q2069.51 1229.38 2072.12 1229.38 Q2077.88 1229.38 2080.75 1226.35 Q2083.61 1223.36 2083.61 1217.28 L2083.61 1214.38 Q2081.8 1217.54 2078.97 1219.09 Q2076.13 1220.65 2072.19 1220.65 Q2065.63 1220.65 2061.62 1215.66 Q2057.61 1210.66 2057.61 1202.42 Q2057.61 1194.14 2061.62 1189.14 Q2065.63 1184.15 2072.19 1184.15 Q2076.13 1184.15 2078.97 1185.71 Q2081.8 1187.27 2083.61 1190.42 L2083.61 1185.01 L2089.47 1185.01 L2089.47 1216.23 Z" fill="#000000" fill-rule="evenodd" fill-opacity="1" /><path clip-path="url(#clip130)" d="M2131.16 1199.14 L2131.16 1220.65 L2125.31 1220.65 L2125.31 1199.33 Q2125.31 1194.27 2123.33 1191.75 Q2121.36 1189.24 2117.41 1189.24 Q2112.67 1189.24 2109.93 1192.26 Q2107.2 1195.29 2107.2 1200.51 L2107.2 1220.65 L2101.31 1220.65 L2101.31 1185.01 L2107.2 1185.01 L2107.2 1190.54 Q2109.3 1187.33 2112.13 1185.74 Q2115 1184.15 2118.72 1184.15 Q2124.86 1184.15 2128.01 1187.97 Q2131.16 1191.75 2131.16 1199.14 Z" fill="#000000" fill-rule="evenodd" fill-opacity="1" /><path clip-path="url(#clip130)" d="M2159.05 1202.73 Q2151.95 1202.73 2149.21 1204.36 Q2146.47 1205.98 2146.47 1209.9 Q2146.47 1213.02 2148.51 1214.86 Q2150.58 1216.68 2154.11 1216.68 Q2158.98 1216.68 2161.91 1213.24 Q2164.87 1209.77 2164.87 1204.04 L2164.87 1202.73 L2159.05 1202.73 M2170.73 1200.32 L2170.73 1220.65 L2164.87 1220.65 L2164.87 1215.24 Q2162.87 1218.49 2159.87 1220.05 Q2156.88 1221.58 2152.55 1221.58 Q2147.08 1221.58 2143.83 1218.52 Q2140.62 1215.43 2140.62 1210.28 Q2140.62 1204.26 2144.63 1201.21 Q2148.67 1198.15 2156.66 1198.15 L2164.87 1198.15 L2164.87 1197.58 Q2164.87 1193.54 2162.2 1191.34 Q2159.55 1189.11 2154.75 1189.11 Q2151.69 1189.11 2148.8 1189.84 Q2145.9 1190.58 2143.23 1192.04 L2143.23 1186.63 Q2146.44 1185.39 2149.47 1184.78 Q2152.49 1184.15 2155.35 1184.15 Q2163.09 1184.15 2166.91 1188.16 Q2170.73 1192.17 2170.73 1200.32 Z" fill="#000000" fill-rule="evenodd" fill-opacity="1" /><path clip-path="url(#clip130)" d="M2182.79 1171.13 L2188.65 1171.13 L2188.65 1220.65 L2182.79 1220.65 L2182.79 1171.13 Z" fill="#000000" fill-rule="evenodd" fill-opacity="1" /><path clip-path="url(#clip130)" d="M2247.27 1186.38 L2247.27 1191.85 Q2244.79 1190.48 2242.28 1189.81 Q2239.79 1189.11 2237.25 1189.11 Q2231.55 1189.11 2228.4 1192.74 Q2225.25 1196.34 2225.25 1202.86 Q2225.25 1209.39 2228.4 1213.02 Q2231.55 1216.61 2237.25 1216.61 Q2239.79 1216.61 2242.28 1215.94 Q2244.79 1215.24 2247.27 1213.87 L2247.27 1219.29 Q2244.82 1220.43 2242.18 1221 Q2239.57 1221.58 2236.61 1221.58 Q2228.56 1221.58 2223.82 1216.52 Q2219.07 1211.46 2219.07 1202.86 Q2219.07 1194.14 2223.85 1189.14 Q2228.65 1184.15 2236.99 1184.15 Q2239.7 1184.15 2242.28 1184.72 Q2244.86 1185.26 2247.27 1186.38 Z" fill="#000000" fill-rule="evenodd" fill-opacity="1" /><path clip-path="url(#clip130)" d="M2271.27 1189.11 Q2266.56 1189.11 2263.83 1192.8 Q2261.09 1196.46 2261.09 1202.86 Q2261.09 1209.26 2263.79 1212.95 Q2266.53 1216.61 2271.27 1216.61 Q2275.95 1216.61 2278.69 1212.92 Q2281.43 1209.23 2281.43 1202.86 Q2281.43 1196.53 2278.69 1192.84 Q2275.95 1189.11 2271.27 1189.11 M2271.27 1184.15 Q2278.91 1184.15 2283.27 1189.11 Q2287.63 1194.08 2287.63 1202.86 Q2287.63 1211.62 2283.27 1216.61 Q2278.91 1221.58 2271.27 1221.58 Q2263.6 1221.58 2259.24 1216.61 Q2254.91 1211.62 2254.91 1202.86 Q2254.91 1194.08 2259.24 1189.11 Q2263.6 1184.15 2271.27 1184.15 Z" fill="#000000" fill-rule="evenodd" fill-opacity="1" /><path clip-path="url(#clip130)" d="M2325.1 1191.85 Q2327.29 1187.9 2330.35 1186.02 Q2333.4 1184.15 2337.54 1184.15 Q2343.11 1184.15 2346.13 1188.06 Q2349.16 1191.95 2349.16 1199.14 L2349.16 1220.65 L2343.27 1220.65 L2343.27 1199.33 Q2343.27 1194.2 2341.46 1191.72 Q2339.64 1189.24 2335.92 1189.24 Q2331.37 1189.24 2328.72 1192.26 Q2326.08 1195.29 2326.08 1200.51 L2326.08 1220.65 L2320.19 1220.65 L2320.19 1199.33 Q2320.19 1194.17 2318.38 1191.72 Q2316.57 1189.24 2312.78 1189.24 Q2308.29 1189.24 2305.65 1192.3 Q2303.01 1195.32 2303.01 1200.51 L2303.01 1220.65 L2297.12 1220.65 L2297.12 1185.01 L2303.01 1185.01 L2303.01 1190.54 Q2305.01 1187.27 2307.81 1185.71 Q2310.61 1184.15 2314.46 1184.15 Q2318.35 1184.15 2321.05 1186.12 Q2323.79 1188.09 2325.1 1191.85 Z" fill="#000000" fill-rule="evenodd" fill-opacity="1" /><path clip-path="url(#clip130)" d="M2366.5 1215.31 L2366.5 1234.21 L2360.62 1234.21 L2360.62 1185.01 L2366.5 1185.01 L2366.5 1190.42 Q2368.35 1187.23 2371.15 1185.71 Q2373.98 1184.15 2377.9 1184.15 Q2384.39 1184.15 2388.43 1189.3 Q2392.51 1194.46 2392.51 1202.86 Q2392.51 1211.26 2388.43 1216.42 Q2384.39 1221.58 2377.9 1221.58 Q2373.98 1221.58 2371.15 1220.05 Q2368.35 1218.49 2366.5 1215.31 M2386.43 1202.86 Q2386.43 1196.4 2383.76 1192.74 Q2381.11 1189.05 2376.47 1189.05 Q2371.82 1189.05 2369.15 1192.74 Q2366.5 1196.4 2366.5 1202.86 Q2366.5 1209.32 2369.15 1213.02 Q2371.82 1216.68 2376.47 1216.68 Q2381.11 1216.68 2383.76 1213.02 Q2386.43 1209.32 2386.43 1202.86 Z" fill="#000000" fill-rule="evenodd" fill-opacity="1" /><path clip-path="url(#clip130)" d="M2403.04 1212.57 L2409.76 1212.57 L2409.76 1220.65 L2403.04 1220.65 L2403.04 1212.57 Z" fill="#000000" fill-rule="evenodd" fill-opacity="1" /><path clip-path="url(#clip130)" d="M2450.02 1215.24 L2472.46 1215.24 L2472.46 1220.65 L2442.29 1220.65 L2442.29 1215.24 Q2445.95 1211.46 2452.25 1205.09 Q2458.58 1198.69 2460.21 1196.85 Q2463.29 1193.38 2464.5 1190.99 Q2465.75 1188.57 2465.75 1186.25 Q2465.75 1182.46 2463.07 1180.07 Q2460.43 1177.69 2456.17 1177.69 Q2453.14 1177.69 2449.77 1178.74 Q2446.43 1179.79 2442.61 1181.92 L2442.61 1175.43 Q2446.49 1173.87 2449.86 1173.07 Q2453.24 1172.27 2456.04 1172.27 Q2463.42 1172.27 2467.81 1175.97 Q2472.21 1179.66 2472.21 1185.83 Q2472.21 1188.76 2471.09 1191.4 Q2470.01 1194.01 2467.11 1197.58 Q2466.32 1198.5 2462.05 1202.93 Q2457.79 1207.32 2450.02 1215.24 Z" fill="#000000" fill-rule="evenodd" fill-opacity="1" /><polyline clip-path="url(#clip133)" style="stroke:#000000; stroke-linecap:round; stroke-linejoin:round; stroke-width:2; stroke-opacity:0.1; fill:none" points="1505.25,1015.16 1778.81,778.252 2252.63,915.032 "/>
<polyline clip-path="url(#clip133)" style="stroke:#000000; stroke-linecap:round; stroke-linejoin:round; stroke-width:2; stroke-opacity:0.1; fill:none" points="1505.25,887.448 1778.81,650.539 2252.63,787.318 "/>
<polyline clip-path="url(#clip133)" style="stroke:#000000; stroke-linecap:round; stroke-linejoin:round; stroke-width:2; stroke-opacity:0.1; fill:none" points="1505.25,759.734 1778.81,522.825 2252.63,659.605 "/>
<polyline clip-path="url(#clip133)" style="stroke:#000000; stroke-linecap:round; stroke-linejoin:round; stroke-width:2; stroke-opacity:0.1; fill:none" points="1505.25,632.02 1778.81,395.112 2252.63,531.891 "/>
<polyline clip-path="url(#clip130)" style="stroke:#000000; stroke-linecap:round; stroke-linejoin:round; stroke-width:4; stroke-opacity:1; fill:none" points="1505.25,1022.19 1505.25,548.368 "/>
<polyline clip-path="url(#clip130)" style="stroke:#000000; stroke-linecap:round; stroke-linejoin:round; stroke-width:4; stroke-opacity:1; fill:none" points="1505.25,1015.16 1508.53,1012.32 "/>
<polyline clip-path="url(#clip130)" style="stroke:#000000; stroke-linecap:round; stroke-linejoin:round; stroke-width:4; stroke-opacity:1; fill:none" points="1505.25,887.448 1508.53,884.605 "/>
<polyline clip-path="url(#clip130)" style="stroke:#000000; stroke-linecap:round; stroke-linejoin:round; stroke-width:4; stroke-opacity:1; fill:none" points="1505.25,759.734 1508.53,756.891 "/>
<polyline clip-path="url(#clip130)" style="stroke:#000000; stroke-linecap:round; stroke-linejoin:round; stroke-width:4; stroke-opacity:1; fill:none" points="1505.25,632.02 1508.53,629.177 "/>
<path clip-path="url(#clip130)" d="M1464.51 1000.96 Q1460.89 1000.96 1459.07 1004.52 Q1457.26 1008.07 1457.26 1015.2 Q1457.26 1022.3 1459.07 1025.87 Q1460.89 1029.41 1464.51 1029.41 Q1468.14 1029.41 1469.95 1025.87 Q1471.77 1022.3 1471.77 1015.2 Q1471.77 1008.07 1469.95 1004.52 Q1468.14 1000.96 1464.51 1000.96 M1464.51 997.256 Q1470.32 997.256 1473.37 1001.86 Q1476.45 1006.45 1476.45 1015.2 Q1476.45 1023.92 1473.37 1028.53 Q1470.32 1033.11 1464.51 1033.11 Q1458.7 1033.11 1455.62 1028.53 Q1452.56 1023.92 1452.56 1015.2 Q1452.56 1006.45 1455.62 1001.86 Q1458.7 997.256 1464.51 997.256 Z" fill="#000000" fill-rule="evenodd" fill-opacity="1" /><path clip-path="url(#clip130)" d="M1428.37 900.792 L1444.69 900.792 L1444.69 904.728 L1422.75 904.728 L1422.75 900.792 Q1425.41 898.038 1429.99 893.408 Q1434.6 888.755 1435.78 887.413 Q1438.02 884.89 1438.9 883.154 Q1439.81 881.394 1439.81 879.705 Q1439.81 876.95 1437.86 875.214 Q1435.94 873.478 1432.84 873.478 Q1430.64 873.478 1428.19 874.242 Q1425.76 875.005 1422.98 876.556 L1422.98 871.834 Q1425.8 870.7 1428.26 870.121 Q1430.71 869.543 1432.75 869.543 Q1438.12 869.543 1441.31 872.228 Q1444.51 874.913 1444.51 879.404 Q1444.51 881.533 1443.7 883.455 Q1442.91 885.353 1440.8 887.945 Q1440.22 888.617 1437.12 891.834 Q1434.02 895.029 1428.37 900.792 Z" fill="#000000" fill-rule="evenodd" fill-opacity="1" /><path clip-path="url(#clip130)" d="M1464.51 873.246 Q1460.89 873.246 1459.07 876.811 Q1457.26 880.353 1457.26 887.482 Q1457.26 894.589 1459.07 898.154 Q1460.89 901.695 1464.51 901.695 Q1468.14 901.695 1469.95 898.154 Q1471.77 894.589 1471.77 887.482 Q1471.77 880.353 1469.95 876.811 Q1468.14 873.246 1464.51 873.246 M1464.51 869.543 Q1470.32 869.543 1473.37 874.149 Q1476.45 878.732 1476.45 887.482 Q1476.45 896.209 1473.37 900.816 Q1470.32 905.399 1464.51 905.399 Q1458.7 905.399 1455.62 900.816 Q1452.56 896.209 1452.56 887.482 Q1452.56 878.732 1455.62 874.149 Q1458.7 869.543 1464.51 869.543 Z" fill="#000000" fill-rule="evenodd" fill-opacity="1" /><path clip-path="url(#clip130)" d="M1437.19 746.528 L1425.39 764.977 L1437.19 764.977 L1437.19 746.528 M1435.96 742.454 L1441.84 742.454 L1441.84 764.977 L1446.77 764.977 L1446.77 768.866 L1441.84 768.866 L1441.84 777.014 L1437.19 777.014 L1437.19 768.866 L1421.59 768.866 L1421.59 764.352 L1435.96 742.454 Z" fill="#000000" fill-rule="evenodd" fill-opacity="1" /><path clip-path="url(#clip130)" d="M1464.51 745.533 Q1460.89 745.533 1459.07 749.097 Q1457.26 752.639 1457.26 759.769 Q1457.26 766.875 1459.07 770.44 Q1460.89 773.982 1464.51 773.982 Q1468.14 773.982 1469.95 770.44 Q1471.77 766.875 1471.77 759.769 Q1471.77 752.639 1469.95 749.097 Q1468.14 745.533 1464.51 745.533 M1464.51 741.829 Q1470.32 741.829 1473.37 746.435 Q1476.45 751.019 1476.45 759.769 Q1476.45 768.495 1473.37 773.102 Q1470.32 777.685 1464.51 777.685 Q1458.7 777.685 1455.62 773.102 Q1452.56 768.495 1452.56 759.769 Q1452.56 751.019 1455.62 746.435 Q1458.7 741.829 1464.51 741.829 Z" fill="#000000" fill-rule="evenodd" fill-opacity="1" /><path clip-path="url(#clip130)" d="M1434.92 630.157 Q1431.77 630.157 1429.92 632.31 Q1428.09 634.462 1428.09 638.212 Q1428.09 641.939 1429.92 644.115 Q1431.77 646.268 1434.92 646.268 Q1438.07 646.268 1439.9 644.115 Q1441.75 641.939 1441.75 638.212 Q1441.75 634.462 1439.9 632.31 Q1438.07 630.157 1434.92 630.157 M1444.21 615.504 L1444.21 619.763 Q1442.45 618.93 1440.64 618.49 Q1438.86 618.051 1437.1 618.051 Q1432.47 618.051 1430.02 621.176 Q1427.58 624.3 1427.24 630.62 Q1428.6 628.606 1430.66 627.541 Q1432.72 626.453 1435.2 626.453 Q1440.41 626.453 1443.42 629.625 Q1446.45 632.773 1446.45 638.212 Q1446.45 643.536 1443.3 646.754 Q1440.15 649.972 1434.92 649.972 Q1428.93 649.972 1425.76 645.388 Q1422.58 640.782 1422.58 632.055 Q1422.58 623.861 1426.47 619 Q1430.36 614.115 1436.91 614.115 Q1438.67 614.115 1440.46 614.463 Q1442.26 614.81 1444.21 615.504 Z" fill="#000000" fill-rule="evenodd" fill-opacity="1" /><path clip-path="url(#clip130)" d="M1464.51 617.819 Q1460.89 617.819 1459.07 621.384 Q1457.26 624.925 1457.26 632.055 Q1457.26 639.162 1459.07 642.726 Q1460.89 646.268 1464.51 646.268 Q1468.14 646.268 1469.95 642.726 Q1471.77 639.162 1471.77 632.055 Q1471.77 624.925 1469.95 621.384 Q1468.14 617.819 1464.51 617.819 M1464.51 614.115 Q1470.32 614.115 1473.37 618.722 Q1476.45 623.305 1476.45 632.055 Q1476.45 640.782 1473.37 645.388 Q1470.32 649.972 1464.51 649.972 Q1458.7 649.972 1455.62 645.388 Q1452.56 640.782 1452.56 632.055 Q1452.56 623.305 1455.62 618.722 Q1458.7 614.115 1464.51 614.115 Z" fill="#000000" fill-rule="evenodd" fill-opacity="1" /><path clip-path="url(#clip130)" d="M1318.36 846.117 L1328.49 846.117 L1328.49 834.054 L1333.04 834.054 L1333.04 846.117 L1352.39 846.117 Q1356.75 846.117 1357.99 844.939 Q1359.23 843.73 1359.23 840.069 L1359.23 834.054 L1364.13 834.054 L1364.13 840.069 Q1364.13 846.849 1361.62 849.427 Q1359.07 852.005 1352.39 852.005 L1333.04 852.005 L1333.04 856.302 L1328.49 856.302 L1328.49 852.005 L1318.36 852.005 L1318.36 846.117 Z" fill="#000000" fill-rule="evenodd" fill-opacity="1" /><path clip-path="url(#clip130)" d="M1328.49 826.351 L1328.49 820.495 L1364.13 820.495 L1364.13 826.351 L1328.49 826.351 M1314.61 826.351 L1314.61 820.495 L1322.02 820.495 L1322.02 826.351 L1314.61 826.351 Z" fill="#000000" fill-rule="evenodd" fill-opacity="1" /><path clip-path="url(#clip130)" d="M1335.33 780.486 Q1331.38 778.29 1329.5 775.235 Q1327.63 772.179 1327.63 768.042 Q1327.63 762.472 1331.54 759.448 Q1335.42 756.424 1342.62 756.424 L1364.13 756.424 L1364.13 762.312 L1342.81 762.312 Q1337.68 762.312 1335.2 764.127 Q1332.72 765.941 1332.72 769.665 Q1332.72 774.216 1335.74 776.858 Q1338.77 779.5 1343.99 779.5 L1364.13 779.5 L1364.13 785.388 L1342.81 785.388 Q1337.65 785.388 1335.2 787.202 Q1332.72 789.017 1332.72 792.804 Q1332.72 797.292 1335.77 799.934 Q1338.8 802.575 1343.99 802.575 L1364.13 802.575 L1364.13 808.464 L1328.49 808.464 L1328.49 802.575 L1334.02 802.575 Q1330.75 800.57 1329.19 797.769 Q1327.63 794.968 1327.63 791.117 Q1327.63 787.234 1329.6 784.529 Q1331.57 781.791 1335.33 780.486 Z" fill="#000000" fill-rule="evenodd" fill-opacity="1" /><path clip-path="url(#clip130)" d="M1344.85 714.251 L1347.71 714.251 L1347.71 741.178 Q1353.76 740.796 1356.94 737.55 Q1360.09 734.271 1360.09 728.447 Q1360.09 725.073 1359.26 721.922 Q1358.44 718.739 1356.78 715.62 L1362.32 715.62 Q1363.66 718.771 1364.36 722.081 Q1365.06 725.391 1365.06 728.797 Q1365.06 737.327 1360.09 742.324 Q1355.13 747.289 1346.66 747.289 Q1337.91 747.289 1332.78 742.579 Q1327.63 737.836 1327.63 729.815 Q1327.63 722.622 1332.27 718.453 Q1336.89 714.251 1344.85 714.251 M1343.13 720.108 Q1338.32 720.171 1335.46 722.813 Q1332.59 725.423 1332.59 729.752 Q1332.59 734.653 1335.36 737.613 Q1338.13 740.542 1343.16 740.987 L1343.13 720.108 Z" fill="#000000" fill-rule="evenodd" fill-opacity="1" /><polyline clip-path="url(#clip133)" style="stroke:#e26f46; stroke-linecap:round; stroke-linejoin:round; stroke-width:12; stroke-opacity:1; fill:none" points="1935.15,925.797 1949.49,922.476 1956.15,919.935 1968,919.894 1981.57,917.886 1989.7,916.72 1996.91,916.907 2004.84,918.011 2005.67,918.788 2012.75,917.956 2014.19,920.535 2013.43,922.45 2014.24,922.062 2012.88,922.398 2008.96,925.346 2009.19,925.965 1999.93,925.086 1995.18,926.903 1986.8,928.72 1977.83,928.301 1965.3,927.343 1956.52,927.583 1943.93,925.185 1934.4,922.053 1919.16,922.04 1902.94,918.527 1891.05,914.907 1877.39,909.377 1860.48,904.466 1846.73,897.403 1830.46,891.89 1815.46,886.098 1802.98,879.076 1791.97,869.035 1779.15,859.693 1761.32,849.239 1749.94,839.574 1742.11,828.733 1730.87,816.32 1718.13,804.491 1714.96,792.464 1703.18,780.01 1696.62,768.498 1691.65,753.075 1688.34,741.714 1685.67,727.515 1683.7,711.246 1683.36,697.366 1686.04,685.3 1690.19,670.187 1690.19,657.719 1700.24,643.365 1704.95,630.285 1714.71,615.776 1717.78,603.946 1731.71,590.888 1741.21,579.491 1755.36,568.495 1762.47,557.262 1778.94,548.506 1795.99,537.898 1807.28,528.078 1820.33,520.527 1834.63,513.467 1848.93,505.454 1863.36,499.538 1879.17,493.536 1895.06,487.748 1906.82,485.639 1921.91,481.572 1937.06,477.139 "/>
<polyline clip-path="url(#clip133)" style="stroke:#009af9; stroke-linecap:round; stroke-linejoin:round; stroke-width:4; stroke-opacity:1; fill:none" points="1937.54,923.722 1955.27,923.131 1955.27,916.745 1969.71,919.416 1984.05,921.682 1984.05,915.296 1995.32,918.053 2008.45,920.753 2008.45,914.367 2009.93,919.423 2013.42,924.088 2013.42,917.703 2009.72,922.485 2009.72,916.1 2009.72,909.714 2080.51,934.741 2080.47,938.045 2068.93,943.695 2053.92,946.536 1971.67,930.232 1971.67,923.846 1955.94,925.715 1935.07,927.24 1935.07,920.855 1921.97,921.274 1895,918.196 1895,911.811 1877.34,907.63 1858.21,904.654 1858.21,898.268 1831.62,893.108 1812.35,884.054 1812.35,877.668 1787.91,868.929 1769.89,858.168 1769.89,851.782 1749.05,840.329 1735.51,825.659 1735.51,819.273 1718.78,804.864 1709.36,789.061 1709.36,782.676 1695.69,767.326 1690.3,749.746 1690.3,743.36 1683.76,726.061 1685.51,707.461 1685.51,701.075 1689.09,684.651 1695.14,666.837 1695.14,660.451 1697.48,644.391 1712.31,627.361 1712.31,620.975 1721.21,604.322 1736.77,587.229 1736.77,580.843 1736.77,574.458 1736.77,568.072 1736.77,561.686 1702.4,470.384 1732.44,456.371 1763.16,441.626 1799.57,431.509 1835.62,419.969 1870.82,415.611 1910.83,407.731 1944.97,406.925 1980.24,408.306 2015.64,408.754 2045.03,410.66 "/>
</svg>
