<?xml version="1.0" encoding="utf-8"?>
<svg xmlns="http://www.w3.org/2000/svg" xmlns:xlink="http://www.w3.org/1999/xlink" width="600" height="400" viewBox="0 0 2400 1600">
<defs>
  <clipPath id="clip310">
    <rect x="0" y="0" width="2400" height="1600"/>
  </clipPath>
</defs>
<path clip-path="url(#clip310)" d="M0 1600 L2400 1600 L2400 0 L0 0  Z" fill="#ffffff" fill-rule="evenodd" fill-opacity="1"/>
<defs>
  <clipPath id="clip311">
    <rect x="480" y="0" width="1681" height="1600"/>
  </clipPath>
</defs>
<defs>
  <clipPath id="clip312">
    <rect x="205" y="47" width="949" height="1377"/>
  </clipPath>
</defs>
<path clip-path="url(#clip312)" d="M489.176 1126.72 L489.176 829.837 L648.92 681.397 L925.606 767.099 L925.606 1063.98 L765.861 1212.42 L489.176 1126.72  Z" fill="#ffffff" fill-rule="evenodd" fill-opacity="1"/>
<polyline clip-path="url(#clip312)" style="stroke:#000000; stroke-linecap:round; stroke-linejoin:round; stroke-width:2; stroke-opacity:0.1; fill:none" points="418.042,1054.75 691.601,817.837 691.601,344.019 "/>
<polyline clip-path="url(#clip312)" style="stroke:#000000; stroke-linecap:round; stroke-linejoin:round; stroke-width:2; stroke-opacity:0.1; fill:none" points="556.385,1094.68 829.944,857.773 829.944,383.956 "/>
<polyline clip-path="url(#clip312)" style="stroke:#000000; stroke-linecap:round; stroke-linejoin:round; stroke-width:2; stroke-opacity:0.1; fill:none" points="694.728,1134.62 968.287,897.709 968.287,423.892 "/>
<polyline clip-path="url(#clip310)" style="stroke:#000000; stroke-linecap:round; stroke-linejoin:round; stroke-width:4; stroke-opacity:1; fill:none" points="305.25,1022.19 779.068,1158.96 "/>
<polyline clip-path="url(#clip310)" style="stroke:#000000; stroke-linecap:round; stroke-linejoin:round; stroke-width:4; stroke-opacity:1; fill:none" points="418.042,1054.75 421.325,1051.9 "/>
<polyline clip-path="url(#clip310)" style="stroke:#000000; stroke-linecap:round; stroke-linejoin:round; stroke-width:4; stroke-opacity:1; fill:none" points="556.385,1094.68 559.668,1091.84 "/>
<polyline clip-path="url(#clip310)" style="stroke:#000000; stroke-linecap:round; stroke-linejoin:round; stroke-width:4; stroke-opacity:1; fill:none" points="694.728,1134.62 698.011,1131.78 "/>
<path clip-path="url(#clip310)" d="M349.035 1082.71 L378.711 1082.71 L378.711 1086.64 L349.035 1086.64 L349.035 1082.71 Z" fill="#000000" fill-rule="evenodd" fill-opacity="1" /><path clip-path="url(#clip310)" d="M389.614 1095.6 L397.253 1095.6 L397.253 1069.24 L388.943 1070.9 L388.943 1066.64 L397.206 1064.98 L401.882 1064.98 L401.882 1095.6 L409.521 1095.6 L409.521 1099.54 L389.614 1099.54 L389.614 1095.6 Z" fill="#000000" fill-rule="evenodd" fill-opacity="1" /><path clip-path="url(#clip310)" d="M535.92 1107.99 Q532.309 1107.99 530.48 1111.56 Q528.674 1115.1 528.674 1122.23 Q528.674 1129.33 530.48 1132.9 Q532.309 1136.44 535.92 1136.44 Q539.554 1136.44 541.359 1132.9 Q543.188 1129.33 543.188 1122.23 Q543.188 1115.1 541.359 1111.56 Q539.554 1107.99 535.92 1107.99 M535.92 1104.29 Q541.73 1104.29 544.785 1108.89 Q547.864 1113.48 547.864 1122.23 Q547.864 1130.95 544.785 1135.56 Q541.73 1140.14 535.92 1140.14 Q530.11 1140.14 527.031 1135.56 Q523.975 1130.95 523.975 1122.23 Q523.975 1113.48 527.031 1108.89 Q530.11 1104.29 535.92 1104.29 Z" fill="#000000" fill-rule="evenodd" fill-opacity="1" /><path clip-path="url(#clip310)" d="M666.3 1175.47 L673.938 1175.47 L673.938 1149.11 L665.628 1150.77 L665.628 1146.52 L673.892 1144.85 L678.568 1144.85 L678.568 1175.47 L686.207 1175.47 L686.207 1179.41 L666.3 1179.41 L666.3 1175.47 Z" fill="#000000" fill-rule="evenodd" fill-opacity="1" /><path clip-path="url(#clip310)" d="M210.626 1236.12 L210.626 1241.66 Q208.143 1240.39 205.47 1239.75 Q202.796 1239.11 199.931 1239.11 Q195.571 1239.11 193.375 1240.45 Q191.21 1241.79 191.21 1244.46 Q191.21 1246.5 192.77 1247.68 Q194.33 1248.82 199.04 1249.87 L201.045 1250.32 Q207.284 1251.65 209.894 1254.1 Q212.536 1256.52 212.536 1260.88 Q212.536 1265.85 208.589 1268.75 Q204.674 1271.64 197.799 1271.64 Q194.934 1271.64 191.815 1271.07 Q188.728 1270.53 185.29 1269.41 L185.29 1263.37 Q188.537 1265.05 191.688 1265.91 Q194.839 1266.74 197.926 1266.74 Q202.064 1266.74 204.292 1265.34 Q206.52 1263.91 206.52 1261.33 Q206.52 1258.94 204.897 1257.67 Q203.305 1256.4 197.863 1255.22 L195.826 1254.74 Q190.383 1253.6 187.964 1251.24 Q185.545 1248.85 185.545 1244.72 Q185.545 1239.69 189.11 1236.95 Q192.675 1234.21 199.231 1234.21 Q202.478 1234.21 205.342 1234.69 Q208.207 1235.17 210.626 1236.12 Z" fill="#000000" fill-rule="evenodd" fill-opacity="1" /><path clip-path="url(#clip310)" d="M221.861 1235.07 L227.718 1235.07 L227.718 1270.72 L221.861 1270.72 L221.861 1235.07 M221.861 1221.19 L227.718 1221.19 L227.718 1228.61 L221.861 1228.61 L221.861 1221.19 Z" fill="#000000" fill-rule="evenodd" fill-opacity="1" /><path clip-path="url(#clip310)" d="M263.429 1252.48 Q263.429 1246.12 260.788 1242.61 Q258.178 1239.11 253.435 1239.11 Q248.725 1239.11 246.083 1242.61 Q243.473 1246.12 243.473 1252.48 Q243.473 1258.82 246.083 1262.32 Q248.725 1265.82 253.435 1265.82 Q258.178 1265.82 260.788 1262.32 Q263.429 1258.82 263.429 1252.48 M269.286 1266.29 Q269.286 1275.4 265.244 1279.82 Q261.201 1284.28 252.862 1284.28 Q249.775 1284.28 247.038 1283.8 Q244.3 1283.35 241.722 1282.4 L241.722 1276.7 Q244.3 1278.1 246.815 1278.77 Q249.329 1279.44 251.939 1279.44 Q257.7 1279.44 260.565 1276.42 Q263.429 1273.42 263.429 1267.35 L263.429 1264.45 Q261.615 1267.6 258.782 1269.16 Q255.95 1270.72 252.003 1270.72 Q245.446 1270.72 241.436 1265.72 Q237.426 1260.72 237.426 1252.48 Q237.426 1244.21 241.436 1239.21 Q245.446 1234.21 252.003 1234.21 Q255.95 1234.21 258.782 1235.77 Q261.615 1237.33 263.429 1240.48 L263.429 1235.07 L269.286 1235.07 L269.286 1266.29 Z" fill="#000000" fill-rule="evenodd" fill-opacity="1" /><path clip-path="url(#clip310)" d="M310.981 1249.2 L310.981 1270.72 L305.125 1270.72 L305.125 1249.39 Q305.125 1244.33 303.151 1241.82 Q301.178 1239.3 297.231 1239.3 Q292.489 1239.3 289.752 1242.33 Q287.014 1245.35 287.014 1250.57 L287.014 1270.72 L281.126 1270.72 L281.126 1235.07 L287.014 1235.07 L287.014 1240.61 Q289.115 1237.39 291.948 1235.8 Q294.812 1234.21 298.536 1234.21 Q304.679 1234.21 307.83 1238.03 Q310.981 1241.82 310.981 1249.2 Z" fill="#000000" fill-rule="evenodd" fill-opacity="1" /><path clip-path="url(#clip310)" d="M338.863 1252.8 Q331.765 1252.8 329.028 1254.42 Q326.291 1256.05 326.291 1259.96 Q326.291 1263.08 328.328 1264.93 Q330.397 1266.74 333.93 1266.74 Q338.799 1266.74 341.728 1263.3 Q344.688 1259.83 344.688 1254.1 L344.688 1252.8 L338.863 1252.8 M350.544 1250.38 L350.544 1270.72 L344.688 1270.72 L344.688 1265.31 Q342.682 1268.55 339.691 1270.11 Q336.699 1271.64 332.37 1271.64 Q326.896 1271.64 323.649 1268.59 Q320.434 1265.5 320.434 1260.34 Q320.434 1254.33 324.445 1251.27 Q328.487 1248.22 336.476 1248.22 L344.688 1248.22 L344.688 1247.64 Q344.688 1243.6 342.014 1241.4 Q339.372 1239.18 334.566 1239.18 Q331.511 1239.18 328.614 1239.91 Q325.718 1240.64 323.044 1242.11 L323.044 1236.69 Q326.259 1235.45 329.283 1234.85 Q332.306 1234.21 335.171 1234.21 Q342.905 1234.21 346.725 1238.22 Q350.544 1242.23 350.544 1250.38 Z" fill="#000000" fill-rule="evenodd" fill-opacity="1" /><path clip-path="url(#clip310)" d="M362.607 1221.19 L368.464 1221.19 L368.464 1270.72 L362.607 1270.72 L362.607 1221.19 Z" fill="#000000" fill-rule="evenodd" fill-opacity="1" /><path clip-path="url(#clip310)" d="M427.092 1236.44 L427.092 1241.91 Q424.609 1240.55 422.095 1239.88 Q419.612 1239.18 417.066 1239.18 Q411.368 1239.18 408.217 1242.81 Q405.066 1246.4 405.066 1252.93 Q405.066 1259.45 408.217 1263.08 Q411.368 1266.68 417.066 1266.68 Q419.612 1266.68 422.095 1266.01 Q424.609 1265.31 427.092 1263.94 L427.092 1269.35 Q424.641 1270.5 421.999 1271.07 Q419.389 1271.64 416.429 1271.64 Q408.377 1271.64 403.634 1266.58 Q398.892 1261.52 398.892 1252.93 Q398.892 1244.21 403.666 1239.21 Q408.472 1234.21 416.811 1234.21 Q419.517 1234.21 422.095 1234.78 Q424.673 1235.33 427.092 1236.44 Z" fill="#000000" fill-rule="evenodd" fill-opacity="1" /><path clip-path="url(#clip310)" d="M451.09 1239.18 Q446.38 1239.18 443.643 1242.87 Q440.905 1246.53 440.905 1252.93 Q440.905 1259.32 443.611 1263.02 Q446.348 1266.68 451.09 1266.68 Q455.769 1266.68 458.507 1262.98 Q461.244 1259.29 461.244 1252.93 Q461.244 1246.59 458.507 1242.9 Q455.769 1239.18 451.09 1239.18 M451.09 1234.21 Q458.729 1234.21 463.09 1239.18 Q467.45 1244.14 467.45 1252.93 Q467.45 1261.68 463.09 1266.68 Q458.729 1271.64 451.09 1271.64 Q443.42 1271.64 439.059 1266.68 Q434.731 1261.68 434.731 1252.93 Q434.731 1244.14 439.059 1239.18 Q443.42 1234.21 451.09 1234.21 Z" fill="#000000" fill-rule="evenodd" fill-opacity="1" /><path clip-path="url(#clip310)" d="M504.913 1241.91 Q507.109 1237.97 510.164 1236.09 Q513.22 1234.21 517.357 1234.21 Q522.927 1234.21 525.951 1238.13 Q528.975 1242.01 528.975 1249.2 L528.975 1270.72 L523.087 1270.72 L523.087 1249.39 Q523.087 1244.27 521.272 1241.79 Q519.458 1239.3 515.734 1239.3 Q511.183 1239.3 508.541 1242.33 Q505.899 1245.35 505.899 1250.57 L505.899 1270.72 L500.011 1270.72 L500.011 1249.39 Q500.011 1244.24 498.197 1241.79 Q496.382 1239.3 492.595 1239.3 Q488.107 1239.3 485.465 1242.36 Q482.823 1245.38 482.823 1250.57 L482.823 1270.72 L476.935 1270.72 L476.935 1235.07 L482.823 1235.07 L482.823 1240.61 Q484.829 1237.33 487.63 1235.77 Q490.431 1234.21 494.282 1234.21 Q498.165 1234.21 500.87 1236.19 Q503.608 1238.16 504.913 1241.91 Z" fill="#000000" fill-rule="evenodd" fill-opacity="1" /><path clip-path="url(#clip310)" d="M546.321 1265.37 L546.321 1284.28 L540.433 1284.28 L540.433 1235.07 L546.321 1235.07 L546.321 1240.48 Q548.167 1237.3 550.968 1235.77 Q553.801 1234.21 557.716 1234.21 Q564.209 1234.21 568.251 1239.37 Q572.325 1244.52 572.325 1252.93 Q572.325 1261.33 568.251 1266.49 Q564.209 1271.64 557.716 1271.64 Q553.801 1271.64 550.968 1270.11 Q548.167 1268.55 546.321 1265.37 M566.246 1252.93 Q566.246 1246.47 563.572 1242.81 Q560.931 1239.11 556.284 1239.11 Q551.637 1239.11 548.963 1242.81 Q546.321 1246.47 546.321 1252.93 Q546.321 1259.39 548.963 1263.08 Q551.637 1266.74 556.284 1266.74 Q560.931 1266.74 563.572 1263.08 Q566.246 1259.39 566.246 1252.93 Z" fill="#000000" fill-rule="evenodd" fill-opacity="1" /><path clip-path="url(#clip310)" d="M582.861 1262.63 L589.576 1262.63 L589.576 1270.72 L582.861 1270.72 L582.861 1262.63 Z" fill="#000000" fill-rule="evenodd" fill-opacity="1" /><path clip-path="url(#clip310)" d="M625.415 1265.31 L635.919 1265.31 L635.919 1229.06 L624.492 1231.35 L624.492 1225.49 L635.855 1223.2 L642.284 1223.2 L642.284 1265.31 L652.788 1265.31 L652.788 1270.72 L625.415 1270.72 L625.415 1265.31 Z" fill="#000000" fill-rule="evenodd" fill-opacity="1" /><polyline clip-path="url(#clip312)" style="stroke:#000000; stroke-linecap:round; stroke-linejoin:round; stroke-width:2; stroke-opacity:0.1; fill:none" points="788.057,1151.18 314.239,1014.4 314.239,540.583 "/>
<polyline clip-path="url(#clip312)" style="stroke:#000000; stroke-linecap:round; stroke-linejoin:round; stroke-width:2; stroke-opacity:0.1; fill:none" points="873.759,1076.96 399.941,940.181 399.941,466.363 "/>
<polyline clip-path="url(#clip312)" style="stroke:#000000; stroke-linecap:round; stroke-linejoin:round; stroke-width:2; stroke-opacity:0.1; fill:none" points="959.46,1002.74 485.643,865.961 485.643,392.143 "/>
<polyline clip-path="url(#clip310)" style="stroke:#000000; stroke-linecap:round; stroke-linejoin:round; stroke-width:4; stroke-opacity:1; fill:none" points="779.068,1158.96 1052.63,922.056 "/>
<polyline clip-path="url(#clip310)" style="stroke:#000000; stroke-linecap:round; stroke-linejoin:round; stroke-width:4; stroke-opacity:1; fill:none" points="788.057,1151.18 782.371,1149.54 "/>
<polyline clip-path="url(#clip310)" style="stroke:#000000; stroke-linecap:round; stroke-linejoin:round; stroke-width:4; stroke-opacity:1; fill:none" points="873.759,1076.96 868.073,1075.32 "/>
<polyline clip-path="url(#clip310)" style="stroke:#000000; stroke-linecap:round; stroke-linejoin:round; stroke-width:4; stroke-opacity:1; fill:none" points="959.46,1002.74 953.775,1001.1 "/>
<path clip-path="url(#clip310)" d="M807.661 1172.73 L837.337 1172.73 L837.337 1176.66 L807.661 1176.66 L807.661 1172.73 Z" fill="#000000" fill-rule="evenodd" fill-opacity="1" /><path clip-path="url(#clip310)" d="M848.24 1185.62 L855.879 1185.62 L855.879 1159.26 L847.568 1160.92 L847.568 1156.66 L855.832 1155 L860.508 1155 L860.508 1185.62 L868.147 1185.62 L868.147 1189.56 L848.24 1189.56 L848.24 1185.62 Z" fill="#000000" fill-rule="evenodd" fill-opacity="1" /><path clip-path="url(#clip310)" d="M905.307 1083.86 Q901.696 1083.86 899.868 1087.42 Q898.062 1090.96 898.062 1098.09 Q898.062 1105.2 899.868 1108.76 Q901.696 1112.31 905.307 1112.31 Q908.942 1112.31 910.747 1108.76 Q912.576 1105.2 912.576 1098.09 Q912.576 1090.96 910.747 1087.42 Q908.942 1083.86 905.307 1083.86 M905.307 1080.15 Q911.118 1080.15 914.173 1084.76 Q917.252 1089.34 917.252 1098.09 Q917.252 1106.82 914.173 1111.43 Q911.118 1116.01 905.307 1116.01 Q899.497 1116.01 896.419 1111.43 Q893.363 1106.82 893.363 1098.09 Q893.363 1089.34 896.419 1084.76 Q899.497 1080.15 905.307 1080.15 Z" fill="#000000" fill-rule="evenodd" fill-opacity="1" /><path clip-path="url(#clip310)" d="M979.736 1037.18 L987.375 1037.18 L987.375 1010.82 L979.065 1012.48 L979.065 1008.22 L987.329 1006.56 L992.005 1006.56 L992.005 1037.18 L999.644 1037.18 L999.644 1041.12 L979.736 1041.12 L979.736 1037.18 Z" fill="#000000" fill-rule="evenodd" fill-opacity="1" /><path clip-path="url(#clip310)" d="M830.809 1186.06 L830.809 1191.59 Q828.326 1190.32 825.652 1189.69 Q822.979 1189.05 820.114 1189.05 Q815.754 1189.05 813.558 1190.39 Q811.393 1191.72 811.393 1194.4 Q811.393 1196.43 812.953 1197.61 Q814.512 1198.76 819.223 1199.81 L821.228 1200.25 Q827.467 1201.59 830.077 1204.04 Q832.718 1206.46 832.718 1210.82 Q832.718 1215.78 828.772 1218.68 Q824.857 1221.58 817.982 1221.58 Q815.117 1221.58 811.998 1221 Q808.911 1220.46 805.473 1219.35 L805.473 1213.3 Q808.72 1214.99 811.871 1215.85 Q815.022 1216.68 818.109 1216.68 Q822.247 1216.68 824.475 1215.28 Q826.703 1213.84 826.703 1211.26 Q826.703 1208.88 825.079 1207.6 Q823.488 1206.33 818.045 1205.15 L816.008 1204.68 Q810.566 1203.53 808.147 1201.18 Q805.728 1198.79 805.728 1194.65 Q805.728 1189.62 809.292 1186.88 Q812.857 1184.15 819.414 1184.15 Q822.66 1184.15 825.525 1184.62 Q828.39 1185.1 830.809 1186.06 Z" fill="#000000" fill-rule="evenodd" fill-opacity="1" /><path clip-path="url(#clip310)" d="M842.044 1185.01 L847.9 1185.01 L847.9 1220.65 L842.044 1220.65 L842.044 1185.01 M842.044 1171.13 L847.9 1171.13 L847.9 1178.55 L842.044 1178.55 L842.044 1171.13 Z" fill="#000000" fill-rule="evenodd" fill-opacity="1" /><path clip-path="url(#clip310)" d="M883.612 1202.42 Q883.612 1196.05 880.97 1192.55 Q878.36 1189.05 873.618 1189.05 Q868.907 1189.05 866.266 1192.55 Q863.656 1196.05 863.656 1202.42 Q863.656 1208.75 866.266 1212.25 Q868.907 1215.75 873.618 1215.75 Q878.36 1215.75 880.97 1212.25 Q883.612 1208.75 883.612 1202.42 M889.469 1216.23 Q889.469 1225.33 885.426 1229.76 Q881.384 1234.21 873.045 1234.21 Q869.958 1234.21 867.22 1233.74 Q864.483 1233.29 861.905 1232.34 L861.905 1226.64 Q864.483 1228.04 866.998 1228.71 Q869.512 1229.38 872.122 1229.38 Q877.883 1229.38 880.748 1226.35 Q883.612 1223.36 883.612 1217.28 L883.612 1214.38 Q881.798 1217.54 878.965 1219.09 Q876.132 1220.65 872.186 1220.65 Q865.629 1220.65 861.619 1215.66 Q857.608 1210.66 857.608 1202.42 Q857.608 1194.14 861.619 1189.14 Q865.629 1184.15 872.186 1184.15 Q876.132 1184.15 878.965 1185.71 Q881.798 1187.27 883.612 1190.42 L883.612 1185.01 L889.469 1185.01 L889.469 1216.23 Z" fill="#000000" fill-rule="evenodd" fill-opacity="1" /><path clip-path="url(#clip310)" d="M931.164 1199.14 L931.164 1220.65 L925.307 1220.65 L925.307 1199.33 Q925.307 1194.27 923.334 1191.75 Q921.361 1189.24 917.414 1189.24 Q912.672 1189.24 909.934 1192.26 Q907.197 1195.29 907.197 1200.51 L907.197 1220.65 L901.309 1220.65 L901.309 1185.01 L907.197 1185.01 L907.197 1190.54 Q909.298 1187.33 912.13 1185.74 Q914.995 1184.15 918.719 1184.15 Q924.862 1184.15 928.013 1187.97 Q931.164 1191.75 931.164 1199.14 Z" fill="#000000" fill-rule="evenodd" fill-opacity="1" /><path clip-path="url(#clip310)" d="M959.046 1202.73 Q951.948 1202.73 949.211 1204.36 Q946.473 1205.98 946.473 1209.9 Q946.473 1213.02 948.51 1214.86 Q950.579 1216.68 954.112 1216.68 Q958.982 1216.68 961.91 1213.24 Q964.87 1209.77 964.87 1204.04 L964.87 1202.73 L959.046 1202.73 M970.727 1200.32 L970.727 1220.65 L964.87 1220.65 L964.87 1215.24 Q962.865 1218.49 959.873 1220.05 Q956.881 1221.58 952.553 1221.58 Q947.078 1221.58 943.832 1218.52 Q940.617 1215.43 940.617 1210.28 Q940.617 1204.26 944.627 1201.21 Q948.67 1198.15 956.659 1198.15 L964.87 1198.15 L964.87 1197.58 Q964.87 1193.54 962.197 1191.34 Q959.555 1189.11 954.749 1189.11 Q951.693 1189.11 948.797 1189.84 Q945.901 1190.58 943.227 1192.04 L943.227 1186.63 Q946.442 1185.39 949.465 1184.78 Q952.489 1184.15 955.354 1184.15 Q963.088 1184.15 966.907 1188.16 Q970.727 1192.17 970.727 1200.32 Z" fill="#000000" fill-rule="evenodd" fill-opacity="1" /><path clip-path="url(#clip310)" d="M982.79 1171.13 L988.646 1171.13 L988.646 1220.65 L982.79 1220.65 L982.79 1171.13 Z" fill="#000000" fill-rule="evenodd" fill-opacity="1" /><path clip-path="url(#clip310)" d="M1047.27 1186.38 L1047.27 1191.85 Q1044.79 1190.48 1042.28 1189.81 Q1039.79 1189.11 1037.25 1189.11 Q1031.55 1189.11 1028.4 1192.74 Q1025.25 1196.34 1025.25 1202.86 Q1025.25 1209.39 1028.4 1213.02 Q1031.55 1216.61 1037.25 1216.61 Q1039.79 1216.61 1042.28 1215.94 Q1044.79 1215.24 1047.27 1213.87 L1047.27 1219.29 Q1044.82 1220.43 1042.18 1221 Q1039.57 1221.58 1036.61 1221.58 Q1028.56 1221.58 1023.82 1216.52 Q1019.07 1211.46 1019.07 1202.86 Q1019.07 1194.14 1023.85 1189.14 Q1028.65 1184.15 1036.99 1184.15 Q1039.7 1184.15 1042.28 1184.72 Q1044.86 1185.26 1047.27 1186.38 Z" fill="#000000" fill-rule="evenodd" fill-opacity="1" /><path clip-path="url(#clip310)" d="M1071.27 1189.11 Q1066.56 1189.11 1063.83 1192.8 Q1061.09 1196.46 1061.09 1202.86 Q1061.09 1209.26 1063.79 1212.95 Q1066.53 1216.61 1071.27 1216.61 Q1075.95 1216.61 1078.69 1212.92 Q1081.43 1209.23 1081.43 1202.86 Q1081.43 1196.53 1078.69 1192.84 Q1075.95 1189.11 1071.27 1189.11 M1071.27 1184.15 Q1078.91 1184.15 1083.27 1189.11 Q1087.63 1194.08 1087.63 1202.86 Q1087.63 1211.62 1083.27 1216.61 Q1078.91 1221.58 1071.27 1221.58 Q1063.6 1221.58 1059.24 1216.61 Q1054.91 1211.62 1054.91 1202.86 Q1054.91 1194.08 1059.24 1189.11 Q1063.6 1184.15 1071.27 1184.15 Z" fill="#000000" fill-rule="evenodd" fill-opacity="1" /><path clip-path="url(#clip310)" d="M1125.1 1191.85 Q1127.29 1187.9 1130.35 1186.02 Q1133.4 1184.15 1137.54 1184.15 Q1143.11 1184.15 1146.13 1188.06 Q1149.16 1191.95 1149.16 1199.14 L1149.16 1220.65 L1143.27 1220.65 L1143.27 1199.33 Q1143.27 1194.2 1141.46 1191.72 Q1139.64 1189.24 1135.92 1189.24 Q1131.37 1189.24 1128.72 1192.26 Q1126.08 1195.29 1126.08 1200.51 L1126.08 1220.65 L1120.19 1220.65 L1120.19 1199.33 Q1120.19 1194.17 1118.38 1191.72 Q1116.57 1189.24 1112.78 1189.24 Q1108.29 1189.24 1105.65 1192.3 Q1103.01 1195.32 1103.01 1200.51 L1103.01 1220.65 L1097.12 1220.65 L1097.12 1185.01 L1103.01 1185.01 L1103.01 1190.54 Q1105.01 1187.27 1107.81 1185.71 Q1110.61 1184.15 1114.46 1184.15 Q1118.35 1184.15 1121.05 1186.12 Q1123.79 1188.09 1125.1 1191.85 Z" fill="#000000" fill-rule="evenodd" fill-opacity="1" /><path clip-path="url(#clip310)" d="M1166.5 1215.31 L1166.5 1234.21 L1160.62 1234.21 L1160.62 1185.01 L1166.5 1185.01 L1166.5 1190.42 Q1168.35 1187.23 1171.15 1185.71 Q1173.98 1184.15 1177.9 1184.15 Q1184.39 1184.15 1188.43 1189.3 Q1192.51 1194.46 1192.51 1202.86 Q1192.51 1211.26 1188.43 1216.42 Q1184.39 1221.58 1177.9 1221.58 Q1173.98 1221.58 1171.15 1220.05 Q1168.35 1218.49 1166.5 1215.31 M1186.43 1202.86 Q1186.43 1196.4 1183.76 1192.74 Q1181.11 1189.05 1176.47 1189.05 Q1171.82 1189.05 1169.15 1192.74 Q1166.5 1196.4 1166.5 1202.86 Q1166.5 1209.32 1169.15 1213.02 Q1171.82 1216.68 1176.47 1216.68 Q1181.11 1216.68 1183.76 1213.02 Q1186.43 1209.32 1186.43 1202.86 Z" fill="#000000" fill-rule="evenodd" fill-opacity="1" /><path clip-path="url(#clip310)" d="M1203.04 1212.57 L1209.76 1212.57 L1209.76 1220.65 L1203.04 1220.65 L1203.04 1212.57 Z" fill="#000000" fill-rule="evenodd" fill-opacity="1" /><path clip-path="url(#clip310)" d="M1250.02 1215.24 L1272.46 1215.24 L1272.46 1220.65 L1242.29 1220.65 L1242.29 1215.24 Q1245.95 1211.46 1252.25 1205.09 Q1258.58 1198.69 1260.21 1196.85 Q1263.29 1193.38 1264.5 1190.99 Q1265.75 1188.57 1265.75 1186.25 Q1265.75 1182.46 1263.07 1180.07 Q1260.43 1177.69 1256.17 1177.69 Q1253.14 1177.69 1249.77 1178.74 Q1246.43 1179.79 1242.61 1181.92 L1242.61 1175.43 Q1246.49 1173.87 1249.86 1173.07 Q1253.24 1172.27 1256.04 1172.27 Q1263.42 1172.27 1267.81 1175.97 Q1272.21 1179.66 1272.21 1185.83 Q1272.21 1188.76 1271.09 1191.4 Q1270.01 1194.01 1267.11 1197.58 Q1266.32 1198.5 1262.05 1202.93 Q1257.79 1207.32 1250.02 1215.24 Z" fill="#000000" fill-rule="evenodd" fill-opacity="1" /><polyline clip-path="url(#clip312)" style="stroke:#000000; stroke-linecap:round; stroke-linejoin:round; stroke-width:2; stroke-opacity:0.1; fill:none" points="305.25,1015.16 578.809,778.252 1052.63,915.032 "/>
<polyline clip-path="url(#clip312)" style="stroke:#000000; stroke-linecap:round; stroke-linejoin:round; stroke-width:2; stroke-opacity:0.1; fill:none" points="305.25,887.448 578.809,650.539 1052.63,787.318 "/>
<polyline clip-path="url(#clip312)" style="stroke:#000000; stroke-linecap:round; stroke-linejoin:round; stroke-width:2; stroke-opacity:0.1; fill:none" points="305.25,759.734 578.809,522.825 1052.63,659.605 "/>
<polyline clip-path="url(#clip312)" style="stroke:#000000; stroke-linecap:round; stroke-linejoin:round; stroke-width:2; stroke-opacity:0.1; fill:none" points="305.25,632.02 578.809,395.112 1052.63,531.891 "/>
<polyline clip-path="url(#clip310)" style="stroke:#000000; stroke-linecap:round; stroke-linejoin:round; stroke-width:4; stroke-opacity:1; fill:none" points="305.25,1022.19 305.25,548.368 "/>
<polyline clip-path="url(#clip310)" style="stroke:#000000; stroke-linecap:round; stroke-linejoin:round; stroke-width:4; stroke-opacity:1; fill:none" points="305.25,1015.16 308.533,1012.32 "/>
<polyline clip-path="url(#clip310)" style="stroke:#000000; stroke-linecap:round; stroke-linejoin:round; stroke-width:4; stroke-opacity:1; fill:none" points="305.25,887.448 308.533,884.605 "/>
<polyline clip-path="url(#clip310)" style="stroke:#000000; stroke-linecap:round; stroke-linejoin:round; stroke-width:4; stroke-opacity:1; fill:none" points="305.25,759.734 308.533,756.891 "/>
<polyline clip-path="url(#clip310)" style="stroke:#000000; stroke-linecap:round; stroke-linejoin:round; stroke-width:4; stroke-opacity:1; fill:none" points="305.25,632.02 308.533,629.177 "/>
<path clip-path="url(#clip310)" d="M264.506 1000.96 Q260.895 1000.96 259.066 1004.52 Q257.261 1008.07 257.261 1015.2 Q257.261 1022.3 259.066 1025.87 Q260.895 1029.41 264.506 1029.41 Q268.14 1029.41 269.946 1025.87 Q271.774 1022.3 271.774 1015.2 Q271.774 1008.07 269.946 1004.52 Q268.14 1000.96 264.506 1000.96 M264.506 997.256 Q270.316 997.256 273.372 1001.86 Q276.45 1006.45 276.45 1015.2 Q276.45 1023.92 273.372 1028.53 Q270.316 1033.11 264.506 1033.11 Q258.696 1033.11 255.617 1028.53 Q252.562 1023.92 252.562 1015.2 Q252.562 1006.45 255.617 1001.86 Q258.696 997.256 264.506 997.256 Z" fill="#000000" fill-rule="evenodd" fill-opacity="1" /><path clip-path="url(#clip310)" d="M228.372 900.792 L244.691 900.792 L244.691 904.728 L222.747 904.728 L222.747 900.792 Q225.409 898.038 229.992 893.408 Q234.599 888.755 235.779 887.413 Q238.025 884.89 238.904 883.154 Q239.807 881.394 239.807 879.705 Q239.807 876.95 237.863 875.214 Q235.941 873.478 232.84 873.478 Q230.64 873.478 228.187 874.242 Q225.756 875.005 222.978 876.556 L222.978 871.834 Q225.803 870.7 228.256 870.121 Q230.71 869.543 232.747 869.543 Q238.117 869.543 241.312 872.228 Q244.506 874.913 244.506 879.404 Q244.506 881.533 243.696 883.455 Q242.909 885.353 240.802 887.945 Q240.224 888.617 237.122 891.834 Q234.02 895.029 228.372 900.792 Z" fill="#000000" fill-rule="evenodd" fill-opacity="1" /><path clip-path="url(#clip310)" d="M264.506 873.246 Q260.895 873.246 259.066 876.811 Q257.261 880.353 257.261 887.482 Q257.261 894.589 259.066 898.154 Q260.895 901.695 264.506 901.695 Q268.14 901.695 269.946 898.154 Q271.774 894.589 271.774 887.482 Q271.774 880.353 269.946 876.811 Q268.14 873.246 264.506 873.246 M264.506 869.543 Q270.316 869.543 273.372 874.149 Q276.45 878.732 276.45 887.482 Q276.45 896.209 273.372 900.816 Q270.316 905.399 264.506 905.399 Q258.696 905.399 255.617 900.816 Q252.562 896.209 252.562 887.482 Q252.562 878.732 255.617 874.149 Q258.696 869.543 264.506 869.543 Z" fill="#000000" fill-rule="evenodd" fill-opacity="1" /><path clip-path="url(#clip310)" d="M237.191 746.528 L225.386 764.977 L237.191 764.977 L237.191 746.528 M235.964 742.454 L241.844 742.454 L241.844 764.977 L246.775 764.977 L246.775 768.866 L241.844 768.866 L241.844 777.014 L237.191 777.014 L237.191 768.866 L221.59 768.866 L221.59 764.352 L235.964 742.454 Z" fill="#000000" fill-rule="evenodd" fill-opacity="1" /><path clip-path="url(#clip310)" d="M264.506 745.533 Q260.895 745.533 259.066 749.097 Q257.261 752.639 257.261 759.769 Q257.261 766.875 259.066 770.44 Q260.895 773.982 264.506 773.982 Q268.14 773.982 269.946 770.44 Q271.774 766.875 271.774 759.769 Q271.774 752.639 269.946 749.097 Q268.14 745.533 264.506 745.533 M264.506 741.829 Q270.316 741.829 273.372 746.435 Q276.45 751.019 276.45 759.769 Q276.45 768.495 273.372 773.102 Q270.316 777.685 264.506 777.685 Q258.696 777.685 255.617 773.102 Q252.562 768.495 252.562 759.769 Q252.562 751.019 255.617 746.435 Q258.696 741.829 264.506 741.829 Z" fill="#000000" fill-rule="evenodd" fill-opacity="1" /><path clip-path="url(#clip310)" d="M234.923 630.157 Q231.775 630.157 229.923 632.31 Q228.094 634.462 228.094 638.212 Q228.094 641.939 229.923 644.115 Q231.775 646.268 234.923 646.268 Q238.071 646.268 239.9 644.115 Q241.751 641.939 241.751 638.212 Q241.751 634.462 239.9 632.31 Q238.071 630.157 234.923 630.157 M244.205 615.504 L244.205 619.763 Q242.446 618.93 240.64 618.49 Q238.858 618.051 237.099 618.051 Q232.469 618.051 230.015 621.176 Q227.585 624.3 227.238 630.62 Q228.603 628.606 230.664 627.541 Q232.724 626.453 235.201 626.453 Q240.409 626.453 243.418 629.625 Q246.451 632.773 246.451 638.212 Q246.451 643.536 243.302 646.754 Q240.154 649.972 234.923 649.972 Q228.927 649.972 225.756 645.388 Q222.585 640.782 222.585 632.055 Q222.585 623.861 226.474 619 Q230.363 614.115 236.914 614.115 Q238.673 614.115 240.455 614.463 Q242.261 614.81 244.205 615.504 Z" fill="#000000" fill-rule="evenodd" fill-opacity="1" /><path clip-path="url(#clip310)" d="M264.506 617.819 Q260.895 617.819 259.066 621.384 Q257.261 624.925 257.261 632.055 Q257.261 639.162 259.066 642.726 Q260.895 646.268 264.506 646.268 Q268.14 646.268 269.946 642.726 Q271.774 639.162 271.774 632.055 Q271.774 624.925 269.946 621.384 Q268.14 617.819 264.506 617.819 M264.506 614.115 Q270.316 614.115 273.372 618.722 Q276.45 623.305 276.45 632.055 Q276.45 640.782 273.372 645.388 Q270.316 649.972 264.506 649.972 Q258.696 649.972 255.617 645.388 Q252.562 640.782 252.562 632.055 Q252.562 623.305 255.617 618.722 Q258.696 614.115 264.506 614.115 Z" fill="#000000" fill-rule="evenodd" fill-opacity="1" /><path clip-path="url(#clip310)" d="M128.486 870.307 L128.486 864.45 L164.134 864.45 L164.134 870.307 L128.486 870.307 M114.608 870.307 L114.608 864.45 L122.024 864.45 L122.024 870.307 L114.608 870.307 Z" fill="#000000" fill-rule="evenodd" fill-opacity="1" /><path clip-path="url(#clip310)" d="M142.617 822.564 L164.134 822.564 L164.134 828.42 L142.808 828.42 Q137.748 828.42 135.233 830.394 Q132.719 832.367 132.719 836.314 Q132.719 841.056 135.743 843.793 Q138.766 846.531 143.986 846.531 L164.134 846.531 L164.134 852.419 L128.486 852.419 L128.486 846.531 L134.024 846.531 Q130.809 844.43 129.218 841.597 Q127.626 838.733 127.626 835.009 Q127.626 828.866 131.446 825.715 Q135.233 822.564 142.617 822.564 Z" fill="#000000" fill-rule="evenodd" fill-opacity="1" /><path clip-path="url(#clip310)" d="M133.896 787.425 L114.608 787.425 L114.608 781.569 L164.134 781.569 L164.134 787.425 L158.786 787.425 Q161.969 789.271 163.529 792.104 Q165.057 794.905 165.057 798.852 Q165.057 805.313 159.9 809.387 Q154.744 813.429 146.341 813.429 Q137.939 813.429 132.782 809.387 Q127.626 805.313 127.626 798.852 Q127.626 794.905 129.186 792.104 Q130.714 789.271 133.896 787.425 M146.341 807.382 Q152.803 807.382 156.495 804.74 Q160.155 802.066 160.155 797.419 Q160.155 792.772 156.495 790.099 Q152.803 787.425 146.341 787.425 Q139.88 787.425 136.22 790.099 Q132.528 792.772 132.528 797.419 Q132.528 802.066 136.22 804.74 Q139.88 807.382 146.341 807.382 Z" fill="#000000" fill-rule="evenodd" fill-opacity="1" /><path clip-path="url(#clip310)" d="M144.845 739.014 L147.71 739.014 L147.71 765.941 Q153.757 765.559 156.94 762.312 Q160.091 759.034 160.091 753.209 Q160.091 749.836 159.264 746.685 Q158.436 743.502 156.781 740.383 L162.319 740.383 Q163.656 743.534 164.356 746.844 Q165.057 750.154 165.057 753.56 Q165.057 762.09 160.091 767.087 Q155.126 772.052 146.66 772.052 Q137.907 772.052 132.782 767.341 Q127.626 762.599 127.626 754.578 Q127.626 747.385 132.273 743.215 Q136.888 739.014 144.845 739.014 M143.127 744.87 Q138.321 744.934 135.456 747.576 Q132.591 750.186 132.591 754.514 Q132.591 759.416 135.361 762.376 Q138.13 765.304 143.159 765.75 L143.127 744.87 Z" fill="#000000" fill-rule="evenodd" fill-opacity="1" /><path clip-path="url(#clip310)" d="M128.486 700.915 L145.832 713.806 L164.134 700.247 L164.134 707.154 L150.129 717.53 L164.134 727.906 L164.134 734.813 L145.482 720.967 L128.486 733.635 L128.486 726.728 L141.185 717.275 L128.486 707.822 L128.486 700.915 Z" fill="#000000" fill-rule="evenodd" fill-opacity="1" /><polyline clip-path="url(#clip312)" style="stroke:#e26f46; stroke-linecap:round; stroke-linejoin:round; stroke-width:12; stroke-opacity:1; fill:none" points="735.27,924.112 751.449,921.791 759.637,919.425 770.784,919.475 778.032,918.612 786.78,917.519 795.569,918.209 799.166,917.611 807.65,917.077 808.956,918.487 812.951,920.318 816.928,920.918 815.031,924.536 810.835,924.103 810.723,924.146 803.556,925.495 800.048,926.141 792.343,926.99 787.059,927.592 779.673,927.619 765.403,927.666 755.044,926.366 744.816,925.421 731.184,922.939 718.985,920.077 703.865,916.127 692.391,912.901 677.715,910.209 662.806,905.127 648.632,897.937 638.176,893.699 619.434,884.166 604.778,875.85 590.822,868.439 578.745,859.652 564.945,851.304 552.394,838.891 543.397,830.027 533.358,815.902 521.136,805.712 513.834,791.801 505.092,781.428 498.955,768.601 494.591,754.381 491.919,741.906 488.281,726.917 488.302,713.794 489.548,699.876 488.429,684.951 497.5,671.259 500.799,657.817 501.18,645.075 510.154,630.889 519.448,616.679 523.691,604.449 534.309,592.323 546.331,580.081 556.266,569.859 575.21,557.05 585.961,546.987 595.476,538.401 609.674,529.706 628.285,521.361 636.247,514.277 648.706,506.774 668.358,500.774 681.907,494.663 694.174,488.632 713.623,485.546 725.756,481.445 740.234,478.461 "/>
<polyline clip-path="url(#clip312)" style="stroke:#009af9; stroke-linecap:round; stroke-linejoin:round; stroke-width:12; stroke-opacity:1; fill:none" points="735.61,925.509 754.648,925.119 770.149,924.995 782.84,926.469 796.575,931.227 803.534,934.117 810.63,938.67 813.686,942.472 812.704,949.177 882.385,973.489 871.92,977.259 861.978,982.395 857.125,985.843 772.978,969.604 755.023,970.444 737.518,972.621 717.615,971.378 697.507,969.932 677.219,966.305 654.123,961.341 635.609,957.063 614.581,947.858 589.632,939.941 571.7,928.394 554.947,915.826 536.063,902.302 520.516,887.736 511.308,874.298 497.001,857.787 491.215,840.133 490.813,822.172 488.554,805.557 491.945,787.98 497.559,769.079 503.537,752.401 512.432,736.107 523.549,720.591 540.999,704.737 499.753,613.16 533.323,599.056 575.155,585.08 600.654,572.976 637.459,564.508 679.971,557.682 712.019,553.37 746.325,549.374 789.001,547.759 817.845,549.684 848.473,553.757 "/>
<defs>
  <clipPath id="clip313">
    <rect x="1405" y="47" width="949" height="1377"/>
  </clipPath>
</defs>
<path clip-path="url(#clip313)" d="M1689.18 1126.72 L1689.18 829.837 L1848.92 681.397 L2125.61 767.099 L2125.61 1063.98 L1965.86 1212.42 L1689.18 1126.72  Z" fill="#ffffff" fill-rule="evenodd" fill-opacity="1"/>
<polyline clip-path="url(#clip313)" style="stroke:#000000; stroke-linecap:round; stroke-linejoin:round; stroke-width:2; stroke-opacity:0.1; fill:none" points="1618.04,1054.75 1891.6,817.837 1891.6,344.019 "/>
<polyline clip-path="url(#clip313)" style="stroke:#000000; stroke-linecap:round; stroke-linejoin:round; stroke-width:2; stroke-opacity:0.1; fill:none" points="1756.39,1094.68 2029.94,857.773 2029.94,383.956 "/>
<polyline clip-path="url(#clip313)" style="stroke:#000000; stroke-linecap:round; stroke-linejoin:round; stroke-width:2; stroke-opacity:0.1; fill:none" points="1894.73,1134.62 2168.29,897.709 2168.29,423.892 "/>
<polyline clip-path="url(#clip310)" style="stroke:#000000; stroke-linecap:round; stroke-linejoin:round; stroke-width:4; stroke-opacity:1; fill:none" points="1505.25,1022.19 1979.07,1158.96 "/>
<polyline clip-path="url(#clip310)" style="stroke:#000000; stroke-linecap:round; stroke-linejoin:round; stroke-width:4; stroke-opacity:1; fill:none" points="1618.04,1054.75 1621.33,1051.9 "/>
<polyline clip-path="url(#clip310)" style="stroke:#000000; stroke-linecap:round; stroke-linejoin:round; stroke-width:4; stroke-opacity:1; fill:none" points="1756.39,1094.68 1759.67,1091.84 "/>
<polyline clip-path="url(#clip310)" style="stroke:#000000; stroke-linecap:round; stroke-linejoin:round; stroke-width:4; stroke-opacity:1; fill:none" points="1894.73,1134.62 1898.01,1131.78 "/>
<path clip-path="url(#clip310)" d="M1549.04 1082.71 L1578.71 1082.71 L1578.71 1086.64 L1549.04 1086.64 L1549.04 1082.71 Z" fill="#000000" fill-rule="evenodd" fill-opacity="1" /><path clip-path="url(#clip310)" d="M1589.61 1095.6 L1597.25 1095.6 L1597.25 1069.24 L1588.94 1070.9 L1588.94 1066.64 L1597.21 1064.98 L1601.88 1064.98 L1601.88 1095.6 L1609.52 1095.6 L1609.52 1099.54 L1589.61 1099.54 L1589.61 1095.6 Z" fill="#000000" fill-rule="evenodd" fill-opacity="1" /><path clip-path="url(#clip310)" d="M1735.92 1107.99 Q1732.31 1107.99 1730.48 1111.56 Q1728.67 1115.1 1728.67 1122.23 Q1728.67 1129.33 1730.48 1132.9 Q1732.31 1136.44 1735.92 1136.44 Q1739.55 1136.44 1741.36 1132.9 Q1743.19 1129.33 1743.19 1122.23 Q1743.19 1115.1 1741.36 1111.56 Q1739.55 1107.99 1735.92 1107.99 M1735.92 1104.29 Q1741.73 1104.29 1744.79 1108.89 Q1747.86 1113.48 1747.86 1122.23 Q1747.86 1130.95 1744.79 1135.56 Q1741.73 1140.14 1735.92 1140.14 Q1730.11 1140.14 1727.03 1135.56 Q1723.98 1130.95 1723.98 1122.23 Q1723.98 1113.48 1727.03 1108.89 Q1730.11 1104.29 1735.92 1104.29 Z" fill="#000000" fill-rule="evenodd" fill-opacity="1" /><path clip-path="url(#clip310)" d="M1866.3 1175.47 L1873.94 1175.47 L1873.94 1149.11 L1865.63 1150.77 L1865.63 1146.52 L1873.89 1144.85 L1878.57 1144.85 L1878.57 1175.47 L1886.21 1175.47 L1886.21 1179.41 L1866.3 1179.41 L1866.3 1175.47 Z" fill="#000000" fill-rule="evenodd" fill-opacity="1" /><path clip-path="url(#clip310)" d="M1410.63 1236.12 L1410.63 1241.66 Q1408.14 1240.39 1405.47 1239.75 Q1402.8 1239.11 1399.93 1239.11 Q1395.57 1239.11 1393.37 1240.45 Q1391.21 1241.79 1391.21 1244.46 Q1391.21 1246.5 1392.77 1247.68 Q1394.33 1248.82 1399.04 1249.87 L1401.05 1250.32 Q1407.28 1251.65 1409.89 1254.1 Q1412.54 1256.52 1412.54 1260.88 Q1412.54 1265.85 1408.59 1268.75 Q1404.67 1271.64 1397.8 1271.64 Q1394.93 1271.64 1391.82 1271.07 Q1388.73 1270.53 1385.29 1269.41 L1385.29 1263.37 Q1388.54 1265.05 1391.69 1265.91 Q1394.84 1266.74 1397.93 1266.74 Q1402.06 1266.74 1404.29 1265.34 Q1406.52 1263.91 1406.52 1261.33 Q1406.52 1258.94 1404.9 1257.67 Q1403.31 1256.4 1397.86 1255.22 L1395.83 1254.74 Q1390.38 1253.6 1387.96 1251.24 Q1385.55 1248.85 1385.55 1244.72 Q1385.55 1239.69 1389.11 1236.95 Q1392.67 1234.21 1399.23 1234.21 Q1402.48 1234.21 1405.34 1234.69 Q1408.21 1235.17 1410.63 1236.12 Z" fill="#000000" fill-rule="evenodd" fill-opacity="1" /><path clip-path="url(#clip310)" d="M1421.86 1235.07 L1427.72 1235.07 L1427.72 1270.72 L1421.86 1270.72 L1421.86 1235.07 M1421.86 1221.19 L1427.72 1221.19 L1427.72 1228.61 L1421.86 1228.61 L1421.86 1221.19 Z" fill="#000000" fill-rule="evenodd" fill-opacity="1" /><path clip-path="url(#clip310)" d="M1463.43 1252.48 Q1463.43 1246.12 1460.79 1242.61 Q1458.18 1239.11 1453.44 1239.11 Q1448.72 1239.11 1446.08 1242.61 Q1443.47 1246.12 1443.47 1252.48 Q1443.47 1258.82 1446.08 1262.32 Q1448.72 1265.82 1453.44 1265.82 Q1458.18 1265.82 1460.79 1262.32 Q1463.43 1258.82 1463.43 1252.48 M1469.29 1266.29 Q1469.29 1275.4 1465.24 1279.82 Q1461.2 1284.28 1452.86 1284.28 Q1449.77 1284.28 1447.04 1283.8 Q1444.3 1283.35 1441.72 1282.4 L1441.72 1276.7 Q1444.3 1278.1 1446.81 1278.77 Q1449.33 1279.44 1451.94 1279.44 Q1457.7 1279.44 1460.56 1276.42 Q1463.43 1273.42 1463.43 1267.35 L1463.43 1264.45 Q1461.62 1267.6 1458.78 1269.16 Q1455.95 1270.72 1452 1270.72 Q1445.45 1270.72 1441.44 1265.72 Q1437.43 1260.72 1437.43 1252.48 Q1437.43 1244.21 1441.44 1239.21 Q1445.45 1234.21 1452 1234.21 Q1455.95 1234.21 1458.78 1235.77 Q1461.62 1237.33 1463.43 1240.48 L1463.43 1235.07 L1469.29 1235.07 L1469.29 1266.29 Z" fill="#000000" fill-rule="evenodd" fill-opacity="1" /><path clip-path="url(#clip310)" d="M1510.98 1249.2 L1510.98 1270.72 L1505.12 1270.72 L1505.12 1249.39 Q1505.12 1244.33 1503.15 1241.82 Q1501.18 1239.3 1497.23 1239.3 Q1492.49 1239.3 1489.75 1242.33 Q1487.01 1245.35 1487.01 1250.57 L1487.01 1270.72 L1481.13 1270.72 L1481.13 1235.07 L1487.01 1235.07 L1487.01 1240.61 Q1489.12 1237.39 1491.95 1235.8 Q1494.81 1234.21 1498.54 1234.21 Q1504.68 1234.21 1507.83 1238.03 Q1510.98 1241.82 1510.98 1249.2 Z" fill="#000000" fill-rule="evenodd" fill-opacity="1" /><path clip-path="url(#clip310)" d="M1538.86 1252.8 Q1531.77 1252.8 1529.03 1254.42 Q1526.29 1256.05 1526.29 1259.96 Q1526.29 1263.08 1528.33 1264.93 Q1530.4 1266.74 1533.93 1266.74 Q1538.8 1266.74 1541.73 1263.3 Q1544.69 1259.83 1544.69 1254.1 L1544.69 1252.8 L1538.86 1252.8 M1550.54 1250.38 L1550.54 1270.72 L1544.69 1270.72 L1544.69 1265.31 Q1542.68 1268.55 1539.69 1270.11 Q1536.7 1271.64 1532.37 1271.64 Q1526.9 1271.64 1523.65 1268.59 Q1520.43 1265.5 1520.43 1260.34 Q1520.43 1254.33 1524.44 1251.27 Q1528.49 1248.22 1536.48 1248.22 L1544.69 1248.22 L1544.69 1247.64 Q1544.69 1243.6 1542.01 1241.4 Q1539.37 1239.18 1534.57 1239.18 Q1531.51 1239.18 1528.61 1239.91 Q1525.72 1240.64 1523.04 1242.11 L1523.04 1236.69 Q1526.26 1235.45 1529.28 1234.85 Q1532.31 1234.21 1535.17 1234.21 Q1542.91 1234.21 1546.72 1238.22 Q1550.54 1242.23 1550.54 1250.38 Z" fill="#000000" fill-rule="evenodd" fill-opacity="1" /><path clip-path="url(#clip310)" d="M1562.61 1221.19 L1568.46 1221.19 L1568.46 1270.72 L1562.61 1270.72 L1562.61 1221.19 Z" fill="#000000" fill-rule="evenodd" fill-opacity="1" /><path clip-path="url(#clip310)" d="M1627.09 1236.44 L1627.09 1241.91 Q1624.61 1240.55 1622.09 1239.88 Q1619.61 1239.18 1617.07 1239.18 Q1611.37 1239.18 1608.22 1242.81 Q1605.07 1246.4 1605.07 1252.93 Q1605.07 1259.45 1608.22 1263.08 Q1611.37 1266.68 1617.07 1266.68 Q1619.61 1266.68 1622.09 1266.01 Q1624.61 1265.31 1627.09 1263.94 L1627.09 1269.35 Q1624.64 1270.5 1622 1271.07 Q1619.39 1271.64 1616.43 1271.64 Q1608.38 1271.64 1603.63 1266.58 Q1598.89 1261.52 1598.89 1252.93 Q1598.89 1244.21 1603.67 1239.21 Q1608.47 1234.21 1616.81 1234.21 Q1619.52 1234.21 1622.09 1234.78 Q1624.67 1235.33 1627.09 1236.44 Z" fill="#000000" fill-rule="evenodd" fill-opacity="1" /><path clip-path="url(#clip310)" d="M1651.09 1239.18 Q1646.38 1239.18 1643.64 1242.87 Q1640.91 1246.53 1640.91 1252.93 Q1640.91 1259.32 1643.61 1263.02 Q1646.35 1266.68 1651.09 1266.68 Q1655.77 1266.68 1658.51 1262.98 Q1661.24 1259.29 1661.24 1252.93 Q1661.24 1246.59 1658.51 1242.9 Q1655.77 1239.18 1651.09 1239.18 M1651.09 1234.21 Q1658.73 1234.21 1663.09 1239.18 Q1667.45 1244.14 1667.45 1252.93 Q1667.45 1261.68 1663.09 1266.68 Q1658.73 1271.64 1651.09 1271.64 Q1643.42 1271.64 1639.06 1266.68 Q1634.73 1261.68 1634.73 1252.93 Q1634.73 1244.14 1639.06 1239.18 Q1643.42 1234.21 1651.09 1234.21 Z" fill="#000000" fill-rule="evenodd" fill-opacity="1" /><path clip-path="url(#clip310)" d="M1704.91 1241.91 Q1707.11 1237.97 1710.16 1236.09 Q1713.22 1234.21 1717.36 1234.21 Q1722.93 1234.21 1725.95 1238.13 Q1728.97 1242.01 1728.97 1249.2 L1728.97 1270.72 L1723.09 1270.72 L1723.09 1249.39 Q1723.09 1244.27 1721.27 1241.79 Q1719.46 1239.3 1715.73 1239.3 Q1711.18 1239.3 1708.54 1242.33 Q1705.9 1245.35 1705.9 1250.57 L1705.9 1270.72 L1700.01 1270.72 L1700.01 1249.39 Q1700.01 1244.24 1698.2 1241.79 Q1696.38 1239.3 1692.59 1239.3 Q1688.11 1239.3 1685.47 1242.36 Q1682.82 1245.38 1682.82 1250.57 L1682.82 1270.72 L1676.94 1270.72 L1676.94 1235.07 L1682.82 1235.07 L1682.82 1240.61 Q1684.83 1237.33 1687.63 1235.77 Q1690.43 1234.21 1694.28 1234.21 Q1698.16 1234.21 1700.87 1236.19 Q1703.61 1238.16 1704.91 1241.91 Z" fill="#000000" fill-rule="evenodd" fill-opacity="1" /><path clip-path="url(#clip310)" d="M1746.32 1265.37 L1746.32 1284.28 L1740.43 1284.28 L1740.43 1235.07 L1746.32 1235.07 L1746.32 1240.48 Q1748.17 1237.3 1750.97 1235.77 Q1753.8 1234.21 1757.72 1234.21 Q1764.21 1234.21 1768.25 1239.37 Q1772.33 1244.52 1772.33 1252.93 Q1772.33 1261.33 1768.25 1266.49 Q1764.21 1271.64 1757.72 1271.64 Q1753.8 1271.64 1750.97 1270.11 Q1748.17 1268.55 1746.32 1265.37 M1766.25 1252.93 Q1766.25 1246.47 1763.57 1242.81 Q1760.93 1239.11 1756.28 1239.11 Q1751.64 1239.11 1748.96 1242.81 Q1746.32 1246.47 1746.32 1252.93 Q1746.32 1259.39 1748.96 1263.08 Q1751.64 1266.74 1756.28 1266.74 Q1760.93 1266.74 1763.57 1263.08 Q1766.25 1259.39 1766.25 1252.93 Z" fill="#000000" fill-rule="evenodd" fill-opacity="1" /><path clip-path="url(#clip310)" d="M1782.86 1262.63 L1789.58 1262.63 L1789.58 1270.72 L1782.86 1270.72 L1782.86 1262.63 Z" fill="#000000" fill-rule="evenodd" fill-opacity="1" /><path clip-path="url(#clip310)" d="M1825.42 1265.31 L1835.92 1265.31 L1835.92 1229.06 L1824.49 1231.35 L1824.49 1225.49 L1835.86 1223.2 L1842.28 1223.2 L1842.28 1265.31 L1852.79 1265.31 L1852.79 1270.72 L1825.42 1270.72 L1825.42 1265.31 Z" fill="#000000" fill-rule="evenodd" fill-opacity="1" /><polyline clip-path="url(#clip313)" style="stroke:#000000; stroke-linecap:round; stroke-linejoin:round; stroke-width:2; stroke-opacity:0.1; fill:none" points="1988.06,1151.18 1514.24,1014.4 1514.24,540.583 "/>
<polyline clip-path="url(#clip313)" style="stroke:#000000; stroke-linecap:round; stroke-linejoin:round; stroke-width:2; stroke-opacity:0.1; fill:none" points="2073.76,1076.96 1599.94,940.181 1599.94,466.363 "/>
<polyline clip-path="url(#clip313)" style="stroke:#000000; stroke-linecap:round; stroke-linejoin:round; stroke-width:2; stroke-opacity:0.1; fill:none" points="2159.46,1002.74 1685.64,865.961 1685.64,392.143 "/>
<polyline clip-path="url(#clip310)" style="stroke:#000000; stroke-linecap:round; stroke-linejoin:round; stroke-width:4; stroke-opacity:1; fill:none" points="1979.07,1158.96 2252.63,922.056 "/>
<polyline clip-path="url(#clip310)" style="stroke:#000000; stroke-linecap:round; stroke-linejoin:round; stroke-width:4; stroke-opacity:1; fill:none" points="1988.06,1151.18 1982.37,1149.54 "/>
<polyline clip-path="url(#clip310)" style="stroke:#000000; stroke-linecap:round; stroke-linejoin:round; stroke-width:4; stroke-opacity:1; fill:none" points="2073.76,1076.96 2068.07,1075.32 "/>
<polyline clip-path="url(#clip310)" style="stroke:#000000; stroke-linecap:round; stroke-linejoin:round; stroke-width:4; stroke-opacity:1; fill:none" points="2159.46,1002.74 2153.77,1001.1 "/>
<path clip-path="url(#clip310)" d="M2007.66 1172.73 L2037.34 1172.73 L2037.34 1176.66 L2007.66 1176.66 L2007.66 1172.73 Z" fill="#000000" fill-rule="evenodd" fill-opacity="1" /><path clip-path="url(#clip310)" d="M2048.24 1185.62 L2055.88 1185.62 L2055.88 1159.26 L2047.57 1160.92 L2047.57 1156.66 L2055.83 1155 L2060.51 1155 L2060.51 1185.62 L2068.15 1185.62 L2068.15 1189.56 L2048.24 1189.56 L2048.24 1185.62 Z" fill="#000000" fill-rule="evenodd" fill-opacity="1" /><path clip-path="url(#clip310)" d="M2105.31 1083.86 Q2101.7 1083.86 2099.87 1087.42 Q2098.06 1090.96 2098.06 1098.09 Q2098.06 1105.2 2099.87 1108.76 Q2101.7 1112.31 2105.31 1112.31 Q2108.94 1112.31 2110.75 1108.76 Q2112.58 1105.2 2112.58 1098.09 Q2112.58 1090.96 2110.75 1087.42 Q2108.94 1083.86 2105.31 1083.86 M2105.31 1080.15 Q2111.12 1080.15 2114.17 1084.76 Q2117.25 1089.34 2117.25 1098.09 Q2117.25 1106.82 2114.17 1111.43 Q2111.12 1116.01 2105.31 1116.01 Q2099.5 1116.01 2096.42 1111.43 Q2093.36 1106.82 2093.36 1098.09 Q2093.36 1089.34 2096.42 1084.76 Q2099.5 1080.15 2105.31 1080.15 Z" fill="#000000" fill-rule="evenodd" fill-opacity="1" /><path clip-path="url(#clip310)" d="M2179.74 1037.18 L2187.38 1037.18 L2187.38 1010.82 L2179.06 1012.48 L2179.06 1008.22 L2187.33 1006.56 L2192 1006.56 L2192 1037.18 L2199.64 1037.18 L2199.64 1041.12 L2179.74 1041.12 L2179.74 1037.18 Z" fill="#000000" fill-rule="evenodd" fill-opacity="1" /><path clip-path="url(#clip310)" d="M2030.81 1186.06 L2030.81 1191.59 Q2028.33 1190.32 2025.65 1189.69 Q2022.98 1189.05 2020.11 1189.05 Q2015.75 1189.05 2013.56 1190.39 Q2011.39 1191.72 2011.39 1194.4 Q2011.39 1196.43 2012.95 1197.61 Q2014.51 1198.76 2019.22 1199.81 L2021.23 1200.25 Q2027.47 1201.59 2030.08 1204.04 Q2032.72 1206.46 2032.72 1210.82 Q2032.72 1215.78 2028.77 1218.68 Q2024.86 1221.58 2017.98 1221.58 Q2015.12 1221.58 2012 1221 Q2008.91 1220.46 2005.47 1219.35 L2005.47 1213.3 Q2008.72 1214.99 2011.87 1215.85 Q2015.02 1216.68 2018.11 1216.68 Q2022.25 1216.68 2024.47 1215.28 Q2026.7 1213.84 2026.7 1211.26 Q2026.7 1208.88 2025.08 1207.6 Q2023.49 1206.33 2018.05 1205.15 L2016.01 1204.68 Q2010.57 1203.53 2008.15 1201.18 Q2005.73 1198.79 2005.73 1194.65 Q2005.73 1189.62 2009.29 1186.88 Q2012.86 1184.15 2019.41 1184.15 Q2022.66 1184.15 2025.53 1184.62 Q2028.39 1185.1 2030.81 1186.06 Z" fill="#000000" fill-rule="evenodd" fill-opacity="1" /><path clip-path="url(#clip310)" d="M2042.04 1185.01 L2047.9 1185.01 L2047.9 1220.65 L2042.04 1220.65 L2042.04 1185.01 M2042.04 1171.13 L2047.9 1171.13 L2047.9 1178.55 L2042.04 1178.55 L2042.04 1171.13 Z" fill="#000000" fill-rule="evenodd" fill-opacity="1" /><path clip-path="url(#clip310)" d="M2083.61 1202.42 Q2083.61 1196.05 2080.97 1192.55 Q2078.36 1189.05 2073.62 1189.05 Q2068.91 1189.05 2066.27 1192.55 Q2063.66 1196.05 2063.66 1202.42 Q2063.66 1208.75 2066.27 1212.25 Q2068.91 1215.75 2073.62 1215.75 Q2078.36 1215.75 2080.97 1212.25 Q2083.61 1208.75 2083.61 1202.42 M2089.47 1216.23 Q2089.47 1225.33 2085.43 1229.76 Q2081.38 1234.21 2073.05 1234.21 Q2069.96 1234.21 2067.22 1233.74 Q2064.48 1233.29 2061.91 1232.34 L2061.91 1226.64 Q2064.48 1228.04 2067 1228.71 Q2069.51 1229.38 2072.12 1229.38 Q2077.88 1229.38 2080.75 1226.35 Q2083.61 1223.36 2083.61 1217.28 L2083.61 1214.38 Q2081.8 1217.54 2078.97 1219.09 Q2076.13 1220.65 2072.19 1220.65 Q2065.63 1220.65 2061.62 1215.66 Q2057.61 1210.66 2057.61 1202.42 Q2057.61 1194.14 2061.62 1189.14 Q2065.63 1184.15 2072.19 1184.15 Q2076.13 1184.15 2078.97 1185.71 Q2081.8 1187.27 2083.61 1190.42 L2083.61 1185.01 L2089.47 1185.01 L2089.47 1216.23 Z" fill="#000000" fill-rule="evenodd" fill-opacity="1" /><path clip-path="url(#clip310)" d="M2131.16 1199.14 L2131.16 1220.65 L2125.31 1220.65 L2125.31 1199.33 Q2125.31 1194.27 2123.33 1191.75 Q2121.36 1189.24 2117.41 1189.24 Q2112.67 1189.24 2109.93 1192.26 Q2107.2 1195.29 2107.2 1200.51 L2107.2 1220.65 L2101.31 1220.65 L2101.31 1185.01 L2107.2 1185.01 L2107.2 1190.54 Q2109.3 1187.33 2112.13 1185.74 Q2115 1184.15 2118.72 1184.15 Q2124.86 1184.15 2128.01 1187.97 Q2131.16 1191.75 2131.16 1199.14 Z" fill="#000000" fill-rule="evenodd" fill-opacity="1" /><path clip-path="url(#clip310)" d="M2159.05 1202.73 Q2151.95 1202.73 2149.21 1204.36 Q2146.47 1205.98 2146.47 1209.9 Q2146.47 1213.02 2148.51 1214.86 Q2150.58 1216.68 2154.11 1216.68 Q2158.98 1216.68 2161.91 1213.24 Q2164.87 1209.77 2164.87 1204.04 L2164.87 1202.73 L2159.05 1202.73 M2170.73 1200.32 L2170.73 1220.65 L2164.87 1220.65 L2164.87 1215.24 Q2162.87 1218.49 2159.87 1220.05 Q2156.88 1221.58 2152.55 1221.58 Q2147.08 1221.58 2143.83 1218.52 Q2140.62 1215.43 2140.62 1210.28 Q2140.62 1204.26 2144.63 1201.21 Q2148.67 1198.15 2156.66 1198.15 L2164.87 1198.15 L2164.87 1197.58 Q2164.87 1193.54 2162.2 1191.34 Q2159.55 1189.11 2154.75 1189.11 Q2151.69 1189.11 2148.8 1189.84 Q2145.9 1190.58 2143.23 1192.04 L2143.23 1186.63 Q2146.44 1185.39 2149.47 1184.78 Q2152.49 1184.15 2155.35 1184.15 Q2163.09 1184.15 2166.91 1188.16 Q2170.73 1192.17 2170.73 1200.32 Z" fill="#000000" fill-rule="evenodd" fill-opacity="1" /><path clip-path="url(#clip310)" d="M2182.79 1171.13 L2188.65 1171.13 L2188.65 1220.65 L2182.79 1220.65 L2182.79 1171.13 Z" fill="#000000" fill-rule="evenodd" fill-opacity="1" /><path clip-path="url(#clip310)" d="M2247.27 1186.38 L2247.27 1191.85 Q2244.79 1190.48 2242.28 1189.81 Q2239.79 1189.11 2237.25 1189.11 Q2231.55 1189.11 2228.4 1192.74 Q2225.25 1196.34 2225.25 1202.86 Q2225.25 1209.39 2228.4 1213.02 Q2231.55 1216.61 2237.25 1216.61 Q2239.79 1216.61 2242.28 1215.94 Q2244.79 1215.24 2247.27 1213.87 L2247.27 1219.29 Q2244.82 1220.43 2242.18 1221 Q2239.57 1221.58 2236.61 1221.58 Q2228.56 1221.58 2223.82 1216.52 Q2219.07 1211.46 2219.07 1202.86 Q2219.07 1194.14 2223.85 1189.14 Q2228.65 1184.15 2236.99 1184.15 Q2239.7 1184.15 2242.28 1184.72 Q2244.86 1185.26 2247.27 1186.38 Z" fill="#000000" fill-rule="evenodd" fill-opacity="1" /><path clip-path="url(#clip310)" d="M2271.27 1189.11 Q2266.56 1189.11 2263.83 1192.8 Q2261.09 1196.46 2261.09 1202.86 Q2261.09 1209.26 2263.79 1212.95 Q2266.53 1216.61 2271.27 1216.61 Q2275.95 1216.61 2278.69 1212.92 Q2281.43 1209.23 2281.43 1202.86 Q2281.43 1196.53 2278.69 1192.84 Q2275.95 1189.11 2271.27 1189.11 M2271.27 1184.15 Q2278.91 1184.15 2283.27 1189.11 Q2287.63 1194.08 2287.63 1202.86 Q2287.63 1211.62 2283.27 1216.61 Q2278.91 1221.58 2271.27 1221.58 Q2263.6 1221.58 2259.24 1216.61 Q2254.91 1211.62 2254.91 1202.86 Q2254.91 1194.08 2259.24 1189.11 Q2263.6 1184.15 2271.27 1184.15 Z" fill="#000000" fill-rule="evenodd" fill-opacity="1" /><path clip-path="url(#clip310)" d="M2325.1 1191.85 Q2327.29 1187.9 2330.35 1186.02 Q2333.4 1184.15 2337.54 1184.15 Q2343.11 1184.15 2346.13 1188.06 Q2349.16 1191.95 2349.16 1199.14 L2349.16 1220.65 L2343.27 1220.65 L2343.27 1199.33 Q2343.27 1194.2 2341.46 1191.72 Q2339.64 1189.24 2335.92 1189.24 Q2331.37 1189.24 2328.72 1192.26 Q2326.08 1195.29 2326.08 1200.51 L2326.08 1220.65 L2320.19 1220.65 L2320.19 1199.33 Q2320.19 1194.17 2318.38 1191.72 Q2316.57 1189.24 2312.78 1189.24 Q2308.29 1189.24 2305.65 1192.3 Q2303.01 1195.32 2303.01 1200.51 L2303.01 1220.65 L2297.12 1220.65 L2297.12 1185.01 L2303.01 1185.01 L2303.01 1190.54 Q2305.01 1187.27 2307.81 1185.71 Q2310.61 1184.15 2314.46 1184.15 Q2318.35 1184.15 2321.05 1186.12 Q2323.79 1188.09 2325.1 1191.85 Z" fill="#000000" fill-rule="evenodd" fill-opacity="1" /><path clip-path="url(#clip310)" d="M2366.5 1215.31 L2366.5 1234.21 L2360.62 1234.21 L2360.62 1185.01 L2366.5 1185.01 L2366.5 1190.42 Q2368.35 1187.23 2371.15 1185.71 Q2373.98 1184.15 2377.9 1184.15 Q2384.39 1184.15 2388.43 1189.3 Q2392.51 1194.46 2392.51 1202.86 Q2392.51 1211.26 2388.43 1216.42 Q2384.39 1221.58 2377.9 1221.58 Q2373.98 1221.58 2371.15 1220.05 Q2368.35 1218.49 2366.5 1215.31 M2386.43 1202.86 Q2386.43 1196.4 2383.76 1192.74 Q2381.11 1189.05 2376.47 1189.05 Q2371.82 1189.05 2369.15 1192.74 Q2366.5 1196.4 2366.5 1202.86 Q2366.5 1209.32 2369.15 1213.02 Q2371.82 1216.68 2376.47 1216.68 Q2381.11 1216.68 2383.76 1213.02 Q2386.43 1209.32 2386.43 1202.86 Z" fill="#000000" fill-rule="evenodd" fill-opacity="1" /><path clip-path="url(#clip310)" d="M2403.04 1212.57 L2409.76 1212.57 L2409.76 1220.65 L2403.04 1220.65 L2403.04 1212.57 Z" fill="#000000" fill-rule="evenodd" fill-opacity="1" /><path clip-path="url(#clip310)" d="M2450.02 1215.24 L2472.46 1215.24 L2472.46 1220.65 L2442.29 1220.65 L2442.29 1215.24 Q2445.95 1211.46 2452.25 1205.09 Q2458.58 1198.69 2460.21 1196.85 Q2463.29 1193.38 2464.5 1190.99 Q2465.75 1188.57 2465.75 1186.25 Q2465.75 1182.46 2463.07 1180.07 Q2460.43 1177.69 2456.17 1177.69 Q2453.14 1177.69 2449.77 1178.74 Q2446.43 1179.79 2442.61 1181.92 L2442.61 1175.43 Q2446.49 1173.87 2449.86 1173.07 Q2453.24 1172.27 2456.04 1172.27 Q2463.42 1172.27 2467.81 1175.97 Q2472.21 1179.66 2472.21 1185.83 Q2472.21 1188.76 2471.09 1191.4 Q2470.01 1194.01 2467.11 1197.58 Q2466.32 1198.5 2462.05 1202.93 Q2457.79 1207.32 2450.02 1215.24 Z" fill="#000000" fill-rule="evenodd" fill-opacity="1" /><polyline clip-path="url(#clip313)" style="stroke:#000000; stroke-linecap:round; stroke-linejoin:round; stroke-width:2; stroke-opacity:0.1; fill:none" points="1505.25,1015.16 1778.81,778.252 2252.63,915.032 "/>
<polyline clip-path="url(#clip313)" style="stroke:#000000; stroke-linecap:round; stroke-linejoin:round; stroke-width:2; stroke-opacity:0.1; fill:none" points="1505.25,887.448 1778.81,650.539 2252.63,787.318 "/>
<polyline clip-path="url(#clip313)" style="stroke:#000000; stroke-linecap:round; stroke-linejoin:round; stroke-width:2; stroke-opacity:0.1; fill:none" points="1505.25,759.734 1778.81,522.825 2252.63,659.605 "/>
<polyline clip-path="url(#clip313)" style="stroke:#000000; stroke-linecap:round; stroke-linejoin:round; stroke-width:2; stroke-opacity:0.1; fill:none" points="1505.25,632.02 1778.81,395.112 2252.63,531.891 "/>
<polyline clip-path="url(#clip310)" style="stroke:#000000; stroke-linecap:round; stroke-linejoin:round; stroke-width:4; stroke-opacity:1; fill:none" points="1505.25,1022.19 1505.25,548.368 "/>
<polyline clip-path="url(#clip310)" style="stroke:#000000; stroke-linecap:round; stroke-linejoin:round; stroke-width:4; stroke-opacity:1; fill:none" points="1505.25,1015.16 1508.53,1012.32 "/>
<polyline clip-path="url(#clip310)" style="stroke:#000000; stroke-linecap:round; stroke-linejoin:round; stroke-width:4; stroke-opacity:1; fill:none" points="1505.25,887.448 1508.53,884.605 "/>
<polyline clip-path="url(#clip310)" style="stroke:#000000; stroke-linecap:round; stroke-linejoin:round; stroke-width:4; stroke-opacity:1; fill:none" points="1505.25,759.734 1508.53,756.891 "/>
<polyline clip-path="url(#clip310)" style="stroke:#000000; stroke-linecap:round; stroke-linejoin:round; stroke-width:4; stroke-opacity:1; fill:none" points="1505.25,632.02 1508.53,629.177 "/>
<path clip-path="url(#clip310)" d="M1464.51 1000.96 Q1460.89 1000.96 1459.07 1004.52 Q1457.26 1008.07 1457.26 1015.2 Q1457.26 1022.3 1459.07 1025.87 Q1460.89 1029.41 1464.51 1029.41 Q1468.14 1029.41 1469.95 1025.87 Q1471.77 1022.3 1471.77 1015.2 Q1471.77 1008.07 1469.95 1004.52 Q1468.14 1000.96 1464.51 1000.96 M1464.51 997.256 Q1470.32 997.256 1473.37 1001.86 Q1476.45 1006.45 1476.45 1015.2 Q1476.45 1023.92 1473.37 1028.53 Q1470.32 1033.11 1464.51 1033.11 Q1458.7 1033.11 1455.62 1028.53 Q1452.56 1023.92 1452.56 1015.2 Q1452.56 1006.45 1455.62 1001.86 Q1458.7 997.256 1464.51 997.256 Z" fill="#000000" fill-rule="evenodd" fill-opacity="1" /><path clip-path="url(#clip310)" d="M1428.37 900.792 L1444.69 900.792 L1444.69 904.728 L1422.75 904.728 L1422.75 900.792 Q1425.41 898.038 1429.99 893.408 Q1434.6 888.755 1435.78 887.413 Q1438.02 884.89 1438.9 883.154 Q1439.81 881.394 1439.81 879.705 Q1439.81 876.95 1437.86 875.214 Q1435.94 873.478 1432.84 873.478 Q1430.64 873.478 1428.19 874.242 Q1425.76 875.005 1422.98 876.556 L1422.98 871.834 Q1425.8 870.7 1428.26 870.121 Q1430.71 869.543 1432.75 869.543 Q1438.12 869.543 1441.31 872.228 Q1444.51 874.913 1444.51 879.404 Q1444.51 881.533 1443.7 883.455 Q1442.91 885.353 1440.8 887.945 Q1440.22 888.617 1437.12 891.834 Q1434.02 895.029 1428.37 900.792 Z" fill="#000000" fill-rule="evenodd" fill-opacity="1" /><path clip-path="url(#clip310)" d="M1464.51 873.246 Q1460.89 873.246 1459.07 876.811 Q1457.26 880.353 1457.26 887.482 Q1457.26 894.589 1459.07 898.154 Q1460.89 901.695 1464.51 901.695 Q1468.14 901.695 1469.95 898.154 Q1471.77 894.589 1471.77 887.482 Q1471.77 880.353 1469.95 876.811 Q1468.14 873.246 1464.51 873.246 M1464.51 869.543 Q1470.32 869.543 1473.37 874.149 Q1476.45 878.732 1476.45 887.482 Q1476.45 896.209 1473.37 900.816 Q1470.32 905.399 1464.51 905.399 Q1458.7 905.399 1455.62 900.816 Q1452.56 896.209 1452.56 887.482 Q1452.56 878.732 1455.62 874.149 Q1458.7 869.543 1464.51 869.543 Z" fill="#000000" fill-rule="evenodd" fill-opacity="1" /><path clip-path="url(#clip310)" d="M1437.19 746.528 L1425.39 764.977 L1437.19 764.977 L1437.19 746.528 M1435.96 742.454 L1441.84 742.454 L1441.84 764.977 L1446.77 764.977 L1446.77 768.866 L1441.84 768.866 L1441.84 777.014 L1437.19 777.014 L1437.19 768.866 L1421.59 768.866 L1421.59 764.352 L1435.96 742.454 Z" fill="#000000" fill-rule="evenodd" fill-opacity="1" /><path clip-path="url(#clip310)" d="M1464.51 745.533 Q1460.89 745.533 1459.07 749.097 Q1457.26 752.639 1457.26 759.769 Q1457.26 766.875 1459.07 770.44 Q1460.89 773.982 1464.51 773.982 Q1468.14 773.982 1469.95 770.44 Q1471.77 766.875 1471.77 759.769 Q1471.77 752.639 1469.95 749.097 Q1468.14 745.533 1464.51 745.533 M1464.51 741.829 Q1470.32 741.829 1473.37 746.435 Q1476.45 751.019 1476.45 759.769 Q1476.45 768.495 1473.37 773.102 Q1470.32 777.685 1464.51 777.685 Q1458.7 777.685 1455.62 773.102 Q1452.56 768.495 1452.56 759.769 Q1452.56 751.019 1455.62 746.435 Q1458.7 741.829 1464.51 741.829 Z" fill="#000000" fill-rule="evenodd" fill-opacity="1" /><path clip-path="url(#clip310)" d="M1434.92 630.157 Q1431.77 630.157 1429.92 632.31 Q1428.09 634.462 1428.09 638.212 Q1428.09 641.939 1429.92 644.115 Q1431.77 646.268 1434.92 646.268 Q1438.07 646.268 1439.9 644.115 Q1441.75 641.939 1441.75 638.212 Q1441.75 634.462 1439.9 632.31 Q1438.07 630.157 1434.92 630.157 M1444.21 615.504 L1444.21 619.763 Q1442.45 618.93 1440.64 618.49 Q1438.86 618.051 1437.1 618.051 Q1432.47 618.051 1430.02 621.176 Q1427.58 624.3 1427.24 630.62 Q1428.6 628.606 1430.66 627.541 Q1432.72 626.453 1435.2 626.453 Q1440.41 626.453 1443.42 629.625 Q1446.45 632.773 1446.45 638.212 Q1446.45 643.536 1443.3 646.754 Q1440.15 649.972 1434.92 649.972 Q1428.93 649.972 1425.76 645.388 Q1422.58 640.782 1422.58 632.055 Q1422.58 623.861 1426.47 619 Q1430.36 614.115 1436.91 614.115 Q1438.67 614.115 1440.46 614.463 Q1442.26 614.81 1444.21 615.504 Z" fill="#000000" fill-rule="evenodd" fill-opacity="1" /><path clip-path="url(#clip310)" d="M1464.51 617.819 Q1460.89 617.819 1459.07 621.384 Q1457.26 624.925 1457.26 632.055 Q1457.26 639.162 1459.07 642.726 Q1460.89 646.268 1464.51 646.268 Q1468.14 646.268 1469.95 642.726 Q1471.77 639.162 1471.77 632.055 Q1471.77 624.925 1469.95 621.384 Q1468.14 617.819 1464.51 617.819 M1464.51 614.115 Q1470.32 614.115 1473.37 618.722 Q1476.45 623.305 1476.45 632.055 Q1476.45 640.782 1473.37 645.388 Q1470.32 649.972 1464.51 649.972 Q1458.7 649.972 1455.62 645.388 Q1452.56 640.782 1452.56 632.055 Q1452.56 623.305 1455.62 618.722 Q1458.7 614.115 1464.51 614.115 Z" fill="#000000" fill-rule="evenodd" fill-opacity="1" /><path clip-path="url(#clip310)" d="M1328.49 870.307 L1328.49 864.45 L1364.13 864.45 L1364.13 870.307 L1328.49 870.307 M1314.61 870.307 L1314.61 864.45 L1322.02 864.45 L1322.02 870.307 L1314.61 870.307 Z" fill="#000000" fill-rule="evenodd" fill-opacity="1" /><path clip-path="url(#clip310)" d="M1342.62 822.564 L1364.13 822.564 L1364.13 828.42 L1342.81 828.42 Q1337.75 828.42 1335.23 830.394 Q1332.72 832.367 1332.72 836.314 Q1332.72 841.056 1335.74 843.793 Q1338.77 846.531 1343.99 846.531 L1364.13 846.531 L1364.13 852.419 L1328.49 852.419 L1328.49 846.531 L1334.02 846.531 Q1330.81 844.43 1329.22 841.597 Q1327.63 838.733 1327.63 835.009 Q1327.63 828.866 1331.45 825.715 Q1335.23 822.564 1342.62 822.564 Z" fill="#000000" fill-rule="evenodd" fill-opacity="1" /><path clip-path="url(#clip310)" d="M1333.9 787.425 L1314.61 787.425 L1314.61 781.569 L1364.13 781.569 L1364.13 787.425 L1358.79 787.425 Q1361.97 789.271 1363.53 792.104 Q1365.06 794.905 1365.06 798.852 Q1365.06 805.313 1359.9 809.387 Q1354.74 813.429 1346.34 813.429 Q1337.94 813.429 1332.78 809.387 Q1327.63 805.313 1327.63 798.852 Q1327.63 794.905 1329.19 792.104 Q1330.71 789.271 1333.9 787.425 M1346.34 807.382 Q1352.8 807.382 1356.49 804.74 Q1360.16 802.066 1360.16 797.419 Q1360.16 792.772 1356.49 790.099 Q1352.8 787.425 1346.34 787.425 Q1339.88 787.425 1336.22 790.099 Q1332.53 792.772 1332.53 797.419 Q1332.53 802.066 1336.22 804.74 Q1339.88 807.382 1346.34 807.382 Z" fill="#000000" fill-rule="evenodd" fill-opacity="1" /><path clip-path="url(#clip310)" d="M1344.85 739.014 L1347.71 739.014 L1347.71 765.941 Q1353.76 765.559 1356.94 762.312 Q1360.09 759.034 1360.09 753.209 Q1360.09 749.836 1359.26 746.685 Q1358.44 743.502 1356.78 740.383 L1362.32 740.383 Q1363.66 743.534 1364.36 746.844 Q1365.06 750.154 1365.06 753.56 Q1365.06 762.09 1360.09 767.087 Q1355.13 772.052 1346.66 772.052 Q1337.91 772.052 1332.78 767.341 Q1327.63 762.599 1327.63 754.578 Q1327.63 747.385 1332.27 743.215 Q1336.89 739.014 1344.85 739.014 M1343.13 744.87 Q1338.32 744.934 1335.46 747.576 Q1332.59 750.186 1332.59 754.514 Q1332.59 759.416 1335.36 762.376 Q1338.13 765.304 1343.16 765.75 L1343.13 744.87 Z" fill="#000000" fill-rule="evenodd" fill-opacity="1" /><path clip-path="url(#clip310)" d="M1328.49 700.915 L1345.83 713.806 L1364.13 700.247 L1364.13 707.154 L1350.13 717.53 L1364.13 727.906 L1364.13 734.813 L1345.48 720.967 L1328.49 733.635 L1328.49 726.728 L1341.19 717.275 L1328.49 707.822 L1328.49 700.915 Z" fill="#000000" fill-rule="evenodd" fill-opacity="1" /><polyline clip-path="url(#clip313)" style="stroke:#e26f46; stroke-linecap:round; stroke-linejoin:round; stroke-width:12; stroke-opacity:1; fill:none" points="1935.27,924.112 1951.45,921.791 1959.64,919.425 1970.78,919.475 1978.03,918.612 1986.78,917.519 1995.57,918.209 1999.17,917.611 2007.65,917.077 2008.96,918.487 2012.95,920.318 2016.93,920.918 2015.03,924.536 2010.83,924.103 2010.72,924.146 2003.56,925.495 2000.05,926.141 1992.34,926.99 1987.06,927.592 1979.67,927.619 1965.4,927.666 1955.04,926.366 1944.82,925.421 1931.18,922.939 1918.98,920.077 1903.86,916.127 1892.39,912.901 1877.72,910.209 1862.81,905.127 1848.63,897.937 1838.18,893.699 1819.43,884.166 1804.78,875.85 1790.82,868.439 1778.75,859.652 1764.94,851.304 1752.39,838.891 1743.4,830.027 1733.36,815.902 1721.14,805.712 1713.83,791.801 1705.09,781.428 1698.95,768.601 1694.59,754.381 1691.92,741.906 1688.28,726.917 1688.3,713.794 1689.55,699.876 1688.43,684.951 1697.5,671.259 1700.8,657.817 1701.18,645.075 1710.15,630.889 1719.45,616.679 1723.69,604.449 1734.31,592.323 1746.33,580.081 1756.27,569.859 1775.21,557.05 1785.96,546.987 1795.48,538.401 1809.67,529.706 1828.29,521.361 1836.25,514.277 1848.71,506.774 1868.36,500.774 1881.91,494.663 1894.17,488.632 1913.62,485.546 1925.76,481.445 1940.23,478.461 "/>
<polyline clip-path="url(#clip313)" style="stroke:#009af9; stroke-linecap:round; stroke-linejoin:round; stroke-width:4; stroke-opacity:1; fill:none" points="1935.61,925.509 1954.65,925.119 1954.65,918.734 1970.15,918.609 1982.84,920.084 1982.84,913.698 1996.57,918.456 2003.53,921.345 2003.53,914.96 2010.63,919.513 2013.69,923.314 2013.69,916.929 2012.7,923.634 2012.7,917.248 2012.7,910.863 2082.38,935.175 2071.92,938.944 2061.98,944.081 2057.12,947.529 1972.98,931.29 1972.98,924.905 1955.02,925.744 1937.52,927.921 1937.52,921.535 1917.62,920.293 1897.51,918.846 1897.51,912.461 1877.22,908.834 1854.12,903.87 1854.12,897.484 1835.61,893.206 1814.58,884.001 1814.58,877.615 1789.63,869.699 1771.7,858.152 1771.7,851.766 1754.95,839.198 1736.06,825.674 1736.06,819.289 1720.52,804.722 1711.31,791.285 1711.31,784.899 1697,768.387 1691.21,750.734 1691.21,744.348 1690.81,726.387 1688.55,709.772 1688.55,703.386 1691.95,685.809 1697.56,666.908 1697.56,660.522 1703.54,643.845 1712.43,627.551 1723.55,612.034 1723.55,605.649 1741,589.795 1741,583.409 1741,577.023 1741,570.638 1741,564.252 1699.75,472.675 1733.32,458.571 1775.15,444.595 1800.65,432.491 1837.46,424.023 1879.97,417.197 1912.02,412.885 1946.32,408.889 1989,407.274 2017.85,409.199 2048.47,413.272 "/>
</svg>
